<?xml version="1.0" encoding="UTF-8" standalone="no"?>
<!-- Created with Inkscape (http://www.inkscape.org/) -->

<svg
   width="150"
   height="150"
   viewBox="0 0 150 150"
   version="1.1"
   id="svg1"
   inkscape:version="1.4.2 (f4327f4, 2025-05-13)"
   sodipodi:docname="Candy.svg"
   xml:space="preserve"
   xmlns:inkscape="http://www.inkscape.org/namespaces/inkscape"
   xmlns:sodipodi="http://sodipodi.sourceforge.net/DTD/sodipodi-0.dtd"
   xmlns="http://www.w3.org/2000/svg"
   xmlns:svg="http://www.w3.org/2000/svg"><sodipodi:namedview
     id="namedview1"
     pagecolor="#204226"
     bordercolor="#000000"
     borderopacity="0.25"
     inkscape:showpageshadow="2"
     inkscape:pageopacity="0.0"
     inkscape:pagecheckerboard="0"
     inkscape:deskcolor="#d1d1d1"
     inkscape:document-units="px"
     inkscape:zoom="4.5166667"
     inkscape:cx="66.309963"
     inkscape:cy="90.442804"
     inkscape:window-width="1920"
     inkscape:window-height="1094"
     inkscape:window-x="-11"
     inkscape:window-y="-11"
     inkscape:window-maximized="1"
     inkscape:current-layer="svg1" /><defs
     id="defs1"><inkscape:path-effect
       effect="fillet_chamfer"
       id="path-effect26"
       is_visible="true"
       lpeversion="1"
       nodesatellites_param="F,0,0,1,0,0,0,1 @ F,0,0,1,0,0,0,1 @ F,0,0,1,0,0,0,1 @ F,0,0,1,0,0,0,1 @ F,0,0,1,0,0,0,1 @ F,0,0,1,0,0,0,1 @ F,0,0,1,0,0,0,1 | F,0,0,1,0,0,0,1 @ F,0,0,1,0,0,0,1 @ F,0,0,1,0,0,0,1 @ F,0,0,1,0,0,0,1 @ F,0,0,1,0,0,0,1 @ F,0,0,1,0,0,0,1 @ F,0,0,1,0,0,0,1 | F,0,0,1,0,0,0,1 @ F,0,0,1,0,0,0,1 @ F,0,0,1,0,0,0,1 @ F,0,0,1,0,0,0,1 @ F,0,0,1,0,0,0,1 @ F,0,0,1,0,0,0,1 @ F,0,0,1,0,0,0,1 @ F,0,0,1,0,0,0,1 @ F,0,0,1,0,0,0,1 | F,0,0,1,0,0,0,1 @ F,0,0,1,0,0,0,1 @ F,0,0,1,0,0,0,1 @ F,0,0,1,0,0,0,1 @ F,0,0,1,0,0,0,1 @ F,0,0,1,0,0,0,1 @ F,0,0,1,0,0,0,1 @ F,0,0,1,0,0,0,1 @ F,0,0,1,0,0,0,1 | F,0,0,1,0,0,0,1 @ F,0,0,1,0,0,0,1 @ F,0,0,1,0,0,0,1 @ F,0,0,1,0,0,0,1 @ F,0,0,1,0,0,0,1 @ F,0,0,1,0,0,0,1 @ F,0,0,1,0,0,0,1 | F,0,0,1,0,0,0,1 @ F,0,0,1,0,0,0,1 @ F,0,0,1,0,0,0,1 @ F,0,0,1,0,0,0,1 @ F,0,0,1,0,0,0,1 @ F,0,0,1,0,0,0,1 @ F,0,0,1,0,0,0,1"
       radius="0"
       unit="px"
       method="auto"
       mode="F"
       chamfer_steps="1"
       flexible="false"
       use_knot_distance="true"
       apply_no_radius="true"
       apply_with_radius="true"
       only_selected="false"
       hide_knots="false" /><inkscape:path-effect
       effect="fillet_chamfer"
       id="path-effect24"
       is_visible="true"
       lpeversion="1"
       nodesatellites_param="F,0,0,1,0,0.26458332,0,1 @ F,0,0,1,0,0.26458332,0,1 @ F,0,0,1,0,0.26458332,0,1"
       radius="1"
       unit="px"
       method="auto"
       mode="F"
       chamfer_steps="1"
       flexible="false"
       use_knot_distance="true"
       apply_no_radius="true"
       apply_with_radius="true"
       only_selected="false"
       hide_knots="false" /><inkscape:path-effect
       effect="fillet_chamfer"
       id="path-effect22"
       is_visible="true"
       lpeversion="1"
       nodesatellites_param="F,0,0,1,0,0.26458332,0,1 @ F,0,0,1,0,0.26458332,0,1 @ F,0,0,1,0,0.26458332,0,1 @ F,0,0,1,0,0.26458332,0,1"
       radius="1"
       unit="px"
       method="auto"
       mode="F"
       chamfer_steps="1"
       flexible="false"
       use_knot_distance="true"
       apply_no_radius="true"
       apply_with_radius="true"
       only_selected="false"
       hide_knots="false" /><inkscape:path-effect
       effect="fillet_chamfer"
       id="path-effect21"
       is_visible="true"
       lpeversion="1"
       nodesatellites_param="F,0,0,1,0,0.26458332,0,1 @ F,0,0,1,0,0.26458332,0,1 @ F,0,0,1,0,0.26458332,0,1"
       radius="1"
       unit="px"
       method="auto"
       mode="F"
       chamfer_steps="1"
       flexible="false"
       use_knot_distance="true"
       apply_no_radius="true"
       apply_with_radius="true"
       only_selected="false"
       hide_knots="false" /><inkscape:path-effect
       effect="fillet_chamfer"
       id="path-effect20"
       is_visible="true"
       lpeversion="1"
       nodesatellites_param="F,0,0,1,0,0.26458332,0,1 @ F,0,0,1,0,0.26458332,0,1 @ F,0,0,1,0,0.26458332,0,1"
       radius="1"
       unit="px"
       method="auto"
       mode="F"
       chamfer_steps="1"
       flexible="false"
       use_knot_distance="true"
       apply_no_radius="true"
       apply_with_radius="true"
       only_selected="false"
       hide_knots="false" /><inkscape:path-effect
       effect="fillet_chamfer"
       id="path-effect18"
       is_visible="true"
       lpeversion="1"
       nodesatellites_param="F,0,0,1,0,0.26458332,0,1 @ F,0,0,1,0,0.26458332,0,1 @ F,0,0,1,0,0.26458332,0,1 @ F,0,0,1,0,0.26458332,0,1"
       radius="1"
       unit="px"
       method="auto"
       mode="F"
       chamfer_steps="1"
       flexible="false"
       use_knot_distance="true"
       apply_no_radius="true"
       apply_with_radius="true"
       only_selected="false"
       hide_knots="false" /><inkscape:path-effect
       effect="fillet_chamfer"
       id="path-effect17"
       is_visible="true"
       lpeversion="1"
       nodesatellites_param="F,0,0,1,0,0.26458332,0,1 @ F,0,0,1,0,0.26458332,0,1 @ F,0,0,1,0,0.26458332,0,1"
       radius="1"
       unit="px"
       method="auto"
       mode="F"
       chamfer_steps="1"
       flexible="false"
       use_knot_distance="true"
       apply_no_radius="true"
       apply_with_radius="true"
       only_selected="false"
       hide_knots="false" /><inkscape:path-effect
       effect="spiro"
       id="path-effect25"
       is_visible="true"
       lpeversion="1" /><inkscape:path-effect
       effect="bend_path"
       id="path-effect23"
       is_visible="true"
       lpeversion="1"
       bendpath="m 23.197417,74.70664 c 5.824811,5.968642 11.280875,4.193583 16.621771,0"
       prop_scale="1"
       scale_y_rel="false"
       vertical="false"
       hide_knot="false"
       bendpath-nodetypes="cc" /><inkscape:path-effect
       effect="fillet_chamfer"
       id="path-effect19"
       is_visible="true"
       lpeversion="1"
       nodesatellites_param="F,0,0,1,0,13.610823,0,1 @ F,0,0,1,0,7.6181396,0,1 @ F,0,0,1,0,0,0,1 @ F,0,0,1,0,0,0,1 @ F,0,0,1,0,0,0,1 @ F,0,0,1,0,0,0,1 @ F,0,0,1,0,0,0,1 @ F,0,0,1,0,0,0,1 @ F,0,0,1,0,0,0,1 @ F,0,0,1,0,0,0,1 @ F,0,0,1,0,0,0,1 @ F,0,0,1,0,0,0,1 @ F,0,0,1,0,0,0,1 @ F,0,0,1,0,0,0,1 @ F,0,0,1,0,0,0,1 @ F,0,0,1,0,0,0,1 @ F,0,0,1,0,9.8086838,0,1"
       radius="0"
       unit="px"
       method="auto"
       mode="F"
       chamfer_steps="1"
       flexible="false"
       use_knot_distance="true"
       apply_no_radius="true"
       apply_with_radius="true"
       only_selected="false"
       hide_knots="false" /><inkscape:path-effect
       effect="bend_path"
       id="path-effect4"
       is_visible="true"
       lpeversion="1"
       bendpath="m 54.047818,159.58759 c 27.052641,-62.939937 12.72201,-53.95868 38.795563,0.36532"
       prop_scale="0.99302976"
       scale_y_rel="false"
       vertical="false"
       hide_knot="false"
       bendpath-nodetypes="cc" /><inkscape:path-effect
       effect="bend_path"
       id="path-effect3"
       is_visible="true"
       lpeversion="1"
       bendpath="M 48.302799,161.04885 H 141.16478"
       prop_scale="1"
       scale_y_rel="false"
       vertical="false"
       hide_knot="false" /><inkscape:path-effect
       effect="fillet_chamfer"
       id="path-effect19-5"
       is_visible="true"
       lpeversion="1"
       nodesatellites_param="F,0,0,1,0,13.610823,0,1 @ F,0,0,1,0,7.6181396,0,1 @ F,0,0,1,0,0,0,1 @ F,0,0,1,0,0,0,1 @ F,0,0,1,0,0,0,1 @ F,0,0,1,0,0,0,1 @ F,0,0,1,0,0,0,1 @ F,0,0,1,0,0,0,1 @ F,0,0,1,0,0,0,1 @ F,0,0,1,0,0,0,1 @ F,0,0,1,0,0,0,1 @ F,0,0,1,0,0,0,1 @ F,0,0,1,0,0,0,1 @ F,0,0,1,0,0,0,1 @ F,0,0,1,0,0,0,1 @ F,0,0,1,0,0,0,1 @ F,0,0,1,0,9.8086838,0,1"
       radius="0"
       unit="px"
       method="auto"
       mode="F"
       chamfer_steps="1"
       flexible="false"
       use_knot_distance="true"
       apply_no_radius="true"
       apply_with_radius="true"
       only_selected="false"
       hide_knots="false" /></defs><rect
     style="fill:#f0ece1;stroke-width:0.9;stroke-linejoin:round"
     id="rect1"
     width="131.07011"
     height="131.07011"
     x="9.4649429"
     y="9.4649429"
     ry="0.99151504" /><g
     id="g29"
     inkscape:label="Sukkerstok"
     transform="matrix(0.76429921,0,0,0.76429921,69.198582,-45.046644)"
     style="display:inline"><path
       style="font-variation-settings:'wdth' 87, 'wght' 600;display:inline;opacity:1;fill:none;fill-opacity:1;stroke:#f6ede4;stroke-width:15.7319;stroke-linecap:round;stroke-linejoin:miter;stroke-dasharray:none;stroke-opacity:1"
       d="m -26.39048,198.30904 v -87.32417 c 0,-30.725392 -40.046759,-30.589468 -40.046759,0 v 13.62701"
       id="path28"
       sodipodi:nodetypes="cccc"
       transform="translate(46.335471,12.415552)" /><path
       id="path29"
       style="font-variation-settings:'wdth' 87, 'wght' 600;display:inline;opacity:1;fill:#a11d1d;fill-opacity:1;stroke:none;stroke-width:0.786592;stroke-linecap:round;stroke-linejoin:miter;stroke-dasharray:none;stroke-opacity:1"
       d="m -47.12813,80.143652 c -3.568111,0.107918 -7.100256,1.011606 -10.390088,2.584057 0.889113,1.972671 1.743075,4.023678 2.561034,6.171395 1.046246,2.749888 2.03075,5.515622 2.972767,8.137852 1.377495,-0.661689 2.870795,-1.009822 4.381567,-1.127669 0.151026,-2.679965 0.319015,-5.487647 0.428631,-8.306834 0.09903,-2.567914 0.123288,-5.057461 0.04608,-7.458801 z m 12.888136,3.097188 c -1.10355,2.301538 -2.375514,4.642824 -3.751677,7.025583 -1.255387,2.171887 -2.538282,4.286307 -3.783942,6.351109 1.53755,0.557755 2.957445,1.470301 4.144974,2.831432 1.813591,-1.280683 3.655151,-2.573737 5.504613,-3.932969 2.319364,-1.705759 4.516393,-3.423736 6.529332,-5.17736 -2.455117,-2.987872 -5.410177,-5.379163 -8.6433,-7.097795 z m -33.179766,7.335899 c -2.020192,2.508663 -3.685436,5.423223 -4.873185,8.689395 1.830685,0.5692 3.6848,1.184506 5.582962,1.874286 3.081981,1.12122 6.070844,2.29007 8.929057,3.41372 0.452691,-1.63432 1.083203,-2.99141 1.851258,-4.10505 -2.191161,-1.958719 -4.498101,-4.044094 -6.870394,-6.094536 -1.553895,-1.342168 -3.090077,-2.589736 -4.619698,-3.777815 z m 47.728655,11.354901 c -2.701313,0.84685 -5.571926,1.60165 -8.564948,2.28602 -2.198448,0.50193 -4.383205,0.95491 -6.523187,1.38884 0.328907,1.56021 0.52081,3.33259 0.52081,5.37863 v 0.94329 c 2.196373,0.088 4.446693,0.14657 6.744419,0.14746 3.085617,2.4e-4 6.112004,-0.0889 8.990505,-0.24438 v -0.84652 c 0,-3.22576 -0.418184,-6.24922 -1.167599,-9.05349 z m -51.63089,8.65253 c -1.006724,0.006 -1.987131,0.0434 -2.97123,0.0752 -9.51e-4,0.1094 -0.0077,0.21583 -0.0077,0.32568 v 7.50949 c 1.943277,-0.0669 3.920409,-0.11237 5.933244,-0.11208 3.383551,0.001 6.685935,0.11089 9.797072,0.29804 v -7.69539 c 0,-0.0238 0.0015,-0.0431 0.0015,-0.066 -3.107418,-0.14121 -6.480932,-0.28362 -9.797075,-0.32568 -0.992771,-0.0119 -1.979335,-0.0149 -2.955866,-0.009 z m 52.798489,10.70963 c -2.878501,0.15549 -5.904888,0.24438 -8.990505,0.24438 -2.297738,-9.2e-4 -4.548043,-0.0598 -6.744419,-0.14746 v 7.78449 c 2.196373,0.0877 4.446693,0.14656 6.744419,0.14746 3.085617,2e-4 6.112004,-0.0889 8.990505,-0.24438 z m 0,17.24667 c -2.878501,0.15548 -5.904888,0.24438 -8.990505,0.24438 -2.297738,-9.6e-4 -4.548043,-0.0598 -6.744419,-0.14746 v 7.78451 c 2.196373,0.0877 4.446693,0.14657 6.744419,0.14746 3.085617,2.1e-4 6.112004,-0.0889 8.990505,-0.24437 z m 0,17.24664 c -2.878501,0.15548 -5.904888,0.24437 -8.990505,0.24437 -2.297738,-9.5e-4 -4.548043,-0.0597 -6.744419,-0.14745 v 7.78448 c 2.196373,0.0877 4.446693,0.14657 6.744419,0.14746 3.085617,2.1e-4 6.112004,-0.0889 8.990505,-0.24438 z m 0,17.24667 c -2.878501,0.15548 -5.904888,0.24437 -8.990505,0.24437 -2.297738,-9.2e-4 -4.548043,-0.0598 -6.744419,-0.14746 v 7.78452 c 2.196373,0.0877 4.446693,0.14657 6.744419,0.14746 3.085617,2.1e-4 6.112004,-0.0889 8.990505,-0.24438 z m 0,17.24663 c -2.878501,0.15549 -5.904888,0.24438 -8.990505,0.24438 -2.297738,-9.5e-4 -4.548043,-0.0598 -6.744419,-0.14746 v 7.78452 c 2.196373,0.0877 4.446693,0.14656 6.744419,0.14746 3.085617,2.3e-4 6.112004,-0.0886 8.990505,-0.24438 z"
       transform="translate(46.335471,12.415552)" /></g></svg>
