<?xml version="1.0" encoding="UTF-8" standalone="no"?>
<!-- Created with Inkscape (http://www.inkscape.org/) -->

<svg
   width="38"
   height="38"
   viewBox="0 0 10.054166 10.054166"
   version="1.1"
   id="svg1"
   sodipodi:docname="door11.svg"
   inkscape:version="1.4.2 (f4327f4, 2025-05-13)"
   xmlns:inkscape="http://www.inkscape.org/namespaces/inkscape"
   xmlns:sodipodi="http://sodipodi.sourceforge.net/DTD/sodipodi-0.dtd"
   xmlns="http://www.w3.org/2000/svg"
   xmlns:svg="http://www.w3.org/2000/svg">
  <sodipodi:namedview
     id="namedview1"
     pagecolor="#ffffff"
     bordercolor="#000000"
     borderopacity="0.25"
     inkscape:showpageshadow="2"
     inkscape:pageopacity="0.0"
     inkscape:pagecheckerboard="0"
     inkscape:deskcolor="#d1d1d1"
     inkscape:zoom="10.697368"
     inkscape:cx="0.37392375"
     inkscape:cy="18.182043"
     inkscape:window-width="1920"
     inkscape:window-height="1094"
     inkscape:window-x="-11"
     inkscape:window-y="-11"
     inkscape:window-maximized="1"
     inkscape:current-layer="svg1" />
  <defs
     id="defs1">
    <inkscape:path-effect
       effect="offset"
       id="path-effect17"
       is_visible="true"
       lpeversion="1.3"
       linejoin_type="round"
       unit="px"
       offset="1.1"
       miter_limit="4"
       attempt_force_join="false"
       update_on_knot_move="true" />
    <inkscape:path-effect
       effect="fillet_chamfer"
       id="path-effect41"
       is_visible="true"
       lpeversion="1"
       nodesatellites_param="F,0,0,1,0,0,0,1 @ F,0,0,1,0,0,0,1 @ F,0,0,1,0,0,0,1 @ F,0,0,1,0,0,0,1 @ F,0,0,1,0,0,0,1 @ F,0,0,1,0,0,0,1 @ F,0,0,1,0,0,0,1 @ F,0,0,1,0,0,0,1 @ F,0,0,1,0,0,0,1 @ F,0,0,1,0,0,0,1 @ F,0,0,1,0,0,0,1 @ F,0,0,1,0,0,0,1"
       radius="0"
       unit="px"
       method="auto"
       mode="F"
       chamfer_steps="1"
       flexible="false"
       use_knot_distance="true"
       apply_no_radius="true"
       apply_with_radius="true"
       only_selected="false"
       hide_knots="false" />
    <inkscape:path-effect
       effect="fillet_chamfer"
       id="path-effect43"
       is_visible="true"
       lpeversion="1"
       nodesatellites_param="F,0,0,1,0,0,0,1 @ F,0,0,1,0,0,0,1 @ F,0,0,1,0,0,0,1 @ F,0,0,1,0,0,0,1 @ F,0,0,1,0,0,0,1 @ F,0,0,1,0,0,0,1 @ F,0,0,1,0,0,0,1 @ F,0,0,1,0,0,0,1 @ F,0,0,1,0,0,0,1 @ F,0,0,1,0,0,0,1 @ F,0,0,1,0,0,0,1 @ F,0,0,1,0,0,0,1"
       radius="0"
       unit="px"
       method="auto"
       mode="F"
       chamfer_steps="1"
       flexible="false"
       use_knot_distance="true"
       apply_no_radius="true"
       apply_with_radius="true"
       only_selected="false"
       hide_knots="false" />
    <inkscape:path-effect
       effect="fillet_chamfer"
       id="path-effect45"
       is_visible="true"
       lpeversion="1"
       nodesatellites_param="F,0,0,1,0,0,0,1 @ F,0,0,1,0,0,0,1 @ F,0,0,1,0,0,0,1 @ F,0,0,1,0,0,0,1 @ F,0,0,1,0,0,0,1 @ F,0,0,1,0,0,0,1 @ F,0,0,1,0,0,0,1 @ F,0,0,1,0,0,0,1 @ F,0,0,1,0,0,0,1 @ F,0,0,1,0,0,0,1 @ F,0,0,1,0,0,0,1 @ F,0,0,1,0,0,0,1"
       radius="0"
       unit="px"
       method="auto"
       mode="F"
       chamfer_steps="1"
       flexible="false"
       use_knot_distance="true"
       apply_no_radius="true"
       apply_with_radius="true"
       only_selected="false"
       hide_knots="false" />
    <inkscape:path-effect
       effect="fillet_chamfer"
       id="path-effect55"
       is_visible="true"
       lpeversion="1"
       nodesatellites_param="F,0,0,1,0,0,0,1 @ F,0,0,1,0,0,0,1 @ F,0,0,1,0,0,0,1 @ F,0,0,1,0,0,0,1 @ F,0,0,1,0,0,0,1 @ F,0,0,1,0,0,0,1 @ F,0,0,1,0,0,0,1 @ F,0,0,1,0,0,0,1 @ F,0,0,1,0,0,0,1 @ F,0,0,1,0,0,0,1 @ F,0,0,1,0,0,0,1 @ F,0,0,1,0,0,0,1"
       radius="0"
       unit="px"
       method="auto"
       mode="F"
       chamfer_steps="1"
       flexible="false"
       use_knot_distance="true"
       apply_no_radius="true"
       apply_with_radius="true"
       only_selected="false"
       hide_knots="false" />
    <inkscape:path-effect
       effect="fillet_chamfer"
       id="path-effect57"
       is_visible="true"
       lpeversion="1"
       nodesatellites_param="F,0,0,1,0,0,0,1 @ F,0,0,1,0,0,0,1 @ F,0,0,1,0,0,0,1 @ F,0,0,1,0,0,0,1 @ F,0,0,1,0,0,0,1 @ F,0,0,1,0,0,0,1 @ F,0,0,1,0,0,0,1 @ F,0,0,1,0,0,0,1 @ F,0,0,1,0,0,0,1 @ F,0,0,1,0,0,0,1 @ F,0,0,1,0,0,0,1 @ F,0,0,1,0,0,0,1"
       radius="0"
       unit="px"
       method="auto"
       mode="F"
       chamfer_steps="1"
       flexible="false"
       use_knot_distance="true"
       apply_no_radius="true"
       apply_with_radius="true"
       only_selected="false"
       hide_knots="false" />
    <inkscape:path-effect
       effect="fillet_chamfer"
       id="path-effect59"
       is_visible="true"
       lpeversion="1"
       nodesatellites_param="F,0,0,1,0,0,0,1 @ F,0,0,1,0,0,0,1 @ F,0,0,1,0,0,0,1 @ F,0,0,1,0,0,0,1 @ F,0,0,1,0,0,0,1 @ F,0,0,1,0,0,0,1 @ F,0,0,1,0,0,0,1 @ F,0,0,1,0,0,0,1 @ F,0,0,1,0,0,0,1 @ F,0,0,1,0,0,0,1 @ F,0,0,1,0,0,0,1 @ F,0,0,1,0,0,0,1"
       radius="0"
       unit="px"
       method="auto"
       mode="F"
       chamfer_steps="1"
       flexible="false"
       use_knot_distance="true"
       apply_no_radius="true"
       apply_with_radius="true"
       only_selected="false"
       hide_knots="false" />
    <inkscape:path-effect
       effect="fillet_chamfer"
       id="path-effect61"
       is_visible="true"
       lpeversion="1"
       nodesatellites_param="F,0,0,1,0,0,0,1 @ F,0,0,1,0,0,0,1 @ F,0,0,1,0,0,0,1 @ F,0,0,1,0,0,0,1 @ F,0,0,1,0,0,0,1 @ F,0,0,1,0,0,0,1 @ F,0,0,1,0,0,0,1 @ F,0,0,1,0,0,0,1 @ F,0,0,1,0,0,0,1 @ F,0,0,1,0,0,0,1 @ F,0,0,1,0,0,0,1 @ F,0,0,1,0,0,0,1"
       radius="0"
       unit="px"
       method="auto"
       mode="F"
       chamfer_steps="1"
       flexible="false"
       use_knot_distance="true"
       apply_no_radius="true"
       apply_with_radius="true"
       only_selected="false"
       hide_knots="false" />
    <inkscape:path-effect
       effect="fillet_chamfer"
       id="path-effect63"
       is_visible="true"
       lpeversion="1"
       nodesatellites_param="F,0,0,1,0,0,0,1 @ F,0,0,1,0,0,0,1 @ F,0,0,1,0,0,0,1 @ F,0,0,1,0,0,0,1 @ F,0,0,1,0,0,0,1 @ F,0,0,1,0,0,0,1 @ F,0,0,1,0,0,0,1 @ F,0,0,1,0,0,0,1 @ F,0,0,1,0,0,0,1 @ F,0,0,1,0,0,0,1 @ F,0,0,1,0,0,0,1 @ F,0,0,1,0,0,0,1"
       radius="0"
       unit="px"
       method="auto"
       mode="F"
       chamfer_steps="1"
       flexible="false"
       use_knot_distance="true"
       apply_no_radius="true"
       apply_with_radius="true"
       only_selected="false"
       hide_knots="false" />
    <inkscape:path-effect
       effect="fillet_chamfer"
       id="path-effect65"
       is_visible="true"
       lpeversion="1"
       nodesatellites_param="F,0,0,1,0,0,0,1 @ F,0,0,1,0,0,0,1 @ F,0,0,1,0,0,0,1 @ F,0,0,1,0,0,0,1 @ F,0,0,1,0,0,0,1 @ F,0,0,1,0,0,0,1 @ F,0,0,1,0,0,0,1 @ F,0,0,1,0,0,0,1 @ F,0,0,1,0,0,0,1 @ F,0,0,1,0,0,0,1 @ F,0,0,1,0,0,0,1 @ F,0,0,1,0,0,0,1"
       radius="0"
       unit="px"
       method="auto"
       mode="F"
       chamfer_steps="1"
       flexible="false"
       use_knot_distance="true"
       apply_no_radius="true"
       apply_with_radius="true"
       only_selected="false"
       hide_knots="false" />
    <inkscape:path-effect
       effect="fillet_chamfer"
       id="path-effect67"
       is_visible="true"
       lpeversion="1"
       nodesatellites_param="F,0,0,1,0,0,0,1 @ F,0,0,1,0,0,0,1 @ F,0,0,1,0,0,0,1 @ F,0,0,1,0,0,0,1 @ F,0,0,1,0,0,0,1 @ F,0,0,1,0,0,0,1 @ F,0,0,1,0,0,0,1 @ F,0,0,1,0,0,0,1 @ F,0,0,1,0,0,0,1 @ F,0,0,1,0,0,0,1 @ F,0,0,1,0,0,0,1 @ F,0,0,1,0,0,0,1"
       radius="0"
       unit="px"
       method="auto"
       mode="F"
       chamfer_steps="1"
       flexible="false"
       use_knot_distance="true"
       apply_no_radius="true"
       apply_with_radius="true"
       only_selected="false"
       hide_knots="false" />
    <inkscape:path-effect
       effect="fillet_chamfer"
       id="path-effect12"
       is_visible="true"
       lpeversion="1"
       nodesatellites_param="F,0,0,1,0,0,0,1 @ F,0,0,1,0,0,0,1 @ F,0,0,1,0,0,0,1 @ F,0,0,1,0,0,0,1 @ F,0,0,1,0,0,0,1 @ F,0,0,1,0,0,0,1 @ F,0,0,1,0,0,0,1 @ F,0,0,1,0,0,0,1 @ F,0,0,1,0,0,0,1 @ F,0,0,1,0,0,0,1 @ F,0,0,1,0,0,0,1 @ F,0,0,1,0,0,0,1"
       radius="0"
       unit="px"
       method="auto"
       mode="F"
       chamfer_steps="1"
       flexible="false"
       use_knot_distance="true"
       apply_no_radius="true"
       apply_with_radius="true"
       only_selected="false"
       hide_knots="false" />
    <inkscape:path-effect
       effect="fillet_chamfer"
       id="path-effect16"
       is_visible="true"
       lpeversion="1"
       nodesatellites_param="F,0,0,1,0,0,0,1 @ F,0,0,1,0,0,0,1 @ F,0,0,1,0,0,0,1 @ F,0,0,1,0,0,0,1 @ F,0,0,1,0,0,0,1 @ F,0,0,1,0,0,0,1 @ F,0,0,1,0,0,0,1 @ F,0,0,1,0,0,0,1 @ F,0,0,1,0,0,0,1 @ F,0,0,1,0,0,0,1 @ F,0,0,1,0,0,0,1 @ F,0,0,1,0,0,0,1"
       radius="0"
       unit="px"
       method="auto"
       mode="F"
       chamfer_steps="1"
       flexible="false"
       use_knot_distance="true"
       apply_no_radius="true"
       apply_with_radius="true"
       only_selected="false"
       hide_knots="false" />
    <inkscape:path-effect
       effect="fillet_chamfer"
       id="path-effect30"
       is_visible="true"
       lpeversion="1"
       nodesatellites_param="F,0,0,1,0,0,0,1 @ F,0,0,1,0,0,0,1 @ F,0,0,1,0,0,0,1 @ F,0,0,1,0,0,0,1 @ F,0,0,1,0,0,0,1 @ F,0,0,1,0,0,0,1 @ F,0,0,1,0,0,0,1 @ F,0,0,1,0,0,0,1 @ F,0,0,1,0,0,0,1 @ F,0,0,1,0,0,0,1 @ F,0,0,1,0,0,0,1 @ F,0,0,1,0,0,0,1"
       radius="0"
       unit="px"
       method="auto"
       mode="F"
       chamfer_steps="1"
       flexible="false"
       use_knot_distance="true"
       apply_no_radius="true"
       apply_with_radius="true"
       only_selected="false"
       hide_knots="false" />
    <inkscape:path-effect
       effect="fillet_chamfer"
       id="path-effect34"
       is_visible="true"
       lpeversion="1"
       nodesatellites_param="F,0,0,1,0,0,0,1 @ F,0,0,1,0,0,0,1 @ F,0,0,1,0,0,0,1 @ F,0,0,1,0,0,0,1 @ F,0,0,1,0,0,0,1 @ F,0,0,1,0,0,0,1 @ F,0,0,1,0,0,0,1 @ F,0,0,1,0,0,0,1 @ F,0,0,1,0,0,0,1 @ F,0,0,1,0,0,0,1 @ F,0,0,1,0,0,0,1 @ F,0,0,1,0,0,0,1"
       radius="0"
       unit="px"
       method="auto"
       mode="F"
       chamfer_steps="1"
       flexible="false"
       use_knot_distance="true"
       apply_no_radius="true"
       apply_with_radius="true"
       only_selected="false"
       hide_knots="false" />
    <inkscape:path-effect
       effect="fillet_chamfer"
       id="path-effect38"
       is_visible="true"
       lpeversion="1"
       nodesatellites_param="F,0,0,1,0,0,0,1 @ F,0,0,1,0,0,0,1 @ F,0,0,1,0,0,0,1 @ F,0,0,1,0,0,0,1 @ F,0,0,1,0,0,0,1 @ F,0,0,1,0,0,0,1 @ F,0,0,1,0,0,0,1 @ F,0,0,1,0,0,0,1 @ F,0,0,1,0,0,0,1 @ F,0,0,1,0,0,0,1 @ F,0,0,1,0,0,0,1 @ F,0,0,1,0,0,0,1"
       radius="0"
       unit="px"
       method="auto"
       mode="F"
       chamfer_steps="1"
       flexible="false"
       use_knot_distance="true"
       apply_no_radius="true"
       apply_with_radius="true"
       only_selected="false"
       hide_knots="false" />
    <inkscape:path-effect
       effect="fillet_chamfer"
       id="path-effect42"
       is_visible="true"
       lpeversion="1"
       nodesatellites_param="F,0,0,1,0,0,0,1 @ F,0,0,1,0,0,0,1 @ F,0,0,1,0,0,0,1 @ F,0,0,1,0,0,0,1 @ F,0,0,1,0,0,0,1 @ F,0,0,1,0,0,0,1 @ F,0,0,1,0,0,0,1 @ F,0,0,1,0,0,0,1 @ F,0,0,1,0,0,0,1 @ F,0,0,1,0,0,0,1 @ F,0,0,1,0,0,0,1 @ F,0,0,1,0,0,0,1"
       radius="0"
       unit="px"
       method="auto"
       mode="F"
       chamfer_steps="1"
       flexible="false"
       use_knot_distance="true"
       apply_no_radius="true"
       apply_with_radius="true"
       only_selected="false"
       hide_knots="false" />
    <inkscape:path-effect
       effect="fillet_chamfer"
       id="path-effect46"
       is_visible="true"
       lpeversion="1"
       nodesatellites_param="F,0,0,1,0,0,0,1 @ F,0,0,1,0,0,0,1 @ F,0,0,1,0,0,0,1 @ F,0,0,1,0,0,0,1 @ F,0,0,1,0,0,0,1 @ F,0,0,1,0,0,0,1 @ F,0,0,1,0,0,0,1 @ F,0,0,1,0,0,0,1 @ F,0,0,1,0,0,0,1 @ F,0,0,1,0,0,0,1 @ F,0,0,1,0,0,0,1 @ F,0,0,1,0,0,0,1"
       radius="0"
       unit="px"
       method="auto"
       mode="F"
       chamfer_steps="1"
       flexible="false"
       use_knot_distance="true"
       apply_no_radius="true"
       apply_with_radius="true"
       only_selected="false"
       hide_knots="false" />
    <inkscape:path-effect
       effect="fillet_chamfer"
       id="path-effect48"
       is_visible="true"
       lpeversion="1"
       nodesatellites_param="F,0,0,1,0,0,0,1 @ F,0,0,1,0,0,0,1 @ F,0,0,1,0,0,0,1 @ F,0,0,1,0,0,0,1 @ F,0,0,1,0,0,0,1 @ F,0,0,1,0,0,0,1 @ F,0,0,1,0,0,0,1 @ F,0,0,1,0,0,0,1 @ F,0,0,1,0,0,0,1 @ F,0,0,1,0,0,0,1 @ F,0,0,1,0,0,0,1 @ F,0,0,1,0,0,0,1"
       radius="0"
       unit="px"
       method="auto"
       mode="F"
       chamfer_steps="1"
       flexible="false"
       use_knot_distance="true"
       apply_no_radius="true"
       apply_with_radius="true"
       only_selected="false"
       hide_knots="false" />
  </defs>
  <rect
     style="display:inline;fill:#f0ece1;fill-opacity:1;stroke:#741303;stroke-width:0.579845;stroke-linecap:round;stroke-linejoin:miter;stroke-dasharray:none;stroke-opacity:1"
     id="rect38"
     width="9.4743214"
     height="9.4743214"
     x="0.28992262"
     y="0.28992206"
     inkscape:export-filename="door1.svg"
     inkscape:export-xdpi="96"
     inkscape:export-ydpi="96" />
  <g
     id="g1"
     transform="translate(-0.06183374,-0.81620536)"
     inkscape:label="Julekugler">
    <g
       id="g16"
       transform="translate(2.960025,-0.62045918)">
      <path
         style="fill:none;stroke:#dfba62;stroke-width:0.0497876;stroke-linecap:round;stroke-linejoin:round;stroke-dasharray:none;stroke-opacity:1"
         d="m 2.1330708,2.7575927 c 0,0 -0.11949,-0.3262502 -0.049578,-0.4386392 0.034969,-0.056213 0.1274353,-0.057512 0.16127,0 0.070109,0.1191694 -0.069408,0.4500332 -0.069408,0.4500332"
         id="path1-2"
         sodipodi:nodetypes="caac" />
      <path
         id="path1"
         style="fill:#1b4a27;stroke-width:0.062652;stroke-linejoin:round"
         d="m 2.8779256,4.3058366 c -0.1223263,0.650408 -0.6980885,1.8248159 -0.6980885,1.8248159 0,0 -0.5969777,-1.1832564 -0.7243024,-1.8248159 -0.1012313,-0.5100818 0.1674442,-1.381763 0.7243024,-1.381763 0.5568579,0 0.7934689,0.8746231 0.6980885,1.381763 z"
         sodipodi:nodetypes="scsss" />
      <rect
         style="fill:#1b4a27;stroke:none;stroke-width:0.00542853;stroke-linejoin:round;stroke-dasharray:none;stroke-opacity:1"
         id="rect1"
         width="0.26896843"
         height="0.38013932"
         x="2.0223546"
         y="2.6720877"
         ry="0.016497059" />
      <path
         style="fill:none;stroke:#f0ece1;stroke-width:0.0733436;stroke-linecap:round;stroke-linejoin:round;stroke-opacity:1"
         d="M 1.9563573,3.0961933 C 2.0368586,3.0583081 1.7797896,3.1354064 1.6163469,3.7356226"
         id="path2"
         sodipodi:nodetypes="cc" />
      <path
         style="fill:#f6ede4;stroke:#f0ece1;stroke-width:0.0733436;stroke-linecap:round;stroke-linejoin:round;stroke-opacity:1"
         d="M 1.569845,3.9064331 1.586593,3.8415581"
         id="path3" />
      <path
         style="fill:none;stroke:#000000;stroke-width:0.0282018;stroke-linecap:butt;stroke-linejoin:round;stroke-dasharray:none;stroke-opacity:1"
         d="m 5.0641831,0.81898836 v -0.25020702 0"
         id="path17"
         transform="translate(-2.8981913,1.4366645)" />
    </g>
    <g
       id="g6"
       transform="translate(0,-0.02473345)"
       inkscape:label="Gu">
      <path
         id="path4"
         style="fill:#dfba62;stroke-width:0.062652;stroke-linejoin:round"
         d="m 2.8779256,4.3058366 c -0.1223263,0.650408 -0.6980885,1.8248159 -0.6980885,1.8248159 0,0 -0.5969777,-1.1832564 -0.7243024,-1.8248159 -0.1012313,-0.5100818 0.1674442,-1.381763 0.7243024,-1.381763 0.5568579,0 0.7934689,0.8746231 0.6980885,1.381763 z"
         sodipodi:nodetypes="scsss" />
      <rect
         style="fill:#dfba62;stroke:none;stroke-width:0.00542853;stroke-linejoin:round;stroke-dasharray:none;stroke-opacity:1"
         id="rect4"
         width="0.26896843"
         height="0.38013932"
         x="2.0223546"
         y="2.6720877"
         ry="0.016497059" />
      <path
         style="fill:none;stroke:#f0ece1;stroke-width:0.0733436;stroke-linecap:round;stroke-linejoin:round;stroke-opacity:1"
         d="M 1.9563573,3.0961933 C 2.0368586,3.0583081 1.7797896,3.1354064 1.6163469,3.7356226"
         id="path13"
         sodipodi:nodetypes="cc" />
      <path
         style="fill:#f6ede4;stroke:#f0ece1;stroke-width:0.0733436;stroke-linecap:round;stroke-linejoin:round;stroke-opacity:1"
         d="M 1.569845,3.9064331 1.586593,3.8415581"
         id="path14" />
      <path
         style="fill:none;stroke:#dfba62;stroke-width:0.0497876;stroke-linecap:round;stroke-linejoin:round;stroke-dasharray:none;stroke-opacity:1"
         d="m 2.1330708,2.7575927 c 0,0 -0.11949,-0.3262502 -0.049578,-0.4386392 0.034969,-0.056213 0.1274353,-0.057512 0.16127,0 0.070109,0.1191694 -0.069408,0.4500332 -0.069408,0.4500332"
         id="path15"
         sodipodi:nodetypes="caac" />
      <path
         style="fill:none;stroke:#000000;stroke-width:0.0529167;stroke-linecap:butt;stroke-linejoin:round;stroke-dasharray:none;stroke-opacity:1"
         d="m 2.0961636,1.4496925 v -0.88091116 0"
         id="path10"
         transform="translate(0.06183374,0.84093881)" />
    </g>
    <g
       id="g5"
       transform="translate(5.7206818,1.3356088)"
       inkscape:label="Rød">
      <path
         style="fill:none;stroke:#dfba62;stroke-width:0.0497876;stroke-linecap:round;stroke-linejoin:round;stroke-dasharray:none;stroke-opacity:1"
         d="m 2.1330708,2.7575927 c 0,0 -0.11949,-0.3262502 -0.049578,-0.4386392 0.034969,-0.056213 0.1274353,-0.057512 0.16127,0 0.070109,0.1191694 -0.069408,0.4500332 -0.069408,0.4500332"
         id="path16"
         sodipodi:nodetypes="caac" />
      <path
         id="path5"
         style="fill:#70161f;stroke-width:0.062652;stroke-linejoin:round"
         d="m 2.8779256,4.3058366 c -0.1223263,0.650408 -0.6980885,1.8248159 -0.6980885,1.8248159 0,0 -0.5969777,-1.1832564 -0.7243024,-1.8248159 -0.1012313,-0.5100818 0.1674442,-1.381763 0.7243024,-1.381763 0.5568579,0 0.7934689,0.8746231 0.6980885,1.381763 z"
         sodipodi:nodetypes="scsss" />
      <rect
         style="fill:#70161f;stroke:none;stroke-width:0.00542853;stroke-linejoin:round;stroke-dasharray:none;stroke-opacity:1"
         id="rect5"
         width="0.26896843"
         height="0.38013932"
         x="2.0223546"
         y="2.6720877"
         ry="0.016497059" />
      <path
         style="fill:none;stroke:#f0ece1;stroke-width:0.0733436;stroke-linecap:round;stroke-linejoin:round;stroke-opacity:1"
         d="M 1.9563573,3.0961933 C 2.0368586,3.0583081 1.7797896,3.1354064 1.6163469,3.7356226"
         id="path11"
         sodipodi:nodetypes="cc" />
      <path
         style="fill:#f6ede4;stroke:#f0ece1;stroke-width:0.0733436;stroke-linecap:round;stroke-linejoin:round;stroke-opacity:1"
         d="M 1.569845,3.9064331 1.586593,3.8415581"
         id="path12" />
      <path
         style="fill:none;stroke:#000000;stroke-width:0.0529167;stroke-linecap:butt;stroke-linejoin:round;stroke-dasharray:none;stroke-opacity:1"
         d="m 7.8219509,2.8109953 v -2.24277578 0"
         id="path10-8"
         transform="translate(-5.6588481,-0.51940344)" />
    </g>
  </g>
  <path
     style="font-size:8.08281px;font-family:'Californian FB';-inkscape-font-specification:'Californian FB, Normal';text-align:center;letter-spacing:-0.00275551px;word-spacing:-0.0247999px;text-anchor:middle;fill:#f0ece1;stroke-width:0.383254;stroke-linecap:round"
     d="m 4.0332031,2.5410156 a 0.29104165,0.29104165 0 0 0 -0.082031,0.011719 c -0.00559,0.00128 -0.01493,0.00355 -0.025391,0.00586 -0.030901,0.00683 -0.080933,0.017901 -0.1425782,0.03125 -0.08939,0.017527 -0.317304,0.033203 -0.6386718,0.033203 h -0.421875 c -0.061967,0 -0.1424525,0.017046 -0.2109375,0.070312 A 0.29104165,0.29104165 0 0 0 2.484375,2.71875 C 2.4305523,2.7725727 2.3828125,2.8570498 2.3828125,2.9609375 v 0.1230469 c 0,0.2021136 0.1553588,0.3378906 0.3398438,0.3378906 h 0.2988281 c 0.085389,0 0.1296578,0.015372 0.1445312,0.021484 0.00868,0.060594 0.019531,0.3126638 0.019531,0.6835937 0,0.019725 -0.00255,0.6313156 -0.00781,1.796875 -0.00331,0.7326551 -0.00685,1.4726158 -0.00781,1.7109375 H 2.6582031 c -0.08571,0 -0.1493726,0.03083 -0.1933593,0.0625 a 0.29104165,0.29104165 0 0 0 -0.029297,0.023437 c -0.00374,0.00349 -0.014771,0.015773 -0.029297,0.033203 A 0.29104165,0.29104165 0 0 0 2.3847656,7.78125 C 2.346317,7.8405703 2.328125,7.9043946 2.328125,7.9746094 v 0.1289062 c 0,0.073793 0.022049,0.1740951 0.1054688,0.2519532 a 0.29104165,0.29104165 0 0 0 0.029297,0.023437 c 0.026165,0.018838 0.095043,0.064453 0.1953125,0.064453 h 2.1601563 c 0.019765,0 0.050142,-0.00419 0.060547,-0.00586 a 0.29104165,0.29104165 0 0 0 0.027344,-0.00781 c 0.011519,-0.00332 0.00946,-1.964e-4 0.037109,-0.011719 a 0.29104165,0.29104165 0 0 0 0.021484,-0.00977 0.29104165,0.29104165 0 0 0 0.00391,-0.00195 0.29104165,0.29104165 0 0 0 0.00781,-0.00391 c 0.00883,-0.00492 0.020921,-0.012761 0.035156,-0.023437 a 0.29104165,0.29104165 0 0 0 0.03125,-0.027344 l 0.00195,-0.00195 a 0.29104165,0.29104165 0 0 0 0.021484,-0.023437 c 0.014026,-0.017533 0.022966,-0.029307 0.025391,-0.033203 a 0.29104165,0.29104165 0 0 0 0.013672,-0.029297 c 5.887e-4,-0.00123 0.00138,-0.00267 0.00195,-0.00391 0.016125,0.033276 0.03871,0.066208 0.070312,0.095703 a 0.29104165,0.29104165 0 0 0 0.029297,0.023437 c 0.026165,0.018838 0.095043,0.064453 0.1953125,0.064453 H 7.5625 c 0.019766,0 0.048189,-0.00419 0.058594,-0.00586 a 0.29104165,0.29104165 0 0 0 0.029297,-0.00781 c 0.011515,-0.00332 0.00945,-1.934e-4 0.037109,-0.011719 a 0.29104165,0.29104165 0 0 0 0.021484,-0.00977 0.29104165,0.29104165 0 0 0 0.00391,-0.00195 0.29104165,0.29104165 0 0 0 0.00781,-0.00391 c 0.00883,-0.00492 0.02092,-0.01276 0.035156,-0.023437 a 0.29104165,0.29104165 0 0 0 0.03125,-0.027344 l 0.00195,-0.00195 a 0.29104165,0.29104165 0 0 0 0.021484,-0.023437 c 0.014023,-0.017529 0.022964,-0.029303 0.025391,-0.033203 a 0.29104165,0.29104165 0 0 0 0.013672,-0.029297 c 0.023212,-0.04836 0.035156,-0.1021815 0.035156,-0.1523438 V 7.9667969 c 0,-0.045789 -0.00765,-0.110413 -0.046875,-0.1757813 a 0.29104165,0.29104165 0 0 0 -0.044922,-0.054687 v -0.00195 h -0.00195 c -0.00263,-0.0032 -0.01259,-0.015218 -0.033203,-0.03125 A 0.29104165,0.29104165 0 0 0 7.734375,7.6875 c 0,0 0,-0.00195 0,-0.00195 l -0.00195,-0.00195 c 0,0 -0.00195,0 -0.00195,0 -0.00661,-0.0041 -0.018053,-0.011757 -0.035156,-0.019531 a 0.29104165,0.29104165 0 0 0 -0.029297,-0.00977 C 7.6519505,7.6496085 7.6096583,7.6347656 7.5546875,7.6347656 H 7.0996094 c -6.717e-4,-0.00388 -0.00129,-0.00764 -0.00195,-0.011719 -0.022851,-0.1401719 -0.037109,-0.388386 -0.037109,-0.7226563 0,-0.083325 0.010215,-0.7884457 0.03125,-2.0664062 0.021271,-1.1510096 0.0331,-1.7862946 0.035156,-1.8964844 v -0.00391 -0.00195 -0.00391 -0.00195 -0.00195 a 0.29104165,0.29104165 0 0 0 0,-0.00977 c 0,-0.1722728 -0.108814,-0.3730469 -0.3496094,-0.3730469 a 0.29104165,0.29104165 0 0 0 -0.082031,0.011719 c -0.00559,0.00128 -0.01493,0.00355 -0.025391,0.00586 -0.030901,0.00683 -0.080933,0.017901 -0.1425782,0.03125 -0.08939,0.017527 -0.3173039,0.033203 -0.6386718,0.033203 h -0.421875 c -0.061967,0 -0.1424525,0.017046 -0.2109375,0.070312 A 0.29104165,0.29104165 0 0 0 5.2285156,2.71875 C 5.174693,2.7725727 5.1269531,2.8570498 5.1269531,2.9609375 v 0.1230469 c 0,0.2021136 0.1553589,0.3378906 0.3398438,0.3378906 H 5.765625 c 0.085389,0 0.1296579,0.015372 0.1445312,0.021484 0.00868,0.060594 0.019531,0.3126638 0.019531,0.6835937 0,0.019725 -0.00255,0.6313156 -0.00781,1.796875 -0.00331,0.7326551 -0.00685,1.4726158 -0.00781,1.7109375 H 5.4023437 c -0.08571,0 -0.1493726,0.03083 -0.1933593,0.0625 a 0.29104165,0.29104165 0 0 0 -0.029297,0.023437 c -0.00374,0.00349 -0.014771,0.015773 -0.029297,0.033203 A 0.29104165,0.29104165 0 0 0 5.1289062,7.78125 c -0.00775,0.011959 -0.015363,0.024769 -0.021484,0.037109 -0.00424,-0.00885 -0.00832,-0.018423 -0.013672,-0.027344 a 0.29104165,0.29104165 0 0 0 -0.044922,-0.054687 v -0.00195 h -0.00195 c -0.00263,-0.0032 -0.01259,-0.015218 -0.033203,-0.03125 A 0.29104165,0.29104165 0 0 0 4.9902344,7.6875 c 0,0 0,-0.00195 0,-0.00195 l -0.00195,-0.00195 c 0,0 -0.00195,0 -0.00195,0 -0.00661,-0.0041 -0.018053,-0.011757 -0.035156,-0.019531 A 0.29104165,0.29104165 0 0 0 4.921875,7.6542969 C 4.9078099,7.6496085 4.8655177,7.6347656 4.8105469,7.6347656 H 4.3554687 c -6.716e-4,-0.00388 -0.00129,-0.00764 -0.00195,-0.011719 -0.022851,-0.1401719 -0.037109,-0.388386 -0.037109,-0.7226563 10e-8,-0.083326 0.010214,-0.7884457 0.03125,-2.0664062 0.021271,-1.1510096 0.0331,-1.7862946 0.035156,-1.8964844 v -0.00391 -0.00195 -0.00391 -0.00195 -0.00195 a 0.29104165,0.29104165 0 0 0 0,-0.00977 c 0,-0.1722728 -0.108814,-0.3730469 -0.3496094,-0.3730469 z"
     id="text17"
     aria-label="11"
     inkscape:path-effect="#path-effect17"
     inkscape:original-d="m 4.8493779,8.1122084 q 0,0.039467 -0.031574,0.039467 H 2.6589678 q -0.039467,0 -0.039467,-0.04736 v -0.130241 q 0,-0.04736 0.039467,-0.04736 h 0.7182966 q 0.08288,0 0.08288,-0.213121 0,-0.043413 0.00789,-1.7878482 0.00789,-1.7483813 0.00789,-1.7996882 0,-0.564376 -0.02368,-0.72619 -0.03946,-0.2683748 -0.4301816,-0.2683748 h -0.299948 q -0.04736,0 -0.04736,-0.04736 V 2.9617848 q 0,-0.04736 0.04736,-0.04736 H 3.14441 q 0.4933356,0 0.6946166,-0.039467 0.2012809,-0.043413 0.1933875,-0.043413 0.0592,0 0.0592,0.08288 0,-0.00789 -0.03552,1.9141422 -0.031574,1.9180887 -0.031574,2.0720095 0,1.026138 0.1697075,1.026138 H 4.809911 q 0.039467,0 0.039467,0.039467 z m 2.7441372,0 q 0,0.039467 -0.031573,0.039467 h -2.158837 q -0.039467,0 -0.039467,-0.04736 v -0.130241 q 0,-0.04736 0.039467,-0.04736 h 0.7182966 q 0.08288,0 0.08288,-0.213121 0,-0.043413 0.00789,-1.7878482 0.00789,-1.7483813 0.00789,-1.7996882 0,-0.564376 -0.02368,-0.72619 -0.03946,-0.2683748 -0.4301816,-0.2683748 h -0.299948 q -0.04736,0 -0.04736,-0.04736 V 2.9617848 q 0,-0.04736 0.04736,-0.04736 h 0.4222952 q 0.4933356,0 0.6946165,-0.039467 0.201281,-0.043413 0.1933876,-0.043413 0.0592,0 0.0592,0.08288 0,-0.00789 -0.03552,1.9141422 -0.031573,1.9180887 -0.031573,2.0720095 0,1.026138 0.1697075,1.026138 h 0.6156828 q 0.039467,0 0.039467,0.039467 z" />
  <path
     style="font-size:8.08281px;font-family:'Californian FB';-inkscape-font-specification:'Californian FB, Normal';text-align:center;letter-spacing:-0.00275551px;word-spacing:-0.0247999px;text-anchor:middle;fill:#741303;stroke-width:0.383254;stroke-linecap:round"
     d="m 4.8493779,8.1122084 q 0,0.039467 -0.031574,0.039467 H 2.6589678 q -0.039467,0 -0.039467,-0.04736 V 7.9740744 q 0,-0.04736 0.039467,-0.04736 h 0.7182966 q 0.08288,0 0.08288,-0.213121 0,-0.043413 0.00789,-1.7878482 0.00789,-1.7483813 0.00789,-1.7996882 0,-0.564376 -0.02368,-0.72619 Q 3.4127846,3.1314922 3.0220628,3.1314922 h -0.299948 q -0.04736,0 -0.04736,-0.04736 V 2.9617848 q 0,-0.04736 0.04736,-0.04736 H 3.14441 q 0.4933356,0 0.6946166,-0.039467 0.2012809,-0.043413 0.1933875,-0.043413 0.0592,0 0.0592,0.08288 0,-0.00789 -0.03552,1.9141422 -0.031574,1.9180887 -0.031574,2.0720095 0,1.026138 0.1697075,1.026138 H 4.809911 q 0.039467,0 0.039467,0.039467 z m 2.7441372,0 q 0,0.039467 -0.031573,0.039467 H 5.4031051 q -0.039467,0 -0.039467,-0.04736 V 7.9740744 q 0,-0.04736 0.039467,-0.04736 h 0.7182966 q 0.08288,0 0.08288,-0.213121 0,-0.043413 0.00789,-1.7878482 0.00789,-1.7483813 0.00789,-1.7996882 0,-0.564376 -0.02368,-0.72619 Q 6.1569219,3.1314922 5.7662001,3.1314922 h -0.299948 q -0.04736,0 -0.04736,-0.04736 V 2.9617848 q 0,-0.04736 0.04736,-0.04736 h 0.4222952 q 0.4933356,0 0.6946165,-0.039467 0.201281,-0.043413 0.1933876,-0.043413 0.0592,0 0.0592,0.08288 0,-0.00789 -0.03552,1.9141422 -0.031573,1.9180887 -0.031573,2.0720095 0,1.026138 0.1697075,1.026138 h 0.6156828 q 0.039467,0 0.039467,0.039467 z"
     id="text62"
     aria-label="11" />
</svg>
