<?xml version="1.0" encoding="UTF-8" standalone="no"?>
<!-- Created with Inkscape (http://www.inkscape.org/) -->

<svg
   width="38"
   height="38"
   viewBox="0 0 10.054166 10.054166"
   version="1.1"
   id="svg1"
   sodipodi:docname="door3.svg"
   inkscape:version="1.4.2 (f4327f4, 2025-05-13)"
   xmlns:inkscape="http://www.inkscape.org/namespaces/inkscape"
   xmlns:sodipodi="http://sodipodi.sourceforge.net/DTD/sodipodi-0.dtd"
   xmlns="http://www.w3.org/2000/svg"
   xmlns:svg="http://www.w3.org/2000/svg">
  <sodipodi:namedview
     id="namedview1"
     pagecolor="#ffffff"
     bordercolor="#000000"
     borderopacity="0.25"
     inkscape:showpageshadow="2"
     inkscape:pageopacity="0.0"
     inkscape:pagecheckerboard="0"
     inkscape:deskcolor="#d1d1d1"
     inkscape:zoom="7.564182"
     inkscape:cx="-6.5439991"
     inkscape:cy="-4.9575751"
     inkscape:window-width="1920"
     inkscape:window-height="1094"
     inkscape:window-x="-11"
     inkscape:window-y="-11"
     inkscape:window-maximized="1"
     inkscape:current-layer="g16" />
  <defs
     id="defs1">
    <inkscape:path-effect
       effect="offset"
       id="path-effect1"
       is_visible="true"
       lpeversion="1.3"
       linejoin_type="round"
       unit="px"
       offset="1.1"
       miter_limit="4"
       attempt_force_join="false"
       update_on_knot_move="true" />
    <inkscape:path-effect
       effect="fillet_chamfer"
       id="path-effect19"
       is_visible="true"
       lpeversion="1"
       nodesatellites_param="F,0,0,1,0,7.0362598,0,1 @ F,0,0,1,0,1.7467756,0,1 @ F,0,0,1,0,2.2064468,0,1 @ F,0,0,1,0,2.2064468,0,1 @ F,0,0,1,0,0,0,1 @ F,0,0,1,0,3.0207499,0,1 @ F,0,0,1,0,0,0,1 @ F,0,0,1,0,0,0,1 @ F,0,0,1,0,5.1159389,0,1"
       radius="0"
       unit="px"
       method="auto"
       mode="F"
       chamfer_steps="1"
       flexible="false"
       use_knot_distance="true"
       apply_no_radius="true"
       apply_with_radius="true"
       only_selected="false"
       hide_knots="false" />
    <inkscape:path-effect
       effect="bend_path"
       id="path-effect23"
       is_visible="true"
       lpeversion="1"
       bendpath="m 23.197417,74.70664 c 5.824811,5.968642 11.280875,4.193583 16.621771,0"
       prop_scale="1"
       scale_y_rel="false"
       vertical="false"
       hide_knot="false"
       bendpath-nodetypes="cc" />
    <inkscape:path-effect
       effect="fillet_chamfer"
       id="path-effect2"
       is_visible="true"
       lpeversion="1"
       nodesatellites_param="F,0,0,1,0,7.0362598,0,1 @ F,0,0,1,0,0.73790247,0,1 @ F,0,0,1,0,2.2064468,0,1 @ F,0,0,1,0,2.2064468,0,1 @ F,0,0,1,0,1.8871617,0,1 @ F,0,0,1,0,3.0207499,0,1 @ F,0,0,1,0,0,0,1 @ F,0,0,1,0,0,0,1 @ F,0,0,1,0,5.1159389,0,1"
       radius="0"
       unit="px"
       method="auto"
       mode="F"
       chamfer_steps="1"
       flexible="false"
       use_knot_distance="true"
       apply_no_radius="true"
       apply_with_radius="true"
       only_selected="false"
       hide_knots="false" />
    <inkscape:path-effect
       effect="fillet_chamfer"
       id="path-effect6"
       is_visible="true"
       lpeversion="1"
       nodesatellites_param="F,0,0,1,0,0.18184074,0,1 @ F,0,0,1,0,0,0,1 @ F,0,0,1,0,0.19865639,0,1 @ F,0,0,1,0,0,0,1"
       radius="0"
       unit="px"
       method="auto"
       mode="F"
       chamfer_steps="1"
       flexible="false"
       use_knot_distance="true"
       apply_no_radius="true"
       apply_with_radius="true"
       only_selected="false"
       hide_knots="false" />
    <inkscape:path-effect
       effect="fillet_chamfer"
       id="path-effect12"
       is_visible="true"
       lpeversion="1"
       nodesatellites_param="F,0,0,1,0,0.18184074,0,1 @ F,0,0,1,0,0,0,1 @ F,0,0,1,0,0.19865639,0,1 @ F,0,0,1,0,0,0,1"
       radius="0"
       unit="px"
       method="auto"
       mode="F"
       chamfer_steps="1"
       flexible="false"
       use_knot_distance="true"
       apply_no_radius="true"
       apply_with_radius="true"
       only_selected="false"
       hide_knots="false" />
  </defs>
  <g
     id="g16"
     inkscape:label="3"
     transform="matrix(0.22949234,0,0,0.22949234,-24.658291,-2.278414)">
    <rect
       style="display:inline;fill:#f0ece1;fill-opacity:1;stroke:#741303;stroke-width:2.52664;stroke-linecap:round;stroke-linejoin:miter;stroke-dasharray:none;stroke-opacity:1"
       id="rect36"
       width="41.283825"
       height="41.283825"
       x="108.71044"
       y="11.191381"
       inkscape:export-filename="door1.svg"
       inkscape:export-xdpi="96"
       inkscape:export-ydpi="96" />
    <path
       id="path12"
       style="display:inline;fill:#895a39;fill-opacity:1;stroke:none;stroke-width:2.04122"
       d="M 83.687957 58.360948 A 7.4562368 7.4562368 0 0 0 79.08107 60.374887 L 60.739114 77.65449 A 0.93717195 0.93717195 0 0 1 59.173276 77.130866 L 57.69303 68.506169 A 2.4600969 2.4600969 0 0 0 55.120222 66.467055 L 51.862675 66.663414 A 2.2045854 2.2045854 0 0 0 49.798387 68.999584 L 50.86074 86.138211 L 46.555944 90.286927 C 45.35422 91.444135 44.305195 93.729791 44.255018 95.397299 C 44.080531 101.19602 43.914486 115.50874 45.206604 139.66873 L 122.74328 140.26284 C 126.67972 140.55504 126.07763 111.63757 125.65846 99.646712 C 125.55976 96.824061 123.78453 92.962981 121.73128 91.022015 L 89.316919 60.379922 A 7.4562368 7.4562368 0 0 0 83.687957 58.360948 z M 86.789424 71.003454 C 89.747318 71.003454 92.455004 72.178387 94.76966 74.271071 C 97.425142 76.691224 98.737122 79.80299 98.737122 83.449602 C 98.737122 87.580131 96.866991 91.312143 93.531087 94.677315 C 92.982117 95.226277 92.455466 95.749039 91.94511 96.233084 C 94.078631 97.010937 95.97434 98.085518 97.60428 99.490631 C 100.82463 102.25557 102.39242 106.05343 102.39242 110.56226 C 102.39242 116.08316 99.480599 120.88181 94.276245 124.97704 C 90.631042 127.86809 85.469995 129.12072 79.292534 129.12072 C 75.312877 129.12072 71.784729 128.31762 69.263114 126.32134 C 68.677183 125.86099 67.651962 124.85843 67.651962 123.32561 C 67.651962 122.23043 68.201274 121.42497 68.568305 120.98944 C 68.842969 120.64288 69.650363 119.70593 70.974963 119.61492 A 2.8356272 2.8356272 0 0 1 72.90331 120.204 L 72.90331 120.20904 L 72.90331 120.21407 L 72.90331 120.21911 L 72.908345 120.21911 L 72.91338 120.22414 C 72.915616 120.22571 72.921504 120.22762 72.923449 120.22918 L 72.928484 120.23421 C 72.938993 120.24069 72.955347 120.25134 72.968763 120.25938 A 2.8356272 2.8356272 0 0 1 72.988902 120.26945 A 2.8356272 2.8356272 0 0 1 73.321203 120.60175 C 73.223916 120.47837 73.149299 120.39483 73.089599 120.33491 C 73.110841 120.34765 73.131128 120.35606 73.155052 120.37015 C 73.187027 120.38902 73.224338 120.40933 73.260784 120.43057 C 73.301031 120.45416 73.341042 120.47973 73.386656 120.50609 C 73.437412 120.53541 73.495789 120.56414 73.552806 120.59672 A 2.8356272 2.8356272 0 0 1 73.58805 120.62189 C 73.768491 120.72868 74.326071 120.95151 75.209271 121.1002 C 76.092494 121.24888 77.288206 121.34188 78.753805 121.34188 C 79.958602 121.34188 81.286887 121.11129 82.75651 120.60679 C 84.255961 120.0996 85.445655 119.45967 86.381601 118.71872 C 88.197081 117.28047 89.272482 116.0473 89.61901 115.42089 A 2.8356272 2.8356272 0 0 1 89.654254 115.36048 C 90.175498 114.47126 90.575631 112.97612 90.575631 110.79387 C 90.575631 109.01364 89.72811 107.31252 87.156968 105.29078 C 86.918057 105.10148 86.060427 104.62518 84.730171 104.16801 C 83.399892 103.71083 81.593964 103.22923 79.363022 102.75825 C 77.75278 102.42513 75.999742 101.25304 75.999742 98.992181 C 75.999742 96.619536 78.265064 95.6821 79.25729 95.341916 C 81.405792 94.604047 83.456014 93.389918 85.440085 91.611092 C 86.378379 90.769398 87.111655 89.123734 87.111655 85.9922 C 87.111655 84.39291 86.705513 83.280827 85.827768 82.221098 C 85.313902 81.619775 84.319631 81.098327 82.061701 81.098327 C 79.369438 81.098327 77.338247 81.747818 75.627163 83.006535 A 2.8356272 2.8356272 0 0 1 75.601989 83.026674 C 75.398048 83.17352 74.125269 84.250145 72.832822 84.250143 C 70.425441 84.250145 69.38395 82.219658 69.38395 80.529389 C 69.38395 79.317985 70.028523 78.423663 70.426164 77.946511 A 2.8356272 2.8356272 0 0 1 70.441269 77.921337 C 72.174443 75.884089 74.345569 74.225128 76.916085 72.896558 C 79.543528 71.549965 82.919155 71.008489 86.794459 71.008489 L 86.789424 71.003454 z "
       transform="matrix(0.44723711,0,0,0.44723711,91.302504,-12.781952)" />
    <path
       d="m 6.5167148,4.8400094 c 0.041095,0.043491 0.1138076,0.08535 0.1482135,0.1328173 0.077871,-0.023309 0.1673048,-0.00542 0.2459798,0.064596 0.2214523,0.172349 0.2514599,0.1618369 0.390157,0.088883 C 7.5885806,4.9750762 7.9291456,4.933681 8.0312531,4.985229 8.1430639,5.041676 8.3340737,5.2173996 8.3981557,5.081864 8.5215751,4.8599453 8.6642709,4.983849 8.7991648,5.027604 8.9170378,5.06584 9.0187944,4.970194 9.1128764,4.836918 Z"
       style="display:inline;fill:#f0ece1;stroke:#f0ece1;stroke-width:0.0718279;stroke-linecap:round;stroke-linejoin:round"
       id="path14"
       sodipodi:nodetypes="ccccscscc"
       transform="matrix(4.3574439,0,0,4.3574439,106.88097,11.09221)" />
    <path
       d="m 1.0884448,4.8415552 c -0.052195,0.1667197 0.134437,0.6098098 0.5018582,0.1664114 0.2578039,-0.3111138 0.2296713,0.026337 0.7126179,0.078548 0.1656855,-9.04e-4 0.3575231,0.00717 0.4402832,-0.088367 0.090625,-0.1046181 0.3473611,-0.086875 0.4697387,0.024805 0.2192853,0.175098 0.4230545,0.079107 0.5426026,-0.022221 0.1044626,-0.088544 0.2722765,-0.097131 0.453719,0.018604 0.1221084,0.08292 0.281979,0.090082 0.3958414,0.056327 -0.011467,-0.00247 -0.022928,-0.00528 -0.034623,-0.00775 C 4.4471957,5.042406 4.3161311,4.9689794 4.2573235,4.8369177 Z"
       style="display:inline;fill:#f0ece1;stroke:#f0ece1;stroke-width:0.0718279;stroke-linecap:round;stroke-linejoin:round"
       id="path13"
       sodipodi:nodetypes="csccccccccc"
       transform="matrix(4.3574439,0,0,4.3574439,106.88097,11.09221)" />
    <path
       id="path1"
       style="fill:none;fill-opacity:1;stroke:#f0ece1;stroke-width:0.0959574;stroke-dasharray:none"
       d="M 4.5126689,0.87167109 2.5633115,2.6744867 C 2.540556,2.6955315 2.4231448,2.682654 2.4183586,2.6520306 L 2.2886859,1.6430595 C 2.2573293,1.5215539 2.2105104,1.4161267 2.087804,1.424334 L 1.7711239,1.4455154 C 1.6523424,1.4534601 1.6191597,1.5640043 1.6302881,1.6825299 L 1.7574816,3.2162508 C 1.7684594,3.3331714 1.6884798,3.4610923 1.6038888,3.5425497 L 1.3137057,3.8219834 C 1.1953648,3.9359406 1.0922635,4.1613274 1.0873223,4.3255368 1.0701395,4.8965716 1.0535271,6.3057636 1.1807696,8.6849419 L 8.816517,8.7435039 C 9.2041617,8.7722783 9.1446616,5.9247798 9.1033834,4.7439687 9.0936638,4.4660054 8.9191487,4.085826 8.7169529,3.8946875 L 5.5249035,0.87720318 C 5.2415077,0.60930537 4.798976,0.60688671 4.5126689,0.8716708 Z"
       sodipodi:nodetypes="ccccccccccscccccsc"
       transform="matrix(4.3574439,0,0,4.3574439,106.88097,11.09221)" />
    <path
       style="opacity:1;fill:none;fill-opacity:1;stroke:#f0ece1;stroke-width:0.100012;stroke-linecap:round;stroke-linejoin:round;stroke-dasharray:none"
       d="m 2.0579753,8.6528509 c 0,0 -0.146327,-1.6832817 -0.035079,-2.4204596 0.062276,-0.4126706 1.198087,-0.4607276 1.2511556,-0.046772 0.1155615,0.9014235 0.046772,2.4555386 0.046772,2.4555386"
       id="path5"
       sodipodi:nodetypes="cssc"
       transform="matrix(4.3574439,0,0,4.3574439,106.88097,11.09221)" />
    <path
       style="opacity:1;fill:none;fill-opacity:1;stroke:#f0ece1;stroke-width:0.0775943;stroke-linecap:round;stroke-linejoin:round;stroke-dasharray:none"
       d="M 4.912583,5.4552519 C 4.8758369,5.1475816 4.8173495,4.5233406 4.9005338,4.2022383 4.9509538,4.007609 5.6936211,3.9499424 6.0211104,4.0583782 c 0.099987,0.033107 0.1704726,0.2031729 0.1845107,0.3119509 0.069167,0.5359549 0.014282,1.2582867 0.014282,1.2582867 l -1.1018734,0.00594 C 5.0176035,5.6351012 4.924492,5.5549639 4.912583,5.4552519 Z"
       id="path6"
       sodipodi:nodetypes="csscc"
       transform="matrix(4.3574439,0,0,4.3574439,105.80012,17.793482)" />
    <path
       style="opacity:1;fill:none;fill-opacity:1;stroke:#f0ece1;stroke-width:0.0470958;stroke-linecap:round;stroke-linejoin:round;stroke-dasharray:none"
       d="m 5.3003012,5.5369107 0.017539,1.637026"
       id="path7"
       transform="matrix(4.3574439,0,0,4.3574439,106.88097,11.09221)" />
    <path
       style="opacity:1;fill:none;fill-opacity:1;stroke:#f0ece1;stroke-width:0.0470958;stroke-linecap:round;stroke-linejoin:round;stroke-dasharray:none"
       d="m 4.6162584,6.4021959 1.379779,0.029233"
       id="path8"
       transform="matrix(4.3574439,0,0,4.3574439,106.88097,11.09221)" />
    <path
       style="opacity:1;fill:none;fill-opacity:1;stroke:#f0ece1;stroke-width:0.0775943;stroke-linecap:round;stroke-linejoin:round;stroke-dasharray:none"
       d="M 4.912583,5.4552519 C 4.8758369,5.1475816 4.8173495,4.5233406 4.9005338,4.2022383 4.9509538,4.007609 5.6936211,3.9499424 6.0211104,4.0583782 c 0.099987,0.033107 0.1704726,0.2031729 0.1845107,0.3119509 0.069167,0.5359549 0.014282,1.2582867 0.014282,1.2582867 l -1.1018734,0.00594 C 5.0176035,5.6351012 4.924492,5.5549639 4.912583,5.4552519 Z"
       id="path9"
       sodipodi:nodetypes="csscc"
       transform="matrix(4.3574439,0,0,4.3574439,116.03217,18.225822)" />
    <path
       style="opacity:1;fill:none;fill-opacity:1;stroke:#f0ece1;stroke-width:0.0470958;stroke-linecap:round;stroke-linejoin:round;stroke-dasharray:none"
       d="m 7.6484783,5.6361294 0.017539,1.637026"
       id="path10"
       transform="matrix(4.3574439,0,0,4.3574439,106.88097,11.09221)" />
    <path
       style="opacity:1;fill:none;fill-opacity:1;stroke:#f0ece1;stroke-width:0.0470958;stroke-linecap:round;stroke-linejoin:round;stroke-dasharray:none"
       d="m 6.9644355,6.5014146 1.379779,0.029233"
       id="path11"
       transform="matrix(4.3574439,0,0,4.3574439,106.88097,11.09221)" />
    <path
       id="path36"
       style="opacity:1;fill:#f0ece1;stroke:#f0ece1;stroke-width:0.0470958;stroke-linecap:round;stroke-linejoin:round"
       d="m 3.1688144,7.5303187 a 0.07015824,0.07015824 0 0 1 -0.070158,0.070158 0.07015824,0.07015824 0 0 1 -0.070158,-0.070158 0.07015824,0.07015824 0 0 1 0.070158,-0.070158 0.07015824,0.07015824 0 0 1 0.070158,0.070158 z"
       transform="matrix(4.3574439,0,0,4.3574439,106.88097,11.09221)" />
    <path
       style="opacity:1;fill:none;fill-opacity:1;stroke:#f0ece1;stroke-width:0.0470958;stroke-linecap:round;stroke-linejoin:round;stroke-dasharray:none;stroke-opacity:1"
       d="m 9.0286938,4.4113689 c 0,0 -0.3214023,0.05235 -0.5044666,-0.061557 -0.4189827,-0.2607003 0.058465,-0.6665034 0.058465,-0.6665034 0,0 -0.4005449,0.2270528 -0.7366616,-0.023387 -0.350082,-0.2608453 -0.035079,-0.6898894 -0.035079,-0.6898894 0,0 -0.2289265,0.208659 -0.5846522,-0.035079 C 6.78248,2.6308549 7.0186396,2.2673794 7.0186396,2.2673794 c 0,0 -0.1455623,0.2630699 -0.5640808,-0.069088 C 6.03594,1.8660547 6.3376283,1.5551745 6.3376283,1.5551745 c 0,0 -0.4745551,0.1157462 -0.7366616,-0.1987817 C 5.4366218,1.1591789 5.5191157,0.83020598 5.5191157,0.83020598 5.22654,1.5841648 4.9070069,1.2598293 4.5836723,0.78343378 c 0,0 0.2367292,0.43790572 0.035079,0.59634512 -0.2907542,0.2284496 -0.6898894,0.046772 -0.6898894,0.046772 0,0 0.2124056,0.4113461 0,0.572959 -0.354349,0.2696133 -0.6431173,0.011693 -0.6431173,0.011693 0,0 0.3817971,0.3906529 -0.058465,0.6548103 -0.4312648,0.2587588 -0.6080382,-0.011693 -0.6080382,-0.011693 0,0 0.2338409,0.3183684 -0.280633,0.7249686 C 2.0938186,3.5727513 1.6604118,3.5196054 1.6604118,3.5196054 2.1315737,4.1440389 1.5717342,4.3563405 1.0757597,4.2328808"
       id="path37"
       sodipodi:nodetypes="cscscscscsccscscscscc"
       transform="matrix(4.3574439,0,0,4.3574439,106.88097,11.09221)" />
    <path
       id="circle37"
       style="opacity:1;fill:#f0ece1;stroke:#f0ece1;stroke-width:0.0470958;stroke-linecap:round;stroke-linejoin:round"
       d="m 1.7188773,3.5079124 a 0.07015824,0.07015824 0 0 1 -0.070158,0.070158 0.07015824,0.07015824 0 0 1 -0.070158,-0.070158 0.07015824,0.07015824 0 0 1 0.070158,-0.070158 0.07015824,0.07015824 0 0 1 0.070158,0.070158 z"
       transform="matrix(4.3574439,0,0,4.3574439,106.88097,11.09221)" />
    <path
       id="circle38"
       style="opacity:1;fill:#f0ece1;stroke:#f0ece1;stroke-width:0.0470958;stroke-linecap:round;stroke-linejoin:round"
       d="m 2.6893997,2.6660135 a 0.07015824,0.07015824 0 0 1 -0.070158,0.070158 0.07015824,0.07015824 0 0 1 -0.070158,-0.070158 0.07015824,0.07015824 0 0 1 0.070158,-0.070158 0.07015824,0.07015824 0 0 1 0.070158,0.070158 z"
       transform="matrix(4.3574439,0,0,4.3574439,106.88097,11.09221)" />
    <path
       id="circle39"
       style="opacity:1;fill:#f0ece1;stroke:#f0ece1;stroke-width:0.0470958;stroke-linecap:round;stroke-linejoin:round"
       d="m 3.3675961,2.0228963 a 0.07015824,0.07015824 0 0 1 -0.070158,0.070158 0.07015824,0.07015824 0 0 1 -0.070158,-0.070158 0.07015824,0.07015824 0 0 1 0.070158,-0.070158 0.07015824,0.07015824 0 0 1 0.070158,0.070158 z"
       transform="matrix(4.3574439,0,0,4.3574439,106.88097,11.09221)" />
    <path
       id="circle40"
       style="opacity:1;fill:#f0ece1;stroke:#f0ece1;stroke-width:0.0470958;stroke-linecap:round;stroke-linejoin:round"
       d="m 3.9873273,1.4265512 a 0.07015824,0.07015824 0 0 1 -0.070158,0.070158 0.07015824,0.07015824 0 0 1 -0.070158,-0.070158 0.07015824,0.07015824 0 0 1 0.070158,-0.070158 0.07015824,0.07015824 0 0 1 0.070158,0.070158 z"
       transform="matrix(4.3574439,0,0,4.3574439,106.88097,11.09221)" />
    <path
       id="circle41"
       style="opacity:1;fill:#f0ece1;stroke:#f0ece1;stroke-width:0.0470958;stroke-linecap:round;stroke-linejoin:round"
       d="m 4.6772168,0.80682003 a 0.07015824,0.07015824 0 0 1 -0.070158,0.0701582 0.07015824,0.07015824 0 0 1 -0.070158,-0.0701582 0.07015824,0.07015824 0 0 1 0.070158,-0.0701582 0.07015824,0.07015824 0 0 1 0.070158,0.0701582 z"
       transform="matrix(4.3574439,0,0,4.3574439,106.88097,11.09221)" />
    <path
       id="circle42"
       style="opacity:1;fill:#f0ece1;stroke:#f0ece1;stroke-width:0.0470958;stroke-linecap:round;stroke-linejoin:round"
       d="m 5.5775812,0.84189916 a 0.07015824,0.07015824 0 0 1 -0.070158,0.0701582 0.07015824,0.07015824 0 0 1 -0.070158,-0.0701582 0.07015824,0.07015824 0 0 1 0.070158,-0.0701582 0.07015824,0.07015824 0 0 1 0.070158,0.0701582 z"
       transform="matrix(4.3574439,0,0,4.3574439,106.88097,11.09221)" />
    <path
       id="circle43"
       style="opacity:1;fill:#f0ece1;stroke:#f0ece1;stroke-width:0.0470958;stroke-linecap:round;stroke-linejoin:round"
       d="m 6.3493221,1.5785608 a 0.07015824,0.07015824 0 0 1 -0.070158,0.070158 0.07015824,0.07015824 0 0 1 -0.070158,-0.070158 0.07015824,0.07015824 0 0 1 0.070158,-0.070158 0.07015824,0.07015824 0 0 1 0.070158,0.070158 z"
       transform="matrix(4.3574439,0,0,4.3574439,106.88097,11.09221)" />
    <path
       id="circle44"
       style="opacity:1;fill:#f0ece1;stroke:#f0ece1;stroke-width:0.0470958;stroke-linecap:round;stroke-linejoin:round"
       d="m 7.0625975,2.2684503 c -1e-7,0.038747 -0.031411,0.070158 -0.070158,0.070158 -0.038747,-1e-7 -0.070158,-0.031411 -0.070158,-0.070158 10e-8,-0.038747 0.031411,-0.070158 0.070158,-0.070158 0.038747,1e-7 0.070158,0.031411 0.070158,0.070158 z"
       sodipodi:nodetypes="sssss"
       transform="matrix(4.3574439,0,0,4.3574439,106.88097,11.09221)" />
    <path
       id="circle45"
       style="opacity:1;fill:#f0ece1;stroke:#f0ece1;stroke-width:0.0470958;stroke-linecap:round;stroke-linejoin:round"
       d="m 7.8577244,2.9817257 a 0.07015824,0.07015824 0 0 1 -0.070158,0.070158 0.07015824,0.07015824 0 0 1 -0.070158,-0.070158 0.07015824,0.07015824 0 0 1 0.070158,-0.070158 0.07015824,0.07015824 0 0 1 0.070158,0.070158 z"
       transform="matrix(4.3574439,0,0,4.3574439,106.88097,11.09221)" />
    <path
       id="circle46"
       style="opacity:1;fill:#f0ece1;stroke:#f0ece1;stroke-width:0.0470958;stroke-linecap:round;stroke-linejoin:round"
       d="m 8.6177723,3.7066941 a 0.07015824,0.07015824 0 0 1 -0.070158,0.070158 0.07015824,0.07015824 0 0 1 -0.070158,-0.070158 0.07015824,0.07015824 0 0 1 0.070158,-0.070158 0.07015824,0.07015824 0 0 1 0.070158,0.070158 z"
       transform="matrix(4.3574439,0,0,4.3574439,106.88097,11.09221)" />
    <path
       id="circle47"
       style="opacity:1;fill:#f0ece1;stroke:#f0ece1;stroke-width:0.0470958;stroke-linecap:round;stroke-linejoin:round"
       d="m 9.0971873,4.3731976 a 0.07015824,0.07015824 0 0 1 -0.070158,0.070158 0.07015824,0.07015824 0 0 1 -0.070158,-0.070158 0.07015824,0.07015824 0 0 1 0.070158,-0.070158 0.07015824,0.07015824 0 0 1 0.070158,0.070158 z"
       transform="matrix(4.3574439,0,0,4.3574439,106.88097,11.09221)" />
    <path
       id="circle48"
       style="opacity:1;fill:#f0ece1;stroke:#f0ece1;stroke-width:0.0470958;stroke-linecap:round;stroke-linejoin:round"
       d="m 1.1926912,4.2562671 a 0.07015824,0.07015824 0 0 1 -0.070158,0.070158 0.07015824,0.07015824 0 0 1 -0.070158,-0.070158 0.07015824,0.07015824 0 0 1 0.070158,-0.070158 0.07015824,0.07015824 0 0 1 0.070158,0.070158 z"
       transform="matrix(4.3574439,0,0,4.3574439,106.88097,11.09221)" />
    <text
       xml:space="preserve"
       style="font-style:normal;font-variant:normal;font-weight:normal;font-stretch:normal;font-size:35.2204px;font-family:'Californian FB';-inkscape-font-specification:'Californian FB, Normal';font-variant-ligatures:normal;font-variant-caps:normal;font-variant-numeric:normal;font-variant-east-asian:normal;text-align:center;letter-spacing:-0.012007px;word-spacing:-0.108064px;writing-mode:lr-tb;direction:ltr;text-anchor:middle;display:inline;fill:#741303;stroke:none;stroke-width:1.67002;stroke-linecap:round"
       x="129.51787"
       y="43.4244"
       id="text54"><tspan
         sodipodi:role="line"
         id="tspan54"
         style="font-style:normal;font-variant:normal;font-weight:normal;font-stretch:normal;font-size:35.2204px;font-family:'Californian FB';-inkscape-font-specification:'Californian FB, Normal';font-variant-ligatures:normal;font-variant-caps:normal;font-variant-numeric:normal;font-variant-east-asian:normal;fill:#741303;stroke:none;stroke-width:1.67001"
         x="0"
         y="0">3</tspan></text>
  </g>
</svg>
