<?xml version="1.0" encoding="UTF-8" standalone="no"?>
<!-- Created with Inkscape (http://www.inkscape.org/) -->

<svg
   width="38"
   height="38"
   viewBox="0 0 10.054166 10.054166"
   version="1.1"
   id="svg1"
   sodipodi:docname="door17.svg"
   inkscape:version="1.4.2 (f4327f4, 2025-05-13)"
   xml:space="preserve"
   xmlns:inkscape="http://www.inkscape.org/namespaces/inkscape"
   xmlns:sodipodi="http://sodipodi.sourceforge.net/DTD/sodipodi-0.dtd"
   xmlns="http://www.w3.org/2000/svg"
   xmlns:svg="http://www.w3.org/2000/svg"><sodipodi:namedview
     id="namedview1"
     pagecolor="#ffffff"
     bordercolor="#000000"
     borderopacity="0.25"
     inkscape:showpageshadow="2"
     inkscape:pageopacity="0.0"
     inkscape:pagecheckerboard="0"
     inkscape:deskcolor="#d1d1d1"
     inkscape:zoom="7.5641818"
     inkscape:cx="39.925006"
     inkscape:cy="23.598058"
     inkscape:window-width="1920"
     inkscape:window-height="1094"
     inkscape:window-x="-11"
     inkscape:window-y="-11"
     inkscape:window-maximized="1"
     inkscape:current-layer="svg1" /><defs
     id="defs1"><inkscape:path-effect
       effect="bend_path"
       id="path-effect16"
       is_visible="true"
       lpeversion="1"
       bendpath="m 23.197417,74.70664 c 5.824811,5.968642 11.280875,4.193583 16.621771,0"
       prop_scale="1"
       scale_y_rel="false"
       vertical="false"
       hide_knot="false"
       bendpath-nodetypes="cc" /><inkscape:path-effect
       effect="fillet_chamfer"
       id="path-effect14"
       is_visible="true"
       lpeversion="1"
       nodesatellites_param="F,0,0,1,0,13.610823,0,1 @ F,0,0,1,0,7.6181396,0,1 @ F,0,0,1,0,0,0,1 @ F,0,0,1,0,0,0,1 @ F,0,0,1,0,0,0,1 @ F,0,0,1,0,0,0,1 @ F,0,0,1,0,0,0,1 @ F,0,0,1,0,0,0,1 @ F,0,0,1,0,0,0,1 @ F,0,0,1,0,0,0,1 @ F,0,0,1,0,0,0,1 @ F,0,0,1,0,0,0,1 @ F,0,0,1,0,0,0,1 @ F,0,0,1,0,0,0,1 @ F,0,0,1,0,0,0,1 @ F,0,0,1,0,0,0,1 @ F,0,0,1,0,9.8086838,0,1"
       radius="0"
       unit="px"
       method="auto"
       mode="F"
       chamfer_steps="1"
       flexible="false"
       use_knot_distance="true"
       apply_no_radius="true"
       apply_with_radius="true"
       only_selected="false"
       hide_knots="false" /><inkscape:path-effect
       effect="fillet_chamfer"
       id="path-effect12"
       is_visible="true"
       lpeversion="1"
       nodesatellites_param="F,0,0,1,0,13.610823,0,1 @ F,0,0,1,0,7.6181396,0,1 @ F,0,0,1,0,0,0,1 @ F,0,0,1,0,0,0,1 @ F,0,0,1,0,0,0,1 @ F,0,0,1,0,0,0,1 @ F,0,0,1,0,0,0,1 @ F,0,0,1,0,0,0,1 @ F,0,0,1,0,0,0,1 @ F,0,0,1,0,0,0,1 @ F,0,0,1,0,0,0,1 @ F,0,0,1,0,0,0,1 @ F,0,0,1,0,0,0,1 @ F,0,0,1,0,0,0,1 @ F,0,0,1,0,0,0,1 @ F,0,0,1,0,0,0,1 @ F,0,0,1,0,9.8086838,0,1"
       radius="0"
       unit="px"
       method="auto"
       mode="F"
       chamfer_steps="1"
       flexible="false"
       use_knot_distance="true"
       apply_no_radius="true"
       apply_with_radius="true"
       only_selected="false"
       hide_knots="false" /><inkscape:path-effect
       effect="offset"
       id="path-effect1"
       is_visible="true"
       lpeversion="1.3"
       linejoin_type="round"
       unit="px"
       offset="1.1"
       miter_limit="4"
       attempt_force_join="false"
       update_on_knot_move="true" /><inkscape:path-effect
       effect="spiro"
       id="path-effect25"
       is_visible="true"
       lpeversion="1" /><inkscape:path-effect
       effect="bend_path"
       id="path-effect23"
       is_visible="true"
       lpeversion="1"
       bendpath="m 23.197417,74.70664 c 5.824811,5.968642 11.280875,4.193583 16.621771,0"
       prop_scale="1"
       scale_y_rel="false"
       vertical="false"
       hide_knot="false"
       bendpath-nodetypes="cc" /><inkscape:path-effect
       effect="fillet_chamfer"
       id="path-effect19"
       is_visible="true"
       lpeversion="1"
       nodesatellites_param="F,0,0,1,0,13.610823,0,1 @ F,0,0,1,0,7.6181396,0,1 @ F,0,0,1,0,0,0,1 @ F,0,0,1,0,0,0,1 @ F,0,0,1,0,0,0,1 @ F,0,0,1,0,0,0,1 @ F,0,0,1,0,0,0,1 @ F,0,0,1,0,0,0,1 @ F,0,0,1,0,0,0,1 @ F,0,0,1,0,0,0,1 @ F,0,0,1,0,0,0,1 @ F,0,0,1,0,0,0,1 @ F,0,0,1,0,0,0,1 @ F,0,0,1,0,0,0,1 @ F,0,0,1,0,0,0,1 @ F,0,0,1,0,0,0,1 @ F,0,0,1,0,9.8086838,0,1"
       radius="0"
       unit="px"
       method="auto"
       mode="F"
       chamfer_steps="1"
       flexible="false"
       use_knot_distance="true"
       apply_no_radius="true"
       apply_with_radius="true"
       only_selected="false"
       hide_knots="false" /><inkscape:path-effect
       effect="bend_path"
       id="path-effect4"
       is_visible="true"
       lpeversion="1"
       bendpath="m 54.047818,159.58759 c 27.052641,-62.939937 12.72201,-53.95868 38.795563,0.36532"
       prop_scale="0.99302976"
       scale_y_rel="false"
       vertical="false"
       hide_knot="false"
       bendpath-nodetypes="cc" /><inkscape:path-effect
       effect="bend_path"
       id="path-effect3"
       is_visible="true"
       lpeversion="1"
       bendpath="M 48.302799,161.04885 H 141.16478"
       prop_scale="1"
       scale_y_rel="false"
       vertical="false"
       hide_knot="false" /><inkscape:path-effect
       effect="fillet_chamfer"
       id="path-effect19-5"
       is_visible="true"
       lpeversion="1"
       nodesatellites_param="F,0,0,1,0,13.610823,0,1 @ F,0,0,1,0,7.6181396,0,1 @ F,0,0,1,0,0,0,1 @ F,0,0,1,0,0,0,1 @ F,0,0,1,0,0,0,1 @ F,0,0,1,0,0,0,1 @ F,0,0,1,0,0,0,1 @ F,0,0,1,0,0,0,1 @ F,0,0,1,0,0,0,1 @ F,0,0,1,0,0,0,1 @ F,0,0,1,0,0,0,1 @ F,0,0,1,0,0,0,1 @ F,0,0,1,0,0,0,1 @ F,0,0,1,0,0,0,1 @ F,0,0,1,0,0,0,1 @ F,0,0,1,0,0,0,1 @ F,0,0,1,0,9.8086838,0,1"
       radius="0"
       unit="px"
       method="auto"
       mode="F"
       chamfer_steps="1"
       flexible="false"
       use_knot_distance="true"
       apply_no_radius="true"
       apply_with_radius="true"
       only_selected="false"
       hide_knots="false" /></defs><rect
     style="display:inline;fill:#f0ece1;fill-opacity:1;stroke:#741303;stroke-width:0.579845;stroke-linecap:round;stroke-linejoin:miter;stroke-dasharray:none;stroke-opacity:1"
     id="rect52"
     width="9.4743214"
     height="9.4743214"
     x="0.28992221"
     y="0.28992262"
     inkscape:export-filename="door1.svg"
     inkscape:export-xdpi="96"
     inkscape:export-ydpi="96" /><g
     inkscape:label="Kagemand"
     id="layer1"
     transform="matrix(0.38800373,0,0,0.38800373,5.861529,5.494798)"><path
       id="path12"
       style="fill:#895a39;fill-opacity:1;stroke:#794f32;stroke-width:2.04122"
       d="m 71.409829,59.874998 c -7.806076,5.091658 -8.392185,13.343487 -4.205685,21.031206 2.00689,3.685278 1.07625,6.292545 -3.126604,6.48769 l -1.35217,0.06278 -4.835735,0.129158 c -4.976655,0.132922 -8.986015,4.007585 -8.986015,8.986015 0,4.97843 4.007585,8.98653 8.986015,8.98653 21.010175,-2.44771 4.928833,18.58833 0.656662,28.91093 -1.967842,4.74535 0.05134,10.10994 4.593002,12.06283 4.54166,1.95289 10.78327,-0.0849 11.892814,-5.22655 2.81023,-13.02271 11.084182,-14.67793 14.816666,0.47904 1.277814,5.18898 7.624735,7.06019 12.082471,4.92269 4.45772,-2.13749 6.28241,-7.50358 4.24366,-12.12535 -1.39534,-3.1632 -2.74042,-6.35756 -4.04264,-9.57771 -6.485382,-14.87889 -3.246128,-20.54226 8.04422,-19.7042 4.96477,0.36853 8.98653,-4.0081 8.98653,-8.986526 0,-4.97843 -4.01472,-9.242803 -8.98653,-8.986015 0,0 -5.33258,-0.189702 -10.506644,-0.492261 -5.316043,-0.310861 -4.585493,-1.563963 -0.943208,-5.443885 5.256232,-5.599166 4.008292,-14.997295 -2.185024,-20.794036 -5.375029,-5.03085 -18.883864,-4.797662 -25.131785,-0.722339 z"
       sodipodi:nodetypes="cccssssssssscssscc"
       inkscape:path-effect="#path-effect19"
       inkscape:original-d="M 84.204679,55.548031 C 60.993046,58.906608 60.621661,75.188329 71.687481,87.040553 l -8.962111,0.416124 -4.835735,0.129158 c -4.976655,0.132922 -8.986015,4.007585 -8.986015,8.986015 0,4.97843 4.007585,8.98653 8.986015,8.98653 21.010175,-2.44771 4.928833,18.58833 0.656662,28.91093 -1.967842,4.74535 0.05134,10.10994 4.593002,12.06283 4.54166,1.95289 10.78327,-0.0849 11.892814,-5.22655 2.81023,-13.02271 11.084182,-14.67793 14.816666,0.47904 1.277814,5.18898 7.624735,7.06019 12.082471,4.92269 4.45772,-2.13749 6.28241,-7.50358 4.24366,-12.12535 -1.39534,-3.1632 -2.74042,-6.35756 -4.04264,-9.57771 -6.485382,-14.87889 -3.246128,-20.54226 8.04422,-19.7042 4.96477,0.36853 8.98653,-4.0081 8.98653,-8.986526 0,-4.97843 -4.01472,-9.242803 -8.98653,-8.986015 0,0 -21.123527,-0.751451 -20.079056,-1.648511 19.131636,-3.260553 13.840716,-29.097653 -5.892755,-30.130977 z"
       transform="matrix(0.10263749,0,0,0.10263749,-3.5751387,-5.4789374)" /><path
       id="path12-7"
       style="fill:none;fill-opacity:1;stroke:#f6ede4;stroke-width:1.00707;stroke-dasharray:none"
       d="m 71.409829,59.874998 c -7.806076,5.091658 -8.392185,13.343487 -4.205685,21.031206 2.00689,3.685278 1.07625,6.292545 -3.126604,6.48769 l -1.35217,0.06278 -4.835735,0.129158 c -4.976655,0.132922 -8.986015,4.007585 -8.986015,8.986015 0,4.97843 4.007585,8.98653 8.986015,8.98653 21.010175,-2.44771 5.87313,18.58833 1.600959,28.91093 -1.967842,4.74535 -0.892957,11.62082 3.648705,13.57371 4.54166,1.95289 10.78327,-1.59578 11.892814,-6.73743 2.81023,-13.02271 11.084182,-14.67793 14.816666,0.47904 1.277814,5.18898 8.191313,8.57107 12.649051,6.43357 4.45772,-2.13749 4.77153,-9.01446 2.73278,-13.63623 -1.39534,-3.1632 -2.74042,-6.35756 -4.04264,-9.57771 -6.485379,-14.87889 -2.301828,-20.54226 8.98852,-19.7042 4.96477,0.36853 8.98653,-4.0081 8.98653,-8.986526 0,-4.97843 -4.01472,-9.242803 -8.98653,-8.986015 0,0 -5.33259,-0.189702 -10.506651,-0.492261 C 94.3538,86.524397 95.084353,85.271295 98.726638,81.391373 103.98287,75.792207 102.73493,66.394078 96.541614,60.597337 91.166585,55.566487 77.65775,55.799675 71.409829,59.874998 Z"
       sodipodi:nodetypes="cccssssssssscssscc"
       inkscape:path-effect="#path-effect19-5"
       inkscape:original-d="M 84.204679,55.548031 C 60.993046,58.906608 60.621661,75.188329 71.687481,87.040553 l -8.962111,0.416124 -4.835735,0.129158 c -4.976655,0.132922 -8.986015,4.007585 -8.986015,8.986015 0,4.97843 4.007585,8.98653 8.986015,8.98653 21.010175,-2.44771 5.87313,18.58833 1.600959,28.91093 -1.967842,4.74535 -0.892957,11.62082 3.648705,13.57371 4.54166,1.95289 10.78327,-1.59578 11.892814,-6.73743 2.81023,-13.02271 11.084182,-14.67793 14.816666,0.47904 1.277814,5.18898 8.191313,8.57107 12.649051,6.43357 4.45772,-2.13749 4.77153,-9.01446 2.73278,-13.63623 -1.39534,-3.1632 -2.74042,-6.35756 -4.04264,-9.57771 -6.485379,-14.87889 -2.301828,-20.54226 8.98852,-19.7042 4.96477,0.36853 8.98653,-4.0081 8.98653,-8.986526 0,-4.97843 -4.01472,-9.242803 -8.98653,-8.986015 0,0 -21.123527,-0.751451 -20.079056,-1.648511 19.131636,-3.260553 13.840716,-29.097653 -5.892755,-30.130977 z"
       transform="matrix(0.09926661,0,0,0.09926661,-3.2971278,-5.1940078)" /><circle
       style="fill:#f6ede4;fill-opacity:1;stroke:#f6ede4;stroke-width:0.116328;stroke-dasharray:none"
       id="path19"
       cx="4.5425"
       cy="1.7013301"
       r="0.14179981" /><circle
       style="fill:#f6ede4;fill-opacity:1;stroke:#f6ede4;stroke-width:0.116328;stroke-dasharray:none"
       id="circle19"
       cx="5.4798722"
       cy="1.7200791"
       r="0.14179981" /><circle
       style="fill:#c18e81;fill-opacity:1;stroke:#c18e81;stroke-width:0.15392;stroke-dasharray:none;stroke-opacity:1"
       id="circle20"
       cx="6.2811241"
       cy="2.1377201"
       r="0.18762332" /><circle
       style="fill:#c18e81;fill-opacity:1;stroke:#c18e81;stroke-width:0.15392;stroke-dasharray:none;stroke-opacity:1"
       id="circle20-2"
       cx="3.8695309"
       cy="2.133203"
       r="0.18762332" /><path
       style="fill:none;fill-opacity:1;stroke:#f6ede4;stroke-width:1.36096;stroke-linecap:round;stroke-linejoin:round;stroke-dasharray:none;stroke-opacity:1"
       d="m 23.119007,74.625739 c 2.249746,2.337251 5.332603,4.152084 8.570764,3.891735 2.988308,-0.24026 5.674607,-1.894505 8.040592,-3.741295"
       id="path23"
       inkscape:path-effect="#path-effect23"
       inkscape:original-d="M 23.197417,74.70664 H 39.819188"
       transform="matrix(0.07963873,0,0,0.07963873,2.5321059,-3.4176371)" /><circle
       style="fill:#f6ede4;fill-opacity:1;stroke:#f6ede4;stroke-width:0.116328;stroke-dasharray:none"
       id="circle23"
       cx="4.9174485"
       cy="4.1384954"
       r="0.14179981" /><circle
       style="fill:#f6ede4;fill-opacity:1;stroke:#f6ede4;stroke-width:0.116328;stroke-dasharray:none"
       id="circle24"
       cx="4.9174485"
       cy="5.2445984"
       r="0.14179981" /><circle
       style="fill:#f6ede4;fill-opacity:1;stroke:#f6ede4;stroke-width:0.116328;stroke-dasharray:none"
       id="circle25"
       cx="4.8987031"
       cy="6.2569594"
       r="0.14179981" /><path
       style="fill:none;fill-opacity:1;stroke:#f6ede4;stroke-width:0.079375;stroke-linecap:round;stroke-linejoin:round;stroke-dasharray:none;stroke-opacity:1"
       d="M 6.928776,3.4726562 C 6.853212,3.6363338 6.8245243,3.7979283 6.926246,3.8896084 7.0426539,3.9945284 7.1572156,4.1255098 7.013023,4.3662458 6.91872,4.5024616 6.961317,4.6023435 7.077117,4.6781599 c 0.10575,0.069237 0.1626331,0.1136423 0.1856913,0.277718 0.011017,0.078392 0.017752,0.1668584 -0.086986,0.2705599"
       id="path25"
       sodipodi:nodetypes="cscssc" /><path
       style="fill:none;fill-opacity:1;stroke:#f6ede4;stroke-width:0.079375;stroke-linecap:round;stroke-linejoin:round;stroke-dasharray:none;stroke-opacity:1"
       d="m 2.9538052,3.4933268 c 0.075564,0.1636776 0.1042517,0.3252721 0.00253,0.4169522 -0.1164079,0.10492 -0.2309696,0.2359014 -0.086777,0.4766374 0.094303,0.1362158 0.051706,0.2360977 -0.064094,0.3119141 -0.10575,0.069237 -0.1626331,0.1136423 -0.1856913,0.277718 -0.011017,0.078392 -0.017752,0.1668584 0.086986,0.2705599"
       id="path26"
       sodipodi:nodetypes="cscssc" /><path
       style="fill:none;fill-opacity:1;stroke:#f6ede4;stroke-width:0.0718279;stroke-linecap:round;stroke-linejoin:round;stroke-dasharray:none;stroke-opacity:1"
       d="M 6.9712825,7.8135401 C 6.8772008,7.9468159 6.763542,8.0424129 6.645669,8.0041769 6.5107751,7.9604221 6.3562927,7.9299058 6.2328733,8.1518304 6.1687916,8.2873661 6.0712425,8.2991761 5.9594317,8.2427295 5.8573242,8.1911819 5.7967872,8.1666952 5.657771,8.2228625 5.5913518,8.2496979 5.5189749,8.2844472 5.4850955,8.4134493"
       id="path27"
       sodipodi:nodetypes="cscssc" /><path
       style="fill:none;fill-opacity:1;stroke:#f6ede4;stroke-width:0.0718279;stroke-linecap:round;stroke-linejoin:round;stroke-dasharray:none;stroke-opacity:1"
       d="m 2.7840029,7.8135401 c 0.094082,0.1332758 0.2077405,0.2288728 0.3256135,0.1906368 0.1348939,-0.043755 0.2893763,-0.074271 0.4127957,0.1476535 0.064082,0.1355357 0.1616308,0.1473457 0.2734416,0.090899 0.1021075,-0.051548 0.1626445,-0.076034 0.3016607,-0.019867 0.066419,0.026835 0.1387961,0.061585 0.1726755,0.1905868"
       id="path28"
       sodipodi:nodetypes="cscssc" /></g><path
     style="font-size:8.08281px;font-family:'Californian FB';-inkscape-font-specification:'Californian FB, Normal';text-align:center;letter-spacing:-0.00275551px;word-spacing:-0.0247999px;text-anchor:middle;fill:#f0ece1;fill-opacity:1;stroke-width:0.383254;stroke-linecap:round"
     d="M 3.5488281,1.8945312 A 0.29104165,0.29104165 0 0 0 3.4667969,1.90625 c -0.00559,0.00128 -0.01493,0.00355 -0.025391,0.00586 -0.030901,0.00683 -0.080933,0.017901 -0.1425782,0.03125 -0.08939,0.017527 -0.317304,0.033203 -0.6386718,0.033203 h -0.421875 c -0.061967,0 -0.1424525,0.017046 -0.2109375,0.070312 A 0.29104165,0.29104165 0 0 0 2,2.0722656 c -0.074229,0.074229 -0.099609,0.1736088 -0.099609,0.2441407 V 2.4375 c 0,0.1844849 0.135777,0.3398437 0.3378907,0.3398438 h 0.3007812 c 0.083137,0 0.1269594,0.013482 0.1425781,0.019531 0.00867,0.062072 0.019531,0.3143738 0.019531,0.6835938 0,0.019725 -0.00255,0.6313154 -0.00781,1.7968749 -0.00331,0.7327928 -0.00685,1.4742712 -0.00781,1.7128907 H 2.1757813 c -0.030695,0 -0.1176441,0.00463 -0.1953126,0.060547 a 0.29104165,0.29104165 0 0 0 -0.029297,0.023437 c -0.00374,0.00349 -0.014771,0.015773 -0.029297,0.033203 a 0.29104165,0.29104165 0 0 0 -0.021484,0.027344 C 1.861942,7.1940859 1.84375,7.2579102 1.84375,7.328125 v 0.1308594 c 0,0.085695 0.028602,0.1782586 0.1054687,0.25 a 0.29104165,0.29104165 0 0 0 0.029297,0.023437 c 0.040163,0.028917 0.11132,0.064453 0.1972657,0.064453 h 2.1582031 c 0.00748,2.65e-4 0.031432,9.439e-4 0.058594,-0.00391 a 0.29104165,0.29104165 0 0 0 0.029297,-0.00781 c 0.011519,-0.00332 0.00946,-1.964e-4 0.037109,-0.011719 a 0.29104165,0.29104165 0 0 0 0.033203,-0.015625 c 0.015299,-0.00869 0.025171,-0.017902 0.035156,-0.025391 a 0.29104165,0.29104165 0 0 0 0.03125,-0.027344 l 0.00195,-0.00195 a 0.29104165,0.29104165 0 0 0 0.021484,-0.023437 c 0.014026,-0.017533 0.022966,-0.029307 0.025391,-0.033203 a 0.29104165,0.29104165 0 0 0 0.011719,-0.023437 0.29104165,0.29104165 0 0 0 0.00195,-0.00391 c 0.00376,-0.00725 0.010508,-0.01913 0.015625,-0.033203 a 0.29104165,0.29104165 0 0 0 0.00781,-0.025391 C 4.6561699,7.5169024 4.65625,7.4858345 4.65625,7.4667969 V 7.3203125 c 0,-0.034796 -0.00519,-0.089549 -0.029297,-0.1425781 a 0.29104165,0.29104165 0 0 0 -0.015625,-0.029297 c -0.00838,-0.013975 -0.00429,-0.00858 -0.023437,-0.033203 A 0.29104165,0.29104165 0 0 0 4.5625,7.0878906 l -0.00195,-0.00195 A 0.29104165,0.29104165 0 0 0 4.5332031,7.0605469 C 4.5085834,7.0413982 4.5139748,7.0454943 4.5,7.0371094 a 0.29104165,0.29104165 0 0 0 -0.029297,-0.015625 c -0.024762,-0.011255 -0.080139,-0.03125 -0.1445312,-0.03125 h -0.453125 c -7.783e-4,-0.0044 -0.00118,-0.00902 -0.00195,-0.013672 -0.02325,-0.1405607 -0.039063,-0.388663 -0.039063,-0.7226563 0,-0.083325 0.010215,-0.7884456 0.03125,-2.0664062 0.021271,-1.1510095 0.0331,-1.7862946 0.035156,-1.8964844 v -0.00391 -0.00195 -0.00391 h -0.00195 v 0.00195 C 3.8602529,2.3680749 3.3164063,2.4871188 3.3164063,2.2675781 h 0.5820312 c 0,-0.1722727 -0.108814,-0.3730468 -0.3496094,-0.3730469 z m 1.4921875,0.019531 c -0.1736128,0 -0.2937396,0.1105753 -0.3496094,0.2382813 -0.03249,0.074976 -0.060503,0.1359694 -0.083984,0.1855468 -0.040574,0.086558 -0.07217,0.1566875 -0.095703,0.2089844 -0.00543,0.012068 -0.060547,0.1182999 -0.060547,0.2070313 0,0.2165221 0.1920971,0.3089652 0.2675781,0.3398437 a 0.29104165,0.29104165 0 0 0 0.027344,0.00977 c 0.3141987,0.092763 0.7241002,0.1347656 1.2070313,0.1347657 0.3834259,0 0.7349227,-0.016353 1.0488281,-0.050781 -0.1015294,0.1352353 -0.1966208,0.2592229 -0.2851562,0.375 a 0.29104165,0.29104165 0 0 0 -0.00781,0.00977 C 6.2516749,4.2221265 5.8884883,4.836091 5.6191406,5.4101562 5.4080475,5.862112 5.2566802,6.2832388 5.1738281,6.671875 5.1080175,6.9983968 5.0664063,7.2842118 5.0664062,7.4667969 c 0,0.115303 0.026878,0.2433096 0.125,0.3496093 a 0.29104165,0.29104165 0 0 0 0.00781,0.00781 C 5.3044776,7.9294776 5.4944472,8.0365719 5.6835937,8.125 a 0.29104165,0.29104165 0 0 0 0.1074219,0.027344 c 0.00168,3.897e-4 0.00418,0.00168 0.00586,0.00195 0.024072,0.00344 0.053471,0.0056 0.082031,0.00586 h 0.00195 c 0,0 0.00195,0 0.00195,0 0.00715,1.208e-4 0.029971,-2.389e-4 0.052734,-0.00391 a 0.29104165,0.29104165 0 0 0 0.048828,-0.013672 0.29104165,0.29104165 0 0 0 0.00195,0 h 0.00195 a 0.29104165,0.29104165 0 0 0 0.00391,-0.00195 c 0,0 0.00195,0 0.00195,0 0,0 0.00195,-0.00195 0.00195,-0.00195 a 0.29104165,0.29104165 0 0 0 0.00781,-0.00195 0.29104165,0.29104165 0 0 0 0.00781,-0.00391 0.29104165,0.29104165 0 0 0 0.00391,-0.00195 0.29104165,0.29104165 0 0 0 0.066406,-0.041016 c 0.00499,-0.00402 0.010992,-0.00755 0.015625,-0.011719 a 0.29104165,0.29104165 0 0 0 0.00586,-0.00781 l 0.00195,-0.00195 C 6.2116464,7.9653432 6.2207031,7.8242289 6.2207031,7.7539062 a 0.29104165,0.29104165 0 0 0 0,-0.019531 L 6.2089844,7.5625 c -0.0075,-0.1050271 -0.011719,-0.1951589 -0.011719,-0.2734375 0,-0.258324 0.038816,-0.5474789 0.1210938,-0.8691406 C 6.399906,6.0913372 6.566577,5.6603927 6.8222656,5.1386719 7.0695072,4.6261607 7.3358213,4.158833 7.6191406,3.7402344 8.0005114,3.1747536 8.2415691,2.8189324 8.3457031,2.6640625 c 0.056834,-0.085251 0.097656,-0.1898051 0.097656,-0.3085937 0,-0.2283491 -0.1661822,-0.3945313 -0.3945313,-0.3945313 -0.077695,0 -0.164339,0.00542 -0.2324219,0.021484 -0.027996,0.00609 -0.2009885,0.034801 -0.4667968,0.068359 -0.3278894,0.038727 -0.5771888,0.056641 -0.7324219,0.056641 -0.5434189,0 -0.9812573,-0.049153 -1.3007813,-0.1367188 -0.04582,-0.012218 -0.1989455,-0.056641 -0.2753906,-0.056641 z"
     id="text1"
     aria-label="17"
     inkscape:path-effect="#path-effect1"
     inkscape:original-d="m 4.3654164,7.4661436 q 0,0.039467 -0.031574,0.039467 H 2.1750063 q -0.039467,0 -0.039467,-0.04736 V 7.3280097 q 0,-0.04736 0.039467,-0.04736 H 2.893303 q 0.08288,0 0.08288,-0.2131209 0,-0.043414 0.00789,-1.7878482 0.00789,-1.7483814 0.00789,-1.7996883 0,-0.5643759 -0.02368,-0.72619 Q 2.928823,2.4854274 2.5381013,2.4854274 h -0.299948 q -0.04736,0 -0.04736,-0.04736 V 2.31572 q 0,-0.04736 0.04736,-0.04736 h 0.4222953 q 0.4933356,0 0.6946165,-0.039467 Q 3.556346,2.18548 3.5484526,2.18548 q 0.0592,0 0.0592,0.08288 0,-0.00789 -0.03552,1.9141421 -0.031573,1.9180888 -0.031573,2.0720095 0,1.026138 0.1697074,1.026138 h 0.6156828 q 0.039467,0 0.039467,0.039467 z m 3.786062,-5.1109568 q 0,0.074987 -0.04736,0.1460274 Q 7.9501975,2.7301219 7.3779282,3.5786591 6.9398462,4.2259154 6.5609645,5.0113057 6.1702427,5.808536 6.0360554,6.3492318 5.9058148,6.8583542 5.9058148,7.2885428 q 0,0.1302406 0.01184,0.2960014 0.01184,0.1697074 0.01184,0.1697074 0,0.1144539 -0.04736,0.1144539 -0.015787,0 -0.043413,-0.00395 -0.02368,-0.00395 -0.031574,-0.00395 Q 5.503253,7.7187314 5.4045859,7.6200643 q -0.04736,-0.051307 -0.04736,-0.1539207 0,-0.2289077 0.1026138,-0.73803 Q 5.5742933,6.1913644 5.8821347,5.5322681 6.2728565,4.6995176 6.9477396,3.7404732 7.2042741,3.405005 7.5318489,2.9629763 q 0.063147,-0.09472 0.063147,-0.1223472 0,-0.039467 -0.074987,-0.027627 -0.015787,0 -0.031573,0.00395 -0.6117361,0.1302406 -1.5352604,0.1302406 -0.7104032,0 -1.1248051,-0.1223473 -0.086827,-0.03552 -0.086827,-0.07104 0,-0.00789 0.03552,-0.086827 0.03552,-0.078934 0.09472,-0.2052276 0.03552,-0.074987 0.086827,-0.1933875 0.027627,-0.063147 0.08288,-0.063147 0.02368,0 0.2012809,0.04736 0.5328024,0.1460274 1.3734463,0.1460274 0.2644279,0 0.7656568,-0.0592 0.4065086,-0.051307 0.4972823,-0.07104 0.067094,-0.015787 0.1697074,-0.015787 0.1026138,0 0.1026138,0.1026138 z" /><text
     xml:space="preserve"
     style="font-style:normal;font-variant:normal;font-weight:normal;font-stretch:normal;font-size:8.08281px;font-family:'Californian FB';-inkscape-font-specification:'Californian FB, Normal';font-variant-ligatures:normal;font-variant-caps:normal;font-variant-numeric:normal;font-variant-east-asian:normal;text-align:center;letter-spacing:-0.00275551px;word-spacing:-0.0247999px;writing-mode:lr-tb;direction:ltr;text-anchor:middle;display:inline;fill:#741303;stroke:none;stroke-width:0.383257;stroke-linecap:round"
     x="4.9856415"
     y="7.5056105"
     id="text68"><tspan
       sodipodi:role="line"
       id="tspan68"
       style="font-style:normal;font-variant:normal;font-weight:normal;font-stretch:normal;font-size:8.08281px;font-family:'Californian FB';-inkscape-font-specification:'Californian FB, Normal';font-variant-ligatures:normal;font-variant-caps:normal;font-variant-numeric:normal;font-variant-east-asian:normal;fill:#741303;stroke:none;stroke-width:0.383254"
       x="4.9842639"
       y="7.5056105">17</tspan></text></svg>
