<?xml version="1.0" encoding="UTF-8" standalone="no"?>
<!-- Created with Inkscape (http://www.inkscape.org/) -->

<svg
   width="38"
   height="38"
   viewBox="0 0 10.054166 10.054166"
   version="1.1"
   id="svg1"
   sodipodi:docname="door19.svg"
   xml:space="preserve"
   inkscape:version="1.4.2 (f4327f4, 2025-05-13)"
   xmlns:inkscape="http://www.inkscape.org/namespaces/inkscape"
   xmlns:sodipodi="http://sodipodi.sourceforge.net/DTD/sodipodi-0.dtd"
   xmlns="http://www.w3.org/2000/svg"
   xmlns:svg="http://www.w3.org/2000/svg"><sodipodi:namedview
     id="namedview1"
     pagecolor="#ffffff"
     bordercolor="#000000"
     borderopacity="0.25"
     inkscape:showpageshadow="2"
     inkscape:pageopacity="0.0"
     inkscape:pagecheckerboard="0"
     inkscape:deskcolor="#d1d1d1"
     inkscape:zoom="7.5641818"
     inkscape:cx="-1.8508281"
     inkscape:cy="21.218422"
     inkscape:window-width="1920"
     inkscape:window-height="1094"
     inkscape:window-x="-11"
     inkscape:window-y="-11"
     inkscape:window-maximized="1"
     inkscape:current-layer="svg1" /><defs
     id="defs1"><inkscape:path-effect
       effect="offset"
       id="path-effect1"
       is_visible="true"
       lpeversion="1.3"
       linejoin_type="round"
       unit="px"
       offset="1.1"
       miter_limit="4"
       attempt_force_join="false"
       update_on_knot_move="true" /></defs><rect
     style="display:inline;fill:#f0ece1;fill-opacity:1;stroke:#741303;stroke-width:0.579845;stroke-linecap:round;stroke-linejoin:miter;stroke-dasharray:none;stroke-opacity:1"
     id="rect40"
     width="9.4743214"
     height="9.4743214"
     x="0.28992262"
     y="0.28992262"
     inkscape:export-filename="door1.svg"
     inkscape:export-xdpi="96"
     inkscape:export-ydpi="96" /><rect
     style="fill:#553823;fill-opacity:1;stroke:#553823;stroke-width:0.0655146;stroke-linejoin:round;stroke-dasharray:none"
     id="rect1"
     width="0.62200624"
     height="1.3887446"
     x="4.2894273"
     y="8.0489178"
     rx="0.027608266"
     ry="1.3887446" /><path
     style="display:inline;fill:#1b4a27;stroke:none;stroke-width:0.14752;stroke-linecap:round;stroke-linejoin:round;stroke-dasharray:none"
     d="M 4.6093671,1.4966386 2.7848165,4.2113629 3.568698,4.7187884 2.2442092,6.3171803 2.9740282,6.6723764 1.6495397,8.7020775 H 7.6975853 L 6.4339176,6.6977486 7.1096741,6.39329 5.7851858,4.6172999 6.4879766,4.3382104 Z"
     id="path1"
     sodipodi:nodetypes="cccccccccccc"
     inkscape:export-filename="Træet.svg"
     inkscape:export-xdpi="96"
     inkscape:export-ydpi="96" /><path
     style="font-size:8.08281px;font-family:'Californian FB';-inkscape-font-specification:'Californian FB, Normal';text-align:center;letter-spacing:-0.00275551px;word-spacing:-0.0247999px;text-anchor:middle;fill:#f0ece1;fill-opacity:1;stroke-width:0.383254;stroke-linecap:round"
     d="M 3.3808594,2.0449219 V 2.5429688 C 3.2688747,2.5463548 3.1681413,2.5211607 3.1503906,2.4433594 a 0.29104165,0.29104165 0 0 0 0.025391,0.099609 L 3.1484375,2.5097656 3.1191406,2.4628906 3.0996094,2.40625 3.0898438,2.3457031 c 1.98e-5,5.996e-4 -0.014166,-0.1817618 0.1582031,-0.2695312 0.023067,-0.011746 0.040868,-0.01585 0.046875,-0.017578 -0.00558,0.00128 -0.010831,0.00155 -0.021484,0.00391 -0.030902,0.00683 -0.080934,0.017901 -0.1425781,0.03125 -0.089913,0.01763 -0.3153509,0.033203 -0.6367188,0.033203 H 2.0703125 c -0.1923353,0 -0.3378906,0.1455553 -0.3378906,0.3378907 v 0.1230468 c 0,0.061967 0.017046,0.1424525 0.070312,0.2109375 a 0.29104165,0.29104165 0 0 0 0.025391,0.027344 c 0.069736,0.069736 0.1608046,0.099609 0.2421875,0.099609 h 0.3007813 c 0.084353,0 0.1278576,0.015502 0.1425781,0.021484 0.00869,0.059484 0.019531,0.3113943 0.019531,0.6835938 0,0.019725 -0.00255,0.6313154 -0.00781,1.796875 -0.00331,0.7326547 -0.00685,1.4726156 -0.00781,1.7109375 H 2.0078125 c -0.069122,0 -0.1249325,0.021803 -0.1601563,0.041016 a 0.29104165,0.29104165 0 0 0 -0.03125,0.019531 c -0.036297,0.026134 -0.050813,0.046913 -0.060547,0.058594 a 0.29104165,0.29104165 0 0 0 -0.021484,0.027344 c -0.038449,0.05932 -0.056641,0.1231447 -0.056641,0.1933594 v 0.1289063 c 0,0.048096 0.00733,0.1377049 0.078125,0.2226562 a 0.29104165,0.29104165 0 0 0 0.023437,0.027344 c 0.017345,0.016188 0.032111,0.026159 0.037109,0.029297 a 0.29104165,0.29104165 0 0 0 0.00195,0 v 0.00195 a 0.29104165,0.29104165 0 0 0 0.027344,0.015625 c 0.012716,0.00694 0.072244,0.042969 0.1621094,0.042969 h 2.1582031 c 0.040869,0 0.077764,-0.00962 0.091797,-0.013672 a 0.29104165,0.29104165 0 0 0 0.029297,-0.00977 c 0.00383,-0.00134 0.024716,-0.00832 0.041016,-0.017578 a 0.29104165,0.29104165 0 0 0 0.060547,-0.048828 l 0.00195,-0.00195 0.00195,-0.00195 a 0.29104165,0.29104165 0 0 0 0.021484,-0.023437 c 0.014023,-0.017529 0.022964,-0.029303 0.025391,-0.033203 a 0.29104165,0.29104165 0 0 0 0.013672,-0.029297 c 0.023212,-0.04836 0.035156,-0.1021815 0.035156,-0.1523437 V 7.4707031 c 0,-0.010441 0.00613,-0.090692 -0.044922,-0.1757812 A 0.29104165,0.29104165 0 0 0 4.4238281,7.2675781 C 4.4029437,7.2407268 4.3901326,7.2279156 4.3632812,7.2070312 A 0.29104165,0.29104165 0 0 0 4.3359375,7.1875 C 4.2915315,7.1608564 4.2262564,7.1386719 4.1582031,7.1386719 H 3.7050781 C 3.7043477,7.1345352 3.7038482,7.1293599 3.703125,7.125 3.6799106,6.9850526 3.6640625,6.7382902 3.6640625,6.4042969 c 0,-0.083325 0.010215,-0.7884457 0.03125,-2.0664063 0.021271,-1.1510095 0.0331,-1.7862945 0.035156,-1.8964843 V 2.4375 2.4355469 a 0.29104165,0.29104165 0 0 0 0,-0.00391 c 1.114e-4,-7.597e-4 -2.19e-5,-0.00511 0,-0.00586 a 0.29104165,0.29104165 0 0 0 0,-0.00781 c 0,-0.1722728 -0.108814,-0.3730469 -0.3496094,-0.3730469 z m 3.0761718,0 c -0.4804082,0 -0.8986359,0.150625 -1.2324218,0.4589844 -0.4439221,0.4061414 -0.6484375,0.9934081 -0.6484375,1.7109374 0,0.6541419 0.1784003,1.196252 0.5644531,1.5917969 0.3135653,0.3198366 0.6979016,0.4902344 1.1308594,0.4902344 0.1986145,0 0.4397874,-0.0513 0.7050781,-0.1328125 -0.05341,0.07678 -0.1177787,0.1590087 -0.1914063,0.2441406 -0.2790962,0.3231642 -0.553391,0.5317557 -0.8125,0.640625 -0.2593259,0.1088243 -0.5289028,0.1621094 -0.8183593,0.1621094 -0.1277349,0 -0.3671865,0.00435 -0.4941407,0.1738281 -0.044963,0.060025 -0.068359,0.1328956 -0.068359,0.2070313 0,0.092863 0.037708,0.178467 0.09375,0.2402343 0.1549389,0.1707687 0.4615136,0.1777344 0.6582031,0.1777344 0.3336878,0 0.6308361,-0.0359 0.8691406,-0.1132812 C 6.339954,7.8563591 6.5642111,7.7485719 6.7871094,7.6289062 7.2887541,7.3629741 7.6874246,6.9163865 7.9921875,6.3125 8.3005289,5.7071325 8.453125,5.0603943 8.453125,4.375 8.453125,3.6759845 8.2762247,3.1019253 7.8925781,2.6777344 7.5166617,2.2586799 7.0285414,2.0449219 6.4570312,2.0449219 Z M 6.1171875,2.9179688 c 0.1906477,0 0.3493258,0.036731 0.4882812,0.1054687 0.1389555,0.068737 0.2602315,0.1709091 0.3710938,0.3183594 0.2463951,0.3315133 0.3769531,0.7583521 0.3769531,1.3144531 0,0.232774 -0.00991,0.4026567 -0.017578,0.4609375 -0.1446797,0.1099003 -0.2878893,0.15625 -0.4570313,0.15625 -0.2577392,0 -0.4465845,-0.019862 -0.5488281,-0.044922 C 6.1962161,5.1972811 6.1098888,5.1563368 6.0761719,5.1308594 6.0362748,5.0994253 5.9433656,4.9941436 5.8359375,4.828125 5.6985701,4.6181492 5.6074219,4.2635428 5.6074219,3.7597656 c 0,-0.3782497 0.0979,-0.6214804 0.2890625,-0.8046875 0,0 0.00195,0 0.00195,0 0.011888,-0.00597 0.07624,-0.037109 0.21875,-0.037109 z"
     id="text1"
     aria-label="19"
     inkscape:path-effect="#path-effect1"
     inkscape:original-d="m 4.1981749,7.6161285 q 0,0.039467 -0.031573,0.039467 H 2.0077648 q -0.039467,0 -0.039467,-0.04736 v -0.130241 q 0,-0.04736 0.039467,-0.04736 h 0.7182967 q 0.08288,0 0.08288,-0.213121 0,-0.043414 0.00789,-1.7878482 0.00789,-1.7483814 0.00789,-1.7996883 0,-0.5643759 -0.02368,-0.72619 -0.03946,-0.2683747 -0.4301817,-0.2683747 h -0.299948 q -0.04736,0 -0.04736,-0.04736 V 2.4657048 q 0,-0.04736 0.04736,-0.04736 h 0.4222953 q 0.4933356,0 0.6946165,-0.039467 0.2012809,-0.043414 0.1933875,-0.043414 0.0592,0 0.0592,0.08288 0,-0.00789 -0.03552,1.9141421 -0.031573,1.9180888 -0.031573,2.0720095 0,1.0261381 0.1697074,1.0261381 H 4.158708 q 0.039467,0 0.039467,0.039467 z M 8.1618378,4.3759003 q 0,0.9590444 -0.4301887,1.8036349 Q 7.3054072,7.0241257 6.6502575,7.371434 6.2753224,7.5727149 6.1253484,7.6200751 q -0.3038947,0.098667 -0.7814436,0.098667 -0.4617621,0 -0.4617621,-0.126294 0,-0.090774 0.2723213,-0.090774 0.4893889,0 0.9314176,-0.1854942 0.4696555,-0.1973342 0.9195775,-0.7182966 0.3788818,-0.438082 0.4696555,-0.7932837 0.02368,-0.090774 0.00789,-0.1144538 -0.01184,-0.02368 -0.063147,0 Q 7.2146334,5.7888134 6.9265254,5.8756405 6.5121235,6.0058811 6.2713758,6.0058811 5.74252,6.0058811 5.3478515,5.6033192 4.866356,5.1099836 4.866356,4.2140862 q 0,-0.9866712 0.5564825,-1.4957935 0.4144019,-0.3828285 1.0340314,-0.3828285 0.7380301,0 1.2195256,0.5367492 0.4854423,0.5367491 0.4854423,1.5036869 z M 7.6448221,4.6561149 q 0,-0.9037908 -0.4341354,-1.4879002 Q 6.8041782,2.6275189 6.117455,2.6275189 q -0.3038947,0 -0.4262419,0.1223472 -0.3749351,0.3591484 -0.3749351,1.0103513 0,0.8051237 0.276268,1.227419 0.1736541,0.2683746 0.3038947,0.3709884 0.1302406,0.098667 0.3670417,0.1539207 0.2091743,0.051307 0.6156828,0.051307 0.3749351,0 0.6788298,-0.2525878 0.051307,-0.063147 0.063147,-0.138134 0.02368,-0.1302406 0.02368,-0.5170158 z" /><path
     style="font-size:8.08281px;font-family:'Californian FB';-inkscape-font-specification:'Californian FB, Normal';text-align:center;letter-spacing:-0.00275551px;word-spacing:-0.0247999px;text-anchor:middle;fill:#741303;stroke-width:0.383254;stroke-linecap:round"
     d="m 4.1981749,7.6161285 q 0,0.039467 -0.031573,0.039467 H 2.0077648 q -0.039467,0 -0.039467,-0.04736 V 7.4779945 q 0,-0.04736 0.039467,-0.04736 h 0.7182967 q 0.08288,0 0.08288,-0.213121 0,-0.043414 0.00789,-1.7878482 0.00789,-1.7483814 0.00789,-1.7996883 0,-0.5643759 -0.02368,-0.72619 Q 2.7615816,2.6354123 2.3708598,2.6354123 h -0.299948 q -0.04736,0 -0.04736,-0.04736 V 2.4657048 q 0,-0.04736 0.04736,-0.04736 h 0.4222953 q 0.4933356,0 0.6946165,-0.039467 0.2012809,-0.043414 0.1933875,-0.043414 0.0592,0 0.0592,0.08288 0,-0.00789 -0.03552,1.9141421 -0.031573,1.9180888 -0.031573,2.0720095 0,1.0261381 0.1697074,1.0261381 H 4.158708 q 0.039467,0 0.039467,0.039467 z M 8.1618378,4.3759003 q 0,0.9590444 -0.4301887,1.8036349 Q 7.3054072,7.0241257 6.6502575,7.371434 6.2753224,7.5727149 6.1253484,7.6200751 q -0.3038947,0.098667 -0.7814436,0.098667 -0.4617621,0 -0.4617621,-0.126294 0,-0.090774 0.2723213,-0.090774 0.4893889,0 0.9314176,-0.1854942 0.4696555,-0.1973342 0.9195775,-0.7182966 0.3788818,-0.438082 0.4696555,-0.7932837 0.02368,-0.090774 0.00789,-0.1144538 -0.01184,-0.02368 -0.063147,0 Q 7.2146334,5.7888134 6.9265254,5.8756405 6.5121235,6.0058811 6.2713758,6.0058811 5.74252,6.0058811 5.3478515,5.6033192 4.866356,5.1099836 4.866356,4.2140862 q 0,-0.9866712 0.5564825,-1.4957935 0.4144019,-0.3828285 1.0340314,-0.3828285 0.7380301,0 1.2195256,0.5367492 0.4854423,0.5367491 0.4854423,1.5036869 z M 7.6448221,4.6561149 q 0,-0.9037908 -0.4341354,-1.4879002 Q 6.8041782,2.6275189 6.117455,2.6275189 q -0.3038947,0 -0.4262419,0.1223472 -0.3749351,0.3591484 -0.3749351,1.0103513 0,0.8051237 0.276268,1.227419 0.1736541,0.2683746 0.3038947,0.3709884 0.1302406,0.098667 0.3670417,0.1539207 0.2091743,0.051307 0.6156828,0.051307 0.3749351,0 0.6788298,-0.2525878 0.051307,-0.063147 0.063147,-0.138134 0.02368,-0.1302406 0.02368,-0.5170157 z"
     id="text70"
     aria-label="19" /><g
     id="g2"
     inkscape:label="Stjerne"
     transform="translate(-0.00298183,0.05326334)"><path
       sodipodi:type="star"
       style="fill:#dfba62;fill-opacity:1;stroke:#dfba62;stroke-width:0.04445;stroke-linejoin:round;stroke-dasharray:none"
       id="path2"
       inkscape:flatsided="false"
       sodipodi:sides="5"
       sodipodi:cx="4.2294278"
       sodipodi:cy="1.3603423"
       sodipodi:r1="0.65997195"
       sodipodi:r2="0.29154173"
       sodipodi:arg1="1.3439975"
       sodipodi:arg2="1.972316"
       inkscape:rounded="0.07"
       inkscape:randomized="0"
       d="m 4.3778288,2.0034131 c -0.0312,0.0072 -0.2328677,-0.3622022 -0.2623406,-0.374716 -0.029473,-0.012514 -0.43531,0.09895 -0.4517987,0.071503 C 3.6472008,1.6727521 3.9362042,1.3668029 3.9389979,1.3349054 3.9417916,1.303008 3.7103724,0.95147837 3.7313814,0.9273149 c 0.021009,-0.0241635 0.4012909,0.1561516 0.4324905,0.1489517 0.031199,-0.0072 0.2940116,-0.33592128 0.3234846,-0.32340748 0.029473,0.0125138 -0.024503,0.42990388 -0.00801,0.45735158 0.016489,0.027448 0.4103346,0.1758163 0.407541,0.2077137 -0.00279,0.031897 -0.4164349,0.1095436 -0.4374438,0.1337071 -0.021009,0.024164 -0.040411,0.4445817 -0.07161,0.4517816 z"
       inkscape:transform-center-x="-0.019536308"
       inkscape:transform-center-y="-0.024344065"
       transform="matrix(0.66906566,-0.1792756,0.1792756,0.66906566,1.5717705,0.87945674)" /><rect
       style="fill:#dfba62;fill-opacity:1;stroke:#dfba62;stroke-width:0.0399257;stroke-linejoin:round;stroke-dasharray:none"
       id="rect2"
       width="0.083225779"
       height="0.2668626"
       x="4.5711699"
       y="1.2372864"
       rx="0"
       ry="0.2668626" /></g></svg>
