<?xml version="1.0" encoding="UTF-8" standalone="no"?>
<!-- Created with Inkscape (http://www.inkscape.org/) -->

<svg
   width="38"
   height="38"
   viewBox="0 0 10.054166 10.054166"
   version="1.1"
   id="svg1"
   sodipodi:docname="door16.svg"
   xml:space="preserve"
   inkscape:version="1.4.2 (f4327f4, 2025-05-13)"
   xmlns:inkscape="http://www.inkscape.org/namespaces/inkscape"
   xmlns:sodipodi="http://sodipodi.sourceforge.net/DTD/sodipodi-0.dtd"
   xmlns="http://www.w3.org/2000/svg"
   xmlns:svg="http://www.w3.org/2000/svg"><sodipodi:namedview
     id="namedview1"
     pagecolor="#ffffff"
     bordercolor="#000000"
     borderopacity="0.25"
     inkscape:showpageshadow="2"
     inkscape:pageopacity="0.0"
     inkscape:pagecheckerboard="0"
     inkscape:deskcolor="#d1d1d1"
     inkscape:zoom="10.697368"
     inkscape:cx="46.460025"
     inkscape:cy="22.762608"
     inkscape:window-width="1920"
     inkscape:window-height="1094"
     inkscape:window-x="-11"
     inkscape:window-y="-11"
     inkscape:window-maximized="1"
     inkscape:current-layer="svg1" /><defs
     id="defs1"><inkscape:path-effect
       effect="offset"
       id="path-effect1"
       is_visible="true"
       lpeversion="1.3"
       linejoin_type="round"
       unit="px"
       offset="1.1"
       miter_limit="4"
       attempt_force_join="false"
       update_on_knot_move="true" /><inkscape:path-effect
       effect="fillet_chamfer"
       id="path-effect24"
       is_visible="true"
       lpeversion="1"
       nodesatellites_param="F,0,0,1,0,0.26458332,0,1 @ F,0,0,1,0,0.26458332,0,1 @ F,0,0,1,0,0.26458332,0,1"
       radius="1"
       unit="px"
       method="auto"
       mode="F"
       chamfer_steps="1"
       flexible="false"
       use_knot_distance="true"
       apply_no_radius="true"
       apply_with_radius="true"
       only_selected="false"
       hide_knots="false" /><inkscape:path-effect
       effect="fillet_chamfer"
       id="path-effect22"
       is_visible="true"
       lpeversion="1"
       nodesatellites_param="F,0,0,1,0,0.26458332,0,1 @ F,0,0,1,0,0.26458332,0,1 @ F,0,0,1,0,0.26458332,0,1 @ F,0,0,1,0,0.26458332,0,1"
       radius="1"
       unit="px"
       method="auto"
       mode="F"
       chamfer_steps="1"
       flexible="false"
       use_knot_distance="true"
       apply_no_radius="true"
       apply_with_radius="true"
       only_selected="false"
       hide_knots="false" /><inkscape:path-effect
       effect="fillet_chamfer"
       id="path-effect21"
       is_visible="true"
       lpeversion="1"
       nodesatellites_param="F,0,0,1,0,0.26458332,0,1 @ F,0,0,1,0,0.26458332,0,1 @ F,0,0,1,0,0.26458332,0,1"
       radius="1"
       unit="px"
       method="auto"
       mode="F"
       chamfer_steps="1"
       flexible="false"
       use_knot_distance="true"
       apply_no_radius="true"
       apply_with_radius="true"
       only_selected="false"
       hide_knots="false" /><inkscape:path-effect
       effect="fillet_chamfer"
       id="path-effect20"
       is_visible="true"
       lpeversion="1"
       nodesatellites_param="F,0,0,1,0,0.26458332,0,1 @ F,0,0,1,0,0.26458332,0,1 @ F,0,0,1,0,0.26458332,0,1"
       radius="1"
       unit="px"
       method="auto"
       mode="F"
       chamfer_steps="1"
       flexible="false"
       use_knot_distance="true"
       apply_no_radius="true"
       apply_with_radius="true"
       only_selected="false"
       hide_knots="false" /><inkscape:path-effect
       effect="fillet_chamfer"
       id="path-effect18"
       is_visible="true"
       lpeversion="1"
       nodesatellites_param="F,0,0,1,0,0.26458332,0,1 @ F,0,0,1,0,0.26458332,0,1 @ F,0,0,1,0,0.26458332,0,1 @ F,0,0,1,0,0.26458332,0,1"
       radius="1"
       unit="px"
       method="auto"
       mode="F"
       chamfer_steps="1"
       flexible="false"
       use_knot_distance="true"
       apply_no_radius="true"
       apply_with_radius="true"
       only_selected="false"
       hide_knots="false" /><inkscape:path-effect
       effect="fillet_chamfer"
       id="path-effect17"
       is_visible="true"
       lpeversion="1"
       nodesatellites_param="F,0,0,1,0,0.26458332,0,1 @ F,0,0,1,0,0.26458332,0,1 @ F,0,0,1,0,0.26458332,0,1"
       radius="1"
       unit="px"
       method="auto"
       mode="F"
       chamfer_steps="1"
       flexible="false"
       use_knot_distance="true"
       apply_no_radius="true"
       apply_with_radius="true"
       only_selected="false"
       hide_knots="false" /><inkscape:path-effect
       effect="spiro"
       id="path-effect25"
       is_visible="true"
       lpeversion="1" /><inkscape:path-effect
       effect="bend_path"
       id="path-effect23"
       is_visible="true"
       lpeversion="1"
       bendpath="m 23.197417,74.70664 c 5.824811,5.968642 11.280875,4.193583 16.621771,0"
       prop_scale="1"
       scale_y_rel="false"
       vertical="false"
       hide_knot="false"
       bendpath-nodetypes="cc" /><inkscape:path-effect
       effect="fillet_chamfer"
       id="path-effect19"
       is_visible="true"
       lpeversion="1"
       nodesatellites_param="F,0,0,1,0,13.610823,0,1 @ F,0,0,1,0,7.6181396,0,1 @ F,0,0,1,0,0,0,1 @ F,0,0,1,0,0,0,1 @ F,0,0,1,0,0,0,1 @ F,0,0,1,0,0,0,1 @ F,0,0,1,0,0,0,1 @ F,0,0,1,0,0,0,1 @ F,0,0,1,0,0,0,1 @ F,0,0,1,0,0,0,1 @ F,0,0,1,0,0,0,1 @ F,0,0,1,0,0,0,1 @ F,0,0,1,0,0,0,1 @ F,0,0,1,0,0,0,1 @ F,0,0,1,0,0,0,1 @ F,0,0,1,0,0,0,1 @ F,0,0,1,0,9.8086838,0,1"
       radius="0"
       unit="px"
       method="auto"
       mode="F"
       chamfer_steps="1"
       flexible="false"
       use_knot_distance="true"
       apply_no_radius="true"
       apply_with_radius="true"
       only_selected="false"
       hide_knots="false" /><inkscape:path-effect
       effect="bend_path"
       id="path-effect4"
       is_visible="true"
       lpeversion="1"
       bendpath="m 54.047818,159.58759 c 27.052641,-62.939937 12.72201,-53.95868 38.795563,0.36532"
       prop_scale="0.99302976"
       scale_y_rel="false"
       vertical="false"
       hide_knot="false"
       bendpath-nodetypes="cc" /><inkscape:path-effect
       effect="bend_path"
       id="path-effect3"
       is_visible="true"
       lpeversion="1"
       bendpath="M 48.302799,161.04885 H 141.16478"
       prop_scale="1"
       scale_y_rel="false"
       vertical="false"
       hide_knot="false" /><inkscape:path-effect
       effect="fillet_chamfer"
       id="path-effect19-5"
       is_visible="true"
       lpeversion="1"
       nodesatellites_param="F,0,0,1,0,13.610823,0,1 @ F,0,0,1,0,7.6181396,0,1 @ F,0,0,1,0,0,0,1 @ F,0,0,1,0,0,0,1 @ F,0,0,1,0,0,0,1 @ F,0,0,1,0,0,0,1 @ F,0,0,1,0,0,0,1 @ F,0,0,1,0,0,0,1 @ F,0,0,1,0,0,0,1 @ F,0,0,1,0,0,0,1 @ F,0,0,1,0,0,0,1 @ F,0,0,1,0,0,0,1 @ F,0,0,1,0,0,0,1 @ F,0,0,1,0,0,0,1 @ F,0,0,1,0,0,0,1 @ F,0,0,1,0,0,0,1 @ F,0,0,1,0,9.8086838,0,1"
       radius="0"
       unit="px"
       method="auto"
       mode="F"
       chamfer_steps="1"
       flexible="false"
       use_knot_distance="true"
       apply_no_radius="true"
       apply_with_radius="true"
       only_selected="false"
       hide_knots="false" /></defs><rect
     style="display:inline;fill:#f0ece1;fill-opacity:1;stroke:#741303;stroke-width:0.579845;stroke-linecap:round;stroke-linejoin:miter;stroke-dasharray:none;stroke-opacity:1"
     id="rect22"
     width="9.4743214"
     height="9.4743214"
     x="0.28992227"
     y="0.28992197"
     inkscape:export-filename="door1.svg"
     inkscape:export-xdpi="96"
     inkscape:export-ydpi="96" /><path
     style="font-size:8.08281px;font-family:'Californian FB';-inkscape-font-specification:'Californian FB, Normal';text-align:center;letter-spacing:-0.00275551px;word-spacing:-0.0247999px;text-anchor:middle;fill:#f0ece1;stroke-width:0.383254;stroke-linecap:round"
     d="m 7.6621094,2.0410156 c -0.5809847,0 -1.097369,0.1253 -1.5429688,0.3867188 C 5.6342416,2.7115777 5.2422247,3.1412164 4.9414062,3.703125 4.6321638,4.2847279 4.4785156,4.9031239 4.4785156,5.5566406 c 0,0.6189759 0.1241552,1.1538404 0.3886719,1.5957031 0.3461118,0.5799711 0.8765958,0.8769532 1.5605469,0.8769532 0.2194159,0 0.4272779,-0.00724 0.5449218,-0.029297 a 0.29104165,0.29104165 0 0 0 0.015625,-0.00195 C 7.1006959,7.9709123 7.2556835,7.8978246 7.390625,7.8242187 7.7006869,7.6562686 7.9397889,7.4055756 8.1191406,7.0742187 8.2841709,6.7738638 8.3515625,6.3771101 8.3515625,5.9160156 8.3515623,5.3258452 8.225421,4.8298595 7.9394531,4.4667969 7.8426922,4.3415765 7.7456701,4.234427 7.6464844,4.1523437 7.5838681,4.1007771 7.4915173,4.0394414 7.3867187,3.9765625 7.171313,3.8473191 6.9395044,3.78125 6.6914062,3.78125 6.4304263,3.78125 6.1894611,3.8195009 5.9765625,3.8984375 6.0790847,3.7376772 6.2016959,3.5834604 6.3476562,3.4375 6.5511719,3.2339843 6.8039177,3.0729938 7.109375,2.953125 7.1483612,2.9385052 7.2935804,2.9029034 7.5,2.8730469 c 0.1898459,-0.025655 0.3232255,-0.037109 0.3554687,-0.037109 0.059648,0 0.1296726,-0.00578 0.1972657,-0.027344 C 8.1853857,2.7662654 8.3164063,2.6503007 8.3164063,2.4628906 8.3164063,2.3868781 8.2947165,2.3142623 8.25,2.25 8.1145352,2.055323 7.8406584,2.0410156 7.6621094,2.0410156 Z M 3.40625,2.0644531 a 0.29104165,0.29104165 0 0 0 -0.082031,0.011719 c -0.00559,0.00128 -0.01493,0.00355 -0.025391,0.00586 -0.030901,0.00683 -0.080933,0.017901 -0.1425781,0.03125 -0.08939,0.017527 -0.317304,0.033203 -0.6386719,0.033203 h -0.421875 c -0.066058,0 -0.1290888,0.018469 -0.1796875,0.048828 a 0.29104165,0.29104165 0 0 0 -0.027344,0.019531 c -0.092018,0.07157 -0.1308594,0.1802611 -0.1308594,0.2714843 v 0.1210938 c 0,0.061967 0.017046,0.1424524 0.070312,0.2109375 a 0.29104165,0.29104165 0 0 0 0.025391,0.027344 v 0.00195 c 0.00319,0.00352 0.01554,0.015559 0.033203,0.029297 a 0.29104165,0.29104165 0 0 0 0.027344,0.019531 c 0.033675,0.020205 0.094916,0.050781 0.1816406,0.050781 h 0.3007813 c 0.083137,0 0.1269593,0.013482 0.1425781,0.019531 0.00867,0.062072 0.019531,0.3143738 0.019531,0.6835937 -1e-7,0.019725 -0.00255,0.6313155 -0.00781,1.796875 -0.00331,0.7327928 -0.00685,1.4742712 -0.00781,1.7128906 H 2.0332031 c -0.024186,0 -0.087592,-5.176e-4 -0.1601562,0.039063 a 0.29104165,0.29104165 0 0 0 -0.03125,0.019531 c -0.036297,0.026134 -0.050813,0.046913 -0.060547,0.058594 a 0.29104165,0.29104165 0 0 0 -0.021484,0.027344 C 1.721317,7.3640078 1.703125,7.4278321 1.703125,7.4980469 v 0.1308593 c 0,0.054752 0.012591,0.1420632 0.078125,0.2207032 a 0.29104165,0.29104165 0 0 0 0.023437,0.027344 c 0.017345,0.016188 0.032111,0.026159 0.037109,0.029297 a 0.29104165,0.29104165 0 0 0 0.00195,0 v 0.00195 a 0.29104165,0.29104165 0 0 0 0.027344,0.015625 c 0.012716,0.00694 0.072244,0.042969 0.1621094,0.042969 h 2.1582031 c 0.040869,0 0.077764,-0.00962 0.091797,-0.013672 A 0.29104165,0.29104165 0 0 0 4.3125,7.9433594 c 0.00383,-0.00134 0.024716,-0.00832 0.041016,-0.017578 a 0.29104165,0.29104165 0 0 0 0.060547,-0.048828 l 0.00195,-0.00195 0.00195,-0.00195 a 0.29104165,0.29104165 0 0 0 0.021484,-0.023437 c 0.014023,-0.017529 0.022964,-0.029303 0.025391,-0.033203 a 0.29104165,0.29104165 0 0 0 0.013672,-0.029297 c 0.018004,-0.037509 0.035156,-0.091868 0.035156,-0.1503907 V 7.4902344 c 0,-0.034797 -0.00519,-0.089549 -0.029297,-0.1425782 A 0.29104165,0.29104165 0 0 0 4.46875,7.3183594 c -0.00838,-0.013975 -0.00429,-0.00858 -0.023437,-0.033203 a 0.29104165,0.29104165 0 0 0 -0.025391,-0.027344 l -0.00195,-0.00195 A 0.29104165,0.29104165 0 0 0 4.390625,7.2304687 c -0.02462,-0.019149 -0.019228,-0.015053 -0.033203,-0.023437 A 0.29104165,0.29104165 0 0 0 4.328125,7.1914062 c -0.024762,-0.011255 -0.080139,-0.03125 -0.1445313,-0.03125 H 3.7304688 c -7.783e-4,-0.0044 -0.00118,-0.00902 -0.00195,-0.013672 -0.02325,-0.1405607 -0.039063,-0.388663 -0.039063,-0.7226563 0,-0.083326 0.010214,-0.7884457 0.03125,-2.0664062 0.021271,-1.1510095 0.0331,-1.7862946 0.035156,-1.8964844 v -0.00391 -0.00195 -0.00391 -0.00195 -0.00195 a 0.29104165,0.29104165 0 0 0 0,-0.00977 c 0,-0.1722728 -0.108814,-0.3730469 -0.3496094,-0.3730469 z m 2.7128906,2.7558594 c 0.2494467,0 0.4447557,0.026337 0.5839844,0.066406 0.096123,0.026768 0.2610097,0.1519711 0.4375,0.4414063 0.1093898,0.1816982 0.1914062,0.5310303 0.1914062,1.0371094 2e-7,0.3664192 -0.099207,0.6034539 -0.2988281,0.7871093 -0.015808,0.014413 -0.075025,0.046875 -0.21875,0.046875 -0.1918415,0 -0.3559337,-0.041505 -0.5097656,-0.1269531 C 6.1508556,6.9868173 6.0050931,6.8537097 5.8691406,6.6640625 5.6831033,6.4036102 5.5683594,5.9845084 5.5683594,5.3867187 c 0,-0.1497043 0.00834,-0.2943386 0.021484,-0.4277343 0.1338806,-0.090116 0.3006569,-0.1386719 0.5292969,-0.1386719 z"
     id="text1"
     aria-label="16"
     inkscape:path-effect="#path-effect1"
     inkscape:original-d="m 4.2233449,7.6360421 q 0,0.039467 -0.031573,0.039467 h -2.158837 q -0.039467,0 -0.039467,-0.04736 V 7.4979082 q 0,-0.04736 0.039467,-0.04736 h 0.7182966 q 0.08288,0 0.08288,-0.2131209 0,-0.043414 0.00789,-1.7878482 0.00789,-1.7483814 0.00789,-1.7996883 0,-0.5643759 -0.02368,-0.72619 Q 2.7867517,2.655326 2.3960299,2.655326 H 2.0960818 q -0.04736,0 -0.04736,-0.04736 V 2.4856185 q 0,-0.04736 0.04736,-0.04736 h 0.4222953 q 0.4933356,0 0.6946165,-0.039467 0.2012809,-0.043413 0.1933876,-0.043413 0.0592,0 0.0592,0.08288 0,-0.00789 -0.03552,1.9141421 -0.031574,1.9180888 -0.031574,2.0720095 0,1.026138 0.1697074,1.026138 h 0.6156829 q 0.039467,0 0.039467,0.039467 z m 3.837369,-1.7207545 q 0,0.6590963 -0.1973343,1.0182446 Q 7.6305252,7.3637209 7.2516435,7.5689485 7.0345758,7.687349 6.920122,7.7149758 q -0.1262939,0.02368 -0.4933356,0.02368 -0.8722174,0 -1.3102994,-0.7340833 -0.3473082,-0.5801627 -0.3473082,-1.4484333 0,-0.9077375 0.4301886,-1.7168079 Q 5.617716,3.0578878 6.2649723,2.6790061 6.856975,2.3316978 7.6620987,2.3316978 q 0.363095,0 0.363095,0.1302406 0,0.08288 -0.1697074,0.08288 -0.1026138,0 -0.3946685,0.039467 Q 7.133243,2.6316458 7.006949,2.6790061 6.49388,2.880287 6.1426251,3.2315419 5.6532362,3.7209308 5.4480086,4.3366137 q -0.039467,0.1262939 0.01184,0.1262939 0.02368,0 0.0592,-0.027627 0.1776008,-0.086827 0.4144019,-0.2012809 0.3117881,-0.1618141 0.7577635,-0.1618141 0.2881079,0 0.5446425,0.1539207 0.1578673,0.09472 0.224961,0.149974 0.1144538,0.09472 0.2486411,0.2683746 0.351255,0.4459754 0.3512553,1.2708327 z m -0.438082,0.449922 q 0,-0.801177 -0.2328544,-1.1879521 Q 7.0937761,4.6918153 6.781988,4.6049882 6.5215068,4.5300012 6.118945,4.5300012 q -0.4696555,0 -0.7696036,0.2446945 -0.03552,0.031574 -0.04736,0.1302406 -0.02368,0.2289077 -0.02368,0.4814955 0,0.951151 0.3552016,1.4484333 0.4696555,0.6551497 1.1800588,0.6551497 0.2802146,0 0.4144019,-0.1223472 0.3946685,-0.363095 0.3946682,-1.002458 z" /><text
     xml:space="preserve"
     style="font-style:normal;font-variant:normal;font-weight:normal;font-stretch:normal;font-size:8.08281px;font-family:'Californian FB';-inkscape-font-specification:'Californian FB, Normal';font-variant-ligatures:normal;font-variant-caps:normal;font-variant-numeric:normal;font-variant-east-asian:normal;text-align:center;letter-spacing:-0.00275551px;word-spacing:-0.0247999px;writing-mode:lr-tb;direction:ltr;text-anchor:middle;fill:#741303;stroke:none;stroke-width:0.383257;stroke-linecap:round"
     x="5.0586643"
     y="7.675509"
     id="text67"><tspan
       sodipodi:role="line"
       id="tspan67"
       style="font-style:normal;font-variant:normal;font-weight:normal;font-stretch:normal;font-size:8.08281px;font-family:'Californian FB';-inkscape-font-specification:'Californian FB, Normal';font-variant-ligatures:normal;font-variant-caps:normal;font-variant-numeric:normal;font-variant-east-asian:normal;fill:#741303;stroke:none;stroke-width:0.383254"
       x="5.0572882"
       y="7.675509">16</tspan></text><g
     id="g1"
     transform="matrix(0.51090194,0,0,0.51090194,0.51000459,-0.77588172)"
     inkscape:label="Nissehue"><path
       id="path1"
       style="fill:#a11d1d;stroke:#000000;stroke-width:0.0518583;stroke-linecap:round;stroke-linejoin:round;stroke-dasharray:none;stroke-opacity:1"
       inkscape:transform-center-x="0.02523698"
       inkscape:transform-center-y="-1.0102638"
       d="M 6.9329502,3.2952382 C 7.0418913,3.2965182 5.2751727,3.5198561 5.6138592,5.1989594 5.9429204,6.8303421 7.0920324,8.0477123 7.0023534,8.1038574 6.1750934,8.6217778 4.9429166,9.8427754 2.4795545,7.8356377 2.3986686,7.7697323 2.7583864,6.7676676 3.409094,5.2940299 3.9588947,4.0489131 6.8225413,3.2939394 6.9329502,3.2952382 Z"
       sodipodi:nodetypes="ssssss" /><ellipse
       style="fill:#f6ede4;stroke:#000000;stroke-width:0.0518583;stroke-linecap:round;stroke-linejoin:round;stroke-dasharray:none;stroke-opacity:1"
       id="path2"
       cx="6.8945007"
       cy="3.3835006"
       rx="0.5510962"
       ry="0.58954477" /><path
       id="path2-8"
       style="fill:#f6ede4;stroke:#000000;stroke-width:0.0518583;stroke-linecap:round;stroke-linejoin:round;stroke-dasharray:none;stroke-opacity:1"
       d="M 6.6056144,7.4493791 C 6.2202344,8.0185225 4.4029861,8.2802064 2.4848364,7.645776 1.6030356,9.6483074 7.0066354,9.1713407 7.0158484,8.0947104 7.0177444,7.8731352 6.9759854,7.693113 6.6056144,7.4493791 Z"
       sodipodi:nodetypes="ccsc" /></g></svg>
