<?xml version="1.0" encoding="UTF-8" standalone="no"?>
<!-- Created with Inkscape (http://www.inkscape.org/) -->

<svg
   width="38"
   height="38"
   viewBox="0 0 10.054166 10.054166"
   version="1.1"
   id="svg1"
   sodipodi:docname="door2.svg"
   inkscape:version="1.4.2 (f4327f4, 2025-05-13)"
   xmlns:inkscape="http://www.inkscape.org/namespaces/inkscape"
   xmlns:sodipodi="http://sodipodi.sourceforge.net/DTD/sodipodi-0.dtd"
   xmlns="http://www.w3.org/2000/svg"
   xmlns:svg="http://www.w3.org/2000/svg">
  <sodipodi:namedview
     id="namedview1"
     pagecolor="#ffffff"
     bordercolor="#000000"
     borderopacity="0.25"
     inkscape:showpageshadow="2"
     inkscape:pageopacity="0.0"
     inkscape:pagecheckerboard="0"
     inkscape:deskcolor="#d1d1d1"
     inkscape:zoom="21.394737"
     inkscape:cx="19.02337"
     inkscape:cy="18.97663"
     inkscape:window-width="1043"
     inkscape:window-height="1081"
     inkscape:window-x="855"
     inkscape:window-y="0"
     inkscape:window-maximized="0"
     inkscape:current-layer="svg1" />
  <defs
     id="defs1" />
  <g
     id="g15"
     inkscape:label="2"
     transform="matrix(0.22949234,0,0,0.22949234,-13.538841,-2.2784141)">
    <rect
       style="display:inline;fill:#741303;fill-opacity:1;stroke:#741303;stroke-width:2.52664;stroke-linecap:round;stroke-linejoin:miter;stroke-dasharray:none;stroke-opacity:1"
       id="rect42"
       width="41.283825"
       height="41.283825"
       x="60.25806"
       y="11.191381"
       inkscape:export-filename="door1.svg"
       inkscape:export-xdpi="96"
       inkscape:export-ydpi="96" />
    <path
       style="font-size:35.2204px;font-family:'Californian FB';-inkscape-font-specification:'Californian FB, Normal';text-align:center;letter-spacing:-0.012007px;word-spacing:-0.108064px;text-anchor:middle;fill:#f0ece1;stroke-width:1.67001;stroke-linecap:round"
       d="m 88.703284,41.137138 q 0,0.08599 -0.20637,0.567516 -0.292357,0.670701 -0.670701,1.513377 Q 87.688634,43.4244 87.533856,43.4244 H 74.549773 q -0.292357,0 -0.292357,-0.533121 0,-0.343949 0.601911,-0.739491 4.454143,-2.957963 7.085354,-6.363061 1.822931,-2.390447 2.51083,-4.213378 0.653503,-1.702549 0.653503,-3.886626 0,-2.356052 -1.169427,-3.66306 -1.341402,-1.530574 -4.213378,-1.530574 -3.405098,0 -4.901277,1.943314 -0.13758,0.171974 -0.309554,0.103184 -0.292357,-0.137579 -0.292357,-0.275159 0,-0.533121 0.928663,-1.478982 0.825478,-0.842675 1.650956,-1.307007 2.012103,-1.15223 4.643315,-1.15223 2.717199,0 4.368155,1.650956 1.582167,1.582167 1.582167,4.402551 0,1.89172 -0.773886,3.800639 -1.478982,3.628664 -3.766244,6.122296 -2.545224,2.785989 -5.142041,4.729302 -0.171975,0.120382 -0.171975,0.223567 0,0.189172 0.412739,0.189172 h 4.230576 q 3.800639,0 5.709557,-0.412739 0.464332,-0.103185 0.567516,-0.103185 0.240765,0 0.240765,0.20637 z"
       id="text53"
       aria-label="2" />
  </g>
</svg>
