<?xml version="1.0" encoding="UTF-8" standalone="no"?>
<!-- Created with Inkscape (http://www.inkscape.org/) -->

<svg
   width="38"
   height="38"
   viewBox="0 0 10.054166 10.054166"
   version="1.1"
   id="svg1"
   sodipodi:docname="door1.svg"
   inkscape:version="1.4.2 (f4327f4, 2025-05-13)"
   xmlns:inkscape="http://www.inkscape.org/namespaces/inkscape"
   xmlns:sodipodi="http://sodipodi.sourceforge.net/DTD/sodipodi-0.dtd"
   xmlns="http://www.w3.org/2000/svg"
   xmlns:svg="http://www.w3.org/2000/svg">
  <sodipodi:namedview
     id="namedview1"
     pagecolor="#ffffff"
     bordercolor="#000000"
     borderopacity="0.25"
     inkscape:showpageshadow="2"
     inkscape:pageopacity="0.0"
     inkscape:pagecheckerboard="0"
     inkscape:deskcolor="#d1d1d1"
     inkscape:zoom="10.697369"
     inkscape:cx="-2.2902828"
     inkscape:cy="24.445263"
     inkscape:window-width="1920"
     inkscape:window-height="1094"
     inkscape:window-x="-11"
     inkscape:window-y="-11"
     inkscape:window-maximized="1"
     inkscape:current-layer="svg1"
     showgrid="false">
    <inkscape:grid
       id="grid96"
       units="px"
       originx="0"
       originy="0"
       spacingx="0.26458332"
       spacingy="0.26458332"
       empcolor="#0099e5"
       empopacity="0.30196078"
       color="#0099e5"
       opacity="0.14901961"
       empspacing="5"
       enabled="true"
       visible="false" />
  </sodipodi:namedview>
  <defs
     id="defs1">
    <inkscape:path-effect
       effect="offset"
       id="path-effect7"
       is_visible="true"
       lpeversion="1.3"
       linejoin_type="round"
       unit="px"
       offset="1.1"
       miter_limit="3"
       attempt_force_join="false"
       update_on_knot_move="true" />
    <inkscape:path-effect
       effect="spiro"
       id="path-effect95"
       is_visible="true"
       lpeversion="1" />
    <inkscape:path-effect
       effect="fillet_chamfer"
       id="path-effect93"
       is_visible="true"
       lpeversion="1"
       nodesatellites_param="F,0,0,1,0,0,0,1 @ F,0,0,1,0,37.883809,0,1 @ F,0,0,1,0,0,0,1 @ F,0,0,1,0,0,0,1"
       radius="0"
       unit="px"
       method="auto"
       mode="F"
       chamfer_steps="1"
       flexible="false"
       use_knot_distance="true"
       apply_no_radius="true"
       apply_with_radius="true"
       only_selected="false"
       hide_knots="false" />
    <inkscape:path-effect
       effect="fillet_chamfer"
       id="path-effect91"
       is_visible="true"
       lpeversion="1"
       nodesatellites_param="F,0,0,1,0,0,0,1 @ F,0,0,1,0,37.883809,0,1 @ F,0,0,1,0,0,0,1 @ F,0,0,1,0,0,0,1"
       radius="0"
       unit="px"
       method="auto"
       mode="F"
       chamfer_steps="1"
       flexible="false"
       use_knot_distance="true"
       apply_no_radius="true"
       apply_with_radius="true"
       only_selected="false"
       hide_knots="false" />
    <inkscape:path-effect
       effect="fillet_chamfer"
       id="path-effect89"
       is_visible="true"
       lpeversion="1"
       nodesatellites_param="F,0,0,1,0,0,0,1 @ F,0,0,1,0,37.883809,0,1 @ F,0,0,1,0,0,0,1 @ F,0,0,1,0,0,0,1"
       radius="0"
       unit="px"
       method="auto"
       mode="F"
       chamfer_steps="1"
       flexible="false"
       use_knot_distance="true"
       apply_no_radius="true"
       apply_with_radius="true"
       only_selected="false"
       hide_knots="false" />
    <inkscape:path-effect
       effect="fillet_chamfer"
       id="path-effect87"
       is_visible="true"
       lpeversion="1"
       nodesatellites_param="F,0,0,1,0,0,0,1 @ F,0,0,1,0,37.883809,0,1 @ F,0,0,1,0,0,0,1 @ F,0,0,1,0,0,0,1"
       radius="0"
       unit="px"
       method="auto"
       mode="F"
       chamfer_steps="1"
       flexible="false"
       use_knot_distance="true"
       apply_no_radius="true"
       apply_with_radius="true"
       only_selected="false"
       hide_knots="false" />
    <inkscape:path-effect
       effect="spiro"
       id="path-effect73"
       is_visible="true"
       lpeversion="1" />
    <inkscape:path-effect
       effect="fillet_chamfer"
       id="path-effect71"
       is_visible="true"
       lpeversion="1"
       nodesatellites_param="F,0,0,1,0,0,0,1 @ F,0,0,1,0,37.883809,0,1 @ F,0,0,1,0,0,0,1 @ F,0,0,1,0,0,0,1"
       radius="0"
       unit="px"
       method="auto"
       mode="F"
       chamfer_steps="1"
       flexible="false"
       use_knot_distance="true"
       apply_no_radius="true"
       apply_with_radius="true"
       only_selected="false"
       hide_knots="false" />
    <inkscape:path-effect
       effect="fillet_chamfer"
       id="path-effect69"
       is_visible="true"
       lpeversion="1"
       nodesatellites_param="F,0,0,1,0,0,0,1 @ F,0,0,1,0,37.883809,0,1 @ F,0,0,1,0,0,0,1 @ F,0,0,1,0,0,0,1"
       radius="0"
       unit="px"
       method="auto"
       mode="F"
       chamfer_steps="1"
       flexible="false"
       use_knot_distance="true"
       apply_no_radius="true"
       apply_with_radius="true"
       only_selected="false"
       hide_knots="false" />
    <inkscape:path-effect
       effect="fillet_chamfer"
       id="path-effect67"
       is_visible="true"
       lpeversion="1"
       nodesatellites_param="F,0,0,1,0,0,0,1 @ F,0,0,1,0,37.883809,0,1 @ F,0,0,1,0,0,0,1 @ F,0,0,1,0,0,0,1"
       radius="0"
       unit="px"
       method="auto"
       mode="F"
       chamfer_steps="1"
       flexible="false"
       use_knot_distance="true"
       apply_no_radius="true"
       apply_with_radius="true"
       only_selected="false"
       hide_knots="false" />
    <inkscape:path-effect
       effect="fillet_chamfer"
       id="path-effect64"
       is_visible="true"
       lpeversion="1"
       nodesatellites_param="F,0,0,1,0,0,0,1 @ F,0,0,1,0,37.883809,0,1 @ F,0,0,1,0,0,0,1 @ F,0,0,1,0,0,0,1"
       radius="0"
       unit="px"
       method="auto"
       mode="F"
       chamfer_steps="1"
       flexible="false"
       use_knot_distance="true"
       apply_no_radius="true"
       apply_with_radius="true"
       only_selected="false"
       hide_knots="false" />
    <inkscape:path-effect
       effect="fillet_chamfer"
       id="path-effect4"
       is_visible="true"
       lpeversion="1"
       nodesatellites_param="F,0,0,1,0,0,0,1 @ F,0,0,1,0,37.883809,0,1 @ F,0,0,1,0,0,0,1 @ F,0,0,1,0,0,0,1"
       radius="0"
       unit="px"
       method="auto"
       mode="F"
       chamfer_steps="1"
       flexible="false"
       use_knot_distance="true"
       apply_no_radius="true"
       apply_with_radius="true"
       only_selected="false"
       hide_knots="false" />
    <inkscape:path-effect
       effect="fillet_chamfer"
       id="path-effect10"
       is_visible="true"
       lpeversion="1"
       nodesatellites_param="F,0,0,1,0,0,0,1 @ F,0,0,1,0,37.883809,0,1 @ F,0,0,1,0,0,0,1 @ F,0,0,1,0,0,0,1"
       radius="0"
       unit="px"
       method="auto"
       mode="F"
       chamfer_steps="1"
       flexible="false"
       use_knot_distance="true"
       apply_no_radius="true"
       apply_with_radius="true"
       only_selected="false"
       hide_knots="false" />
    <inkscape:path-effect
       effect="fillet_chamfer"
       id="path-effect14"
       is_visible="true"
       lpeversion="1"
       nodesatellites_param="F,0,0,1,0,0,0,1 @ F,0,0,1,0,37.883809,0,1 @ F,0,0,1,0,0,0,1 @ F,0,0,1,0,0,0,1"
       radius="0"
       unit="px"
       method="auto"
       mode="F"
       chamfer_steps="1"
       flexible="false"
       use_knot_distance="true"
       apply_no_radius="true"
       apply_with_radius="true"
       only_selected="false"
       hide_knots="false" />
    <inkscape:path-effect
       effect="fillet_chamfer"
       id="path-effect18"
       is_visible="true"
       lpeversion="1"
       nodesatellites_param="F,0,0,1,0,0,0,1 @ F,0,0,1,0,37.883809,0,1 @ F,0,0,1,0,0,0,1 @ F,0,0,1,0,0,0,1"
       radius="0"
       unit="px"
       method="auto"
       mode="F"
       chamfer_steps="1"
       flexible="false"
       use_knot_distance="true"
       apply_no_radius="true"
       apply_with_radius="true"
       only_selected="false"
       hide_knots="false" />
    <inkscape:path-effect
       effect="spiro"
       id="path-effect5"
       is_visible="true"
       lpeversion="1" />
    <inkscape:path-effect
       effect="fillet_chamfer"
       id="path-effect30"
       is_visible="true"
       lpeversion="1"
       nodesatellites_param="F,0,0,1,0,0,0,1 @ F,0,0,1,0,37.883809,0,1 @ F,0,0,1,0,0,0,1 @ F,0,0,1,0,0,0,1"
       radius="0"
       unit="px"
       method="auto"
       mode="F"
       chamfer_steps="1"
       flexible="false"
       use_knot_distance="true"
       apply_no_radius="true"
       apply_with_radius="true"
       only_selected="false"
       hide_knots="false" />
    <inkscape:path-effect
       effect="fillet_chamfer"
       id="path-effect32"
       is_visible="true"
       lpeversion="1"
       nodesatellites_param="F,0,0,1,0,0,0,1 @ F,0,0,1,0,37.883809,0,1 @ F,0,0,1,0,0,0,1 @ F,0,0,1,0,0,0,1"
       radius="0"
       unit="px"
       method="auto"
       mode="F"
       chamfer_steps="1"
       flexible="false"
       use_knot_distance="true"
       apply_no_radius="true"
       apply_with_radius="true"
       only_selected="false"
       hide_knots="false" />
    <inkscape:path-effect
       effect="fillet_chamfer"
       id="path-effect34"
       is_visible="true"
       lpeversion="1"
       nodesatellites_param="F,0,0,1,0,0,0,1 @ F,0,0,1,0,37.883809,0,1 @ F,0,0,1,0,0,0,1 @ F,0,0,1,0,0,0,1"
       radius="0"
       unit="px"
       method="auto"
       mode="F"
       chamfer_steps="1"
       flexible="false"
       use_knot_distance="true"
       apply_no_radius="true"
       apply_with_radius="true"
       only_selected="false"
       hide_knots="false" />
    <inkscape:path-effect
       effect="fillet_chamfer"
       id="path-effect36"
       is_visible="true"
       lpeversion="1"
       nodesatellites_param="F,0,0,1,0,0,0,1 @ F,0,0,1,0,37.883809,0,1 @ F,0,0,1,0,0,0,1 @ F,0,0,1,0,0,0,1"
       radius="0"
       unit="px"
       method="auto"
       mode="F"
       chamfer_steps="1"
       flexible="false"
       use_knot_distance="true"
       apply_no_radius="true"
       apply_with_radius="true"
       only_selected="false"
       hide_knots="false" />
    <inkscape:path-effect
       effect="fillet_chamfer"
       id="path-effect40"
       is_visible="true"
       lpeversion="1"
       nodesatellites_param="F,0,0,1,0,0,0,1 @ F,0,0,1,0,37.883809,0,1 @ F,0,0,1,0,0,0,1 @ F,0,0,1,0,0,0,1"
       radius="0"
       unit="px"
       method="auto"
       mode="F"
       chamfer_steps="1"
       flexible="false"
       use_knot_distance="true"
       apply_no_radius="true"
       apply_with_radius="true"
       only_selected="false"
       hide_knots="false" />
    <inkscape:path-effect
       effect="fillet_chamfer"
       id="path-effect59"
       is_visible="true"
       lpeversion="1"
       nodesatellites_param="F,0,0,1,0,0,0,1 @ F,0,0,1,0,37.883809,0,1 @ F,0,0,1,0,0,0,1 @ F,0,0,1,0,0,0,1"
       radius="0"
       unit="px"
       method="auto"
       mode="F"
       chamfer_steps="1"
       flexible="false"
       use_knot_distance="true"
       apply_no_radius="true"
       apply_with_radius="true"
       only_selected="false"
       hide_knots="false" />
    <inkscape:path-effect
       effect="fillet_chamfer"
       id="path-effect61"
       is_visible="true"
       lpeversion="1"
       nodesatellites_param="F,0,0,1,0,0,0,1 @ F,0,0,1,0,37.883809,0,1 @ F,0,0,1,0,0,0,1 @ F,0,0,1,0,0,0,1"
       radius="0"
       unit="px"
       method="auto"
       mode="F"
       chamfer_steps="1"
       flexible="false"
       use_knot_distance="true"
       apply_no_radius="true"
       apply_with_radius="true"
       only_selected="false"
       hide_knots="false" />
    <inkscape:path-effect
       effect="fillet_chamfer"
       id="path-effect63"
       is_visible="true"
       lpeversion="1"
       nodesatellites_param="F,0,0,1,0,0,0,1 @ F,0,0,1,0,37.883809,0,1 @ F,0,0,1,0,0,0,1 @ F,0,0,1,0,0,0,1"
       radius="0"
       unit="px"
       method="auto"
       mode="F"
       chamfer_steps="1"
       flexible="false"
       use_knot_distance="true"
       apply_no_radius="true"
       apply_with_radius="true"
       only_selected="false"
       hide_knots="false" />
    <inkscape:path-effect
       effect="fillet_chamfer"
       id="path-effect65"
       is_visible="true"
       lpeversion="1"
       nodesatellites_param="F,0,0,1,0,0,0,1 @ F,0,0,1,0,37.883809,0,1 @ F,0,0,1,0,0,0,1 @ F,0,0,1,0,0,0,1"
       radius="0"
       unit="px"
       method="auto"
       mode="F"
       chamfer_steps="1"
       flexible="false"
       use_knot_distance="true"
       apply_no_radius="true"
       apply_with_radius="true"
       only_selected="false"
       hide_knots="false" />
    <inkscape:path-effect
       effect="spiro"
       id="path-effect42"
       is_visible="true"
       lpeversion="1" />
  </defs>
  <g
     id="g7">
    <rect
       style="display:inline;fill:#f0ece1;fill-opacity:1;stroke:#741303;stroke-width:0.579845;stroke-linecap:round;stroke-linejoin:miter;stroke-dasharray:none;stroke-opacity:1"
       id="rect1"
       width="9.4743214"
       height="9.4743214"
       x="0.28992251"
       y="0.28992251"
       inkscape:export-filename="door1.svg"
       inkscape:export-xdpi="96"
       inkscape:export-ydpi="96" />
    <path
       d="m 4.5005002,0.77876378 c -0.025768,8.517e-5 -0.049458,0.006805 -0.069246,0.0206706 C 4.3467116,0.8587297 4.3635574,1.0276174 4.4684608,1.177189 L 5.125785,2.1140827 c 0.038161,-0.00834 0.069168,-0.015338 0.090951,-0.020154 0.010461,-0.00231 0.01973,-0.00492 0.025321,-0.0062 h 0.00207 0.00207 a 0.29104165,0.29104165 0 0 1 0.078031,-0.011369 c 0.2286782,0 0.3446294,0.1830038 0.3513997,0.3565674 L 6.8662471,1.5978352 c 0.1495305,-0.1048496 0.222042,-0.2575374 0.1627808,-0.342098 -0.01846,-0.026675 -0.047279,-0.043125 -0.083199,-0.050126 -0.079121,-0.015346 -0.1912126,0.014193 -0.2940389,0.0863 L 5.7639889,1.9146117 5.8766435,1.2712402 C 5.9082164,1.0912821 5.8522507,0.93248927 5.750553,0.91467279 5.6489447,0.89664421 5.5413401,1.0272653 5.5097408,1.2071614 L 5.3965695,1.8505329 4.7733517,0.96221511 C 4.7014029,0.85921656 4.606353,0.79313168 4.5268552,0.78083084 c -0.00905,-0.00141 -0.017766,-0.002095 -0.026355,-0.002067 z M 2.900598,1.3611571 c -0.0032,-2.8e-6 -0.0066,2.334e-4 -0.00982,5.168e-4 -0.032206,0.00284 -0.060657,0.019553 -0.084749,0.047026 -0.052993,0.060587 -0.083366,0.1725771 -0.072347,0.2976562 L 2.8292845,2.7869098 2.3285399,2.3672972 C 2.1885529,2.2499417 2.0222597,2.2194212 1.9559528,2.2985676 1.8896348,2.3777006 1.949272,2.5357589 2.089278,2.6530679 l 0.5007446,0.4196126 -1.0810709,0.095085 c -0.1250821,0.011012 -0.2296985,0.060224 -0.2800862,0.1229899 -0.022893,0.028552 -0.03488,0.060355 -0.032039,0.092501 0.00906,0.1028445 0.1637453,0.172123 0.3457153,0.1560628 l 1.4515909,-0.1276408 0.4526855,0.379305 -1.0805541,0.095085 c -0.1250819,0.011011 -0.2302274,0.060223 -0.280603,0.1229899 -0.022893,0.028552 -0.034365,0.059838 -0.031523,0.091984 0.00906,0.1028439 0.1632301,0.1726458 0.3451986,0.1565796 L 3.8514442,4.1294634 4.4725949,4.6503618 c 9.739e-4,-0.1822625 0.00229,-0.3454819 0.0031,-0.4842081 L 4.0912229,3.8442095 4.0131915,2.9569253 C 3.9428336,2.9563071 3.8446651,2.9305091 3.7713458,2.8571898 A 0.29104165,0.29104165 0 0 1 3.7460243,2.830318 C 3.6927582,2.7618329 3.6757444,2.6809285 3.6757444,2.6189614 V 2.4980386 c 0,-0.1514959 0.089896,-0.2743056 0.2216919,-0.3203939 -0.040068,-0.064866 -0.09383,-0.1030825 -0.1493449,-0.098185 -0.032206,0.00284 -0.061174,0.02007 -0.085266,0.047542 -0.052993,0.060587 -0.082853,0.1725653 -0.07183,0.2976562 L 3.6860797,3.5046954 3.2344277,3.1264239 3.1062701,1.6732828 C 3.0907238,1.4970208 2.9997589,1.3612457 2.900598,1.3611571 Z m 1.4066323,0.5188314 c -0.025751,1.346e-4 -0.049435,0.00682 -0.069246,0.020671 -0.062236,0.043643 -0.069705,0.146427 -0.027388,0.2573486 h 0.2268595 c 0.074527,0 0.1440243,-5.606e-4 0.2077393,-0.00207 L 4.5800819,2.0634398 C 4.5079671,1.960655 4.41311,1.8943347 4.3335853,1.8820555 c -0.00905,-0.00141 -0.017771,-0.00211 -0.026355,-0.00207 z m 2.3843505,0.4232299 c -0.070526,0.00425 -0.1543347,0.034707 -0.2330607,0.089917 L 5.6668372,2.9481403 c -0.00239,0.1289936 -0.00494,0.2831485 -0.00827,0.462504 L 6.6729773,2.6990599 C 6.8225078,2.5942103 6.8950316,2.4414828 6.835758,2.3569619 6.817298,2.3302865 6.7879674,2.313836 6.7520422,2.3068358 c -0.00989,-0.00192 -0.020178,-0.0031 -0.031006,-0.00362 -0.00947,-4.553e-4 -0.01938,-6.076e-4 -0.029456,0 z m 1.5678628,0.021187 c -0.086424,0.00579 -0.1890315,0.096443 -0.2516642,0.2309936 L 7.3933467,3.8767657 6.8383418,4.0788205 7.296195,3.0954181 c 0.052986,-0.1138873 0.06276,-0.2293372 0.03359,-0.3043742 -0.013344,-0.033992 -0.034777,-0.05977 -0.064079,-0.07338 C 7.1722164,2.67396 7.0347935,2.7732565 6.9577144,2.9388385 L 6.3427649,4.259688 5.6384152,4.5165199 c -0.00232,0.1405714 -0.00464,0.2738326 -0.00672,0.3994588 l 0.8381917,-0.3059245 1.321883,0.6154663 c 0.1655939,0.077085 0.3341901,0.063621 0.3777547,-0.029972 0.013626,-0.029263 0.013881,-0.063041 0.00207,-0.097669 C 8.145633,5.0217051 8.0632605,4.939998 7.9493851,4.8870399 L 6.9664994,4.4291867 7.5204707,4.2271319 8.8423537,4.8425981 c 0.1655941,0.077085 0.3341901,0.063104 0.3777547,-0.030489 0.013496,-0.029107 0.013452,-0.062473 0.00155,-0.097152 C 9.1956133,4.6388334 9.1138667,4.5565349 8.9999669,4.5036008 L 8.0165644,4.0462644 8.6299636,3.8225054 C 8.801579,3.7599036 8.9113273,3.6311356 8.8759434,3.534151 8.8405536,3.4371801 8.6739554,3.4095387 8.5023228,3.4721393 L 7.8889236,3.6958982 8.3467768,2.711979 c 0.052988,-0.1138897 0.062742,-0.2288619 0.03359,-0.3038574 -0.013344,-0.033992 -0.034777,-0.059769 -0.064079,-0.07338 -0.017529,-0.00819 -0.0369,-0.011671 -0.056844,-0.010335 z M 2.062923,4.5888669 c -0.068359,0.00532 -0.1218768,0.03227 -0.1436604,0.079065 -0.013626,0.029263 -0.013369,0.062531 -0.00155,0.097152 0.025962,0.076175 0.1078603,0.1583465 0.2216919,0.2113566 L 3.1233234,5.4342933 2.5683185,5.6363481 1.2469522,5.0213986 c -0.1655943,-0.077085 -0.33418325,-0.06414 -0.37775467,0.029456 -0.0136264,0.029263 -0.0133282,0.062513 -0.00155,0.097152 0.0259621,0.076175 0.10729329,0.1584062 0.22117516,0.2113566 L 2.0727416,5.8172156 1.5802652,5.9970496 C 1.4086653,6.0596426 1.2989108,6.1878901 1.3342854,6.2848873 1.3696634,6.3818753 1.5362908,6.4094842 1.707906,6.346899 L 2.2003823,6.1675818 1.7425292,7.1509842 c -0.052971,0.113869 -0.062769,0.2293522 -0.03359,0.3043742 0.013262,0.034144 0.034872,0.059761 0.064079,0.07338 0.093596,0.043571 0.2314256,-0.054545 0.3085083,-0.2201416 L 2.6969928,5.9867143 3.2504474,5.7846594 2.793111,6.7680619 c -0.052971,0.1138691 -0.062769,0.2288355 -0.03359,0.3038574 0.013262,0.034144 0.034324,0.059735 0.063562,0.07338 0.093596,0.043571 0.2314263,-0.054023 0.3085083,-0.2196248 L 3.7470579,5.6032752 4.4694943,5.3397254 c 6.405e-4,-0.138016 9.122e-4,-0.2710578 0.00155,-0.3973917 L 3.6189003,5.2534258 2.297534,4.6384763 C 2.2147369,4.5999338 2.1312824,4.583546 2.062923,4.5888669 Z m 3.5651569,0.543636 c -0.00294,0.1777012 -0.0054,0.3373021 -0.00775,0.4795573 L 6.0735307,5.9918819 6.1784338,7.179923 c 0.057728,0.012892 0.1132924,0.041462 0.1612305,0.0894 a 0.29104165,0.29104165 0 0 1 0.025321,0.027389 c 0.019149,0.02462 0.015386,0.019615 0.023771,0.03359 a 0.29104165,0.29104165 0 0 1 0.015503,0.028939 c 0.024104,0.05303 0.029456,0.1078305 0.029456,0.142627 v 0.146761 c 0,0.039115 -0.00763,0.076396 -0.018087,0.1080038 l 5.168e-4,-5.168e-4 c 0.032205,-0.00284 0.061173,-0.019552 0.085266,-0.047026 0.052996,-0.060584 0.082849,-0.1725773 0.07183,-0.2976563 l -0.095085,-1.0805541 0.4526855,0.379305 0.1281576,1.4515909 c 0.016048,0.1819477 0.1116118,0.3217137 0.2144572,0.3126424 0.032205,-0.00284 0.060656,-0.019553 0.084749,-0.047026 0.052999,-0.060587 0.083358,-0.1725838 0.072347,-0.2976562 L 7.3349523,7.0486649 7.7369949,7.3855952 c 0.1399864,0.117355 0.3057523,0.1478837 0.3720703,0.06873 0.066314,-0.079127 0.0072,-0.2371839 -0.1328084,-0.3545003 L 7.5747309,6.763411 8.6552851,6.6678096 c 0.125082,-0.011013 0.2297037,-0.06022 0.2800862,-0.1229899 0.022893,-0.028552 0.034881,-0.059838 0.032039,-0.091984 C 8.9583468,6.3499911 8.8041545,6.2797043 8.6222122,6.2957393 L 7.1695877,6.4238969 6.7179358,6.0451086 7.7979731,5.950024 C 7.9230551,5.939011 8.028184,5.889805 8.0785761,5.8270341 8.1014691,5.7984821 8.1129407,5.7666793 8.1100987,5.7345333 8.1010347,5.6316887 7.947359,5.5614022 7.765417,5.577437 L 6.3127926,5.7055945 Z M 4.4643267,6.4295813 3.4168455,7.1639033 C 3.2672933,7.2687788 3.1942837,7.4214694 3.253548,7.5060013 c 0.018562,0.026448 0.047796,0.043022 0.083716,0.050126 0.076901,0.01519 0.1846912,-0.012565 0.2852539,-0.080615 0.00507,-0.056892 0.023199,-0.1096457 0.055294,-0.1591634 a 0.29104165,0.29104165 0 0 1 0.021187,-0.027388 c 0.022664,-0.027196 0.060379,-0.060604 0.096118,-0.080099 a 0.29104165,0.29104165 0 0 1 0.031006,-0.013436 c 0.061473,-0.024589 0.1205706,-0.023771 0.125057,-0.023771 H 4.0560829 L 4.4622596,6.8869177 c 5.823e-4,-0.128313 0.00127,-0.2844126 0.00207,-0.4573364 z M 3.7398232,7.903393 3.2235756,8.265128 C 3.0740255,8.3700008 3.0010108,8.5226977 3.0602781,8.607226 c 0.018562,0.026448 0.047333,0.042991 0.083199,0.050126 0.078968,0.015598 0.190702,-0.014206 0.2935221,-0.0863 L 4.2829424,7.9783239 H 3.9511798 c -0.064099,0 -0.118135,-0.023094 -0.1271241,-0.027389 a 0.29104165,0.29104165 0 0 1 -0.031006,-0.013436 c -0.00418,-0.00189 -0.02703,-0.013142 -0.053227,-0.034107 z m 0.580843,0.074931 -0.085783,0.4862751 c -0.031559,0.1799257 0.024916,0.3387121 0.1266073,0.3565674 0.1016912,0.01785 0.2092199,-0.1125852 0.2408122,-0.2924886 l 0.090434,-0.5157307 0.622701,0.8883178 c 0.072079,0.1028428 0.1674451,0.1686401 0.2470133,0.1808675 0.036218,0.00564 0.068659,-1.106e-4 0.095085,-0.018604 0.084529,-0.059279 0.068671,-0.2277022 -0.036174,-0.377238 L 5.1252682,7.9783239 Z"
       style="fill:#5a647d;stroke-width:0.304191;stroke-linecap:round"
       id="path7" />
    <text
       xml:space="preserve"
       style="font-style:normal;font-variant:normal;font-weight:normal;font-stretch:normal;font-size:8.08281px;font-family:'Californian FB';-inkscape-font-specification:'Californian FB, Normal';font-variant-ligatures:normal;font-variant-caps:normal;font-variant-numeric:normal;font-variant-east-asian:normal;text-align:center;letter-spacing:-0.00275551px;word-spacing:-0.0247999px;writing-mode:lr-tb;direction:ltr;text-anchor:middle;fill:#741303;stroke:none;stroke-width:0.383257;stroke-linecap:round"
       x="4.9856424"
       y="7.6871529"
       id="text5"><tspan
         sodipodi:role="line"
         id="tspan5"
         style="font-style:normal;font-variant:normal;font-weight:normal;font-stretch:normal;font-size:8.08281px;font-family:'Californian FB';-inkscape-font-specification:'Californian FB, Normal';font-variant-ligatures:normal;font-variant-caps:normal;font-variant-numeric:normal;font-variant-east-asian:normal;fill:#741303;stroke:none;stroke-width:0.383254"
         x="4.9842649"
         y="7.6871529">1</tspan></text>
  </g>
</svg>
