<?xml version="1.0" encoding="UTF-8" standalone="no"?>
<!-- Created with Inkscape (http://www.inkscape.org/) -->

<svg
   width="38"
   height="38"
   viewBox="0 0 10.054166 10.054166"
   version="1.1"
   id="svg1"
   sodipodi:docname="door23.svg"
   inkscape:version="1.4.2 (f4327f4, 2025-05-13)"
   xmlns:inkscape="http://www.inkscape.org/namespaces/inkscape"
   xmlns:sodipodi="http://sodipodi.sourceforge.net/DTD/sodipodi-0.dtd"
   xmlns="http://www.w3.org/2000/svg"
   xmlns:svg="http://www.w3.org/2000/svg">
  <sodipodi:namedview
     id="namedview1"
     pagecolor="#ffffff"
     bordercolor="#000000"
     borderopacity="0.25"
     inkscape:showpageshadow="2"
     inkscape:pageopacity="0.0"
     inkscape:pagecheckerboard="0"
     inkscape:deskcolor="#d1d1d1"
     inkscape:zoom="21.394737"
     inkscape:cx="19.02337"
     inkscape:cy="-45.01107"
     inkscape:window-width="1043"
     inkscape:window-height="1081"
     inkscape:window-x="855"
     inkscape:window-y="0"
     inkscape:window-maximized="0"
     inkscape:current-layer="svg1" />
  <defs
     id="defs1" />
  <g
     id="g29"
     inkscape:label="23"
     transform="matrix(0.22949234,0,0,0.22949234,-24.658291,-55.175217)">
    <rect
       style="display:inline;fill:#741303;fill-opacity:1;stroke:#741303;stroke-width:2.52664;stroke-linecap:round;stroke-linejoin:miter;stroke-dasharray:none;stroke-opacity:1"
       id="rect41"
       width="41.283825"
       height="41.283825"
       x="108.71044"
       y="241.68623"
       inkscape:export-filename="door1.svg"
       inkscape:export-xdpi="96"
       inkscape:export-ydpi="96" />
    <path
       style="font-size:35.2204px;font-family:'Californian FB';-inkscape-font-specification:'Californian FB, Normal';text-align:center;letter-spacing:-0.012007px;word-spacing:-0.108064px;text-anchor:middle;fill:#f0ece1;stroke-width:1.67001;stroke-linecap:round"
       d="m 128.6704,271.49451 q 0,0.086 -0.20637,0.56751 -0.29236,0.6707 -0.6707,1.51338 -0.13758,0.20637 -0.29236,0.20637 h -12.98409 q -0.29235,0 -0.29235,-0.53312 0,-0.34395 0.60191,-0.73949 4.45414,-2.95797 7.08535,-6.36306 1.82293,-2.39045 2.51083,-4.21338 0.65351,-1.70255 0.65351,-3.88663 0,-2.35605 -1.16943,-3.66306 -1.3414,-1.53057 -4.21338,-1.53057 -3.4051,0 -4.90128,1.94331 -0.13758,0.17198 -0.30955,0.10319 -0.29236,-0.13758 -0.29236,-0.27516 0,-0.53312 0.92867,-1.47899 0.82547,-0.84267 1.65095,-1.307 2.01211,-1.15223 4.64332,-1.15223 2.7172,0 4.36815,1.65095 1.58217,1.58217 1.58217,4.40255 0,1.89172 -0.77389,3.80064 -1.47898,3.62867 -3.76624,6.1223 -2.54523,2.78599 -5.14204,4.7293 -0.17198,0.12038 -0.17198,0.22357 0,0.18917 0.41274,0.18917 h 4.23058 q 3.80064,0 5.70956,-0.41274 0.46433,-0.10318 0.56751,-0.10318 0.24077,0 0.24077,0.20637 z m 15.84405,-4.47134 q 0,2.97516 -3.14714,5.45159 -1.9949,1.58217 -5.91592,1.58217 -2.45924,0 -3.69746,-0.98026 -0.24076,-0.18917 -0.24076,-0.34395 0,-0.10318 0.12038,-0.24076 0.12038,-0.15478 0.18917,-0.15478 -0.0516,0 0.42994,0.27516 0.84267,0.49873 2.95796,0.49873 1.04905,0 2.20128,-0.39554 1.16942,-0.39555 1.9949,-1.04905 1.32421,-1.04904 1.77134,-1.85732 0.58471,-0.99746 0.58471,-2.68281 0,-1.87452 -2.0121,-3.45669 -0.91146,-0.72229 -4.00701,-1.3758 -0.49872,-0.10318 -0.49872,-0.44713 0,-0.22357 0.60191,-0.42994 1.70255,-0.58471 3.19873,-1.92611 1.16942,-1.04905 1.16942,-3.45669 0,-1.46179 -0.87707,-2.51083 -0.80828,-0.94586 -2.64841,-0.94586 -2.13248,0 -3.62866,1.10064 -0.42994,0.30955 -0.49873,0.30955 -0.27516,0 -0.27516,-0.39554 0,-0.13758 0.17198,-0.34395 0.98025,-1.15223 2.51083,-1.94331 1.37579,-0.7051 3.83503,-0.7051 1.46179,0 2.7172,1.13503 1.3586,1.23822 1.3586,3.16434 0,2.14968 -1.96051,4.12739 -1.44459,1.44458 -2.14968,1.89172 -0.49873,0.32675 0.10318,0.42993 2.44204,0.39555 3.93822,1.68536 1.70255,1.46178 1.70255,3.98981 z"
       id="text74"
       aria-label="23" />
  </g>
</svg>
