<?xml version="1.0" encoding="UTF-8" standalone="no"?>
<!-- Created with Inkscape (http://www.inkscape.org/) -->

<svg
   width="38"
   height="38"
   viewBox="0 0 10.054166 10.054166"
   version="1.1"
   id="svg1"
   sodipodi:docname="door7.svg"
   inkscape:version="1.4.2 (f4327f4, 2025-05-13)"
   xmlns:inkscape="http://www.inkscape.org/namespaces/inkscape"
   xmlns:sodipodi="http://sodipodi.sourceforge.net/DTD/sodipodi-0.dtd"
   xmlns="http://www.w3.org/2000/svg"
   xmlns:svg="http://www.w3.org/2000/svg">
  <sodipodi:namedview
     id="namedview1"
     pagecolor="#ffffff"
     bordercolor="#000000"
     borderopacity="0.25"
     inkscape:showpageshadow="2"
     inkscape:pageopacity="0.0"
     inkscape:pagecheckerboard="0"
     inkscape:deskcolor="#d1d1d1"
     inkscape:zoom="21.394737"
     inkscape:cx="19.02337"
     inkscape:cy="18.97663"
     inkscape:window-width="1043"
     inkscape:window-height="1081"
     inkscape:window-x="855"
     inkscape:window-y="0"
     inkscape:window-maximized="0"
     inkscape:current-layer="svg1" />
  <defs
     id="defs1" />
  <g
     id="g18"
     inkscape:label="7"
     transform="matrix(0.22949234,0,0,0.22949234,-24.658291,-12.857776)">
    <rect
       style="display:inline;fill:#741303;fill-opacity:1;stroke:#741303;stroke-width:2.52664;stroke-linecap:round;stroke-linejoin:miter;stroke-dasharray:none;stroke-opacity:1"
       id="rect37"
       width="41.283825"
       height="41.283825"
       x="108.71044"
       y="57.290359"
       inkscape:export-filename="door1.svg"
       inkscape:export-xdpi="96"
       inkscape:export-ydpi="96" />
    <path
       style="font-size:35.2204px;font-family:'Californian FB';-inkscape-font-specification:'Californian FB, Normal';text-align:center;letter-spacing:-0.012007px;word-spacing:-0.108064px;text-anchor:middle;fill:#f0ece1;stroke-width:1.67001;stroke-linecap:round"
       d="m 137.33411,68.301209 q 0,0.326752 -0.20637,0.636306 -0.6707,0.997453 -3.16433,4.694907 -1.90892,2.820384 -3.55987,6.242679 -1.70255,3.473887 -2.28727,5.829939 -0.56751,2.218473 -0.56751,4.092996 0,0.567516 0.0516,1.28981 0.0516,0.739491 0.0516,0.739491 0,0.498726 -0.20637,0.498726 -0.0688,0 -0.18917,-0.0172 -0.10318,-0.0172 -0.13758,-0.0172 -1.3242,-0.619109 -1.75414,-1.049045 -0.20637,-0.223567 -0.20637,-0.670701 0,-0.997453 0.44714,-3.215925 0.49872,-2.338855 1.84012,-5.210831 1.70255,-3.628665 4.64332,-7.807648 1.11783,-1.461784 2.54522,-3.3879 0.27516,-0.412739 0.27516,-0.533121 0,-0.171975 -0.32675,-0.120383 -0.0688,0 -0.13758,0.0172 -2.66561,0.567516 -6.68981,0.567516 -3.09554,0 -4.90128,-0.533121 -0.37834,-0.154777 -0.37834,-0.309555 0,-0.03439 0.15477,-0.378344 0.15478,-0.343949 0.41274,-0.894268 0.15478,-0.326751 0.37835,-0.842675 0.12038,-0.27516 0.36114,-0.27516 0.10319,0 0.87708,0.20637 2.32165,0.636306 5.98471,0.636306 1.15223,0 3.33631,-0.257962 1.77134,-0.223567 2.16688,-0.309554 0.29236,-0.06879 0.73949,-0.06879 0.44713,0 0.44713,0.447134 z"
       id="text58"
       aria-label="7" />
  </g>
</svg>
