<?xml version="1.0" encoding="UTF-8" standalone="no"?>
<!-- Created with Inkscape (http://www.inkscape.org/) -->

<svg
   width="38"
   height="38"
   viewBox="0 0 10.054166 10.054166"
   version="1.1"
   id="svg1"
   sodipodi:docname="door10.svg"
   inkscape:version="1.4.2 (f4327f4, 2025-05-13)"
   xmlns:inkscape="http://www.inkscape.org/namespaces/inkscape"
   xmlns:sodipodi="http://sodipodi.sourceforge.net/DTD/sodipodi-0.dtd"
   xmlns="http://www.w3.org/2000/svg"
   xmlns:svg="http://www.w3.org/2000/svg">
  <sodipodi:namedview
     id="namedview1"
     pagecolor="#ffffff"
     bordercolor="#000000"
     borderopacity="0.25"
     inkscape:showpageshadow="2"
     inkscape:pageopacity="0.0"
     inkscape:pagecheckerboard="0"
     inkscape:deskcolor="#d1d1d1"
     inkscape:zoom="21.394737"
     inkscape:cx="19.04674"
     inkscape:cy="18.97663"
     inkscape:window-width="1043"
     inkscape:window-height="1081"
     inkscape:window-x="855"
     inkscape:window-y="0"
     inkscape:window-maximized="0"
     inkscape:current-layer="svg1" />
  <defs
     id="defs1" />
  <g
     id="g22"
     inkscape:label="10"
     transform="matrix(0.22949234,0,0,0.22949234,-13.538841,-23.437135)">
    <rect
       style="display:inline;fill:#741303;fill-opacity:1;stroke:#741303;stroke-width:2.52664;stroke-linecap:round;stroke-linejoin:miter;stroke-dasharray:none;stroke-opacity:1"
       id="rect44"
       width="41.283825"
       height="41.283825"
       x="60.25806"
       y="103.38932"
       inkscape:export-filename="door1.svg"
       inkscape:export-xdpi="96"
       inkscape:export-ydpi="96" />
    <path
       style="font-size:35.2204px;font-family:'Californian FB';-inkscape-font-specification:'Californian FB, Normal';text-align:center;letter-spacing:-0.012007px;word-spacing:-0.108064px;text-anchor:middle;fill:#f0ece1;stroke-width:1.67001;stroke-linecap:round"
       d="m 77.453549,137.42287 q 0,0.17198 -0.13758,0.17198 h -9.407012 q -0.171974,0 -0.171974,-0.20637 v -0.56752 q 0,-0.20637 0.171974,-0.20637 h 3.129938 q 0.361147,0 0.361147,-0.92866 0,-0.18917 0.0344,-7.79045 0.0344,-7.61848 0.0344,-7.84204 0,-2.45924 -0.103185,-3.16434 -0.171974,-1.16942 -1.874523,-1.16942 h -1.307007 q -0.20637,0 -0.20637,-0.20637 v -0.53312 q 0,-0.20637 0.20637,-0.20637 h 1.840128 q 2.149683,0 3.026753,-0.17198 0.877071,-0.18917 0.842676,-0.18917 0.257962,0 0.257962,0.36115 0,-0.0344 -0.154777,8.34077 -0.13758,8.35796 -0.13758,9.02866 0,4.47134 0.739491,4.47134 h 2.682804 q 0.171975,0 0.171975,0.17198 z m 17.632589,-11.4879 q 0,2.30446 -0.20637,3.52548 -0.240764,1.39299 -1.031847,3.26752 -1.203823,2.90637 -3.061148,4.0586 -1.083441,0.6707 -1.49618,0.80828 -0.584713,0.20637 -1.754141,0.20637 -1.685351,0 -2.631211,-0.37835 -0.240765,-0.10318 -1.771339,-1.16942 -1.186625,-0.82548 -2.321657,-3.33631 -1.117835,-2.51083 -1.117835,-6.31147 0,-5.46879 2.012103,-9.01147 0.928663,-1.65096 2.562422,-2.45924 1.650956,-0.82547 3.267517,-0.82547 2.957964,0 5.365608,2.99235 2.184078,2.7344 2.184078,8.63313 z m -2.115288,1.84013 q 0,-4.28217 -0.94586,-6.94778 -1.031848,-2.88917 -2.149683,-3.97261 -1.341402,-1.30701 -3.766244,-1.30701 -1.547772,0 -2.44204,1.08344 -0.997452,1.22102 -1.375797,3.31911 -0.343949,1.97771 -0.343949,3.83504 0,1.46178 0.257962,3.74904 0.292357,2.42485 0.619109,3.50829 1.341402,4.38535 2.820384,5.09044 1.496179,0.6879 2.785988,0.6879 1.702549,0 2.700002,-1.10063 1.840128,-1.97771 1.840128,-7.94523 z"
       id="text61"
       aria-label="10" />
  </g>
</svg>
