<?xml version="1.0" encoding="UTF-8" standalone="no"?>
<!-- Created with Inkscape (http://www.inkscape.org/) -->

<svg
   width="38"
   height="38"
   viewBox="0 0 10.054166 10.054166"
   version="1.1"
   id="svg1"
   sodipodi:docname="door6.svg"
   inkscape:version="1.4.2 (f4327f4, 2025-05-13)"
   xmlns:inkscape="http://www.inkscape.org/namespaces/inkscape"
   xmlns:sodipodi="http://sodipodi.sourceforge.net/DTD/sodipodi-0.dtd"
   xmlns="http://www.w3.org/2000/svg"
   xmlns:svg="http://www.w3.org/2000/svg">
  <sodipodi:namedview
     id="namedview1"
     pagecolor="#ffffff"
     bordercolor="#000000"
     borderopacity="0.25"
     inkscape:showpageshadow="2"
     inkscape:pageopacity="0.0"
     inkscape:pagecheckerboard="0"
     inkscape:deskcolor="#d1d1d1"
     inkscape:zoom="16"
     inkscape:cx="7.5625"
     inkscape:cy="17.28125"
     inkscape:window-width="1920"
     inkscape:window-height="1094"
     inkscape:window-x="-11"
     inkscape:window-y="-11"
     inkscape:window-maximized="1"
     inkscape:current-layer="svg1" />
  <defs
     id="defs1">
    <inkscape:path-effect
       effect="offset"
       id="path-effect2"
       is_visible="true"
       lpeversion="1.3"
       linejoin_type="round"
       unit="px"
       offset="1.1"
       miter_limit="4"
       attempt_force_join="false"
       update_on_knot_move="true" />
    <inkscape:path-effect
       effect="offset"
       id="path-effect17"
       is_visible="true"
       lpeversion="1.3"
       linejoin_type="round"
       unit="mm"
       offset="1.1"
       miter_limit="4"
       attempt_force_join="false"
       update_on_knot_move="true" />
    <inkscape:path-effect
       effect="offset"
       id="path-effect1"
       is_visible="true"
       lpeversion="1.3"
       linejoin_type="round"
       unit="px"
       offset="1.1"
       miter_limit="4"
       attempt_force_join="false"
       update_on_knot_move="true" />
    <inkscape:path-effect
       effect="fillet_chamfer"
       id="path-effect41"
       is_visible="true"
       lpeversion="1"
       nodesatellites_param="F,0,0,1,0,0,0,1 @ F,0,0,1,0,0,0,1 @ F,0,0,1,0,0,0,1 @ F,0,0,1,0,0,0,1 @ F,0,0,1,0,0,0,1 @ F,0,0,1,0,0,0,1 @ F,0,0,1,0,0,0,1 @ F,0,0,1,0,0,0,1 @ F,0,0,1,0,0,0,1 @ F,0,0,1,0,0,0,1 @ F,0,0,1,0,0,0,1 @ F,0,0,1,0,0,0,1"
       radius="0"
       unit="px"
       method="auto"
       mode="F"
       chamfer_steps="1"
       flexible="false"
       use_knot_distance="true"
       apply_no_radius="true"
       apply_with_radius="true"
       only_selected="false"
       hide_knots="false" />
    <inkscape:path-effect
       effect="fillet_chamfer"
       id="path-effect43"
       is_visible="true"
       lpeversion="1"
       nodesatellites_param="F,0,0,1,0,0,0,1 @ F,0,0,1,0,0,0,1 @ F,0,0,1,0,0,0,1 @ F,0,0,1,0,0,0,1 @ F,0,0,1,0,0,0,1 @ F,0,0,1,0,0,0,1 @ F,0,0,1,0,0,0,1 @ F,0,0,1,0,0,0,1 @ F,0,0,1,0,0,0,1 @ F,0,0,1,0,0,0,1 @ F,0,0,1,0,0,0,1 @ F,0,0,1,0,0,0,1"
       radius="0"
       unit="px"
       method="auto"
       mode="F"
       chamfer_steps="1"
       flexible="false"
       use_knot_distance="true"
       apply_no_radius="true"
       apply_with_radius="true"
       only_selected="false"
       hide_knots="false" />
    <inkscape:path-effect
       effect="fillet_chamfer"
       id="path-effect45"
       is_visible="true"
       lpeversion="1"
       nodesatellites_param="F,0,0,1,0,0,0,1 @ F,0,0,1,0,0,0,1 @ F,0,0,1,0,0,0,1 @ F,0,0,1,0,0,0,1 @ F,0,0,1,0,0,0,1 @ F,0,0,1,0,0,0,1 @ F,0,0,1,0,0,0,1 @ F,0,0,1,0,0,0,1 @ F,0,0,1,0,0,0,1 @ F,0,0,1,0,0,0,1 @ F,0,0,1,0,0,0,1 @ F,0,0,1,0,0,0,1"
       radius="0"
       unit="px"
       method="auto"
       mode="F"
       chamfer_steps="1"
       flexible="false"
       use_knot_distance="true"
       apply_no_radius="true"
       apply_with_radius="true"
       only_selected="false"
       hide_knots="false" />
    <inkscape:path-effect
       effect="fillet_chamfer"
       id="path-effect55"
       is_visible="true"
       lpeversion="1"
       nodesatellites_param="F,0,0,1,0,0,0,1 @ F,0,0,1,0,0,0,1 @ F,0,0,1,0,0,0,1 @ F,0,0,1,0,0,0,1 @ F,0,0,1,0,0,0,1 @ F,0,0,1,0,0,0,1 @ F,0,0,1,0,0,0,1 @ F,0,0,1,0,0,0,1 @ F,0,0,1,0,0,0,1 @ F,0,0,1,0,0,0,1 @ F,0,0,1,0,0,0,1 @ F,0,0,1,0,0,0,1"
       radius="0"
       unit="px"
       method="auto"
       mode="F"
       chamfer_steps="1"
       flexible="false"
       use_knot_distance="true"
       apply_no_radius="true"
       apply_with_radius="true"
       only_selected="false"
       hide_knots="false" />
    <inkscape:path-effect
       effect="fillet_chamfer"
       id="path-effect57"
       is_visible="true"
       lpeversion="1"
       nodesatellites_param="F,0,0,1,0,0,0,1 @ F,0,0,1,0,0,0,1 @ F,0,0,1,0,0,0,1 @ F,0,0,1,0,0,0,1 @ F,0,0,1,0,0,0,1 @ F,0,0,1,0,0,0,1 @ F,0,0,1,0,0,0,1 @ F,0,0,1,0,0,0,1 @ F,0,0,1,0,0,0,1 @ F,0,0,1,0,0,0,1 @ F,0,0,1,0,0,0,1 @ F,0,0,1,0,0,0,1"
       radius="0"
       unit="px"
       method="auto"
       mode="F"
       chamfer_steps="1"
       flexible="false"
       use_knot_distance="true"
       apply_no_radius="true"
       apply_with_radius="true"
       only_selected="false"
       hide_knots="false" />
    <inkscape:path-effect
       effect="fillet_chamfer"
       id="path-effect59"
       is_visible="true"
       lpeversion="1"
       nodesatellites_param="F,0,0,1,0,0,0,1 @ F,0,0,1,0,0,0,1 @ F,0,0,1,0,0,0,1 @ F,0,0,1,0,0,0,1 @ F,0,0,1,0,0,0,1 @ F,0,0,1,0,0,0,1 @ F,0,0,1,0,0,0,1 @ F,0,0,1,0,0,0,1 @ F,0,0,1,0,0,0,1 @ F,0,0,1,0,0,0,1 @ F,0,0,1,0,0,0,1 @ F,0,0,1,0,0,0,1"
       radius="0"
       unit="px"
       method="auto"
       mode="F"
       chamfer_steps="1"
       flexible="false"
       use_knot_distance="true"
       apply_no_radius="true"
       apply_with_radius="true"
       only_selected="false"
       hide_knots="false" />
    <inkscape:path-effect
       effect="fillet_chamfer"
       id="path-effect61"
       is_visible="true"
       lpeversion="1"
       nodesatellites_param="F,0,0,1,0,0,0,1 @ F,0,0,1,0,0,0,1 @ F,0,0,1,0,0,0,1 @ F,0,0,1,0,0,0,1 @ F,0,0,1,0,0,0,1 @ F,0,0,1,0,0,0,1 @ F,0,0,1,0,0,0,1 @ F,0,0,1,0,0,0,1 @ F,0,0,1,0,0,0,1 @ F,0,0,1,0,0,0,1 @ F,0,0,1,0,0,0,1 @ F,0,0,1,0,0,0,1"
       radius="0"
       unit="px"
       method="auto"
       mode="F"
       chamfer_steps="1"
       flexible="false"
       use_knot_distance="true"
       apply_no_radius="true"
       apply_with_radius="true"
       only_selected="false"
       hide_knots="false" />
    <inkscape:path-effect
       effect="fillet_chamfer"
       id="path-effect63"
       is_visible="true"
       lpeversion="1"
       nodesatellites_param="F,0,0,1,0,0,0,1 @ F,0,0,1,0,0,0,1 @ F,0,0,1,0,0,0,1 @ F,0,0,1,0,0,0,1 @ F,0,0,1,0,0,0,1 @ F,0,0,1,0,0,0,1 @ F,0,0,1,0,0,0,1 @ F,0,0,1,0,0,0,1 @ F,0,0,1,0,0,0,1 @ F,0,0,1,0,0,0,1 @ F,0,0,1,0,0,0,1 @ F,0,0,1,0,0,0,1"
       radius="0"
       unit="px"
       method="auto"
       mode="F"
       chamfer_steps="1"
       flexible="false"
       use_knot_distance="true"
       apply_no_radius="true"
       apply_with_radius="true"
       only_selected="false"
       hide_knots="false" />
    <inkscape:path-effect
       effect="fillet_chamfer"
       id="path-effect65"
       is_visible="true"
       lpeversion="1"
       nodesatellites_param="F,0,0,1,0,0,0,1 @ F,0,0,1,0,0,0,1 @ F,0,0,1,0,0,0,1 @ F,0,0,1,0,0,0,1 @ F,0,0,1,0,0,0,1 @ F,0,0,1,0,0,0,1 @ F,0,0,1,0,0,0,1 @ F,0,0,1,0,0,0,1 @ F,0,0,1,0,0,0,1 @ F,0,0,1,0,0,0,1 @ F,0,0,1,0,0,0,1 @ F,0,0,1,0,0,0,1"
       radius="0"
       unit="px"
       method="auto"
       mode="F"
       chamfer_steps="1"
       flexible="false"
       use_knot_distance="true"
       apply_no_radius="true"
       apply_with_radius="true"
       only_selected="false"
       hide_knots="false" />
    <inkscape:path-effect
       effect="fillet_chamfer"
       id="path-effect67"
       is_visible="true"
       lpeversion="1"
       nodesatellites_param="F,0,0,1,0,0,0,1 @ F,0,0,1,0,0,0,1 @ F,0,0,1,0,0,0,1 @ F,0,0,1,0,0,0,1 @ F,0,0,1,0,0,0,1 @ F,0,0,1,0,0,0,1 @ F,0,0,1,0,0,0,1 @ F,0,0,1,0,0,0,1 @ F,0,0,1,0,0,0,1 @ F,0,0,1,0,0,0,1 @ F,0,0,1,0,0,0,1 @ F,0,0,1,0,0,0,1"
       radius="0"
       unit="px"
       method="auto"
       mode="F"
       chamfer_steps="1"
       flexible="false"
       use_knot_distance="true"
       apply_no_radius="true"
       apply_with_radius="true"
       only_selected="false"
       hide_knots="false" />
    <inkscape:path-effect
       effect="fillet_chamfer"
       id="path-effect12"
       is_visible="true"
       lpeversion="1"
       nodesatellites_param="F,0,0,1,0,0,0,1 @ F,0,0,1,0,0,0,1 @ F,0,0,1,0,0,0,1 @ F,0,0,1,0,0,0,1 @ F,0,0,1,0,0,0,1 @ F,0,0,1,0,0,0,1 @ F,0,0,1,0,0,0,1 @ F,0,0,1,0,0,0,1 @ F,0,0,1,0,0,0,1 @ F,0,0,1,0,0,0,1 @ F,0,0,1,0,0,0,1 @ F,0,0,1,0,0,0,1"
       radius="0"
       unit="px"
       method="auto"
       mode="F"
       chamfer_steps="1"
       flexible="false"
       use_knot_distance="true"
       apply_no_radius="true"
       apply_with_radius="true"
       only_selected="false"
       hide_knots="false" />
    <inkscape:path-effect
       effect="fillet_chamfer"
       id="path-effect16"
       is_visible="true"
       lpeversion="1"
       nodesatellites_param="F,0,0,1,0,0,0,1 @ F,0,0,1,0,0,0,1 @ F,0,0,1,0,0,0,1 @ F,0,0,1,0,0,0,1 @ F,0,0,1,0,0,0,1 @ F,0,0,1,0,0,0,1 @ F,0,0,1,0,0,0,1 @ F,0,0,1,0,0,0,1 @ F,0,0,1,0,0,0,1 @ F,0,0,1,0,0,0,1 @ F,0,0,1,0,0,0,1 @ F,0,0,1,0,0,0,1"
       radius="0"
       unit="px"
       method="auto"
       mode="F"
       chamfer_steps="1"
       flexible="false"
       use_knot_distance="true"
       apply_no_radius="true"
       apply_with_radius="true"
       only_selected="false"
       hide_knots="false" />
    <inkscape:path-effect
       effect="fillet_chamfer"
       id="path-effect30"
       is_visible="true"
       lpeversion="1"
       nodesatellites_param="F,0,0,1,0,0,0,1 @ F,0,0,1,0,0,0,1 @ F,0,0,1,0,0,0,1 @ F,0,0,1,0,0,0,1 @ F,0,0,1,0,0,0,1 @ F,0,0,1,0,0,0,1 @ F,0,0,1,0,0,0,1 @ F,0,0,1,0,0,0,1 @ F,0,0,1,0,0,0,1 @ F,0,0,1,0,0,0,1 @ F,0,0,1,0,0,0,1 @ F,0,0,1,0,0,0,1"
       radius="0"
       unit="px"
       method="auto"
       mode="F"
       chamfer_steps="1"
       flexible="false"
       use_knot_distance="true"
       apply_no_radius="true"
       apply_with_radius="true"
       only_selected="false"
       hide_knots="false" />
    <inkscape:path-effect
       effect="fillet_chamfer"
       id="path-effect34"
       is_visible="true"
       lpeversion="1"
       nodesatellites_param="F,0,0,1,0,0,0,1 @ F,0,0,1,0,0,0,1 @ F,0,0,1,0,0,0,1 @ F,0,0,1,0,0,0,1 @ F,0,0,1,0,0,0,1 @ F,0,0,1,0,0,0,1 @ F,0,0,1,0,0,0,1 @ F,0,0,1,0,0,0,1 @ F,0,0,1,0,0,0,1 @ F,0,0,1,0,0,0,1 @ F,0,0,1,0,0,0,1 @ F,0,0,1,0,0,0,1"
       radius="0"
       unit="px"
       method="auto"
       mode="F"
       chamfer_steps="1"
       flexible="false"
       use_knot_distance="true"
       apply_no_radius="true"
       apply_with_radius="true"
       only_selected="false"
       hide_knots="false" />
    <inkscape:path-effect
       effect="fillet_chamfer"
       id="path-effect38"
       is_visible="true"
       lpeversion="1"
       nodesatellites_param="F,0,0,1,0,0,0,1 @ F,0,0,1,0,0,0,1 @ F,0,0,1,0,0,0,1 @ F,0,0,1,0,0,0,1 @ F,0,0,1,0,0,0,1 @ F,0,0,1,0,0,0,1 @ F,0,0,1,0,0,0,1 @ F,0,0,1,0,0,0,1 @ F,0,0,1,0,0,0,1 @ F,0,0,1,0,0,0,1 @ F,0,0,1,0,0,0,1 @ F,0,0,1,0,0,0,1"
       radius="0"
       unit="px"
       method="auto"
       mode="F"
       chamfer_steps="1"
       flexible="false"
       use_knot_distance="true"
       apply_no_radius="true"
       apply_with_radius="true"
       only_selected="false"
       hide_knots="false" />
    <inkscape:path-effect
       effect="fillet_chamfer"
       id="path-effect42"
       is_visible="true"
       lpeversion="1"
       nodesatellites_param="F,0,0,1,0,0,0,1 @ F,0,0,1,0,0,0,1 @ F,0,0,1,0,0,0,1 @ F,0,0,1,0,0,0,1 @ F,0,0,1,0,0,0,1 @ F,0,0,1,0,0,0,1 @ F,0,0,1,0,0,0,1 @ F,0,0,1,0,0,0,1 @ F,0,0,1,0,0,0,1 @ F,0,0,1,0,0,0,1 @ F,0,0,1,0,0,0,1 @ F,0,0,1,0,0,0,1"
       radius="0"
       unit="px"
       method="auto"
       mode="F"
       chamfer_steps="1"
       flexible="false"
       use_knot_distance="true"
       apply_no_radius="true"
       apply_with_radius="true"
       only_selected="false"
       hide_knots="false" />
    <inkscape:path-effect
       effect="fillet_chamfer"
       id="path-effect46"
       is_visible="true"
       lpeversion="1"
       nodesatellites_param="F,0,0,1,0,0,0,1 @ F,0,0,1,0,0,0,1 @ F,0,0,1,0,0,0,1 @ F,0,0,1,0,0,0,1 @ F,0,0,1,0,0,0,1 @ F,0,0,1,0,0,0,1 @ F,0,0,1,0,0,0,1 @ F,0,0,1,0,0,0,1 @ F,0,0,1,0,0,0,1 @ F,0,0,1,0,0,0,1 @ F,0,0,1,0,0,0,1 @ F,0,0,1,0,0,0,1"
       radius="0"
       unit="px"
       method="auto"
       mode="F"
       chamfer_steps="1"
       flexible="false"
       use_knot_distance="true"
       apply_no_radius="true"
       apply_with_radius="true"
       only_selected="false"
       hide_knots="false" />
    <inkscape:path-effect
       effect="fillet_chamfer"
       id="path-effect48"
       is_visible="true"
       lpeversion="1"
       nodesatellites_param="F,0,0,1,0,0,0,1 @ F,0,0,1,0,0,0,1 @ F,0,0,1,0,0,0,1 @ F,0,0,1,0,0,0,1 @ F,0,0,1,0,0,0,1 @ F,0,0,1,0,0,0,1 @ F,0,0,1,0,0,0,1 @ F,0,0,1,0,0,0,1 @ F,0,0,1,0,0,0,1 @ F,0,0,1,0,0,0,1 @ F,0,0,1,0,0,0,1 @ F,0,0,1,0,0,0,1"
       radius="0"
       unit="px"
       method="auto"
       mode="F"
       chamfer_steps="1"
       flexible="false"
       use_knot_distance="true"
       apply_no_radius="true"
       apply_with_radius="true"
       only_selected="false"
       hide_knots="false" />
  </defs>
  <rect
     style="display:inline;fill:#f0ece1;fill-opacity:1;stroke:#741303;stroke-width:0.579845;stroke-linecap:round;stroke-linejoin:miter;stroke-dasharray:none;stroke-opacity:1"
     id="rect43"
     width="9.4743214"
     height="9.4743214"
     x="0.28992233"
     y="0.28992233"
     inkscape:export-filename="door1.svg"
     inkscape:export-xdpi="96"
     inkscape:export-ydpi="96" />
  <g
     id="g18"
     inkscape:label="Appelsin">
    <path
       style="fill:none;stroke:#000000;stroke-width:0.0529167;stroke-linecap:butt;stroke-linejoin:round;stroke-dasharray:none;stroke-opacity:1"
       d="m 2.2296149,1.4592763 v -0.88091112 0"
       id="path10" />
    <path
       style="fill:none;fill-opacity:1;stroke:#62141b;stroke-width:0.0942075;stroke-linecap:round;stroke-linejoin:round;stroke-dasharray:none;stroke-opacity:1"
       d="m 2.1702622,1.9997517 c 0,0 -0.1773828,-0.3517871 -0.0736,-0.4729757 0.026438,-0.030872 0.075019,-0.046385 0.1229651,-0.045982 0.046194,3.881e-4 0.091799,0.01555 0.1164463,0.045982 0.104071,0.1284996 -0.1030395,0.4852614 -0.1030395,0.4852614"
       id="path1-7-8"
       sodipodi:nodetypes="csssc"
       inkscape:label="Snor dims" />
    <circle
       style="fill:#e37009;fill-opacity:1;stroke:none;stroke-width:0.0322914;stroke-linecap:round;stroke-linejoin:round;stroke-opacity:1"
       id="path1"
       cx="2.2558947"
       cy="3.4510217"
       r="1.4800233" />
    <circle
       style="fill:#e8d7b8;fill-opacity:1;stroke:none;stroke-width:0.0285984;stroke-linecap:round;stroke-linejoin:round;stroke-opacity:1"
       id="circle1"
       cx="2.2406385"
       cy="3.4356666"
       r="1.3107573" />
    <path
       id="path17"
       style="fill:#e47c21;fill-opacity:1;stroke:none;stroke-width:0.027137;stroke-linecap:round;stroke-linejoin:round;stroke-opacity:1"
       d="m 2.3317878,2.2116133 c -0.054088,0.00131 -0.096496,0.047492 -0.096496,0.1032232 V 3.291778 a 0.06213522,0.06213522 0 0 0 0.093132,0.053819 L 3.1956252,2.8448278 c 0.051478,-0.02973 0.067928,-0.095073 0.032165,-0.1425364 C 3.0157493,2.4208769 2.6937436,2.2424484 2.3427197,2.2118235 c -0.0037,-3.228e-4 -0.00733,-2.973e-4 -0.010932,-2.102e-4 z m -0.2480721,0.00526 c -0.00359,6.88e-5 -0.00725,3.582e-4 -0.010932,8.421e-4 C 1.7326538,2.2622974 1.42578,2.44556 1.2253442,2.7239506 c -0.034723,0.048228 -0.017421,0.1140662 0.034057,0.1437978 l 0.8274677,0.4778529 a 0.06213351,0.06213351 0 0 0 0.093132,-0.053819 V 2.3158876 c 0,-0.055731 -0.04243,-0.10005 -0.096286,-0.099019 z m 1.1909562,0.6611709 c -0.017212,3.626e-4 -0.034577,0.00501 -0.050666,0.014296 l -0.868042,0.5009796 a 0.06213967,0.06213967 0 0 0 0,0.107638 l 0.8711955,0.5028715 c 0.051483,0.029723 0.1170814,0.01193 0.1414852,-0.042256 0.057424,-0.1275064 0.093014,-0.2639061 0.1051152,-0.4032223 0.00514,-0.059205 0.00514,-0.1556499 0,-0.2148556 C 3.4614781,3.2020033 3.4251121,3.0635791 3.3661222,2.934386 3.3491522,2.897221 3.3125382,2.877246 3.2746719,2.8780442 Z m -2.0930556,0.023756 c -0.037518,-6.103e-4 -0.073399,0.019657 -0.089558,0.057183 -0.052602,0.1221507 -0.085214,0.2520139 -0.096706,0.3845117 -0.00513,0.059205 -0.00514,0.1556503 0,0.2148556 0.011324,0.1303533 0.043247,0.2581919 0.094394,0.3786253 0.02323,0.054699 0.087903,0.073035 0.1393829,0.043308 L 2.0593289,3.5009574 a 0.06214603,0.06214603 0 0 0 0,-0.107638 L 1.2320716,2.9158857 c -0.016089,-0.00929 -0.033402,-0.013808 -0.050455,-0.014086 z m 0.9384693,0.6388907 a 0.06213619,0.06213619 0 0 0 -0.033217,0.0082 L 1.2560379,4.0286361 c -0.051479,0.02973 -0.068955,0.095603 -0.034478,0.144008 0.200316,0.2812415 0.5088599,0.4668641 0.8512237,0.5117012 0.058925,0.00772 0.1072176,-0.038941 0.1072176,-0.098388 V 3.602709 a 0.06213619,0.06213619 0 0 0 -0.059916,-0.062018 z m 0.175122,0 a 0.06213779,0.06213779 0 0 0 -0.059916,0.062018 v 0.9842995 c 0,0.059447 0.048225,0.1081799 0.1074278,0.103013 0.3532418,-0.030828 0.676944,-0.2114287 0.8888552,-0.4957236 0.035516,-0.047647 0.018894,-0.113018 -0.032586,-0.1427465 L 2.3284241,3.54889 a 0.06213779,0.06213779 0 0 0 -0.033216,-0.0082 z" />
  </g>
  <g
     id="g17"
     inkscape:label="Klementi med nellike">
    <path
       style="fill:none;stroke:#000000;stroke-width:0.0529167;stroke-linecap:butt;stroke-linejoin:round;stroke-dasharray:none;stroke-opacity:1"
       d="m 7.9554022,2.8205791 v -2.24277574 0"
       id="path10-8" />
    <path
       style="display:inline;fill:none;fill-opacity:1;stroke:#62141b;stroke-width:0.0919928;stroke-linecap:round;stroke-linejoin:round;stroke-dasharray:none;stroke-opacity:1"
       d="m 7.9040261,3.3190077 c 0,0 -0.173218,-0.3435214 -0.071869,-0.4618564 0.050689,-0.059191 0.1847351,-0.060561 0.2337831,0 0.1016325,0.1254721 -0.1006171,0.4738533 -0.1006171,0.4738533"
       id="path1-7-8-3"
       sodipodi:nodetypes="caac"
       inkscape:label="Snor dims" />
    <circle
       style="display:inline;fill:#e37009;fill-opacity:1;stroke:none;stroke-width:0.0315323;stroke-linecap:round;stroke-linejoin:round;stroke-opacity:1"
       id="path1-2"
       cx="7.9876451"
       cy="4.7361584"
       r="1.4452288" />
    <path
       sodipodi:type="star"
       style="fill:#3f1c09;fill-opacity:1;stroke-width:0.0719667;stroke-linecap:round;stroke-linejoin:round"
       id="path39"
       inkscape:flatsided="false"
       sodipodi:sides="6"
       sodipodi:cx="1.2862346"
       sodipodi:cy="1.0757599"
       sodipodi:r1="0.1573749"
       sodipodi:r2="0.081786841"
       sodipodi:arg1="0.11168285"
       sodipodi:arg2="0.73721336"
       inkscape:rounded="0.07"
       inkscape:randomized="0"
       d="m 1.4426291,1.0932995 c -0.00153,0.00704 -0.09157,0.031642 -0.095844,0.03744 -0.00371,0.00503 0.00841,0.087326 0.00246,0.089232 -0.00686,0.0022 -0.073188,-0.063481 -0.080346,-0.064283 -0.00621,-6.964e-4 -0.071422,0.050944 -0.076049,0.046744 -0.00533,-0.00484 0.018382,-0.095123 0.015498,-0.1017233 -0.0025,-0.00573 -0.07983,-0.036382 -0.078506,-0.042488 0.00153,-0.00704 0.09157,-0.031642 0.095844,-0.03744 0.00371,-0.00503 -0.00841,-0.0873259 -0.00246,-0.089232 0.00686,-0.002197 0.073188,0.0634807 0.080346,0.0642834 0.00621,6.9641e-4 0.071422,-0.0509444 0.076049,-0.0467439 0.00533,0.004842 -0.018382,0.0951229 -0.015498,0.1017232 0.0025,0.00573 0.07983,0.036382 0.078506,0.042488 z"
       transform="matrix(0.3972569,0,0,0.3972569,7.7596189,5.1801023)"
       inkscape:path-effect="#path-effect41" />
    <path
       sodipodi:type="star"
       style="fill:#3f1c09;fill-opacity:1;stroke-width:0.0719667;stroke-linecap:round;stroke-linejoin:round"
       id="path41"
       inkscape:flatsided="false"
       sodipodi:sides="6"
       sodipodi:cx="1.2862346"
       sodipodi:cy="1.0757599"
       sodipodi:r1="0.1573749"
       sodipodi:r2="0.081786841"
       sodipodi:arg1="0.11168285"
       sodipodi:arg2="0.73721336"
       inkscape:rounded="0.07"
       inkscape:randomized="0"
       d="m 1.4426291,1.0932995 c -0.00153,0.00704 -0.09157,0.031642 -0.095844,0.03744 -0.00371,0.00503 0.00841,0.087326 0.00246,0.089232 -0.00686,0.0022 -0.073188,-0.063481 -0.080346,-0.064283 -0.00621,-6.964e-4 -0.071422,0.050944 -0.076049,0.046744 -0.00533,-0.00484 0.018382,-0.095123 0.015498,-0.1017233 -0.0025,-0.00573 -0.07983,-0.036382 -0.078506,-0.042488 0.00153,-0.00704 0.09157,-0.031642 0.095844,-0.03744 0.00371,-0.00503 -0.00841,-0.0873259 -0.00246,-0.089232 0.00686,-0.002197 0.073188,0.0634807 0.080346,0.0642834 0.00621,6.9641e-4 0.071422,-0.0509444 0.076049,-0.0467439 0.00533,0.004842 -0.018382,0.0951229 -0.015498,0.1017232 0.0025,0.00573 0.07983,0.036382 0.078506,0.042488 z"
       transform="matrix(0.3972569,0,0,0.3972569,8.0092494,4.937041)"
       inkscape:path-effect="#path-effect43" />
    <path
       sodipodi:type="star"
       style="fill:#3f1c09;fill-opacity:1;stroke-width:0.0719667;stroke-linecap:round;stroke-linejoin:round"
       id="path43"
       inkscape:flatsided="false"
       sodipodi:sides="6"
       sodipodi:cx="1.2862346"
       sodipodi:cy="1.0757599"
       sodipodi:r1="0.1573749"
       sodipodi:r2="0.081786841"
       sodipodi:arg1="0.11168285"
       sodipodi:arg2="0.73721336"
       inkscape:rounded="0.07"
       inkscape:randomized="0"
       d="m 1.4426291,1.0932995 c -0.00153,0.00704 -0.09157,0.031642 -0.095844,0.03744 -0.00371,0.00503 0.00841,0.087326 0.00246,0.089232 -0.00686,0.0022 -0.073188,-0.063481 -0.080346,-0.064283 -0.00621,-6.964e-4 -0.071422,0.050944 -0.076049,0.046744 -0.00533,-0.00484 0.018382,-0.095123 0.015498,-0.1017233 -0.0025,-0.00573 -0.07983,-0.036382 -0.078506,-0.042488 0.00153,-0.00704 0.09157,-0.031642 0.095844,-0.03744 0.00371,-0.00503 -0.00841,-0.0873259 -0.00246,-0.089232 0.00686,-0.002197 0.073188,0.0634807 0.080346,0.0642834 0.00621,6.9641e-4 0.071422,-0.0509444 0.076049,-0.0467439 0.00533,0.004842 -0.018382,0.0951229 -0.015498,0.1017232 0.0025,0.00573 0.07983,0.036382 0.078506,0.042488 z"
       transform="matrix(0.3972569,0,0,0.3972569,8.2391722,4.6479953)"
       inkscape:path-effect="#path-effect45" />
    <path
       sodipodi:type="star"
       style="fill:#3f1c09;fill-opacity:1;stroke-width:0.0719667;stroke-linecap:round;stroke-linejoin:round"
       id="path46"
       inkscape:flatsided="false"
       sodipodi:sides="6"
       sodipodi:cx="1.2862346"
       sodipodi:cy="1.0757599"
       sodipodi:r1="0.1573749"
       sodipodi:r2="0.081786841"
       sodipodi:arg1="0.11168285"
       sodipodi:arg2="0.73721336"
       inkscape:rounded="0.07"
       inkscape:randomized="0"
       d="m 1.4426291,1.0932995 c -0.00153,0.00704 -0.09157,0.031642 -0.095844,0.03744 -0.00371,0.00503 0.00841,0.087326 0.00246,0.089232 -0.00686,0.0022 -0.073188,-0.063481 -0.080346,-0.064283 -0.00621,-6.964e-4 -0.071422,0.050944 -0.076049,0.046744 -0.00533,-0.00484 0.018382,-0.095123 0.015498,-0.1017233 -0.0025,-0.00573 -0.07983,-0.036382 -0.078506,-0.042488 0.00153,-0.00704 0.09157,-0.031642 0.095844,-0.03744 0.00371,-0.00503 -0.00841,-0.0873259 -0.00246,-0.089232 0.00686,-0.002197 0.073188,0.0634807 0.080346,0.0642834 0.00621,6.9641e-4 0.071422,-0.0509444 0.076049,-0.0467439 0.00533,0.004842 -0.018382,0.0951229 -0.015498,0.1017232 0.0025,0.00573 0.07983,0.036382 0.078506,0.042488 z"
       transform="matrix(-0.3972569,0,0,0.3972569,9.425334,4.2801189)"
       inkscape:path-effect="#path-effect55" />
    <path
       sodipodi:type="star"
       style="fill:#3f1c09;fill-opacity:1;stroke-width:0.0719667;stroke-linecap:round;stroke-linejoin:round"
       id="path47"
       inkscape:flatsided="false"
       sodipodi:sides="6"
       sodipodi:cx="1.2862346"
       sodipodi:cy="1.0757599"
       sodipodi:r1="0.1573749"
       sodipodi:r2="0.081786841"
       sodipodi:arg1="0.11168285"
       sodipodi:arg2="0.73721336"
       inkscape:rounded="0.07"
       inkscape:randomized="0"
       d="m 1.4426291,1.0932995 c -0.00153,0.00704 -0.09157,0.031642 -0.095844,0.03744 -0.00371,0.00503 0.00841,0.087326 0.00246,0.089232 -0.00686,0.0022 -0.073188,-0.063481 -0.080346,-0.064283 -0.00621,-6.964e-4 -0.071422,0.050944 -0.076049,0.046744 -0.00533,-0.00484 0.018382,-0.095123 0.015498,-0.1017233 -0.0025,-0.00573 -0.07983,-0.036382 -0.078506,-0.042488 0.00153,-0.00704 0.09157,-0.031642 0.095844,-0.03744 0.00371,-0.00503 -0.00841,-0.0873259 -0.00246,-0.089232 0.00686,-0.002197 0.073188,0.0634807 0.080346,0.0642834 0.00621,6.9641e-4 0.071422,-0.0509444 0.076049,-0.0467439 0.00533,0.004842 -0.018382,0.0951229 -0.015498,0.1017232 0.0025,0.00573 0.07983,0.036382 0.078506,0.042488 z"
       transform="matrix(-0.3972569,0,0,0.3972569,9.45818,3.9713654)"
       inkscape:path-effect="#path-effect57" />
    <path
       sodipodi:type="star"
       style="fill:#3f1c09;fill-opacity:1;stroke-width:0.0719667;stroke-linecap:round;stroke-linejoin:round"
       id="path48"
       inkscape:flatsided="false"
       sodipodi:sides="6"
       sodipodi:cx="1.2862346"
       sodipodi:cy="1.0757599"
       sodipodi:r1="0.1573749"
       sodipodi:r2="0.081786841"
       sodipodi:arg1="0.11168285"
       sodipodi:arg2="0.73721336"
       inkscape:rounded="0.07"
       inkscape:randomized="0"
       d="m 1.4426291,1.0932995 c -0.00153,0.00704 -0.09157,0.031642 -0.095844,0.03744 -0.00371,0.00503 0.00841,0.087326 0.00246,0.089232 -0.00686,0.0022 -0.073188,-0.063481 -0.080346,-0.064283 -0.00621,-6.964e-4 -0.071422,0.050944 -0.076049,0.046744 -0.00533,-0.00484 0.018382,-0.095123 0.015498,-0.1017233 -0.0025,-0.00573 -0.07983,-0.036382 -0.078506,-0.042488 0.00153,-0.00704 0.09157,-0.031642 0.095844,-0.03744 0.00371,-0.00503 -0.00841,-0.0873259 -0.00246,-0.089232 0.00686,-0.002197 0.073188,0.0634807 0.080346,0.0642834 0.00621,6.9641e-4 0.071422,-0.0509444 0.076049,-0.0467439 0.00533,0.004842 -0.018382,0.0951229 -0.015498,0.1017232 0.0025,0.00573 0.07983,0.036382 0.078506,0.042488 z"
       transform="matrix(-0.3972569,0,0,0.3972569,9.3924876,3.6691812)"
       inkscape:path-effect="#path-effect59" />
    <path
       sodipodi:type="star"
       style="fill:#3f1c09;fill-opacity:1;stroke-width:0.0719667;stroke-linecap:round;stroke-linejoin:round"
       id="path49"
       inkscape:flatsided="false"
       sodipodi:sides="6"
       sodipodi:cx="1.2862346"
       sodipodi:cy="1.0757599"
       sodipodi:r1="0.1573749"
       sodipodi:r2="0.081786841"
       sodipodi:arg1="0.11168285"
       sodipodi:arg2="0.73721336"
       inkscape:rounded="0.07"
       inkscape:randomized="0"
       d="m 1.4426291,1.0932995 c -0.00153,0.00704 -0.09157,0.031642 -0.095844,0.03744 -0.00371,0.00503 0.00841,0.087326 0.00246,0.089232 -0.00686,0.0022 -0.073188,-0.063481 -0.080346,-0.064283 -0.00621,-6.964e-4 -0.071422,0.050944 -0.076049,0.046744 -0.00533,-0.00484 0.018382,-0.095123 0.015498,-0.1017233 -0.0025,-0.00573 -0.07983,-0.036382 -0.078506,-0.042488 0.00153,-0.00704 0.09157,-0.031642 0.095844,-0.03744 0.00371,-0.00503 -0.00841,-0.0873259 -0.00246,-0.089232 0.00686,-0.002197 0.073188,0.0634807 0.080346,0.0642834 0.00621,6.9641e-4 0.071422,-0.0509444 0.076049,-0.0467439 0.00533,0.004842 -0.018382,0.0951229 -0.015498,0.1017232 0.0025,0.00573 0.07983,0.036382 0.078506,0.042488 z"
       transform="matrix(-0.3972569,0,0,0.3972569,9.1625648,3.4129816)"
       inkscape:path-effect="#path-effect61" />
    <path
       sodipodi:type="star"
       style="fill:#3f1c09;fill-opacity:1;stroke-width:0.0719667;stroke-linecap:round;stroke-linejoin:round"
       id="path50"
       inkscape:flatsided="false"
       sodipodi:sides="6"
       sodipodi:cx="1.2862346"
       sodipodi:cy="1.0757599"
       sodipodi:r1="0.1573749"
       sodipodi:r2="0.081786841"
       sodipodi:arg1="0.11168285"
       sodipodi:arg2="0.73721336"
       inkscape:rounded="0.07"
       inkscape:randomized="0"
       d="m 1.4426291,1.0932995 c -0.00153,0.00704 -0.09157,0.031642 -0.095844,0.03744 -0.00371,0.00503 0.00841,0.087326 0.00246,0.089232 -0.00686,0.0022 -0.073188,-0.063481 -0.080346,-0.064283 -0.00621,-6.964e-4 -0.071422,0.050944 -0.076049,0.046744 -0.00533,-0.00484 0.018382,-0.095123 0.015498,-0.1017233 -0.0025,-0.00573 -0.07983,-0.036382 -0.078506,-0.042488 0.00153,-0.00704 0.09157,-0.031642 0.095844,-0.03744 0.00371,-0.00503 -0.00841,-0.0873259 -0.00246,-0.089232 0.00686,-0.002197 0.073188,0.0634807 0.080346,0.0642834 0.00621,6.9641e-4 0.071422,-0.0509444 0.076049,-0.0467439 0.00533,0.004842 -0.018382,0.0951229 -0.015498,0.1017232 0.0025,0.00573 0.07983,0.036382 0.078506,0.042488 z"
       transform="matrix(-0.3972569,0,0,0.3972569,8.8341037,3.42612)"
       inkscape:path-effect="#path-effect63" />
    <path
       sodipodi:type="star"
       style="fill:#3f1c09;fill-opacity:1;stroke-width:0.0719667;stroke-linecap:round;stroke-linejoin:round"
       id="path51"
       inkscape:flatsided="false"
       sodipodi:sides="6"
       sodipodi:cx="1.2862346"
       sodipodi:cy="1.0757599"
       sodipodi:r1="0.1573749"
       sodipodi:r2="0.081786841"
       sodipodi:arg1="0.11168285"
       sodipodi:arg2="0.73721336"
       inkscape:rounded="0.07"
       inkscape:randomized="0"
       d="m 1.4426291,1.0932995 c -0.00153,0.00704 -0.09157,0.031642 -0.095844,0.03744 -0.00371,0.00503 0.00841,0.087326 0.00246,0.089232 -0.00686,0.0022 -0.073188,-0.063481 -0.080346,-0.064283 -0.00621,-6.964e-4 -0.071422,0.050944 -0.076049,0.046744 -0.00533,-0.00484 0.018382,-0.095123 0.015498,-0.1017233 -0.0025,-0.00573 -0.07983,-0.036382 -0.078506,-0.042488 0.00153,-0.00704 0.09157,-0.031642 0.095844,-0.03744 0.00371,-0.00503 -0.00841,-0.0873259 -0.00246,-0.089232 0.00686,-0.002197 0.073188,0.0634807 0.080346,0.0642834 0.00621,6.9641e-4 0.071422,-0.0509444 0.076049,-0.0467439 0.00533,0.004842 -0.018382,0.0951229 -0.015498,0.1017232 0.0025,0.00573 0.07983,0.036382 0.078506,0.042488 z"
       transform="matrix(-0.3972569,0,0,0.3972569,8.512212,5.3246251)"
       inkscape:path-effect="#path-effect65" />
    <path
       sodipodi:type="star"
       style="fill:#3f1c09;fill-opacity:1;stroke-width:0.0719667;stroke-linecap:round;stroke-linejoin:round"
       id="path52"
       inkscape:flatsided="false"
       sodipodi:sides="6"
       sodipodi:cx="1.2862346"
       sodipodi:cy="1.0757599"
       sodipodi:r1="0.1573749"
       sodipodi:r2="0.081786841"
       sodipodi:arg1="0.11168285"
       sodipodi:arg2="0.73721336"
       inkscape:rounded="0.07"
       inkscape:randomized="0"
       d="m 1.4426291,1.0932995 c -0.00153,0.00704 -0.09157,0.031642 -0.095844,0.03744 -0.00371,0.00503 0.00841,0.087326 0.00246,0.089232 -0.00686,0.0022 -0.073188,-0.063481 -0.080346,-0.064283 -0.00621,-6.964e-4 -0.071422,0.050944 -0.076049,0.046744 -0.00533,-0.00484 0.018382,-0.095123 0.015498,-0.1017233 -0.0025,-0.00573 -0.07983,-0.036382 -0.078506,-0.042488 0.00153,-0.00704 0.09157,-0.031642 0.095844,-0.03744 0.00371,-0.00503 -0.00841,-0.0873259 -0.00246,-0.089232 0.00686,-0.002197 0.073188,0.0634807 0.080346,0.0642834 0.00621,6.9641e-4 0.071422,-0.0509444 0.076049,-0.0467439 0.00533,0.004842 -0.018382,0.0951229 -0.015498,0.1017232 0.0025,0.00573 0.07983,0.036382 0.078506,0.042488 z"
       transform="matrix(-0.3972569,0,0,0.3972569,8.5516274,3.7283042)"
       inkscape:path-effect="#path-effect67" />
    <path
       sodipodi:type="star"
       style="fill:#3f1c09;fill-opacity:1;stroke-width:0.0719667;stroke-linecap:round;stroke-linejoin:round"
       id="path2"
       inkscape:flatsided="false"
       sodipodi:sides="6"
       sodipodi:cx="1.2862346"
       sodipodi:cy="1.0757599"
       sodipodi:r1="0.1573749"
       sodipodi:r2="0.081786841"
       sodipodi:arg1="0.11168285"
       sodipodi:arg2="0.73721336"
       inkscape:rounded="0.07"
       inkscape:randomized="0"
       d="m 1.4426291,1.0932995 c -0.00153,0.00704 -0.09157,0.031642 -0.095844,0.03744 -0.00371,0.00503 0.00841,0.087326 0.00246,0.089232 -0.00686,0.0022 -0.073188,-0.063481 -0.080346,-0.064283 -0.00621,-6.964e-4 -0.071422,0.050944 -0.076049,0.046744 -0.00533,-0.00484 0.018382,-0.095123 0.015498,-0.1017233 -0.0025,-0.00573 -0.07983,-0.036382 -0.078506,-0.042488 0.00153,-0.00704 0.09157,-0.031642 0.095844,-0.03744 0.00371,-0.00503 -0.00841,-0.0873259 -0.00246,-0.089232 0.00686,-0.002197 0.073188,0.0634807 0.080346,0.0642834 0.00621,6.9641e-4 0.071422,-0.0509444 0.076049,-0.0467439 0.00533,0.004842 -0.018382,0.0951229 -0.015498,0.1017232 0.0025,0.00573 0.07983,0.036382 0.078506,0.042488 z"
       transform="matrix(-0.3972569,0,0,0.3972569,8.2231663,5.1801023)"
       inkscape:path-effect="#path-effect12" />
    <path
       sodipodi:type="star"
       style="fill:#3f1c09;fill-opacity:1;stroke-width:0.0719667;stroke-linecap:round;stroke-linejoin:round"
       id="path3"
       inkscape:flatsided="false"
       sodipodi:sides="6"
       sodipodi:cx="1.2862346"
       sodipodi:cy="1.0757599"
       sodipodi:r1="0.1573749"
       sodipodi:r2="0.081786841"
       sodipodi:arg1="0.11168285"
       sodipodi:arg2="0.73721336"
       inkscape:rounded="0.07"
       inkscape:randomized="0"
       d="m 1.4426291,1.0932995 c -0.00153,0.00704 -0.09157,0.031642 -0.095844,0.03744 -0.00371,0.00503 0.00841,0.087326 0.00246,0.089232 -0.00686,0.0022 -0.073188,-0.063481 -0.080346,-0.064283 -0.00621,-6.964e-4 -0.071422,0.050944 -0.076049,0.046744 -0.00533,-0.00484 0.018382,-0.095123 0.015498,-0.1017233 -0.0025,-0.00573 -0.07983,-0.036382 -0.078506,-0.042488 0.00153,-0.00704 0.09157,-0.031642 0.095844,-0.03744 0.00371,-0.00503 -0.00841,-0.0873259 -0.00246,-0.089232 0.00686,-0.002197 0.073188,0.0634807 0.080346,0.0642834 0.00621,6.9641e-4 0.071422,-0.0509444 0.076049,-0.0467439 0.00533,0.004842 -0.018382,0.0951229 -0.015498,0.1017232 0.0025,0.00573 0.07983,0.036382 0.078506,0.042488 z"
       transform="matrix(-0.3972569,0,0,0.3972569,7.9735357,4.937041)"
       inkscape:path-effect="#path-effect16" />
    <path
       sodipodi:type="star"
       style="fill:#3f1c09;fill-opacity:1;stroke-width:0.0719667;stroke-linecap:round;stroke-linejoin:round"
       id="path4"
       inkscape:flatsided="false"
       sodipodi:sides="6"
       sodipodi:cx="1.2862346"
       sodipodi:cy="1.0757599"
       sodipodi:r1="0.1573749"
       sodipodi:r2="0.081786841"
       sodipodi:arg1="0.11168285"
       sodipodi:arg2="0.73721336"
       inkscape:rounded="0.07"
       inkscape:randomized="0"
       d="m 1.4426291,1.0932995 c -0.00153,0.00704 -0.09157,0.031642 -0.095844,0.03744 -0.00371,0.00503 0.00841,0.087326 0.00246,0.089232 -0.00686,0.0022 -0.073188,-0.063481 -0.080346,-0.064283 -0.00621,-6.964e-4 -0.071422,0.050944 -0.076049,0.046744 -0.00533,-0.00484 0.018382,-0.095123 0.015498,-0.1017233 -0.0025,-0.00573 -0.07983,-0.036382 -0.078506,-0.042488 0.00153,-0.00704 0.09157,-0.031642 0.095844,-0.03744 0.00371,-0.00503 -0.00841,-0.0873259 -0.00246,-0.089232 0.00686,-0.002197 0.073188,0.0634807 0.080346,0.0642834 0.00621,6.9641e-4 0.071422,-0.0509444 0.076049,-0.0467439 0.00533,0.004842 -0.018382,0.0951229 -0.015498,0.1017232 0.0025,0.00573 0.07983,0.036382 0.078506,0.042488 z"
       transform="matrix(-0.3972569,0,0,0.3972569,7.7436129,4.6479953)"
       inkscape:path-effect="#path-effect30" />
    <path
       sodipodi:type="star"
       style="fill:#3f1c09;fill-opacity:1;stroke-width:0.0719667;stroke-linecap:round;stroke-linejoin:round"
       id="path5"
       inkscape:flatsided="false"
       sodipodi:sides="6"
       sodipodi:cx="1.2862346"
       sodipodi:cy="1.0757599"
       sodipodi:r1="0.1573749"
       sodipodi:r2="0.081786841"
       sodipodi:arg1="0.11168285"
       sodipodi:arg2="0.73721336"
       inkscape:rounded="0.07"
       inkscape:randomized="0"
       d="m 1.4426291,1.0932995 c -0.00153,0.00704 -0.09157,0.031642 -0.095844,0.03744 -0.00371,0.00503 0.00841,0.087326 0.00246,0.089232 -0.00686,0.0022 -0.073188,-0.063481 -0.080346,-0.064283 -0.00621,-6.964e-4 -0.071422,0.050944 -0.076049,0.046744 -0.00533,-0.00484 0.018382,-0.095123 0.015498,-0.1017233 -0.0025,-0.00573 -0.07983,-0.036382 -0.078506,-0.042488 0.00153,-0.00704 0.09157,-0.031642 0.095844,-0.03744 0.00371,-0.00503 -0.00841,-0.0873259 -0.00246,-0.089232 0.00686,-0.002197 0.073188,0.0634807 0.080346,0.0642834 0.00621,6.9641e-4 0.071422,-0.0509444 0.076049,-0.0467439 0.00533,0.004842 -0.018382,0.0951229 -0.015498,0.1017232 0.0025,0.00573 0.07983,0.036382 0.078506,0.042488 z"
       transform="matrix(0.3972569,0,0,0.3972569,6.5574512,4.2801189)"
       inkscape:path-effect="#path-effect34" />
    <path
       sodipodi:type="star"
       style="fill:#3f1c09;fill-opacity:1;stroke-width:0.0719667;stroke-linecap:round;stroke-linejoin:round"
       id="path6"
       inkscape:flatsided="false"
       sodipodi:sides="6"
       sodipodi:cx="1.2862346"
       sodipodi:cy="1.0757599"
       sodipodi:r1="0.1573749"
       sodipodi:r2="0.081786841"
       sodipodi:arg1="0.11168285"
       sodipodi:arg2="0.73721336"
       inkscape:rounded="0.07"
       inkscape:randomized="0"
       d="m 1.4426291,1.0932995 c -0.00153,0.00704 -0.09157,0.031642 -0.095844,0.03744 -0.00371,0.00503 0.00841,0.087326 0.00246,0.089232 -0.00686,0.0022 -0.073188,-0.063481 -0.080346,-0.064283 -0.00621,-6.964e-4 -0.071422,0.050944 -0.076049,0.046744 -0.00533,-0.00484 0.018382,-0.095123 0.015498,-0.1017233 -0.0025,-0.00573 -0.07983,-0.036382 -0.078506,-0.042488 0.00153,-0.00704 0.09157,-0.031642 0.095844,-0.03744 0.00371,-0.00503 -0.00841,-0.0873259 -0.00246,-0.089232 0.00686,-0.002197 0.073188,0.0634807 0.080346,0.0642834 0.00621,6.9641e-4 0.071422,-0.0509444 0.076049,-0.0467439 0.00533,0.004842 -0.018382,0.0951229 -0.015498,0.1017232 0.0025,0.00573 0.07983,0.036382 0.078506,0.042488 z"
       transform="matrix(0.3972569,0,0,0.3972569,6.5246051,3.9713654)"
       inkscape:path-effect="#path-effect38" />
    <path
       sodipodi:type="star"
       style="fill:#3f1c09;fill-opacity:1;stroke-width:0.0719667;stroke-linecap:round;stroke-linejoin:round"
       id="path7"
       inkscape:flatsided="false"
       sodipodi:sides="6"
       sodipodi:cx="1.2862346"
       sodipodi:cy="1.0757599"
       sodipodi:r1="0.1573749"
       sodipodi:r2="0.081786841"
       sodipodi:arg1="0.11168285"
       sodipodi:arg2="0.73721336"
       inkscape:rounded="0.07"
       inkscape:randomized="0"
       d="m 1.4426291,1.0932995 c -0.00153,0.00704 -0.09157,0.031642 -0.095844,0.03744 -0.00371,0.00503 0.00841,0.087326 0.00246,0.089232 -0.00686,0.0022 -0.073188,-0.063481 -0.080346,-0.064283 -0.00621,-6.964e-4 -0.071422,0.050944 -0.076049,0.046744 -0.00533,-0.00484 0.018382,-0.095123 0.015498,-0.1017233 -0.0025,-0.00573 -0.07983,-0.036382 -0.078506,-0.042488 0.00153,-0.00704 0.09157,-0.031642 0.095844,-0.03744 0.00371,-0.00503 -0.00841,-0.0873259 -0.00246,-0.089232 0.00686,-0.002197 0.073188,0.0634807 0.080346,0.0642834 0.00621,6.9641e-4 0.071422,-0.0509444 0.076049,-0.0467439 0.00533,0.004842 -0.018382,0.0951229 -0.015498,0.1017232 0.0025,0.00573 0.07983,0.036382 0.078506,0.042488 z"
       transform="matrix(0.3972569,0,0,0.3972569,6.5902974,3.6691812)"
       inkscape:path-effect="#path-effect42" />
    <path
       sodipodi:type="star"
       style="fill:#3f1c09;fill-opacity:1;stroke-width:0.0719667;stroke-linecap:round;stroke-linejoin:round"
       id="path8"
       inkscape:flatsided="false"
       sodipodi:sides="6"
       sodipodi:cx="1.2862346"
       sodipodi:cy="1.0757599"
       sodipodi:r1="0.1573749"
       sodipodi:r2="0.081786841"
       sodipodi:arg1="0.11168285"
       sodipodi:arg2="0.73721336"
       inkscape:rounded="0.07"
       inkscape:randomized="0"
       d="m 1.4426291,1.0932995 c -0.00153,0.00704 -0.09157,0.031642 -0.095844,0.03744 -0.00371,0.00503 0.00841,0.087326 0.00246,0.089232 -0.00686,0.0022 -0.073188,-0.063481 -0.080346,-0.064283 -0.00621,-6.964e-4 -0.071422,0.050944 -0.076049,0.046744 -0.00533,-0.00484 0.018382,-0.095123 0.015498,-0.1017233 -0.0025,-0.00573 -0.07983,-0.036382 -0.078506,-0.042488 0.00153,-0.00704 0.09157,-0.031642 0.095844,-0.03744 0.00371,-0.00503 -0.00841,-0.0873259 -0.00246,-0.089232 0.00686,-0.002197 0.073188,0.0634807 0.080346,0.0642834 0.00621,6.9641e-4 0.071422,-0.0509444 0.076049,-0.0467439 0.00533,0.004842 -0.018382,0.0951229 -0.015498,0.1017232 0.0025,0.00573 0.07983,0.036382 0.078506,0.042488 z"
       transform="matrix(0.3972569,0,0,0.3972569,6.8202201,3.4129816)"
       inkscape:path-effect="#path-effect46" />
    <path
       sodipodi:type="star"
       style="fill:#3f1c09;fill-opacity:1;stroke-width:0.0719667;stroke-linecap:round;stroke-linejoin:round"
       id="path9"
       inkscape:flatsided="false"
       sodipodi:sides="6"
       sodipodi:cx="1.2862346"
       sodipodi:cy="1.0757599"
       sodipodi:r1="0.1573749"
       sodipodi:r2="0.081786841"
       sodipodi:arg1="0.11168285"
       sodipodi:arg2="0.73721336"
       inkscape:rounded="0.07"
       inkscape:randomized="0"
       d="m 1.4426291,1.0932995 c -0.00153,0.00704 -0.09157,0.031642 -0.095844,0.03744 -0.00371,0.00503 0.00841,0.087326 0.00246,0.089232 -0.00686,0.0022 -0.073188,-0.063481 -0.080346,-0.064283 -0.00621,-6.964e-4 -0.071422,0.050944 -0.076049,0.046744 -0.00533,-0.00484 0.018382,-0.095123 0.015498,-0.1017233 -0.0025,-0.00573 -0.07983,-0.036382 -0.078506,-0.042488 0.00153,-0.00704 0.09157,-0.031642 0.095844,-0.03744 0.00371,-0.00503 -0.00841,-0.0873259 -0.00246,-0.089232 0.00686,-0.002197 0.073188,0.0634807 0.080346,0.0642834 0.00621,6.9641e-4 0.071422,-0.0509444 0.076049,-0.0467439 0.00533,0.004842 -0.018382,0.0951229 -0.015498,0.1017232 0.0025,0.00573 0.07983,0.036382 0.078506,0.042488 z"
       transform="matrix(0.3972569,0,0,0.3972569,7.1486812,3.42612)"
       inkscape:path-effect="#path-effect48" />
  </g>
  <path
     style="font-size:8.08281px;font-family:'Californian FB';-inkscape-font-specification:'Californian FB, Normal';text-align:center;letter-spacing:-0.00275551px;word-spacing:-0.0247999px;text-anchor:middle;fill:#f0ece1;stroke-width:0.383254;stroke-linecap:round"
     d="m 6.2734375,2.0332031 c -0.5809847,0 -1.0973689,0.1253001 -1.5429688,0.3867188 C 4.2455697,2.7037652 3.8535528,3.133404 3.5527344,3.6953125 3.2434919,4.2769154 3.0898438,4.8953114 3.0898438,5.5488281 c 0,0.6189759 0.1241551,1.1538405 0.3886718,1.5957031 0.3461118,0.5799712 0.8765959,0.8769532 1.5605469,0.8769532 0.219416,0 0.42853,-0.00711 0.546875,-0.029297 a 0.29104165,0.29104165 0 0 0 0.015625,-0.00195 C 5.7149407,7.9628672 5.8678572,7.8895509 6.0019531,7.8164062 6.3120149,7.648456 6.551117,7.397763 6.7304687,7.0664062 6.8958157,6.765475 6.9628906,6.3673445 6.9628906,5.90625 6.9628904,5.316767 6.8388053,4.8221778 6.5527344,4.4589844 6.4572335,4.3353946 6.3558117,4.2236794 6.2578125,4.1425781 6.1959606,4.0916409 6.0938723,4.026245 5.9980469,3.96875 5.7826412,3.8395066 5.5508326,3.7734375 5.3027344,3.7734375 c -0.2608146,0 -0.5020441,0.0364 -0.7148438,0.1152344 C 4.6901794,3.726898 4.812958,3.5737608 4.9589844,3.4277344 5.1619279,3.2247909 5.4143526,3.0655318 5.7207031,2.9453125 c 0.038988,-0.01462 0.1842056,-0.050222 0.390625,-0.080078 0.189846,-0.025655 0.3232255,-0.037109 0.3554688,-0.037109 0.060904,0 0.1330192,-0.00661 0.2011718,-0.029297 0.1320458,-0.043956 0.2597657,-0.1606805 0.2597657,-0.3457031 0,-0.076013 -0.021122,-0.1503493 -0.066406,-0.2148437 C 6.7254749,2.0447978 6.449255,2.0332031 6.2734375,2.0332031 Z M 4.7304687,4.8125 c 0.2494467,0 0.4472663,0.026497 0.5859375,0.066406 0.095669,0.026642 0.2586122,0.1512423 0.4355469,0.4414063 0.1093898,0.1816982 0.1914063,0.5310303 0.1914063,1.0371094 10e-8,0.3664191 -0.099207,0.6034538 -0.2988282,0.7871093 -0.015808,0.014413 -0.075025,0.046875 -0.21875,0.046875 -0.1918415,0 -0.3545183,-0.041592 -0.5078125,-0.1269531 C 4.7646746,6.979092 4.6185413,6.8461301 4.4824219,6.65625 4.2963846,6.3957977 4.1816406,5.9766959 4.1816406,5.3789062 c 0,-0.1517197 0.00678,-0.2965088 0.019531,-0.4277343 C 4.3350499,4.861062 4.5018372,4.8125 4.7304687,4.8125 Z"
     id="text1"
     aria-label="6"
     inkscape:path-effect="#path-effect2"
     inkscape:original-d="m 6.6728504,5.9071937 q 0,0.6590964 -0.1973343,1.0182447 Q 6.2426617,7.355627 5.86378,7.5608547 5.6467123,7.6792552 5.5322585,7.706882 5.4059646,7.730562 5.0389229,7.730562 4.1667055,7.730562 3.7286235,6.9964786 3.3813153,6.416316 3.3813153,5.5480453 q 0,-0.9077375 0.4301886,-1.7168079 Q 4.2298525,3.049794 4.8771088,2.6709122 5.4691115,2.323604 6.2742352,2.323604 q 0.363095,0 0.363095,0.1302406 0,0.08288 -0.1697074,0.08288 -0.1026138,0 -0.3946685,0.039467 -0.3275748,0.04736 -0.4538688,0.09472 -0.513069,0.201281 -0.8643239,0.5525359 -0.4893889,0.4893889 -0.6946165,1.1050717 -0.039467,0.1262939 0.01184,0.1262939 0.02368,0 0.0592,-0.027627 0.1776008,-0.086827 0.4144019,-0.2012809 0.3117881,-0.161814 0.7577635,-0.161814 0.288108,0 0.5446425,0.1539207 0.1578674,0.09472 0.224961,0.149974 0.1144539,0.09472 0.2486411,0.2683745 0.351255,0.4459754 0.3512553,1.2708333 z m -0.438082,0.4499221 q 0,-0.801177 -0.2328544,-1.1879521 Q 5.7059126,4.6837215 5.3941245,4.5968944 5.1336433,4.5219074 4.7310815,4.5219074 q -0.4696555,0 -0.7696036,0.2446944 -0.03552,0.031573 -0.04736,0.1302406 -0.02368,0.2289078 -0.02368,0.4814956 0,0.951151 0.3552016,1.4484333 0.4696555,0.6551497 1.1800588,0.6551497 0.2802146,0 0.4144019,-0.1223473 0.3946685,-0.363095 0.3946682,-1.0024579 z" />
  <text
     xml:space="preserve"
     style="font-style:normal;font-variant:normal;font-weight:normal;font-stretch:normal;font-size:8.08281px;font-family:'Californian FB';-inkscape-font-specification:'Californian FB, Normal';font-variant-ligatures:normal;font-variant-caps:normal;font-variant-numeric:normal;font-variant-east-asian:normal;text-align:center;letter-spacing:-0.00275551px;word-spacing:-0.0247999px;writing-mode:lr-tb;direction:ltr;text-anchor:middle;fill:#741303;stroke:none;stroke-width:0.383257;stroke-linecap:round"
     x="5.0428696"
     y="7.6674151"
     id="text57"><tspan
       sodipodi:role="line"
       id="tspan57"
       style="font-style:normal;font-variant:normal;font-weight:normal;font-stretch:normal;font-size:8.08281px;font-family:'Californian FB';-inkscape-font-specification:'Californian FB, Normal';font-variant-ligatures:normal;font-variant-caps:normal;font-variant-numeric:normal;font-variant-east-asian:normal;fill:#741303;stroke:none;stroke-width:0.383254"
       x="5.041492"
       y="7.6674151">6</tspan></text>
</svg>
