<?xml version="1.0" encoding="UTF-8" standalone="no"?>
<!-- Created with Inkscape (http://www.inkscape.org/) -->

<svg
   width="38"
   height="38"
   viewBox="0 0 10.054166 10.054166"
   version="1.1"
   id="svg1"
   sodipodi:docname="door22.svg"
   xml:space="preserve"
   inkscape:version="1.4.2 (f4327f4, 2025-05-13)"
   xmlns:inkscape="http://www.inkscape.org/namespaces/inkscape"
   xmlns:sodipodi="http://sodipodi.sourceforge.net/DTD/sodipodi-0.dtd"
   xmlns="http://www.w3.org/2000/svg"
   xmlns:svg="http://www.w3.org/2000/svg"><sodipodi:namedview
     id="namedview1"
     pagecolor="#ffffff"
     bordercolor="#000000"
     borderopacity="0.25"
     inkscape:showpageshadow="2"
     inkscape:pageopacity="0.0"
     inkscape:pagecheckerboard="0"
     inkscape:deskcolor="#d1d1d1"
     inkscape:zoom="16"
     inkscape:cx="17.4375"
     inkscape:cy="20.71875"
     inkscape:window-width="1920"
     inkscape:window-height="1094"
     inkscape:window-x="-11"
     inkscape:window-y="-11"
     inkscape:window-maximized="1"
     inkscape:current-layer="svg1" /><defs
     id="defs1"><inkscape:path-effect
       effect="offset"
       id="path-effect1"
       is_visible="true"
       lpeversion="1.3"
       linejoin_type="round"
       unit="px"
       offset="1.1"
       miter_limit="4"
       attempt_force_join="false"
       update_on_knot_move="true" /></defs><rect
     style="display:inline;fill:#f0ece1;fill-opacity:1;stroke:#741303;stroke-width:0.579845;stroke-linecap:round;stroke-linejoin:miter;stroke-dasharray:none;stroke-opacity:1"
     id="rect47"
     width="9.4743214"
     height="9.4743214"
     x="0.2899223"
     y="0.28992227"
     inkscape:export-filename="door1.svg"
     inkscape:export-xdpi="96"
     inkscape:export-ydpi="96" /><g
     id="g29"
     inkscape:label="Sukkerstok"
     transform="matrix(0.04407976,-0.01042219,0.01042219,0.04407976,1.4810061,-0.88622222)"
     style="display:inline"><path
       style="font-variation-settings:'wdth' 87, 'wght' 600;display:inline;opacity:1;fill:none;fill-opacity:1;stroke:#f6ede4;stroke-width:15.7319;stroke-linecap:round;stroke-linejoin:miter;stroke-dasharray:none;stroke-opacity:1"
       d="m -26.39048,198.30904 v -87.32417 c 0,-30.725392 -40.046759,-30.589468 -40.046759,0 v 13.62701"
       id="path28"
       sodipodi:nodetypes="cccc"
       transform="translate(46.335471,12.415552)" /><path
       id="path29"
       style="font-variation-settings:'wdth' 87, 'wght' 600;display:inline;opacity:1;fill:#a11d1d;fill-opacity:1;stroke:none;stroke-width:0.786592;stroke-linecap:round;stroke-linejoin:miter;stroke-dasharray:none;stroke-opacity:1"
       d="m -47.12813,80.143652 c -3.568111,0.107918 -7.100256,1.011606 -10.390088,2.584057 0.889113,1.972671 1.743075,4.023678 2.561034,6.171395 1.046246,2.749888 2.03075,5.515622 2.972767,8.137852 1.377495,-0.661689 2.870795,-1.009822 4.381567,-1.127669 0.151026,-2.679965 0.319015,-5.487647 0.428631,-8.306834 0.09903,-2.567914 0.123288,-5.057461 0.04608,-7.458801 z m 12.888136,3.097188 c -1.10355,2.301538 -2.375514,4.642824 -3.751677,7.025583 -1.255387,2.171887 -2.538282,4.286307 -3.783942,6.351109 1.53755,0.557755 2.957445,1.470301 4.144974,2.831432 1.813591,-1.280683 3.655151,-2.573737 5.504613,-3.932969 2.319364,-1.705759 4.516393,-3.423736 6.529332,-5.17736 -2.455117,-2.987872 -5.410177,-5.379163 -8.6433,-7.097795 z m -33.179766,7.335899 c -2.020192,2.508663 -3.685436,5.423223 -4.873185,8.689395 1.830685,0.5692 3.6848,1.184506 5.582962,1.874286 3.081981,1.12122 6.070844,2.29007 8.929057,3.41372 0.452691,-1.63432 1.083203,-2.99141 1.851258,-4.10505 -2.191161,-1.958719 -4.498101,-4.044094 -6.870394,-6.094536 -1.553895,-1.342168 -3.090077,-2.589736 -4.619698,-3.777815 z m 47.728655,11.354901 c -2.701313,0.84685 -5.571926,1.60165 -8.564948,2.28602 -2.198448,0.50193 -4.383205,0.95491 -6.523187,1.38884 0.328907,1.56021 0.52081,3.33259 0.52081,5.37863 v 0.94329 c 2.196373,0.088 4.446693,0.14657 6.744419,0.14746 3.085617,2.4e-4 6.112004,-0.0889 8.990505,-0.24438 v -0.84652 c 0,-3.22576 -0.418184,-6.24922 -1.167599,-9.05349 z m -51.63089,8.65253 c -1.006724,0.006 -1.987131,0.0434 -2.97123,0.0752 -9.51e-4,0.1094 -0.0077,0.21583 -0.0077,0.32568 v 7.50949 c 1.943277,-0.0669 3.920409,-0.11237 5.933244,-0.11208 3.383551,0.001 6.685935,0.11089 9.797072,0.29804 v -7.69539 c 0,-0.0238 0.0015,-0.0431 0.0015,-0.066 -3.107418,-0.14121 -6.480932,-0.28362 -9.797075,-0.32568 -0.992771,-0.0119 -1.979335,-0.0149 -2.955866,-0.009 z m 52.798489,10.70963 c -2.878501,0.15549 -5.904888,0.24438 -8.990505,0.24438 -2.297738,-9.2e-4 -4.548043,-0.0598 -6.744419,-0.14746 v 7.78449 c 2.196373,0.0877 4.446693,0.14656 6.744419,0.14746 3.085617,2e-4 6.112004,-0.0889 8.990505,-0.24438 z m 0,17.24667 c -2.878501,0.15548 -5.904888,0.24438 -8.990505,0.24438 -2.297738,-9.6e-4 -4.548043,-0.0598 -6.744419,-0.14746 v 7.78451 c 2.196373,0.0877 4.446693,0.14657 6.744419,0.14746 3.085617,2.1e-4 6.112004,-0.0889 8.990505,-0.24437 z m 0,17.24664 c -2.878501,0.15548 -5.904888,0.24437 -8.990505,0.24437 -2.297738,-9.5e-4 -4.548043,-0.0597 -6.744419,-0.14745 v 7.78448 c 2.196373,0.0877 4.446693,0.14657 6.744419,0.14746 3.085617,2.1e-4 6.112004,-0.0889 8.990505,-0.24438 z m 0,17.24667 c -2.878501,0.15548 -5.904888,0.24437 -8.990505,0.24437 -2.297738,-9.2e-4 -4.548043,-0.0598 -6.744419,-0.14746 v 7.78452 c 2.196373,0.0877 4.446693,0.14657 6.744419,0.14746 3.085617,2.1e-4 6.112004,-0.0889 8.990505,-0.24438 z m 0,17.24663 c -2.878501,0.15549 -5.904888,0.24438 -8.990505,0.24438 -2.297738,-9.5e-4 -4.548043,-0.0598 -6.744419,-0.14746 v 7.78452 c 2.196373,0.0877 4.446693,0.14656 6.744419,0.14746 3.085617,2.3e-4 6.112004,-0.0886 8.990505,-0.24438 z"
       transform="translate(46.335471,12.415552)" /></g><g
     id="g2"
     inkscape:label="Sukkerstok"
     transform="matrix(-0.04407976,-0.01042219,-0.01042219,0.04407976,7.5183695,-0.88622222)"
     style="display:inline"><path
       style="font-variation-settings:'wdth' 87, 'wght' 600;display:inline;opacity:1;fill:none;fill-opacity:1;stroke:#f6ede4;stroke-width:15.7319;stroke-linecap:round;stroke-linejoin:miter;stroke-dasharray:none;stroke-opacity:1"
       d="m -26.39048,198.30904 v -87.32417 c 0,-30.725392 -40.046759,-30.589468 -40.046759,0 v 13.62701"
       id="path1"
       sodipodi:nodetypes="cccc"
       transform="translate(46.335471,12.415552)" /><path
       id="path2"
       style="font-variation-settings:'wdth' 87, 'wght' 600;display:inline;opacity:1;fill:#a11d1d;fill-opacity:1;stroke:none;stroke-width:0.786592;stroke-linecap:round;stroke-linejoin:miter;stroke-dasharray:none;stroke-opacity:1"
       d="m -47.12813,80.143652 c -3.568111,0.107918 -7.100256,1.011606 -10.390088,2.584057 0.889113,1.972671 1.743075,4.023678 2.561034,6.171395 1.046246,2.749888 2.03075,5.515622 2.972767,8.137852 1.377495,-0.661689 2.870795,-1.009822 4.381567,-1.127669 0.151026,-2.679965 0.319015,-5.487647 0.428631,-8.306834 0.09903,-2.567914 0.123288,-5.057461 0.04608,-7.458801 z m 12.888136,3.097188 c -1.10355,2.301538 -2.375514,4.642824 -3.751677,7.025583 -1.255387,2.171887 -2.538282,4.286307 -3.783942,6.351109 1.53755,0.557755 2.957445,1.470301 4.144974,2.831432 1.813591,-1.280683 3.655151,-2.573737 5.504613,-3.932969 2.319364,-1.705759 4.516393,-3.423736 6.529332,-5.17736 -2.455117,-2.987872 -5.410177,-5.379163 -8.6433,-7.097795 z m -33.179766,7.335899 c -2.020192,2.508663 -3.685436,5.423223 -4.873185,8.689395 1.830685,0.5692 3.6848,1.184506 5.582962,1.874286 3.081981,1.12122 6.070844,2.29007 8.929057,3.41372 0.452691,-1.63432 1.083203,-2.99141 1.851258,-4.10505 -2.191161,-1.958719 -4.498101,-4.044094 -6.870394,-6.094536 -1.553895,-1.342168 -3.090077,-2.589736 -4.619698,-3.777815 z m 47.728655,11.354901 c -2.701313,0.84685 -5.571926,1.60165 -8.564948,2.28602 -2.198448,0.50193 -4.383205,0.95491 -6.523187,1.38884 0.328907,1.56021 0.52081,3.33259 0.52081,5.37863 v 0.94329 c 2.196373,0.088 4.446693,0.14657 6.744419,0.14746 3.085617,2.4e-4 6.112004,-0.0889 8.990505,-0.24438 v -0.84652 c 0,-3.22576 -0.418184,-6.24922 -1.167599,-9.05349 z m -51.63089,8.65253 c -1.006724,0.006 -1.987131,0.0434 -2.97123,0.0752 -9.51e-4,0.1094 -0.0077,0.21583 -0.0077,0.32568 v 7.50949 c 1.943277,-0.0669 3.920409,-0.11237 5.933244,-0.11208 3.383551,0.001 6.685935,0.11089 9.797072,0.29804 v -7.69539 c 0,-0.0238 0.0015,-0.0431 0.0015,-0.066 -3.107418,-0.14121 -6.480932,-0.28362 -9.797075,-0.32568 -0.992771,-0.0119 -1.979335,-0.0149 -2.955866,-0.009 z m 52.798489,10.70963 c -2.878501,0.15549 -5.904888,0.24438 -8.990505,0.24438 -2.297738,-9.2e-4 -4.548043,-0.0598 -6.744419,-0.14746 v 7.78449 c 2.196373,0.0877 4.446693,0.14656 6.744419,0.14746 3.085617,2e-4 6.112004,-0.0889 8.990505,-0.24438 z m 0,17.24667 c -2.878501,0.15548 -5.904888,0.24438 -8.990505,0.24438 -2.297738,-9.6e-4 -4.548043,-0.0598 -6.744419,-0.14746 v 7.78451 c 2.196373,0.0877 4.446693,0.14657 6.744419,0.14746 3.085617,2.1e-4 6.112004,-0.0889 8.990505,-0.24437 z m 0,17.24664 c -2.878501,0.15548 -5.904888,0.24437 -8.990505,0.24437 -2.297738,-9.5e-4 -4.548043,-0.0597 -6.744419,-0.14745 v 7.78448 c 2.196373,0.0877 4.446693,0.14657 6.744419,0.14746 3.085617,2.1e-4 6.112004,-0.0889 8.990505,-0.24438 z m 0,17.24667 c -2.878501,0.15548 -5.904888,0.24437 -8.990505,0.24437 -2.297738,-9.2e-4 -4.548043,-0.0598 -6.744419,-0.14746 v 7.78452 c 2.196373,0.0877 4.446693,0.14657 6.744419,0.14746 3.085617,2.1e-4 6.112004,-0.0889 8.990505,-0.24438 z m 0,17.24663 c -2.878501,0.15549 -5.904888,0.24438 -8.990505,0.24438 -2.297738,-9.5e-4 -4.548043,-0.0598 -6.744419,-0.14746 v 7.78452 c 2.196373,0.0877 4.446693,0.14656 6.744419,0.14746 3.085617,2.3e-4 6.112004,-0.0886 8.990505,-0.24438 z"
       transform="translate(46.335471,12.415552)" /></g><path
     style="font-size:8.08281px;font-family:'Californian FB';-inkscape-font-specification:'Californian FB, Normal';text-align:center;letter-spacing:-0.00275551px;word-spacing:-0.0247999px;text-anchor:middle;fill:#f0ece1;fill-opacity:1;stroke-width:0.383254;stroke-linecap:round"
     d="m 3.0117188,2.0859375 c -0.4481548,0 -0.8523307,0.096534 -1.2089844,0.3007813 C 1.6473906,2.4740996 1.4991468,2.5955973 1.359375,2.7382813 1.2230728,2.8771076 1.0625,3.0703051 1.0625,3.28125 c 0,0.2034089 0.1728386,0.2962951 0.2363281,0.3261719 a 0.29104165,0.29104165 0 0 0 0.015625,0.00586 c 0.1629694,0.06519 0.3162426,-2.044e-4 0.4082031,-0.1152344 0.1636235,-0.2125225 0.4286885,-0.3320313 0.8945313,-0.3320313 0.3884222,0 0.6110513,0.093432 0.75,0.2519532 0.1203136,0.1344681 0.1933594,0.3356977 0.1933594,0.6484374 0,0.3060171 -0.043497,0.5645818 -0.1289063,0.7871094 C 3.341385,5.0926931 3.1630356,5.398503 2.8964844,5.7480469 2.5178481,6.2380468 1.9995693,6.7025021 1.3398437,7.140625 1.2252781,7.2159107 1.0703125,7.3478376 1.0703125,7.5546875 c 0,0.1667713 0.087422,0.4140625 0.359375,0.4140625 h 2.9785156 c 0.153716,0 0.2561584,-0.0942 0.3105469,-0.1757813 A 0.29104165,0.29104165 0 0 0 4.7421875,7.75 C 4.8008435,7.6193566 4.8519494,7.5006193 4.8964844,7.3984375 4.9100323,7.3668256 4.958507,7.2586561 4.9667969,7.1875 a 0.29104165,0.29104165 0 0 0 0.00195,-0.033203 v -0.00195 c -1e-6,-0.078137 -0.027719,-0.1622054 -0.087891,-0.2285156 a 0.29104165,0.29104165 0 0 0 -0.025391,-0.025391 c -0.075258,-0.064506 -0.16995,-0.083984 -0.234375,-0.083984 -0.05491,0 -0.1534017,0.021281 -0.1894531,0.029297 -0.2524222,0.054578 -0.6787333,0.087891 -1.25,0.087891 H 2.8554688 C 3.089893,6.721851 3.3212421,6.4914871 3.5507813,6.2402344 3.9275719,5.8294476 4.231124,5.3310609 4.46875,4.7480469 4.6002822,4.4236009 4.6679687,4.0961115 4.6679687,3.765625 4.6679688,3.2720207 4.5264715,2.8585028 4.21875,2.5507813 3.905028,2.2370594 3.4938096,2.0859375 3.0117188,2.0859375 Z m 4.0234374,0 c -0.4481547,0 -0.8523306,0.096534 -1.2089843,0.3007813 C 5.6708276,2.4740999 5.5225847,2.5955976 5.3828125,2.7382813 5.2465104,2.8771075 5.0859375,3.070305 5.0859375,3.28125 c 0,0.1984307 0.1647372,0.2934018 0.234375,0.3261719 a 0.29104165,0.29104165 0 0 0 0.015625,0.00586 c 0.1608078,0.064325 0.3156942,0.00292 0.4101562,-0.1152344 0.1636235,-0.2125225 0.4286885,-0.3320313 0.8945313,-0.3320313 0.3884222,0 0.6110513,0.093432 0.75,0.2519532 0.1203136,0.1344681 0.1933594,0.3356977 0.1933594,0.6484374 0,0.304883 -0.044995,0.563398 -0.1308594,0.7871094 C 7.3628693,5.0926931 7.1845199,5.398503 6.9179687,5.7480469 6.539054,6.2384072 6.0227933,6.7026438 5.3632812,7.140625 5.2487156,7.2159107 5.09375,7.3478376 5.09375,7.5546875 c 0,0.1629675 0.082397,0.4140625 0.3574219,0.4140625 h 2.9804687 c 0.158374,0 0.2574545,-0.099074 0.3085938,-0.1757813 A 0.29104165,0.29104165 0 0 0 8.7636719,7.75 C 8.8216742,7.6208124 8.8738904,7.5040523 8.9199219,7.3984375 8.9363183,7.3601793 8.9801695,7.2571278 8.9882813,7.1875 a 0.29104165,0.29104165 0 0 0 0.00195,-0.033203 v -0.00195 C 8.990238,6.9397325 8.8212568,6.8144531 8.6445313,6.8144531 c -0.05491,0 -0.1548036,0.021158 -0.1914063,0.029297 -0.2526842,0.054635 -0.6767802,0.087891 -1.2480469,0.087891 H 6.8769531 C 7.1113774,6.721851 7.3427265,6.4914871 7.5722656,6.2402344 7.9486912,5.8298456 8.2543403,5.3316035 8.4921875,4.7480469 8.6237197,4.4236009 8.6914063,4.0961115 8.6914063,3.765625 8.6914063,3.2720207 8.549909,2.8585027 8.2421875,2.5507813 7.9284656,2.2370593 7.5172471,2.0859375 7.0351562,2.0859375 Z"
     id="text1"
     aria-label="22"
     inkscape:path-effect="#path-effect1"
     inkscape:original-d="m 4.6772059,7.1523408 q 0,0.019734 -0.04736,0.1302406 -0.067094,0.1539207 -0.1539207,0.3473083 -0.031574,0.04736 -0.067094,0.04736 h -2.979747 q -0.067094,0 -0.067094,-0.1223472 0,-0.078934 0.138134,-0.1697075 1.0221913,-0.6788297 1.6260341,-1.4602733 0.4183486,-0.5485892 0.576216,-0.9669378 0.149974,-0.3907218 0.149974,-0.8919508 0,-0.5406958 -0.2683746,-0.8406438 -0.3078414,-0.351255 -0.9669377,-0.351255 -0.7814436,0 -1.1248052,0.4459754 -0.031574,0.039467 -0.07104,0.02368 -0.067094,-0.031573 -0.067094,-0.063147 0,-0.1223472 0.213121,-0.3394149 0.1894409,-0.1933876 0.3788818,-0.2999481 0.4617621,-0.2644278 1.0656048,-0.2644278 0.6235762,0 1.002458,0.3788817 0.363095,0.363095 0.363095,1.0103513 0,0.4341353 -0.1776008,0.8722173 -0.3394149,0.8327505 -0.864324,1.4050198 -0.5841093,0.6393629 -1.1800587,1.0853383 -0.039467,0.027627 -0.039467,0.051307 0,0.043414 0.09472,0.043414 h 0.9708845 q 0.8722173,0 1.3102993,-0.094721 0.1065605,-0.02368 0.1302406,-0.02368 0.055254,0 0.055255,0.04736 z m 4.0228629,0 q 0,0.019734 -0.04736,0.1302406 -0.067094,0.1539207 -0.1539207,0.3473083 -0.031574,0.04736 -0.067094,0.04736 h -2.979747 q -0.067094,0 -0.067094,-0.1223472 0,-0.078934 0.138134,-0.1697075 1.0221913,-0.6788297 1.6260341,-1.4602733 0.4183486,-0.5485892 0.576216,-0.9669378 0.149974,-0.3907218 0.149974,-0.8919508 0,-0.5406958 -0.2683746,-0.8406438 -0.3078414,-0.351255 -0.9669377,-0.351255 -0.7814436,0 -1.1248052,0.4459754 -0.031574,0.039467 -0.07104,0.02368 -0.067094,-0.031573 -0.067094,-0.063147 0,-0.1223472 0.2131209,-0.3394149 Q 5.7795221,2.7478406 5.968963,2.6412801 6.4307251,2.3768523 7.0345679,2.3768523 q 0.6235762,0 1.0024579,0.3788817 0.363095,0.363095 0.363095,1.0103513 0,0.4341353 -0.1776008,0.8722173 -0.3394149,0.8327505 -0.864324,1.4050198 -0.5841093,0.6393629 -1.1800587,1.0853383 -0.039467,0.027627 -0.039467,0.051307 0,0.043414 0.094721,0.043414 h 0.9708844 q 0.8722173,0 1.3102993,-0.094721 0.1065605,-0.02368 0.1302406,-0.02368 0.055254,0 0.055253,0.04736 z" /><path
     style="font-size:8.08281px;font-family:'Californian FB';-inkscape-font-specification:'Californian FB, Normal';text-align:center;letter-spacing:-0.00275551px;word-spacing:-0.0247999px;text-anchor:middle;fill:#741303;stroke-width:0.383254;stroke-linecap:round"
     d="m 4.6772059,7.1523408 q 0,0.019734 -0.04736,0.1302406 -0.067094,0.1539207 -0.1539207,0.3473083 -0.031574,0.04736 -0.067094,0.04736 h -2.979747 q -0.067094,0 -0.067094,-0.1223472 0,-0.078934 0.138134,-0.1697075 1.0221913,-0.6788297 1.6260341,-1.4602733 0.4183486,-0.5485892 0.576216,-0.9669378 0.149974,-0.3907218 0.149974,-0.8919508 0,-0.5406958 -0.2683746,-0.8406438 -0.3078414,-0.351255 -0.9669377,-0.351255 -0.7814436,0 -1.1248052,0.4459754 -0.031574,0.039467 -0.07104,0.02368 -0.067094,-0.031573 -0.067094,-0.063147 0,-0.1223472 0.213121,-0.3394149 0.1894409,-0.1933876 0.3788818,-0.2999481 0.4617621,-0.2644278 1.0656048,-0.2644278 0.6235762,0 1.002458,0.3788817 0.363095,0.363095 0.363095,1.0103513 0,0.4341353 -0.1776008,0.8722173 -0.3394149,0.8327505 -0.864324,1.4050198 -0.5841093,0.6393629 -1.1800587,1.0853383 -0.039467,0.027627 -0.039467,0.051307 0,0.043414 0.09472,0.043414 h 0.9708845 q 0.8722173,0 1.3102993,-0.094721 0.1065605,-0.02368 0.1302406,-0.02368 0.055254,0 0.055254,0.04736 z m 4.0228629,0 q 0,0.019734 -0.04736,0.1302406 -0.067094,0.1539207 -0.1539207,0.3473083 -0.031574,0.04736 -0.067094,0.04736 h -2.979747 q -0.067094,0 -0.067094,-0.1223472 0,-0.078934 0.138134,-0.1697075 1.0221913,-0.6788297 1.6260341,-1.4602733 0.4183486,-0.5485892 0.576216,-0.9669378 0.149974,-0.3907218 0.149974,-0.8919508 0,-0.5406958 -0.2683746,-0.8406438 -0.3078414,-0.351255 -0.9669377,-0.351255 -0.7814436,0 -1.1248052,0.4459754 -0.031574,0.039467 -0.07104,0.02368 -0.067094,-0.031573 -0.067094,-0.063147 0,-0.1223472 0.2131209,-0.3394149 Q 5.7795221,2.7478406 5.968963,2.6412801 6.4307251,2.3768523 7.0345679,2.3768523 q 0.6235762,0 1.0024579,0.3788817 0.363095,0.363095 0.363095,1.0103513 0,0.4341353 -0.1776008,0.8722173 -0.3394149,0.8327505 -0.864324,1.4050198 -0.5841093,0.6393629 -1.1800587,1.0853383 -0.039467,0.027627 -0.039467,0.051307 0,0.043414 0.094721,0.043414 h 0.9708844 q 0.8722173,0 1.3102993,-0.094721 0.1065605,-0.02368 0.1302406,-0.02368 0.055254,0 0.055254,0.04736 z"
     id="text73"
     aria-label="22" /></svg>
