<?xml version="1.0" encoding="UTF-8" standalone="no"?>
<!-- Created with Inkscape (http://www.inkscape.org/) -->

<svg
   width="38"
   height="38"
   viewBox="0 0 10.054166 10.054166"
   version="1.1"
   id="svg1"
   sodipodi:docname="door24.svg"
   inkscape:version="1.4.2 (f4327f4, 2025-05-13)"
   xml:space="preserve"
   xmlns:inkscape="http://www.inkscape.org/namespaces/inkscape"
   xmlns:sodipodi="http://sodipodi.sourceforge.net/DTD/sodipodi-0.dtd"
   xmlns="http://www.w3.org/2000/svg"
   xmlns:svg="http://www.w3.org/2000/svg"><sodipodi:namedview
     id="namedview1"
     pagecolor="#ffffff"
     bordercolor="#000000"
     borderopacity="0.25"
     inkscape:showpageshadow="2"
     inkscape:pageopacity="0.0"
     inkscape:pagecheckerboard="0"
     inkscape:deskcolor="#d1d1d1"
     inkscape:zoom="10.697368"
     inkscape:cx="-3.084871"
     inkscape:cy="14.162362"
     inkscape:window-width="1920"
     inkscape:window-height="1094"
     inkscape:window-x="-11"
     inkscape:window-y="-11"
     inkscape:window-maximized="1"
     inkscape:current-layer="svg1" /><defs
     id="defs1"><inkscape:path-effect
       effect="offset"
       id="path-effect1"
       is_visible="true"
       lpeversion="1.3"
       linejoin_type="round"
       unit="px"
       offset="1.1"
       miter_limit="4"
       attempt_force_join="false"
       update_on_knot_move="true" /></defs><rect
     style="display:inline;fill:#f0ece1;fill-opacity:1;stroke:#741303;stroke-width:0.579845;stroke-linecap:round;stroke-linejoin:miter;stroke-dasharray:none;stroke-opacity:1"
     id="rect34"
     width="9.4743214"
     height="9.4743214"
     x="0.28992227"
     y="0.28992227"
     inkscape:export-filename="door1.svg"
     inkscape:export-xdpi="96"
     inkscape:export-ydpi="96" /><path
     style="display:inline;fill:#2f492c;fill-opacity:1;stroke:#000000;stroke-width:0.238125;stroke-linecap:butt;stroke-linejoin:round;stroke-dasharray:none"
     d="m 4.3548047,3.4512531 c 0,0 -2.0603328,-1.1779671 -1.0343082,-1.9756704 1.0432317,-0.81108116 1.703312,1.4171566 1.703312,1.4171566 0,0 0.7120403,-2.38941051 1.7781071,-1.5556807 1.2726039,1.0133719 -1.0979138,2.0963331 -1.0979138,2.0963331 l 2.7400925,0.010457 -0.012799,1.7354101 -0.4563944,0.00877 -0.032844,3.393843 -5.7288588,0.00462 -0.01877,-3.4354003 -0.4504261,-0.018468 v -1.688775 z"
     id="path32"
     sodipodi:nodetypes="cscccccccccccc" /><path
     style="display:inline;fill:#2f492c;fill-opacity:1;stroke:#000000;stroke-width:0.238125;stroke-linecap:round;stroke-linejoin:round;stroke-dasharray:none"
     d="m 1.8509258,5.1155506 6.4496128,0.00326"
     id="path33"
     sodipodi:nodetypes="cc" /><path
     style="display:inline;fill:#2f492c;fill-opacity:1;stroke:#000000;stroke-width:0.238125;stroke-linecap:butt;stroke-linejoin:round;stroke-dasharray:none"
     d="M 4.2960721,3.4503763 5.857051,3.4340521"
     id="path34"
     sodipodi:nodetypes="cc" /><path
     style="display:inline;fill:#2f492c;fill-opacity:1;stroke:#000000;stroke-width:0.240168;stroke-linecap:round;stroke-linejoin:round;stroke-dasharray:none"
     d="M 5.0263654,2.8974079 5.0052892,8.4564578"
     id="path35"
     sodipodi:nodetypes="cc" /><path
     id="path5"
     style="fill:#f0ece1;fill-opacity:1;stroke-width:0.0111301;stroke-linejoin:round;stroke-dasharray:none"
     d="M 6.3577507,1.2872598 C 6.2104085,1.2849565 6.0648469,1.3565625 5.9133335,1.5012002 5.6636148,1.7395871 5.42411,2.1576734 5.2172521,2.7176632 l -0.060461,0.1638144 v 0.2165241 0.2165244 h 0.2537312 0.2542481 l 0.0894,-0.044959 C 6.0956727,3.098074 6.4585482,2.8495308 6.6822788,2.6344642 7.1219043,2.2118632 7.16452,1.8472276 6.8125032,1.5151528 6.6540432,1.3656696 6.5050931,1.2895631 6.3577507,1.2872598 Z M 3.7718624,1.4242023 C 3.6699208,1.4247156 3.5674143,1.4610493 3.4602536,1.5327228 3.3415494,1.6121169 3.2486288,1.7115069 3.2029051,1.8081582 3.1721425,1.8731815 3.165706,1.9010866 3.165698,1.9802407 3.1656853,2.1025453 3.197906,2.2050206 3.2768021,2.3362913 3.3521316,2.4616282 3.3994868,2.5218209 3.5362179,2.663403 3.7219696,2.8557445 3.9079119,3.00619 4.2043942,3.2054887 L 4.384228,3.3264115 h 0.236678 c 0.1303766,3.17e-5 0.2460741,-0.00311 0.256832,-0.00723 0.01673,-0.00642 0.019637,-0.036928 0.019637,-0.2092897 0,-0.1978995 -9.26e-4,-0.2034447 -0.042891,-0.3240111 C 4.7089913,2.3678878 4.4814214,1.9403534 4.2896601,1.7249591 4.109295,1.5223655 3.9417648,1.4233471 3.7718624,1.4242023 Z" /><path
     style="font-size:8.08281px;font-family:'Californian FB';-inkscape-font-specification:'Californian FB, Normal';text-align:center;letter-spacing:-0.00275551px;word-spacing:-0.0247999px;text-anchor:middle;display:inline;fill:#f0ece1;fill-opacity:1;stroke-width:0.383254;stroke-linecap:round"
     d="m 8.0273438,1.9140625 c -0.1443252,0 -0.2634586,0.072444 -0.3496094,0.1503906 a 0.29104165,0.29104165 0 0 0 -0.03125,0.033203 C 7.1112348,2.762104 6.6315021,3.3697757 6.2050781,3.9199219 5.7541805,4.4953681 5.4171898,4.9186155 5.1992187,5.1855469 5.0539047,5.3635012 4.9522984,5.4812953 4.9335937,5.5 a 0.29104165,0.29104165 0 0 0 -0.03125,0.035156 c -0.064313,0.090038 -0.09375,0.1866746 -0.09375,0.2929688 0,0.2597338 0.2065415,0.3945312 0.4277344,0.3945312 h 1.859375 c -0.011333,0.2372124 -0.029046,0.5979806 -0.03125,0.6445313 -0.011846,0.2777175 -0.035156,0.8115813 -0.035156,0.875 0,0.2124036 0.1423271,0.3984375 0.3828125,0.3984375 0.1114058,0 0.3409166,-0.1114464 0.3847656,-0.1308594 0.050027,-0.02183 0.2019019,-0.087453 0.2675781,-0.125 l 0.00391,-0.00195 c 0.00485,-0.00283 0.00999,-0.00535 0.013672,-0.00781 0.1546167,-0.099851 0.1855468,-0.276412 0.1855468,-0.3964844 0,-0.049204 -0.00773,-0.4181343 -0.015625,-0.7675781 -0.0028,-0.1246951 -0.00786,-0.3302696 -0.011719,-0.4902344 0.092247,0.0042 0.1800233,0.010087 0.2636719,0.019531 a 0.29104165,0.29104165 0 0 0 0.033203,0.00195 c 0.1494202,0 0.2541436,-0.08549 0.3125,-0.1816406 0.088685,-0.1120274 0.157875,-0.2308149 0.203125,-0.3613282 0.032915,-0.06463 0.0625,-0.1440062 0.0625,-0.234375 -3e-7,-0.053972 -0.014469,-0.1172823 -0.044922,-0.1699218 A 0.29104165,0.29104165 0 0 0 9.0488281,5.265625 C 8.9710512,5.1637757 8.8589916,5.1308594 8.7695313,5.1308594 c -0.045604,0 -0.3393903,0.031455 -0.3945313,0.037109 -8.4e-5,7.8e-6 -0.050031,0.00443 -0.1132812,0.00977 0.01743,-0.4341255 0.052727,-1.3122981 0.052734,-1.3125 0.011185,-0.2539523 0.066406,-1.4899946 0.066406,-1.5605469 0,-0.1644595 -0.094961,-0.390625 -0.3535156,-0.390625 z m -5.140625,0.2050781 c -0.4491035,0 -0.8516524,0.099217 -1.2070313,0.3027344 C 1.5254093,2.5086565 1.3779529,2.6269088 1.2363281,2.7714844 1.1000259,2.9103106 0.93945312,3.1035083 0.93945313,3.3144531 c 0,0.1984358 0.16473857,0.2934015 0.23437497,0.3261719 a 0.29104165,0.29104165 0 0 0 0.015625,0.00586 C 1.3524197,3.7116718 1.5056983,3.6462802 1.5976562,3.53125 1.7612797,3.3187276 2.0263447,3.1992187 2.4921875,3.1992188 c 0.3875597,0 0.6105226,0.094782 0.75,0.2539062 C 3.3638309,3.5890793 3.4375,3.787921 3.4375,4.0996094 c 0,0.304883 -0.04517,0.5658054 -0.1308594,0.7890625 C 3.2165434,5.1274295 3.0383385,5.4313089 2.7714844,5.78125 2.3928481,6.2712499 1.8745693,6.7357051 1.2148437,7.1738281 1.0968566,7.2513623 0.94726562,7.3842862 0.94726563,7.5878906 c 0,0.1629675 0.0823973,0.4140625 0.35742187,0.4140625 h 2.9804687 c 0.158371,0 0.2574545,-0.099071 0.3085938,-0.1757812 a 0.29104165,0.29104165 0 0 0 0.023437,-0.042969 c 0.058002,-0.1291876 0.1102182,-0.2459468 0.15625,-0.3515625 0.018756,-0.043765 0.052974,-0.1252828 0.064453,-0.1855469 a 0.29104165,0.29104165 0 0 0 0.00391,-0.021484 c 0.00233,-0.019963 0.00213,-0.035174 0.00195,-0.039063 v -0.00195 C 4.8434706,7.1304722 4.830764,7.0581774 4.7832031,6.9902344 A 0.29104165,0.29104165 0 0 0 4.7597656,6.9609375 C 4.6827939,6.8761127 4.5840873,6.8476562 4.4980469,6.8476562 c -0.05491,10e-8 -0.1548042,0.021158 -0.1914063,0.029297 -0.2536348,0.05484 -0.6793852,0.089844 -1.25,0.089844 H 2.7265625 C 2.96173,6.7564873 3.1955296,6.5254702 3.4257813,6.2734375 3.8022067,5.8630488 4.1078563,5.3648069 4.3457031,4.78125 4.4772354,4.4568039 4.5449219,4.1293146 4.5449219,3.7988281 4.5449219,3.3052238 4.4034246,2.8917059 4.0957031,2.5839844 3.7814424,2.2697236 3.3688096,2.1191406 2.8867188,2.1191406 Z m 4.3046874,1.8476563 c -0.0037,0.1472673 -0.00637,0.2735707 -0.00781,0.328125 -0.00538,0.2374157 -0.014363,0.6405015 -0.019531,0.8867187 H 6.2285156 L 6.96875,4.2460937 c 0.0804,-0.1013264 0.1543574,-0.1947301 0.2226562,-0.2792968 z"
     id="text1"
     aria-label="24"
     inkscape:path-effect="#path-effect1"
     inkscape:original-d="m 4.5528946,7.1858949 q 0,0.019733 -0.04736,0.1302406 -0.067094,0.1539207 -0.1539207,0.3473083 -0.031573,0.04736 -0.067094,0.04736 H 1.304773 q -0.067094,0 -0.067094,-0.1223472 0,-0.078934 0.138134,-0.1697075 1.0221913,-0.6788298 1.6260341,-1.4602734 0.4183486,-0.5485891 0.576216,-0.9669377 0.149974,-0.3907218 0.149974,-0.8919508 0,-0.5406958 -0.2683746,-0.8406438 -0.3078414,-0.351255 -0.9669377,-0.351255 -0.7814436,0 -1.1248052,0.4459754 -0.031573,0.039467 -0.07104,0.02368 -0.067094,-0.031574 -0.067094,-0.063147 0,-0.1223473 0.213121,-0.3394149 0.1894409,-0.1933876 0.3788817,-0.2999481 0.4617622,-0.2644279 1.0656049,-0.2644279 0.6235762,0 1.002458,0.3788818 0.363095,0.363095 0.363095,1.0103513 0,0.4341353 -0.1776009,0.8722173 Q 3.7359309,5.5046072 3.2110218,6.0768765 2.6269124,6.7162394 2.030963,7.1622148 q -0.039467,0.027627 -0.039467,0.051307 0,0.043413 0.09472,0.043413 h 0.9708845 q 0.8722173,0 1.3102993,-0.09472 0.1065605,-0.02368 0.1302406,-0.02368 0.055254,0 0.055254,0.04736 z M 8.8243987,5.4651404 q 0,0.04736 -0.039467,0.1184005 -0.051307,0.1618141 -0.1776008,0.3157348 -0.02368,0.051307 -0.07104,0.051307 -0.2446945,-0.027627 -0.5249091,-0.027627 -0.067094,0 -0.067094,0.067094 0,0.02368 0.015787,0.72619 0.015787,0.6985632 0.015787,0.7617102 0,0.1223472 -0.055254,0.1539207 -0.02368,0.015787 -0.2407477,0.1105072 -0.2407478,0.1065605 -0.2683746,0.1065605 -0.090774,0 -0.090774,-0.1065605 0,-0.031573 0.03552,-0.864324 0.039467,-0.8327505 0.039467,-0.864324 0,-0.08288 -0.074987,-0.08288 H 5.2368622 q -0.138134,0 -0.138134,-0.1026138 0,-0.067094 0.039467,-0.1223473 Q 5.3039559,5.540128 6.4327078,4.099588 7.0720707,3.2747309 7.8732477,2.2801663 q 0.08288,-0.074987 0.1539207,-0.074987 0.063147,0 0.063147,0.098667 0,0.02368 -0.067094,1.5471004 -0.063147,1.5194736 -0.063147,1.5628872 0,0.086827 0.0592,0.074987 0.039467,0 0.3828284,-0.031574 0.3473082,-0.03552 0.3670417,-0.03552 0.055254,0 0.055254,0.043413 z M 7.5022593,3.2392101 q 0,-0.1144538 -0.1065605,0.019733 -0.078934,0.078934 -0.6551497,0.8051237 L 5.6986243,5.38226 q -0.043413,0.051307 -0.039467,0.07104 0.00395,0.019733 0.055254,0.019733 h 1.6497142 q 0.0592,0 0.07104,-0.019733 0.015787,-0.019733 0.015787,-0.063147 0,-0.043413 0.02368,-1.089285 0.027627,-1.0458714 0.027627,-1.0616579 z" /><path
     style="font-size:8.08281px;font-family:'Californian FB';-inkscape-font-specification:'Californian FB, Normal';text-align:center;letter-spacing:-0.00275551px;word-spacing:-0.0247999px;text-anchor:middle;fill:#741303;stroke-width:0.383254;stroke-linecap:round"
     d="m 4.5528946,7.1858949 q 0,0.019733 -0.04736,0.1302406 -0.067094,0.1539207 -0.1539207,0.3473083 -0.031573,0.04736 -0.067094,0.04736 H 1.304773 q -0.067094,0 -0.067094,-0.1223472 0,-0.078934 0.138134,-0.1697075 1.0221913,-0.6788298 1.6260341,-1.4602734 0.4183486,-0.5485891 0.576216,-0.9669377 0.149974,-0.3907218 0.149974,-0.8919508 0,-0.5406958 -0.2683746,-0.8406438 -0.3078414,-0.351255 -0.9669377,-0.351255 -0.7814436,0 -1.1248052,0.4459754 -0.031573,0.039467 -0.07104,0.02368 -0.067094,-0.031574 -0.067094,-0.063147 0,-0.1223473 0.213121,-0.3394149 0.1894409,-0.1933876 0.3788817,-0.2999481 0.4617622,-0.2644279 1.0656049,-0.2644279 0.6235762,0 1.002458,0.3788818 0.363095,0.363095 0.363095,1.0103513 0,0.4341353 -0.1776009,0.8722173 Q 3.7359309,5.5046072 3.2110218,6.0768765 2.6269124,6.7162394 2.030963,7.1622148 q -0.039467,0.027627 -0.039467,0.051307 0,0.043413 0.09472,0.043413 h 0.9708845 q 0.8722173,0 1.3102993,-0.09472 0.1065605,-0.02368 0.1302406,-0.02368 0.055254,0 0.055254,0.04736 z M 8.8243987,5.4651404 q 0,0.04736 -0.039467,0.1184005 -0.051307,0.1618141 -0.1776008,0.3157348 -0.02368,0.051307 -0.07104,0.051307 -0.2446945,-0.027627 -0.5249091,-0.027627 -0.067094,0 -0.067094,0.067094 0,0.02368 0.015787,0.72619 0.015787,0.6985632 0.015787,0.7617102 0,0.1223472 -0.055254,0.1539207 -0.02368,0.015787 -0.2407477,0.1105072 -0.2407478,0.1065605 -0.2683746,0.1065605 -0.090774,0 -0.090774,-0.1065605 0,-0.031573 0.03552,-0.864324 0.039467,-0.8327505 0.039467,-0.864324 0,-0.08288 -0.074987,-0.08288 H 5.2368622 q -0.138134,0 -0.138134,-0.1026138 0,-0.067094 0.039467,-0.1223473 0.1657607,-0.1657607 1.2945126,-1.6063007 0.6393629,-0.8248571 1.4405399,-1.8194217 0.08288,-0.074987 0.1539207,-0.074987 0.063147,0 0.063147,0.098667 0,0.02368 -0.067094,1.5471004 -0.063147,1.5194736 -0.063147,1.5628872 0,0.086827 0.0592,0.074987 0.039467,0 0.3828284,-0.031574 0.3473082,-0.03552 0.3670417,-0.03552 0.055254,0 0.055254,0.043414 z M 7.5022593,3.2392101 q 0,-0.1144538 -0.1065605,0.019733 -0.078934,0.078934 -0.6551497,0.8051237 L 5.6986243,5.38226 q -0.043413,0.051307 -0.039467,0.07104 0.00395,0.019733 0.055254,0.019733 h 1.6497142 q 0.0592,0 0.07104,-0.019733 0.015787,-0.019733 0.015787,-0.063147 0,-0.043413 0.02368,-1.089285 0.027627,-1.0458714 0.027627,-1.0616582 z"
     id="text75"
     aria-label="24" /></svg>
