<?xml version="1.0" encoding="UTF-8" standalone="no"?>
<!-- Created with Inkscape (http://www.inkscape.org/) -->

<svg
   width="38"
   height="38"
   viewBox="0 0 10.054166 10.054166"
   version="1.1"
   id="svg1"
   sodipodi:docname="door15.svg"
   inkscape:version="1.4.2 (f4327f4, 2025-05-13)"
   xmlns:inkscape="http://www.inkscape.org/namespaces/inkscape"
   xmlns:sodipodi="http://sodipodi.sourceforge.net/DTD/sodipodi-0.dtd"
   xmlns="http://www.w3.org/2000/svg"
   xmlns:svg="http://www.w3.org/2000/svg">
  <sodipodi:namedview
     id="namedview1"
     pagecolor="#ffffff"
     bordercolor="#000000"
     borderopacity="0.25"
     inkscape:showpageshadow="2"
     inkscape:pageopacity="0.0"
     inkscape:pagecheckerboard="0"
     inkscape:deskcolor="#d1d1d1"
     inkscape:zoom="1"
     inkscape:cx="-15"
     inkscape:cy="-49"
     inkscape:window-width="1043"
     inkscape:window-height="1081"
     inkscape:window-x="855"
     inkscape:window-y="0"
     inkscape:window-maximized="0"
     inkscape:current-layer="svg1" />
  <defs
     id="defs1" />
  <g
     id="g35"
     inkscape:label="15"
     transform="matrix(0.22949234,0,0,0.22949234,-24.658291,-34.016497)">
    <rect
       style="display:inline;fill:#741303;fill-opacity:1;stroke:#741303;stroke-width:2.52664;stroke-linecap:round;stroke-linejoin:miter;stroke-dasharray:none;stroke-opacity:1"
       id="rect39"
       width="41.283825"
       height="41.283825"
       x="108.71044"
       y="149.4883"
       inkscape:export-filename="door1.svg"
       inkscape:export-xdpi="96"
       inkscape:export-ydpi="96" />
    <path
       style="font-size:35.2204px;font-family:'Californian FB';-inkscape-font-specification:'Californian FB, Normal';text-align:center;letter-spacing:-0.012007px;word-spacing:-0.108064px;text-anchor:middle;fill:#f0ece1;stroke-width:1.67001;stroke-linecap:round"
       d="m 126.04139,181.50726 q 0,0.17197 -0.13758,0.17197 h -9.40702 q -0.17197,0 -0.17197,-0.20637 v -0.56752 q 0,-0.20637 0.17197,-0.20637 h 3.12994 q 0.36115,0 0.36115,-0.92866 0,-0.18917 0.0344,-7.79045 0.0344,-7.61847 0.0344,-7.84204 0,-2.45924 -0.10319,-3.16433 -0.17197,-1.16943 -1.87452,-1.16943 h -1.30701 q -0.20637,0 -0.20637,-0.20637 v -0.53312 q 0,-0.20637 0.20637,-0.20637 h 1.84013 q 2.14968,0 3.02676,-0.17198 0.87707,-0.18917 0.84267,-0.18917 0.25796,0 0.25796,0.36115 0,-0.0344 -0.15477,8.34077 -0.13758,8.35796 -0.13758,9.02866 0,4.47134 0.73949,4.47134 h 2.6828 q 0.17198,0 0.17198,0.17198 z m 16.25679,-22.58027 q 0,0.34395 -0.39554,1.11783 -0.37835,0.77389 -0.80828,1.16943 -0.29236,0.27516 -0.56752,0.27516 -0.61911,0.0516 -1.11784,0.0516 -2.42484,0 -4.91847,-0.58471 -1.68535,-0.39554 -2.27006,-0.6879 -0.24077,-0.086 -0.34395,0.10318 -0.27516,0.49873 -1.06625,4.60892 -0.0516,0.27516 -0.0172,0.34395 0.0344,0.10319 0.24076,0.0688 1.82293,-0.24076 2.92357,-0.24076 2.0121,0 3.61147,0.79108 1.42739,0.6707 2.33885,1.58217 2.21847,2.21847 2.21847,5.91593 0,3.26751 -2.28726,5.70955 -0.94586,0.98026 -2.51083,1.82293 -1.77134,0.94586 -4.57452,0.94586 -2.83758,0 -4.50574,-1.15223 -0.39554,-0.27516 -0.39554,-0.46433 0,-0.53312 0.29236,-0.53312 0,0 0.48153,0.25796 1.11783,0.73949 3.80063,0.73949 3.28472,0 5.29682,-2.0121 0.6707,-0.6879 1.25542,-2.0465 0.56751,-1.307 0.56751,-2.95796 0,-2.95796 -2.39044,-4.97007 -0.89427,-0.73949 -2.01211,-1.15223 -1.51337,-0.56751 -3.19872,-0.56751 -0.17198,0 -0.92867,0.0344 -0.75669,0.0344 -0.87707,0.0344 -0.48153,0 -0.48153,-0.44714 0,-0.53312 1.61656,-7.82484 0.10319,-0.44714 0.67071,-0.39554 5.4172,0.49872 8.54713,0.49872 0.77389,0 1.13504,-0.10318 0.58471,-0.17198 0.46433,-0.17198 0.20637,0 0.20637,0.24077 z"
       id="text66"
       aria-label="15" />
  </g>
</svg>
