<?xml version="1.0" encoding="UTF-8" standalone="no"?>
<!-- Created with Inkscape (http://www.inkscape.org/) -->

<svg
   width="27.999998"
   height="27.999987"
   viewBox="0 0 27.999999 27.999989"
   version="1.1"
   id="svg1"
   xml:space="preserve"
   inkscape:version="1.4.2 (f4327f4, 2025-05-13)"
   sodipodi:docname="Gave 1.svg"
   inkscape:export-filename="Gave 8.svg"
   inkscape:export-xdpi="96"
   inkscape:export-ydpi="96"
   xmlns:inkscape="http://www.inkscape.org/namespaces/inkscape"
   xmlns:sodipodi="http://sodipodi.sourceforge.net/DTD/sodipodi-0.dtd"
   xmlns="http://www.w3.org/2000/svg"
   xmlns:svg="http://www.w3.org/2000/svg"><sodipodi:namedview
     id="namedview1"
     pagecolor="#ffffff"
     bordercolor="#000000"
     borderopacity="0.25"
     inkscape:showpageshadow="2"
     inkscape:pageopacity="0.0"
     inkscape:pagecheckerboard="0"
     inkscape:deskcolor="#d1d1d1"
     inkscape:document-units="mm"
     inkscape:zoom="22.627417"
     inkscape:cx="16.086679"
     inkscape:cy="17.478796"
     inkscape:window-width="1920"
     inkscape:window-height="1094"
     inkscape:window-x="-11"
     inkscape:window-y="-11"
     inkscape:window-maximized="1"
     inkscape:current-layer="svg1"><inkscape:page
       x="0"
       y="0"
       width="27.999998"
       height="27.999989"
       id="page2"
       margin="0"
       bleed="0" /></sodipodi:namedview><defs
     id="defs1" /><g
     id="g38"
     transform="matrix(4.2799646,0,0,4.2941399,-109.88209,-77.484355)"
     style="display:none;opacity:1"
     inkscape:label="Gave 8"><path
       id="path36"
       style="display:inline;opacity:1;fill:none;stroke:#000000;stroke-width:0.432715;stroke-linejoin:round;stroke-dasharray:none"
       d="m 24.034921,14.448772 c -1.037733,-0.004 -1.741908,2.735132 -1.827086,3.006049 -0.006,0.01896 -0.891625,-3.686025 -2.316997,-2.577841 -1.164381,0.905271 0.58117,2.169888 1.205743,2.572063 l 1.129679,0.0056 1.112776,0.0056 c 0.667964,-0.346674 2.788458,-1.594769 1.309977,-2.772081 -0.215261,-0.168347 -0.421587,-0.238723 -0.61414,-0.239458 z"
       sodipodi:nodetypes="ccscccccc"
       transform="matrix(0.69329698,0,0,0.69329698,13.576541,8.1769653)"
       inkscape:label="Sløjfe" /><rect
       style="display:inline;fill:#f0e6c9;fill-opacity:1;stroke:none;stroke-width:0.536842;stroke-linejoin:round;stroke-dasharray:none;stroke-opacity:1"
       id="rect36"
       width="6.5239849"
       height="4.419055"
       x="25.691723"
       y="20.11035"
       ry="0.55639142"
       rx="0.34336764"
       inkscape:label="Pakke" /><path
       style="display:inline;fill:none;fill-opacity:1;stroke:#000000;stroke-width:0.228154;stroke-linejoin:round;stroke-dasharray:none;stroke-opacity:1"
       d="m 28.964471,20.032299 -0.01015,4.532165"
       id="path37"
       inkscape:label="Bånd" /><path
       style="display:inline;fill:none;fill-opacity:1;stroke:#000000;stroke-width:0.27264;stroke-linejoin:round;stroke-dasharray:none;stroke-opacity:1"
       d="m 32.200703,22.303413 -6.526895,-0.01006"
       id="path38"
       inkscape:highlight-color="#aa3c3c"
       inkscape:label="Bånd" /></g><g
     id="g41"
     transform="matrix(4.2799646,0,0,4.2941399,-109.88209,-77.484355)"
     style="display:inline;opacity:1"
     inkscape:label="Gave 7"><path
       id="path39"
       style="display:inline;opacity:1;fill:none;stroke:#70161f;stroke-width:0.432715;stroke-linejoin:round;stroke-dasharray:none"
       d="m 24.034921,14.448772 c -1.037733,-0.004 -1.741908,2.735132 -1.827086,3.006049 -0.006,0.01896 -0.891625,-3.686025 -2.316997,-2.577841 -1.164381,0.905271 0.58117,2.169888 1.205743,2.572063 l 1.129679,0.0056 1.112776,0.0056 c 0.667964,-0.346674 2.788458,-1.594769 1.309977,-2.772081 -0.215261,-0.168347 -0.421587,-0.238723 -0.61414,-0.239458 z"
       sodipodi:nodetypes="ccscccccc"
       transform="matrix(0.69329698,0,0,0.69329698,13.576541,8.1769653)"
       inkscape:label="Sløjfe" /><rect
       style="display:inline;fill:#f0e6c9;fill-opacity:1;stroke:none;stroke-width:0.536842;stroke-linejoin:round;stroke-dasharray:none;stroke-opacity:1"
       id="rect39"
       width="6.5239849"
       height="4.419055"
       x="25.691723"
       y="20.11035"
       ry="0.55639142"
       rx="0.34336764"
       inkscape:label="Pakke" /><path
       style="display:inline;fill:none;fill-opacity:1;stroke:#70161f;stroke-width:0.228154;stroke-linejoin:round;stroke-dasharray:none;stroke-opacity:1"
       d="m 28.964471,20.032299 -0.01015,4.532165"
       id="path40"
       inkscape:label="Bånd" /><path
       style="display:inline;fill:none;fill-opacity:1;stroke:#70161f;stroke-width:0.27264;stroke-linejoin:round;stroke-dasharray:none;stroke-opacity:1"
       d="m 32.200703,22.303413 -6.526895,-0.01006"
       id="path41"
       inkscape:highlight-color="#aa3c3c"
       inkscape:label="Bånd" /></g><g
     id="g44"
     transform="matrix(4.2799646,0,0,4.2941399,-109.88209,-77.484355)"
     style="display:none;opacity:1"
     inkscape:label="Gave 6"><path
       id="path42"
       style="display:inline;opacity:1;fill:none;stroke:#70161f;stroke-width:0.432715;stroke-linejoin:round;stroke-dasharray:none"
       d="m 24.034921,14.448772 c -1.037733,-0.004 -1.741908,2.735132 -1.827086,3.006049 -0.006,0.01896 -0.891625,-3.686025 -2.316997,-2.577841 -1.164381,0.905271 0.58117,2.169888 1.205743,2.572063 l 1.129679,0.0056 1.112776,0.0056 c 0.667964,-0.346674 2.788458,-1.594769 1.309977,-2.772081 -0.215261,-0.168347 -0.421587,-0.238723 -0.61414,-0.239458 z"
       sodipodi:nodetypes="ccscccccc"
       transform="matrix(0.69329698,0,0,0.69329698,13.576541,8.1769653)"
       inkscape:label="Sløjfe" /><rect
       style="display:inline;fill:#2f492c;fill-opacity:1;stroke:none;stroke-width:0.536842;stroke-linejoin:round;stroke-dasharray:none;stroke-opacity:1"
       id="rect42"
       width="6.5239849"
       height="4.419055"
       x="25.691723"
       y="20.11035"
       ry="0.55639142"
       rx="0.34336764"
       inkscape:label="Pakke" /><path
       style="display:inline;fill:none;fill-opacity:1;stroke:#70161f;stroke-width:0.228154;stroke-linejoin:round;stroke-dasharray:none;stroke-opacity:1"
       d="m 28.964471,20.032299 -0.01015,4.532165"
       id="path43"
       inkscape:label="Bånd" /><path
       style="display:inline;fill:none;fill-opacity:1;stroke:#70161f;stroke-width:0.27264;stroke-linejoin:round;stroke-dasharray:none;stroke-opacity:1"
       d="m 32.200703,22.303413 -6.526895,-0.01006"
       id="path44"
       inkscape:highlight-color="#aa3c3c"
       inkscape:label="Bånd" /></g><g
     id="g6"
     transform="matrix(4.2799646,0,0,4.2941399,-109.88209,-77.484355)"
     style="display:none;opacity:1"
     inkscape:label="Gave 5"><path
       id="path4"
       style="display:inline;opacity:1;fill:none;stroke:#dfba62;stroke-width:0.432715;stroke-linejoin:round;stroke-dasharray:none"
       d="m 24.034921,14.448772 c -1.037733,-0.004 -1.741908,2.735132 -1.827086,3.006049 -0.006,0.01896 -0.891625,-3.686025 -2.316997,-2.577841 -1.164381,0.905271 0.58117,2.169888 1.205743,2.572063 l 1.129679,0.0056 1.112776,0.0056 c 0.667964,-0.346674 2.788458,-1.594769 1.309977,-2.772081 -0.215261,-0.168347 -0.421587,-0.238723 -0.61414,-0.239458 z"
       sodipodi:nodetypes="ccscccccc"
       transform="matrix(0.69329698,0,0,0.69329698,13.576541,8.1769653)"
       inkscape:label="Sløjfe" /><rect
       style="display:inline;fill:#2f492c;fill-opacity:1;stroke:none;stroke-width:0.536842;stroke-linejoin:round;stroke-dasharray:none;stroke-opacity:1"
       id="rect4"
       width="6.5239849"
       height="4.419055"
       x="25.691723"
       y="20.11035"
       ry="0.55639142"
       rx="0.34336764"
       inkscape:label="Pakke" /><path
       style="display:inline;fill:none;fill-opacity:1;stroke:#dfba62;stroke-width:0.228154;stroke-linejoin:round;stroke-dasharray:none;stroke-opacity:1"
       d="m 28.964471,20.032299 -0.01015,4.532165"
       id="path5"
       inkscape:label="Bånd" /><path
       style="display:inline;fill:none;fill-opacity:1;stroke:#dfba62;stroke-width:0.27264;stroke-linejoin:round;stroke-dasharray:none;stroke-opacity:1"
       d="m 32.200703,22.303413 -6.526895,-0.01006"
       id="path6"
       inkscape:highlight-color="#aa3c3c"
       inkscape:label="Bånd" /></g><g
     id="g50"
     transform="matrix(4.2799646,0,0,4.2941399,-109.88209,-77.484355)"
     style="display:none;opacity:1"
     inkscape:label="Gave 4"><path
       id="path48"
       style="display:inline;opacity:1;fill:none;stroke:#dfba62;stroke-width:0.432715;stroke-linejoin:round;stroke-dasharray:none"
       d="m 24.034921,14.448772 c -1.037733,-0.004 -1.741908,2.735132 -1.827086,3.006049 -0.006,0.01896 -0.891625,-3.686025 -2.316997,-2.577841 -1.164381,0.905271 0.58117,2.169888 1.205743,2.572063 l 1.129679,0.0056 1.112776,0.0056 c 0.667964,-0.346674 2.788458,-1.594769 1.309977,-2.772081 -0.215261,-0.168347 -0.421587,-0.238723 -0.61414,-0.239458 z"
       sodipodi:nodetypes="ccscccccc"
       transform="matrix(0.69329698,0,0,0.69329698,13.576541,8.1769653)"
       inkscape:label="Sløjfe" /><rect
       style="display:inline;fill:#5a647d;fill-opacity:1;stroke:none;stroke-width:0.536842;stroke-linejoin:round;stroke-dasharray:none;stroke-opacity:1"
       id="rect48"
       width="6.5239849"
       height="4.419055"
       x="25.691723"
       y="20.11035"
       ry="0.55639142"
       rx="0.34336764"
       inkscape:label="Pakke" /><path
       style="display:inline;fill:none;fill-opacity:1;stroke:#dfba62;stroke-width:0.228154;stroke-linejoin:round;stroke-dasharray:none;stroke-opacity:1"
       d="m 28.964471,20.032299 -0.01015,4.532165"
       id="path49"
       inkscape:label="Bånd" /><path
       style="display:inline;fill:none;fill-opacity:1;stroke:#dfba62;stroke-width:0.27264;stroke-linejoin:round;stroke-dasharray:none;stroke-opacity:1"
       d="m 32.200703,22.303413 -6.526895,-0.01006"
       id="path50"
       inkscape:highlight-color="#aa3c3c"
       inkscape:label="Bånd" /></g><g
     id="g56"
     transform="matrix(4.2799646,0,0,4.2941399,-109.88209,-77.484355)"
     style="display:none;opacity:1"
     inkscape:label="Gave 3"><path
       id="path54"
       style="display:inline;opacity:1;fill:none;stroke:#4866b1;stroke-width:0.432715;stroke-linejoin:round;stroke-dasharray:none"
       d="m 24.034921,14.448772 c -1.037733,-0.004 -1.741908,2.735132 -1.827086,3.006049 -0.006,0.01896 -0.891625,-3.686025 -2.316997,-2.577841 -1.164381,0.905271 0.58117,2.169888 1.205743,2.572063 l 1.129679,0.0056 1.112776,0.0056 c 0.667964,-0.346674 2.788458,-1.594769 1.309977,-2.772081 -0.215261,-0.168347 -0.421587,-0.238723 -0.61414,-0.239458 z"
       sodipodi:nodetypes="ccscccccc"
       transform="matrix(0.69329698,0,0,0.69329698,13.576541,8.1769653)"
       inkscape:label="Sløjfe" /><rect
       style="display:inline;fill:#948566;fill-opacity:1;stroke:none;stroke-width:0.536842;stroke-linejoin:round;stroke-dasharray:none;stroke-opacity:1"
       id="rect54"
       width="6.5239849"
       height="4.419055"
       x="25.691723"
       y="20.11035"
       ry="0.55639142"
       rx="0.34336764"
       inkscape:label="Pakke" /><path
       style="display:inline;fill:none;fill-opacity:1;stroke:#4866b1;stroke-width:0.228154;stroke-linejoin:round;stroke-dasharray:none;stroke-opacity:1"
       d="m 28.964471,20.032299 -0.01015,4.532165"
       id="path55"
       inkscape:label="Bånd" /><path
       style="display:inline;fill:none;fill-opacity:1;stroke:#4866b1;stroke-width:0.27264;stroke-linejoin:round;stroke-dasharray:none;stroke-opacity:1"
       d="m 32.200703,22.303413 -6.526895,-0.01006"
       id="path56"
       inkscape:highlight-color="#aa3c3c"
       inkscape:label="Bånd" /></g><g
     id="g53"
     transform="matrix(4.2799646,0,0,4.2941399,-109.88209,-77.484355)"
     style="display:none;opacity:1"
     inkscape:label="Gave 2"><path
       id="path51"
       style="display:inline;opacity:1;fill:none;stroke:#4866b1;stroke-width:0.432715;stroke-linejoin:round;stroke-dasharray:none"
       d="m 24.034921,14.448772 c -1.037733,-0.004 -1.741908,2.735132 -1.827086,3.006049 -0.006,0.01896 -0.891625,-3.686025 -2.316997,-2.577841 -1.164381,0.905271 0.58117,2.169888 1.205743,2.572063 l 1.129679,0.0056 1.112776,0.0056 c 0.667964,-0.346674 2.788458,-1.594769 1.309977,-2.772081 -0.215261,-0.168347 -0.421587,-0.238723 -0.61414,-0.239458 z"
       sodipodi:nodetypes="ccscccccc"
       transform="matrix(0.69329698,0,0,0.69329698,13.576541,8.1769653)"
       inkscape:label="Sløjfe" /><rect
       style="display:inline;fill:#5a647d;fill-opacity:1;stroke:none;stroke-width:0.536842;stroke-linejoin:round;stroke-dasharray:none;stroke-opacity:1"
       id="rect51"
       width="6.5239849"
       height="4.419055"
       x="25.691723"
       y="20.11035"
       ry="0.55639142"
       rx="0.34336764"
       inkscape:label="Pakke" /><path
       style="display:inline;fill:none;fill-opacity:1;stroke:#4866b1;stroke-width:0.228154;stroke-linejoin:round;stroke-dasharray:none;stroke-opacity:1"
       d="m 28.964471,20.032299 -0.01015,4.532165"
       id="path52"
       inkscape:label="Bånd" /><path
       style="display:inline;fill:none;fill-opacity:1;stroke:#4866b1;stroke-width:0.27264;stroke-linejoin:round;stroke-dasharray:none;stroke-opacity:1"
       d="m 32.200703,22.303413 -6.526895,-0.01006"
       id="path53"
       inkscape:highlight-color="#aa3c3c"
       inkscape:label="Bånd" /></g><g
     id="g47"
     transform="matrix(4.2799646,0,0,4.2941399,-109.88209,-77.484355)"
     style="display:none;opacity:1"
     inkscape:label="Gave 1"><path
       id="path45"
       style="display:inline;opacity:1;fill:none;stroke:#d4c9b5;stroke-width:0.432715;stroke-linejoin:round;stroke-dasharray:none"
       d="m 24.034921,14.448772 c -1.037733,-0.004 -1.741908,2.735132 -1.827086,3.006049 -0.006,0.01896 -0.891625,-3.686025 -2.316997,-2.577841 -1.164381,0.905271 0.58117,2.169888 1.205743,2.572063 l 1.129679,0.0056 1.112776,0.0056 c 0.667964,-0.346674 2.788458,-1.594769 1.309977,-2.772081 -0.215261,-0.168347 -0.421587,-0.238723 -0.61414,-0.239458 z"
       sodipodi:nodetypes="ccscccccc"
       transform="matrix(0.69329698,0,0,0.69329698,13.576541,8.1769653)"
       inkscape:label="Sløjfe" /><rect
       style="display:inline;fill:#794f32;fill-opacity:1;stroke:none;stroke-width:0.536842;stroke-linejoin:round;stroke-dasharray:none;stroke-opacity:1"
       id="rect45"
       width="6.5239849"
       height="4.419055"
       x="25.691723"
       y="20.11035"
       ry="0.55639142"
       rx="0.34336764"
       inkscape:label="Pakke" /><path
       style="display:inline;fill:none;fill-opacity:1;stroke:#d4c9b5;stroke-width:0.228154;stroke-linejoin:round;stroke-dasharray:none;stroke-opacity:1"
       d="m 28.964471,20.032299 -0.01015,4.532165"
       id="path46"
       inkscape:label="Bånd" /><path
       style="display:inline;fill:none;fill-opacity:1;stroke:#d4c9b5;stroke-width:0.27264;stroke-linejoin:round;stroke-dasharray:none;stroke-opacity:1"
       d="m 32.200703,22.303413 -6.526895,-0.01006"
       id="path47"
       inkscape:highlight-color="#aa3c3c"
       inkscape:label="Bånd" /></g></svg>
