<?xml version="1.0" encoding="UTF-8" standalone="no"?>
<!-- Created with Inkscape (http://www.inkscape.org/) -->

<svg
   width="150"
   height="150"
   viewBox="0 0 150 150"
   version="1.1"
   id="svg1"
   inkscape:version="1.4.2 (f4327f4, 2025-05-13)"
   sodipodi:docname="gingerbread.svg"
   xml:space="preserve"
   xmlns:inkscape="http://www.inkscape.org/namespaces/inkscape"
   xmlns:sodipodi="http://sodipodi.sourceforge.net/DTD/sodipodi-0.dtd"
   xmlns="http://www.w3.org/2000/svg"
   xmlns:svg="http://www.w3.org/2000/svg"><sodipodi:namedview
     id="namedview1"
     pagecolor="#204226"
     bordercolor="#000000"
     borderopacity="0.25"
     inkscape:showpageshadow="2"
     inkscape:pageopacity="0.0"
     inkscape:pagecheckerboard="0"
     inkscape:deskcolor="#d1d1d1"
     inkscape:document-units="px"
     inkscape:zoom="4.5166667"
     inkscape:cx="84.464944"
     inkscape:cy="90.221402"
     inkscape:window-width="1920"
     inkscape:window-height="1094"
     inkscape:window-x="-11"
     inkscape:window-y="-11"
     inkscape:window-maximized="1"
     inkscape:current-layer="svg1" /><defs
     id="defs1"><inkscape:path-effect
       effect="spiro"
       id="path-effect25"
       is_visible="true"
       lpeversion="1" /><inkscape:path-effect
       effect="bend_path"
       id="path-effect23"
       is_visible="true"
       lpeversion="1"
       bendpath="m 23.197417,74.70664 c 5.824811,5.968642 11.280875,4.193583 16.621771,0"
       prop_scale="1"
       scale_y_rel="false"
       vertical="false"
       hide_knot="false"
       bendpath-nodetypes="cc" /><inkscape:path-effect
       effect="fillet_chamfer"
       id="path-effect19"
       is_visible="true"
       lpeversion="1"
       nodesatellites_param="F,0,0,1,0,13.610823,0,1 @ F,0,0,1,0,7.6181396,0,1 @ F,0,0,1,0,0,0,1 @ F,0,0,1,0,0,0,1 @ F,0,0,1,0,0,0,1 @ F,0,0,1,0,0,0,1 @ F,0,0,1,0,0,0,1 @ F,0,0,1,0,0,0,1 @ F,0,0,1,0,0,0,1 @ F,0,0,1,0,0,0,1 @ F,0,0,1,0,0,0,1 @ F,0,0,1,0,0,0,1 @ F,0,0,1,0,0,0,1 @ F,0,0,1,0,0,0,1 @ F,0,0,1,0,0,0,1 @ F,0,0,1,0,0,0,1 @ F,0,0,1,0,9.8086838,0,1"
       radius="0"
       unit="px"
       method="auto"
       mode="F"
       chamfer_steps="1"
       flexible="false"
       use_knot_distance="true"
       apply_no_radius="true"
       apply_with_radius="true"
       only_selected="false"
       hide_knots="false" /><inkscape:path-effect
       effect="bend_path"
       id="path-effect4"
       is_visible="true"
       lpeversion="1"
       bendpath="m 54.047818,159.58759 c 27.052641,-62.939937 12.72201,-53.95868 38.795563,0.36532"
       prop_scale="0.99302976"
       scale_y_rel="false"
       vertical="false"
       hide_knot="false"
       bendpath-nodetypes="cc" /><inkscape:path-effect
       effect="bend_path"
       id="path-effect3"
       is_visible="true"
       lpeversion="1"
       bendpath="M 48.302799,161.04885 H 141.16478"
       prop_scale="1"
       scale_y_rel="false"
       vertical="false"
       hide_knot="false" /><inkscape:path-effect
       effect="fillet_chamfer"
       id="path-effect19-5"
       is_visible="true"
       lpeversion="1"
       nodesatellites_param="F,0,0,1,0,13.610823,0,1 @ F,0,0,1,0,7.6181396,0,1 @ F,0,0,1,0,0,0,1 @ F,0,0,1,0,0,0,1 @ F,0,0,1,0,0,0,1 @ F,0,0,1,0,0,0,1 @ F,0,0,1,0,0,0,1 @ F,0,0,1,0,0,0,1 @ F,0,0,1,0,0,0,1 @ F,0,0,1,0,0,0,1 @ F,0,0,1,0,0,0,1 @ F,0,0,1,0,0,0,1 @ F,0,0,1,0,0,0,1 @ F,0,0,1,0,0,0,1 @ F,0,0,1,0,0,0,1 @ F,0,0,1,0,0,0,1 @ F,0,0,1,0,9.8086838,0,1"
       radius="0"
       unit="px"
       method="auto"
       mode="F"
       chamfer_steps="1"
       flexible="false"
       use_knot_distance="true"
       apply_no_radius="true"
       apply_with_radius="true"
       only_selected="false"
       hide_knots="false" /></defs><rect
     style="fill:#f0ece1;stroke-width:0.9;stroke-linejoin:round"
     id="rect1"
     width="131.07011"
     height="131.07011"
     x="9.4649429"
     y="9.4649429"
     ry="0.99151504" /><g
     inkscape:label="Lag 1"
     id="layer1"
     transform="matrix(10.861787,0,0,10.861787,19.486712,19.496695)"><path
       id="path12"
       style="fill:#895a39;fill-opacity:1;stroke:#794f32;stroke-width:2.04122"
       d="m 71.409829,59.874998 c -7.806076,5.091658 -8.392185,13.343487 -4.205685,21.031206 2.00689,3.685278 1.07625,6.292545 -3.126604,6.48769 l -1.35217,0.06278 -4.835735,0.129158 c -4.976655,0.132922 -8.986015,4.007585 -8.986015,8.986015 0,4.97843 4.007585,8.98653 8.986015,8.98653 21.010175,-2.44771 4.928833,18.58833 0.656662,28.91093 -1.967842,4.74535 0.05134,10.10994 4.593002,12.06283 4.54166,1.95289 10.78327,-0.0849 11.892814,-5.22655 2.81023,-13.02271 11.084182,-14.67793 14.816666,0.47904 1.277814,5.18898 7.624735,7.06019 12.082471,4.92269 4.45772,-2.13749 6.28241,-7.50358 4.24366,-12.12535 -1.39534,-3.1632 -2.74042,-6.35756 -4.04264,-9.57771 -6.485382,-14.87889 -3.246128,-20.54226 8.04422,-19.7042 4.96477,0.36853 8.98653,-4.0081 8.98653,-8.986526 0,-4.97843 -4.01472,-9.242803 -8.98653,-8.986015 0,0 -5.33258,-0.189702 -10.506644,-0.492261 -5.316043,-0.310861 -4.585493,-1.563963 -0.943208,-5.443885 5.256232,-5.599166 4.008292,-14.997295 -2.185024,-20.794036 -5.375029,-5.03085 -18.883864,-4.797662 -25.131785,-0.722339 z"
       sodipodi:nodetypes="cccssssssssscssscc"
       inkscape:path-effect="#path-effect19"
       inkscape:original-d="M 84.204679,55.548031 C 60.993046,58.906608 60.621661,75.188329 71.687481,87.040553 l -8.962111,0.416124 -4.835735,0.129158 c -4.976655,0.132922 -8.986015,4.007585 -8.986015,8.986015 0,4.97843 4.007585,8.98653 8.986015,8.98653 21.010175,-2.44771 4.928833,18.58833 0.656662,28.91093 -1.967842,4.74535 0.05134,10.10994 4.593002,12.06283 4.54166,1.95289 10.78327,-0.0849 11.892814,-5.22655 2.81023,-13.02271 11.084182,-14.67793 14.816666,0.47904 1.277814,5.18898 7.624735,7.06019 12.082471,4.92269 4.45772,-2.13749 6.28241,-7.50358 4.24366,-12.12535 -1.39534,-3.1632 -2.74042,-6.35756 -4.04264,-9.57771 -6.485382,-14.87889 -3.246128,-20.54226 8.04422,-19.7042 4.96477,0.36853 8.98653,-4.0081 8.98653,-8.986526 0,-4.97843 -4.01472,-9.242803 -8.98653,-8.986015 0,0 -21.123527,-0.751451 -20.079056,-1.648511 19.131636,-3.260553 13.840716,-29.097653 -5.892755,-30.130977 z"
       transform="matrix(0.10263749,0,0,0.10263749,-3.5751387,-5.4789374)" /><path
       id="path12-7"
       style="fill:none;fill-opacity:1;stroke:#f6ede4;stroke-width:1.00707;stroke-dasharray:none"
       d="m 71.409829,59.874998 c -7.806076,5.091658 -8.392185,13.343487 -4.205685,21.031206 2.00689,3.685278 1.07625,6.292545 -3.126604,6.48769 l -1.35217,0.06278 -4.835735,0.129158 c -4.976655,0.132922 -8.986015,4.007585 -8.986015,8.986015 0,4.97843 4.007585,8.98653 8.986015,8.98653 21.010175,-2.44771 5.87313,18.58833 1.600959,28.91093 -1.967842,4.74535 -0.892957,11.62082 3.648705,13.57371 4.54166,1.95289 10.78327,-1.59578 11.892814,-6.73743 2.81023,-13.02271 11.084182,-14.67793 14.816666,0.47904 1.277814,5.18898 8.191313,8.57107 12.649051,6.43357 4.45772,-2.13749 4.77153,-9.01446 2.73278,-13.63623 -1.39534,-3.1632 -2.74042,-6.35756 -4.04264,-9.57771 -6.485379,-14.87889 -2.301828,-20.54226 8.98852,-19.7042 4.96477,0.36853 8.98653,-4.0081 8.98653,-8.986526 0,-4.97843 -4.01472,-9.242803 -8.98653,-8.986015 0,0 -5.33259,-0.189702 -10.506651,-0.492261 C 94.3538,86.524397 95.084353,85.271295 98.726638,81.391373 103.98287,75.792207 102.73493,66.394078 96.541614,60.597337 91.166585,55.566487 77.65775,55.799675 71.409829,59.874998 Z"
       sodipodi:nodetypes="cccssssssssscssscc"
       inkscape:path-effect="#path-effect19-5"
       inkscape:original-d="M 84.204679,55.548031 C 60.993046,58.906608 60.621661,75.188329 71.687481,87.040553 l -8.962111,0.416124 -4.835735,0.129158 c -4.976655,0.132922 -8.986015,4.007585 -8.986015,8.986015 0,4.97843 4.007585,8.98653 8.986015,8.98653 21.010175,-2.44771 5.87313,18.58833 1.600959,28.91093 -1.967842,4.74535 -0.892957,11.62082 3.648705,13.57371 4.54166,1.95289 10.78327,-1.59578 11.892814,-6.73743 2.81023,-13.02271 11.084182,-14.67793 14.816666,0.47904 1.277814,5.18898 8.191313,8.57107 12.649051,6.43357 4.45772,-2.13749 4.77153,-9.01446 2.73278,-13.63623 -1.39534,-3.1632 -2.74042,-6.35756 -4.04264,-9.57771 -6.485379,-14.87889 -2.301828,-20.54226 8.98852,-19.7042 4.96477,0.36853 8.98653,-4.0081 8.98653,-8.986526 0,-4.97843 -4.01472,-9.242803 -8.98653,-8.986015 0,0 -21.123527,-0.751451 -20.079056,-1.648511 19.131636,-3.260553 13.840716,-29.097653 -5.892755,-30.130977 z"
       transform="matrix(0.09926661,0,0,0.09926661,-3.2971278,-5.1940078)" /><circle
       style="fill:#f6ede4;fill-opacity:1;stroke:#f6ede4;stroke-width:0.116328;stroke-dasharray:none"
       id="path19"
       cx="4.5425"
       cy="1.7013301"
       r="0.14179981" /><circle
       style="fill:#f6ede4;fill-opacity:1;stroke:#f6ede4;stroke-width:0.116328;stroke-dasharray:none"
       id="circle19"
       cx="5.4798722"
       cy="1.7200791"
       r="0.14179981" /><circle
       style="fill:#c18e81;fill-opacity:1;stroke:#c18e81;stroke-width:0.15392;stroke-dasharray:none;stroke-opacity:1"
       id="circle20"
       cx="6.2811241"
       cy="2.1377201"
       r="0.18762332" /><circle
       style="fill:#c18e81;fill-opacity:1;stroke:#c18e81;stroke-width:0.15392;stroke-dasharray:none;stroke-opacity:1"
       id="circle20-2"
       cx="3.8695309"
       cy="2.133203"
       r="0.18762332" /><path
       style="fill:none;fill-opacity:1;stroke:#f6ede4;stroke-width:1.36096;stroke-linecap:round;stroke-linejoin:round;stroke-dasharray:none;stroke-opacity:1"
       d="m 23.119007,74.625739 c 2.249746,2.337251 5.332603,4.152084 8.570764,3.891735 2.988308,-0.24026 5.674607,-1.894505 8.040592,-3.741295"
       id="path23"
       inkscape:path-effect="#path-effect23"
       inkscape:original-d="M 23.197417,74.70664 H 39.819188"
       transform="matrix(0.07963873,0,0,0.07963873,2.5321059,-3.4176371)" /><circle
       style="fill:#f6ede4;fill-opacity:1;stroke:#f6ede4;stroke-width:0.116328;stroke-dasharray:none"
       id="circle23"
       cx="4.9174485"
       cy="4.1384954"
       r="0.14179981" /><circle
       style="fill:#f6ede4;fill-opacity:1;stroke:#f6ede4;stroke-width:0.116328;stroke-dasharray:none"
       id="circle24"
       cx="4.9174485"
       cy="5.2445984"
       r="0.14179981" /><circle
       style="fill:#f6ede4;fill-opacity:1;stroke:#f6ede4;stroke-width:0.116328;stroke-dasharray:none"
       id="circle25"
       cx="4.8987031"
       cy="6.2569594"
       r="0.14179981" /><path
       style="fill:none;fill-opacity:1;stroke:#f6ede4;stroke-width:0.079375;stroke-linecap:round;stroke-linejoin:round;stroke-dasharray:none;stroke-opacity:1"
       d="M 6.928776,3.4726562 C 6.853212,3.6363338 6.8245243,3.7979283 6.926246,3.8896084 7.0426539,3.9945284 7.1572156,4.1255098 7.013023,4.3662458 6.91872,4.5024616 6.961317,4.6023435 7.077117,4.6781599 c 0.10575,0.069237 0.1626331,0.1136423 0.1856913,0.277718 0.011017,0.078392 0.017752,0.1668584 -0.086986,0.2705599"
       id="path25"
       sodipodi:nodetypes="cscssc" /><path
       style="fill:none;fill-opacity:1;stroke:#f6ede4;stroke-width:0.079375;stroke-linecap:round;stroke-linejoin:round;stroke-dasharray:none;stroke-opacity:1"
       d="m 2.9538052,3.4933268 c 0.075564,0.1636776 0.1042517,0.3252721 0.00253,0.4169522 -0.1164079,0.10492 -0.2309696,0.2359014 -0.086777,0.4766374 0.094303,0.1362158 0.051706,0.2360977 -0.064094,0.3119141 -0.10575,0.069237 -0.1626331,0.1136423 -0.1856913,0.277718 -0.011017,0.078392 -0.017752,0.1668584 0.086986,0.2705599"
       id="path26"
       sodipodi:nodetypes="cscssc" /><path
       style="fill:none;fill-opacity:1;stroke:#f6ede4;stroke-width:0.0718279;stroke-linecap:round;stroke-linejoin:round;stroke-dasharray:none;stroke-opacity:1"
       d="M 6.9712825,7.8135401 C 6.8772008,7.9468159 6.763542,8.0424129 6.645669,8.0041769 6.5107751,7.9604221 6.3562927,7.9299058 6.2328733,8.1518304 6.1687916,8.2873661 6.0712425,8.2991761 5.9594317,8.2427295 5.8573242,8.1911819 5.7967872,8.1666952 5.657771,8.2228625 5.5913518,8.2496979 5.5189749,8.2844472 5.4850955,8.4134493"
       id="path27"
       sodipodi:nodetypes="cscssc" /><path
       style="fill:none;fill-opacity:1;stroke:#f6ede4;stroke-width:0.0718279;stroke-linecap:round;stroke-linejoin:round;stroke-dasharray:none;stroke-opacity:1"
       d="m 2.7840029,7.8135401 c 0.094082,0.1332758 0.2077405,0.2288728 0.3256135,0.1906368 0.1348939,-0.043755 0.2893763,-0.074271 0.4127957,0.1476535 0.064082,0.1355357 0.1616308,0.1473457 0.2734416,0.090899 0.1021075,-0.051548 0.1626445,-0.076034 0.3016607,-0.019867 0.066419,0.026835 0.1387961,0.061585 0.1726755,0.1905868"
       id="path28"
       sodipodi:nodetypes="cscssc" /></g></svg>
