<?xml version="1.0" encoding="UTF-8" standalone="no"?>
<!-- Created with Inkscape (http://www.inkscape.org/) -->

<svg
   width="210mm"
   height="297mm"
   viewBox="0 0 210 297"
   version="1.1"
   id="svg1"
   inkscape:version="1.4.2 (f4327f4, 2025-05-13)"
   sodipodi:docname="Nisse.svg"
   xmlns:inkscape="http://www.inkscape.org/namespaces/inkscape"
   xmlns:sodipodi="http://sodipodi.sourceforge.net/DTD/sodipodi-0.dtd"
   xmlns="http://www.w3.org/2000/svg"
   xmlns:svg="http://www.w3.org/2000/svg">
  <sodipodi:namedview
     id="namedview1"
     pagecolor="#ffffff"
     bordercolor="#000000"
     borderopacity="0.25"
     inkscape:showpageshadow="2"
     inkscape:pageopacity="0.0"
     inkscape:pagecheckerboard="0"
     inkscape:deskcolor="#d1d1d1"
     inkscape:document-units="mm"
     inkscape:zoom="2"
     inkscape:cx="366.75"
     inkscape:cy="433.75"
     inkscape:window-width="1920"
     inkscape:window-height="1094"
     inkscape:window-x="-11"
     inkscape:window-y="-11"
     inkscape:window-maximized="1"
     inkscape:current-layer="g2" />
  <defs
     id="defs1">
    <inkscape:path-effect
       effect="bend_path"
       id="path-effect117"
       is_visible="true"
       lpeversion="1"
       bendpath="M 3.1733439,8.2257776 H 6.5717781"
       prop_scale="1"
       scale_y_rel="false"
       vertical="false"
       hide_knot="false" />
    <inkscape:path-effect
       effect="bend_path"
       id="path-effect115"
       is_visible="true"
       lpeversion="1"
       bendpath="M 3.1733439,8.2257776 H 6.5717781"
       prop_scale="1"
       scale_y_rel="false"
       vertical="false"
       hide_knot="false" />
    <inkscape:path-effect
       effect="bend_path"
       id="path-effect114"
       is_visible="true"
       lpeversion="1"
       bendpath="M 91.815325,113.99829 H 184.62319"
       prop_scale="1"
       scale_y_rel="false"
       vertical="false"
       hide_knot="false" />
    <inkscape:path-effect
       effect="spiro"
       id="path-effect49"
       is_visible="true"
       lpeversion="1" />
    <inkscape:path-effect
       effect="spiro"
       id="path-effect46"
       is_visible="true"
       lpeversion="1" />
    <inkscape:path-effect
       effect="spiro"
       id="path-effect9"
       is_visible="true"
       lpeversion="1" />
    <inkscape:path-effect
       effect="spiro"
       id="path-effect8"
       is_visible="true"
       lpeversion="1" />
    <inkscape:path-effect
       effect="spiro"
       id="path-effect7"
       is_visible="true"
       lpeversion="1" />
    <inkscape:path-effect
       effect="spiro"
       id="path-effect6"
       is_visible="true"
       lpeversion="1" />
    <inkscape:path-effect
       effect="spiro"
       id="path-effect5"
       is_visible="true"
       lpeversion="1" />
  </defs>
  <g
     id="g62"
     inkscape:label="Skitse"
     style="display:none">
    <ellipse
       style="opacity:1;fill:#741303;fill-opacity:1;stroke:none;stroke-width:0.0383472;stroke-linejoin:round;stroke-opacity:1"
       id="ellipse4"
       cx="34.010487"
       cy="143.73254"
       rx="21.000734"
       ry="18.555347" />
    <ellipse
       style="opacity:1;fill:#741303;fill-opacity:1;stroke:none;stroke-width:0.0518583;stroke-linejoin:round;stroke-opacity:1"
       id="path10"
       cx="98.569649"
       cy="201.6257"
       rx="6.7583022"
       ry="10.046125"
       transform="rotate(20.532525)" />
    <ellipse
       style="opacity:1;fill:#741303;fill-opacity:1;stroke:none;stroke-width:0.0518583;stroke-linejoin:round;stroke-opacity:1"
       id="ellipse10"
       cx="-47.658512"
       cy="223.47333"
       rx="6.7583022"
       ry="10.046125"
       transform="rotate(-24.606206)" />
    <rect
       style="opacity:1;fill:#741303;fill-opacity:1;stroke:none;stroke-width:0.0453976;stroke-linejoin:round;stroke-opacity:1"
       id="rect10"
       width="29.955721"
       height="60.642067"
       x="19.945921"
       y="162.19925"
       ry="16.87471" />
    <ellipse
       style="opacity:1;fill:#741303;fill-opacity:1;stroke:none;stroke-width:0.0461955;stroke-linejoin:round;stroke-opacity:1"
       id="ellipse11"
       cx="66.623672"
       cy="232.99098"
       rx="6.0203185"
       ry="8.9491224"
       transform="rotate(3.4092358)" />
    <ellipse
       style="opacity:1;fill:#741303;fill-opacity:1;stroke:none;stroke-width:0.0461955;stroke-linejoin:round;stroke-opacity:1"
       id="ellipse12"
       cx="-6.0061498"
       cy="237.31773"
       rx="6.0203185"
       ry="8.9491224"
       transform="matrix(-0.99823026,0.05946728,0.05946728,0.99823026,0,0)" />
    <ellipse
       style="opacity:1;fill:#741303;fill-opacity:1;stroke:none;stroke-width:0.0424203;stroke-linejoin:round;stroke-opacity:1"
       id="ellipse13"
       cx="66.833275"
       cy="246.51907"
       rx="5.5283294"
       ry="8.2177868"
       transform="rotate(3.4092358)" />
    <ellipse
       style="opacity:1;fill:#741303;fill-opacity:1;stroke:none;stroke-width:0.0424203;stroke-linejoin:round;stroke-opacity:1"
       id="ellipse14"
       cx="-7.262856"
       cy="250.93317"
       rx="5.5283294"
       ry="8.2177868"
       transform="matrix(-0.99823026,0.05946728,0.05946728,0.99823026,0,0)" />
    <ellipse
       style="opacity:1;fill:#000000;fill-opacity:1;stroke:none;stroke-width:0.0424203;stroke-linejoin:round;stroke-opacity:1"
       id="ellipse15"
       cx="-188.78493"
       cy="180.95178"
       rx="5.5283294"
       ry="8.2177868"
       transform="matrix(-0.7479051,-0.66380567,-0.66380567,0.7479051,0,0)"
       inkscape:label="Sko V" />
    <ellipse
       style="opacity:1;fill:#000000;fill-opacity:1;stroke:none;stroke-width:0.0424203;stroke-linejoin:round;stroke-opacity:1"
       id="ellipse16"
       cx="-132.66885"
       cy="230.75781"
       rx="5.5283294"
       ry="8.2177868"
       transform="rotate(-41.590765)"
       inkscape:label="Sko H" />
    <ellipse
       style="opacity:1;fill:#741303;fill-opacity:1;stroke:none;stroke-width:0.0485755;stroke-linejoin:round;stroke-opacity:1"
       id="ellipse17"
       cx="-119.41299"
       cy="132.07953"
       rx="6.5461082"
       ry="9.1002073"
       transform="matrix(0.45518381,-0.89039749,0.82932293,0.55876961,0,0)" />
    <ellipse
       style="opacity:1;fill:#741303;fill-opacity:1;stroke:none;stroke-width:0.0432781;stroke-linejoin:round;stroke-opacity:1"
       id="ellipse18"
       cx="-33.25946"
       cy="193.22214"
       rx="5.4678707"
       ry="8.6480598"
       transform="matrix(0.817069,-0.57653989,0.47199432,0.88160159,0,0)" />
    <ellipse
       style="opacity:1;fill:#741303;fill-opacity:1;stroke:none;stroke-width:0.0397413;stroke-linejoin:round;stroke-opacity:1"
       id="ellipse19"
       cx="-33.069084"
       cy="206.29512"
       rx="5.021028"
       ry="7.9413276"
       transform="matrix(0.817069,-0.57653989,0.47199432,0.88160159,0,0)" />
    <ellipse
       style="opacity:1;fill:#000000;fill-opacity:1;stroke:none;stroke-width:0.0396297;stroke-linejoin:round;stroke-opacity:1"
       id="ellipse20"
       cx="-181.11955"
       cy="118.0595"
       rx="5.4922714"
       ry="7.2192388"
       transform="matrix(0.20354305,-0.979066,0.96445156,0.2642597,0,0)"
       inkscape:label="Hånd H" />
    <ellipse
       style="opacity:1;fill:#741303;fill-opacity:1;stroke:none;stroke-width:0.0485755;stroke-linejoin:round;stroke-opacity:1"
       id="ellipse21"
       cx="-158.46504"
       cy="69.850243"
       rx="6.5461082"
       ry="9.1002073"
       transform="matrix(-0.45518381,-0.8903975,-0.82932294,0.5587696,0,0)" />
    <ellipse
       style="opacity:1;fill:#741303;fill-opacity:1;stroke:none;stroke-width:0.0432781;stroke-linejoin:round;stroke-opacity:1"
       id="ellipse22"
       cx="-94.893684"
       cy="152.91528"
       rx="5.4678707"
       ry="8.6480598"
       transform="matrix(-0.817069,-0.57653989,-0.47199432,0.88160159,0,0)" />
    <ellipse
       style="opacity:1;fill:#741303;fill-opacity:1;stroke:none;stroke-width:0.0397413;stroke-linejoin:round;stroke-opacity:1"
       id="ellipse23"
       cx="-94.7033"
       cy="165.98825"
       rx="5.021028"
       ry="7.9413276"
       transform="matrix(-0.817069,-0.57653989,-0.47199432,0.88160159,0,0)" />
    <ellipse
       style="opacity:1;fill:#000000;fill-opacity:1;stroke:none;stroke-width:0.0396297;stroke-linejoin:round;stroke-opacity:1"
       id="ellipse24"
       cx="-199.49078"
       cy="49.995235"
       rx="5.4922714"
       ry="7.2192388"
       transform="matrix(-0.20354305,-0.979066,-0.96445156,0.26425971,0,0)"
       inkscape:label="Hånd V" />
    <ellipse
       style="opacity:1;fill:#741303;fill-opacity:1;stroke:none;stroke-width:0.0462009;stroke-linejoin:round;stroke-opacity:1"
       id="ellipse25"
       cx="-164.10626"
       cy="-36.034035"
       rx="6.0210166"
       ry="8.95016"
       transform="matrix(0.00903846,-0.99995915,-0.99995915,-0.00903846,0,0)" />
    <path
       d="m 130.29101,85.104442 c 0,0 4.74851,-0.440461 -1.20543,4.698642 -0.16633,0.143562 -0.34394,0.255673 -0.5352,0.347356 0.21625,0.722094 0.51289,1.420198 0.88257,2.077096 1.00115,1.778943 2.54973,3.245099 4.38067,4.14765 1.83093,0.902552 3.93672,1.23777 5.95742,0.948436 2.02069,-0.289335 3.94753,-1.202265 5.45162,-2.582342 1.49085,-1.367941 2.55992,-3.189311 3.02825,-5.157615 -0.19163,-0.06248 -0.37369,-0.148249 -0.58801,-0.302167 -5.11342,-3.672326 -1.6987,-4.443296 -1.6987,-4.443296 m 0,0 c 8.3917,-2.972663 13.89229,-10.157307 13.89229,-18.145557 -2.6e-4,-10.79679 -9.90636,-19.549187 -22.12606,-19.549166 -12.21968,-2.1e-5 -22.1258,8.752376 -22.12606,19.549166 -1.8e-4,8.262887 5.87927,15.633584 14.68664,18.411797"
       style="display:none;opacity:1;fill:#c19d7b;stroke-width:0.0417532;stroke-linejoin:round"
       id="path110"
       inkscape:label="Hoved"
       sodipodi:nodetypes="cscsssscsccccsc" />
  </g>
  <path
     id="path114"
     style="opacity:1;fill:#771616;stroke-width:0.228;stroke-linejoin:round"
     d="m 125.60485,232.20362 h -9.44314 c -0.0899,0 -0.16221,0.3615 -0.16221,0.81054 v 0.86521 c 0,0.47511 -0.3119,1.31192 -0.2922,1.31361 0,0 9.32602,0.45127 9.33003,0.17033 0.004,-0.313 0.54964,-0.32869 0.58326,-0.7059 -0.051,-0.74141 -0.27207,-2.45379 -0.27207,-2.45379 z"
     sodipodi:nodetypes="sssssssss"
     inkscape:label="Bukse bagkant højre" />
  <path
     id="rect113"
     style="opacity:1;fill:#771616;stroke-width:0.228;stroke-linejoin:round"
     d="m 86.27429,232.20362 h 9.44314 c 0.0899,0 0.23768,0.36789 0.16221,0.81054 l -0.144694,0.84867 c -0.07985,0.46836 0.136694,0.86329 0.116994,0.86498 0,0 -0.210633,0.25728 -0.52052,0.28679 -1.684057,0.16037 -7.074566,0.69751 -8.60981,0.6373 -0.254246,-0.01 -0.523628,-0.22932 -0.52412,-0.26379 -0.0045,-0.31299 -0.0854,-1.13003 -0.0854,-1.50874 v -0.86521 c 0,-0.44904 0.0724,-0.81054 0.16221,-0.81054 z"
     sodipodi:nodetypes="ssssssssssss"
     inkscape:label="Bukse bagkant venstre" />
  <g
     id="g113"
     inkscape:label="Støvler"
     transform="translate(-34.925,17.4625)">
    <path
       d="m 151.46311,212.88277 c -0.0711,5e-4 -0.11059,0.0581 -0.11059,0.21394 v 16.10858 c 0,0.32941 0.17663,0.62253 0.45475,0.81648 0.21727,0.15152 0.49672,0.24237 0.80202,0.24237 h 3.02772 v -0.46768 c 0,-0.31912 0.14473,-0.57619 0.32401,-0.57619 h 4.00131 0.92036 c 0.17928,0 0.32349,0.25707 0.32349,0.57619 v 0.71056 h 8.89507 c 0.63249,0 1.14153,-0.51729 1.14153,-1.16014 0,0 1.48364,-4.48086 0,-5.63015 -1.28008,-0.9916 -4.08026,1.32112 -4.70359,1.21388 l -6.57686,-1.13171 v -10.70219 c 0,-0.58674 -0.56065,0.21962 -1.25677,0.21962 h -6.09627 c -0.51121,0 -0.94955,-0.43495 -1.14618,-0.43356 z"
       style="opacity:1;stroke-width:0.0658621;stroke-linejoin:round"
       id="path97"
       inkscape:label="Højre sko" />
    <path
       d="m 130.14583,212.88277 c 0.0711,5e-4 0.11059,0.0581 0.11059,0.21394 v 16.10858 c 0,0.32941 -0.17663,0.62253 -0.45475,0.81648 -0.21727,0.15152 -0.49672,0.24237 -0.80202,0.24237 h -3.02772 v -0.46768 c 0,-0.31912 -0.14473,-0.57619 -0.32401,-0.57619 h -4.00131 -0.92036 c -0.17928,0 -0.32349,0.25707 -0.32349,0.57619 v 0.71056 h -8.89507 c -0.63249,0 -1.14153,-0.51729 -1.14153,-1.16014 0,0 -1.48364,-4.48086 0,-5.63015 1.28008,-0.9916 4.08026,1.32112 4.70359,1.21388 l 6.57686,-1.13171 v -10.70219 c 0,-0.58674 0.56065,0.21962 1.25677,0.21962 h 6.09627 c 0.51121,0 0.94955,-0.43495 1.14618,-0.43356 z"
       style="opacity:1;stroke-width:0.0658621;stroke-linejoin:round"
       id="path99"
       inkscape:label="Venstre sko" />
    <path
       id="path92"
       style="opacity:1;fill:#b18755;stroke:none;stroke-width:0.0861087;stroke-linejoin:round"
       d="m 159.24711,213.92333 0.10397,-22.6613 c 0.006,-1.29237 -1.66571,-2.39577 -3.76471,-2.4744 v 0 c -2.09897,-0.0786 -3.82793,0.89841 -3.81284,2.19052 l 0.26366,22.58965 c 0.015,1.29212 1.19376,-0.0115 3.29274,0.0678 v 0 c 2.099,0.0786 3.91128,1.57996 3.91721,0.28759 z"
       sodipodi:nodetypes="sssssssss"
       inkscape:label="Højre ben" />
    <path
       id="path93"
       style="opacity:1;fill:#b18755;stroke:none;stroke-width:0.0861087;stroke-linejoin:round"
       d="m 122.42942,213.92333 -0.10397,-22.6613 c -0.006,-1.29237 1.66571,-2.39577 3.76471,-2.4744 v 0 c 2.09897,-0.0786 3.82793,0.89841 3.81284,2.19052 l -0.26366,22.58965 c -0.015,1.29212 -1.19376,-0.0115 -3.29274,0.0678 v 0 c -2.099,0.0786 -3.91128,1.57996 -3.91721,0.28759 z"
       sodipodi:nodetypes="sssssssss"
       inkscape:label="Venstre ben" />
  </g>
  <path
     d="m 118.56796,150.73604 -30.00954,0.31932 c -0.4833,6.08786 -5.94715,48.44633 -5.81308,51.41705 0.2047,4.42128 2.43199,22.69609 2.55488,25.4791 0.11723,2.59627 0.93781,7.39145 0.89727,7.4366 3.98571,-0.3462 8.32707,-1.33869 9.65449,-0.6603 -0.0565,-0.0969 0.59381,-5.24811 0.48581,-7.64419 -0.17414,-3.81757 -1.42893,-22.27165 -1.57303,-25.55688 -0.11555,-2.55862 1.0478,-11.10659 1.80092,-13.76143 0.53555,-1.88846 1.44191,-13.90924 3.48713,-15.70996 2.22467,-1.95872 5.60866,-2.65959 7.98297,-1.03574 2.50617,1.71403 3.41731,14.63432 4.18528,16.84872 1.03746,2.99108 3.17276,11.30322 3.06648,13.65841 -0.16978,3.87011 0.0413,22.43096 -0.10439,25.55688 -0.12534,2.77795 0.55025,8.04157 0.52415,8.10936 1.99308,-1.07535 7.26079,-1.16208 9.91329,-0.53557 -0.0519,-0.0515 0.49395,-4.36166 0.59961,-6.7059 0.14633,-3.29336 0.92056,-21.80314 1.08676,-25.4791 0.17086,-3.78692 -8.27788,-46.70534 -8.739,-51.73637 z"
     style="opacity:1;fill:#a11d1d;stroke-width:0.045537;stroke-linejoin:round"
     id="path74"
     sodipodi:nodetypes="cccccccccsscccccccc"
     inkscape:label="Bukser" />
  <g
     id="g107"
     transform="matrix(0.89799328,-0.64561116,-0.64561116,-0.89799328,106.5055,225.90028)"
     inkscape:label="Venstre hånd"
     style="fill:#c19d7b"
     inkscape:transform-center-x="-3.175"
     inkscape:transform-center-y="-2.9104167">
    <path
       id="path100"
       style="opacity:1;fill:#c19d7b;stroke-width:0.0518583;stroke-linejoin:round"
       d="m 67.491699,15.845479 c 0.37947,0 0.684963,0.508828 0.684963,1.140869 v 5.93782 c 0,0.632041 -0.305493,1.140869 -0.684963,1.140869 -0.37947,0 -0.684963,-0.508828 -0.684963,-1.140869 v -5.93782 c 0,-0.632041 0.305493,-1.140869 0.684963,-1.140869 z" />
    <path
       id="path101"
       style="fill:#c19d7b;stroke-width:0.0579309;stroke-linejoin:round"
       d="m 62.820216,21.714102 c 0.458639,-0.04754 1.090431,0.422411 1.24917,1.060308 l 1.4844,5.965125 c 0.158739,0.637898 1.220173,1.59054 0.786997,1.748553 -0.514727,0.187761 -1.763294,-0.99169 -2.02297,-1.738387 l -2.018324,-5.803678 c -0.21592,-0.620878 0.06209,-1.184384 0.520727,-1.231921 z"
       sodipodi:nodetypes="sssssss" />
    <path
       id="path102"
       style="fill:#c19d7b;stroke-width:0.0528004;stroke-linejoin:round"
       d="m 70.93428,18.944334 c 0.305057,0 0.550644,0.656154 0.550644,1.471195 v 7.657052 c 0,0.815043 -0.762219,2.16542 -1.067276,2.16542 -0.305057,0 -0.03401,-1.350377 -0.03401,-2.16542 v -7.657052 c 0,-0.815041 0.245587,-1.471195 0.550644,-1.471195 z"
       sodipodi:nodetypes="sssssss" />
    <path
       id="path103"
       style="fill:#c19d7b;stroke-width:0.0518583;stroke-linejoin:round"
       d="m 65.591564,16.663799 c 0.37947,0 0.684963,0.508828 0.684963,1.140869 v 5.93782 c 0,0.632042 -0.305493,1.140869 -0.684963,1.140869 -0.37947,0 -0.684963,-0.508827 -0.684963,-1.140869 v -5.93782 c 0,-0.632041 0.305493,-1.140869 0.684963,-1.140869 z" />
    <path
       id="path104"
       style="fill:#c19d7b;stroke-width:0.0518583;stroke-linejoin:round"
       d="m 69.251032,17.348761 c 0.379469,0 0.684963,0.508827 0.684963,1.140869 v 5.93782 c 0,0.632041 -0.305494,1.140869 -0.684963,1.140869 -0.37947,0 -0.684963,-0.508828 -0.684963,-1.140869 v -5.93782 c 0,-0.632042 0.305493,-1.140869 0.684963,-1.140869 z" />
    <path
       id="path105"
       style="opacity:1;fill:#c19d7b;stroke-width:0.0492552;stroke-linejoin:round"
       d="m 65.759141,22.450171 h 4.260324 c 0.508716,0 0.91826,0.508827 0.91826,1.140868 v 4.156916 c 0,0.632041 -0.409544,1.140869 -0.91826,1.140869 h -4.260324 c -0.508716,0 -0.928645,-0.508913 -0.91826,-1.140869 l 0.0685,-4.168332 c 0.01038,-0.631956 0.341048,-1.129452 0.849764,-1.129452 z"
       sodipodi:nodetypes="sssssssss" />
    <path
       id="path106"
       style="fill:#c19d7b;stroke-width:0.0492552;stroke-linejoin:round"
       d="m 67.155646,24.652027 h 1.677168 c 1.22425,0 2.209838,0.977251 2.209838,2.191146 v 2.056362 c 0,1.213895 -0.939924,1.825832 -2.164174,1.825832 H 67.20131 c -1.22425,0 -2.255502,-0.611937 -2.255502,-1.825832 v -2.056362 c 0,-1.213895 0.985588,-2.191146 2.209838,-2.191146 z"
       sodipodi:nodetypes="sssssssss" />
    <path
       id="path107"
       style="opacity:1;fill:#c19d7b;stroke:none;stroke-width:0.0518583;stroke-linejoin:round"
       transform="rotate(89.304467,80.904307,97.002013)"
       d="m 13.330414,106.08166 9.88726,0.10799 c 0.563873,0.006 1.017883,1.40494 1.017883,3.1501 v 0 c 0,1.74515 -0.454471,3.17371 -1.017883,3.15009 l -9.849992,-0.41289 c -0.563413,-0.0236 0.02417,-0.99205 0.02417,-2.7372 v 0 c 0,-1.74516 -0.625308,-3.26424 -0.06143,-3.25809 z"
       sodipodi:nodetypes="sssssssss" />
    <rect
       style="opacity:1;fill:#c19d7b;fill-opacity:1;stroke:none;stroke-width:0.0518583;stroke-linejoin:round;stroke-opacity:1"
       id="rect107"
       width="0.46805811"
       height="0.81053966"
       x="64.68335"
       y="25.537706"
       rx="1.0178831"
       ry="0.81053966" />
  </g>
  <g
     id="g82"
     transform="matrix(-0.89799328,-0.64561116,0.64561116,-0.89799328,100.61154,225.63569)"
     inkscape:label="Venstre hånd"
     style="fill:#c19d7b">
    <path
       id="rect80"
       style="opacity:1;fill:#c19d7b;stroke-width:0.0518583;stroke-linejoin:round"
       d="m 67.491699,15.845479 c 0.37947,0 0.684963,0.508828 0.684963,1.140869 v 5.93782 c 0,0.632041 -0.305493,1.140869 -0.684963,1.140869 -0.37947,0 -0.684963,-0.508828 -0.684963,-1.140869 v -5.93782 c 0,-0.632041 0.305493,-1.140869 0.684963,-1.140869 z" />
    <path
       id="rect80-1"
       style="fill:#c19d7b;stroke-width:0.0579309;stroke-linejoin:round"
       d="m 62.820216,21.714102 c 0.458639,-0.04754 1.090431,0.422411 1.24917,1.060308 l 1.4844,5.965125 c 0.158739,0.637898 1.220173,1.59054 0.786997,1.748553 -0.514727,0.187761 -1.763294,-0.99169 -2.02297,-1.738387 l -2.018324,-5.803678 c -0.21592,-0.620878 0.06209,-1.184384 0.520727,-1.231921 z"
       sodipodi:nodetypes="sssssss" />
    <path
       id="rect80-1-5"
       style="fill:#c19d7b;stroke-width:0.0528004;stroke-linejoin:round"
       d="m 70.93428,18.944334 c 0.305057,0 0.550644,0.656154 0.550644,1.471195 v 7.657052 c 0,0.815043 -0.762219,2.16542 -1.067276,2.16542 -0.305057,0 -0.03401,-1.350377 -0.03401,-2.16542 v -7.657052 c 0,-0.815041 0.245587,-1.471195 0.550644,-1.471195 z"
       sodipodi:nodetypes="sssssss" />
    <path
       id="rect80-1-5-0"
       style="fill:#c19d7b;stroke-width:0.0518583;stroke-linejoin:round"
       d="m 65.591564,16.663799 c 0.37947,0 0.684963,0.508828 0.684963,1.140869 v 5.93782 c 0,0.632042 -0.305493,1.140869 -0.684963,1.140869 -0.37947,0 -0.684963,-0.508827 -0.684963,-1.140869 v -5.93782 c 0,-0.632041 0.305493,-1.140869 0.684963,-1.140869 z" />
    <path
       id="rect80-1-5-0-6"
       style="fill:#c19d7b;stroke-width:0.0518583;stroke-linejoin:round"
       d="m 69.251032,17.348761 c 0.379469,0 0.684963,0.508827 0.684963,1.140869 v 5.93782 c 0,0.632041 -0.305494,1.140869 -0.684963,1.140869 -0.37947,0 -0.684963,-0.508828 -0.684963,-1.140869 v -5.93782 c 0,-0.632042 0.305493,-1.140869 0.684963,-1.140869 z" />
    <path
       id="rect81"
       style="opacity:1;fill:#c19d7b;stroke-width:0.0492552;stroke-linejoin:round"
       d="m 65.759141,22.450171 h 4.260324 c 0.508716,0 0.91826,0.508827 0.91826,1.140868 v 4.156916 c 0,0.632041 -0.409544,1.140869 -0.91826,1.140869 h -4.260324 c -0.508716,0 -0.928645,-0.508913 -0.91826,-1.140869 l 0.0685,-4.168332 c 0.01038,-0.631956 0.341048,-1.129452 0.849764,-1.129452 z"
       sodipodi:nodetypes="sssssssss" />
    <path
       id="rect81-7"
       style="fill:#c19d7b;stroke-width:0.0492552;stroke-linejoin:round"
       d="m 67.155646,24.652027 h 1.677168 c 1.22425,0 2.209838,0.977251 2.209838,2.191146 v 2.056362 c 0,1.213895 -0.939924,1.825832 -2.164174,1.825832 H 67.20131 c -1.22425,0 -2.255502,-0.611937 -2.255502,-1.825832 v -2.056362 c 0,-1.213895 0.985588,-2.191146 2.209838,-2.191146 z"
       sodipodi:nodetypes="sssssssss" />
    <path
       id="rect79"
       style="opacity:1;fill:#c19d7b;stroke:none;stroke-width:0.0518583;stroke-linejoin:round"
       transform="rotate(89.304467,80.904307,97.002013)"
       d="m 13.330414,106.08166 9.88726,0.10799 c 0.563873,0.006 1.017883,1.40494 1.017883,3.1501 v 0 c 0,1.74515 -0.454471,3.17371 -1.017883,3.15009 l -9.849992,-0.41289 c -0.563413,-0.0236 0.02417,-0.99205 0.02417,-2.7372 v 0 c 0,-1.74516 -0.625308,-3.26424 -0.06143,-3.25809 z"
       sodipodi:nodetypes="sssssssss" />
    <rect
       style="opacity:1;fill:#c19d7b;fill-opacity:1;stroke:none;stroke-width:0.0518583;stroke-linejoin:round;stroke-opacity:1"
       id="rect82"
       width="0.46805811"
       height="0.81053966"
       x="64.68335"
       y="25.537706"
       rx="1.0178831"
       ry="0.81053966" />
  </g>
  <path
     d="m 113.36195,107.03066 c -0.96979,-0.33847 -7.32761,-0.95393 -10.64005,-0.85324 -2.9691,0.0903 -5.98435,0.47663 -8.82619,1.22945 -22.58121,5.98192 28.77707,2.87337 19.46624,-0.37621 z"
     style="display:inline;opacity:1;fill:#771616;stroke-width:0.0398298;stroke-linejoin:round"
     id="path113"
     sodipodi:nodetypes="ssss"
     inkscape:label="Trøje bagkant" />
  <path
     d="m 109.47307,104.40166 -12.18076,-0.0779 c 0.54104,0.43746 0.44185,1.50156 -2.51904,4.05723 -0.15385,0.13279 -0.3183,0.23641 -0.4952,0.32121 0.20002,0.66793 0.47447,1.31345 0.81642,1.92107 0.92604,1.64548 2.35839,3.00155 4.05197,3.83639 1.69357,0.83484 3.64123,1.14523 5.51033,0.8776 1.8691,-0.26763 3.6516,-1.112 5.04285,-2.38854 1.379,-1.26532 2.36787,-2.95024 2.80106,-4.77088 -0.17725,-0.0578 -0.34572,-0.13725 -0.54397,-0.27963 -2.60037,-1.86752 -2.81623,-2.92391 -2.48366,-3.49653 z"
     style="display:inline;opacity:1;fill:#c19d7b;stroke-width:0.0386208;stroke-linejoin:round"
     id="path112"
     inkscape:label="Hals" />
  <path
     d="m 147.46774,89.449473 c -0.44451,1.868197 -1.45922,3.596941 -2.87425,4.895309 -1.42759,1.30989 -3.25644,2.176393 -5.17436,2.451013 -1.91793,0.27462 -3.91662,-0.0436 -5.65443,-0.900203 -1.73782,-0.85665 -3.20766,-2.248241 -4.15789,-3.936711 -0.35088,-0.623491 -1.01989,-1.286086 -1.22514,-1.971456 -1.28287,0.61498 -2.83536,0.240752 -6.37388,2.275314 -4.03922,2.32244 -12.35281,8.212471 -17.6444,18.095531 -1.27184,2.3762 -4.819119,9.54559 -5.960359,11.67319 -0.81136,1.51527 -6.571219,9.96121 -6.687329,11.54936 -0.05597,0.001 6.132222,2.39643 5.922092,5.03478 1.42157,-0.78984 8.008636,-8.99941 8.969876,-10.79488 1.07858,-2.0231 5.34833,-8.65892 6.69106,-11.15746 0.81506,-1.5224 7.948,-6.58341 10.11877,-9.23044 v 25.51716 l 29.95579,-0.0444 v -24.93889 c 2.1092,2.29664 8.84016,7.17423 9.65522,8.69663 1.34273,2.49855 5.61249,9.13436 6.69107,11.15746 0.96133,1.79563 7.46033,9.92244 8.88204,10.71224 0.004,0.049 1.93941,-5.10981 5.92157,-5.03535 -0.11594,-1.58805 -5.78726,-9.95088 -6.59846,-11.46621 -1.14139,-2.12777 -4.68903,-9.29699 -5.96087,-11.67319 -4.89258,-9.1596 -15.93043,-16.645827 -19.86334,-18.992918 -3.11203,-1.857205 -3.93185,-1.759396 -4.62142,-1.984375 z"
     style="display:inline;opacity:1;fill:#a11d1d;stroke-width:0.0396297;stroke-linejoin:round"
     id="path67"
     sodipodi:nodetypes="csscscsccccccccccccccccscc"
     inkscape:label="Trøje"
     inkscape:path-effect="#path-effect114"
     inkscape:original-d="m 147.56774,89.44947 c -0.44451,1.868197 -1.45922,3.596941 -2.87425,4.895309 -1.42759,1.30989 -3.25644,2.176393 -5.17436,2.451013 -1.91793,0.27462 -3.91662,-0.0436 -5.65443,-0.900203 -1.73782,-0.85665 -3.20766,-2.248241 -4.15789,-3.936711 -0.35088,-0.623491 -1.01989,-1.286086 -1.22514,-1.971456 -1.28287,0.61498 -2.83536,0.240752 -6.37388,2.275314 -4.03922,2.32244 -12.35281,8.212474 -17.6444,18.095534 -1.27184,2.3762 -4.819119,9.54559 -5.960359,11.67319 -0.81136,1.51527 -6.571219,9.96121 -6.687329,11.54936 -0.05597,0.001 6.132222,2.39643 5.922092,5.03478 1.42157,-0.78984 8.008636,-8.99941 8.969876,-10.79488 1.07858,-2.0231 5.34833,-8.65892 6.69106,-11.15746 0.81506,-1.5224 7.948,-6.58341 10.11877,-9.23044 v 25.51716 l 29.95579,-0.0444 v -24.93889 c 2.1092,2.29664 8.84016,7.17423 9.65522,8.69663 1.34273,2.49855 5.61249,9.13436 6.69107,11.15746 0.96133,1.79563 7.46033,9.92244 8.88204,10.71224 0.004,0.049 1.93941,-5.10981 5.92157,-5.03535 -0.11594,-1.58805 -5.78726,-9.95088 -6.59846,-11.46621 -1.14139,-2.12777 -4.68903,-9.29699 -5.96087,-11.67319 -4.89258,-9.1596 -15.93043,-16.64583 -19.86334,-18.992921 -3.11203,-1.857205 -3.93185,-1.759396 -4.62142,-1.984375 z"
     transform="translate(-34.925,17.4625)" />
  <g
     id="g92"
     transform="matrix(1.0139876,0,0,1,-36.619954,102.81674)"
     inkscape:label="Bælte">
    <path
       d="M 153.47332,46.53256 123.51753,46.577 v 3.594096 c 0,0.128211 -0.0118,0.300947 -0.0341,0.51418 l 30.00954,-0.241845 c -0.0129,-0.10687 -0.0196,-0.19811 -0.0196,-0.272335 z"
       style="opacity:1;fill:#000000;stroke-width:0.0518583;stroke-linejoin:round"
       id="path52"
       inkscape:label="Bælte" />
    <path
       d="m 138.20529,46.682363 c -2.35448,-1.3e-5 -4.26316,0.954328 -4.26313,2.131562 -3e-5,1.177235 1.90865,2.131576 4.26313,2.131563 2.35436,-6e-5 4.26288,-0.954379 4.26286,-2.131563 2e-5,-1.177183 -1.9085,-2.131502 -4.26286,-2.131562 z m 0,0.37551 c 0.10646,10e-7 0.2118,0.0023 0.31582,0.007 1.79169,0.07986 3.19624,0.832438 3.19628,1.749044 -4e-5,0.922217 -1.42182,1.67839 -3.22919,1.750437 -0.0784,0.0031 0.17127,-2.705354 0.0329,-3.499482 -0.0265,-0.152256 -0.5595,-0.0023 -0.57482,-0.0023 -0.0858,2e-6 0.0883,3.505881 0.004,3.502865 -1.82081,-0.06523 -3.25748,-0.824475 -3.25751,-1.751507 3e-5,-0.926335 1.43454,-1.68513 3.25339,-1.751358 0.0855,-0.0031 0.17187,-0.0047 0.25898,-0.0047 z"
       style="opacity:1;fill:#dfba62;stroke:#dfba62;stroke-width:0.0263334;stroke-linejoin:round"
       id="path56"
       sodipodi:nodetypes="ccccccscsscscsc"
       inkscape:label="Bælte spænde" />
  </g>
  <path
     d="m 119.9703,88.988422 c 0.99237,-6.736606 -3.70753,-14.586137 -9.57206,-18.046483 -4.50025,-2.655357 -11.35939,-2.682071 -15.67346,0.266137 -5.17928,3.539483 -8.18366,11.230313 -7.13387,17.415035 1.30091,7.664217 6.96643,17.296059 15.46638,17.455209 8.64729,0.16192 15.74497,-9.160796 16.91301,-17.089898 z"
     style="display:inline;opacity:1;fill:#c19d7b;stroke-width:0.0417532;stroke-linejoin:round"
     id="path111"
     sodipodi:nodetypes="aaaasa"
     inkscape:label="Hoved" />
  <g
     id="g2"
     transform="matrix(11.616506,0,0,11.616506,47.549816,-12.962377)"
     inkscape:label="Nissehue">
    <path
       id="path1-7"
       style="fill:#a11d1d;stroke:#000000;stroke-width:0.0142222;stroke-linecap:round;stroke-linejoin:round;stroke-dasharray:none;stroke-opacity:1"
       inkscape:transform-center-x="0.01721185"
       inkscape:transform-center-y="-1.0107988"
       d="m 6.3773001,3.1684706 c 0.0743,0.00128 -1.1306424,0.2247368 -0.8996504,1.9047295 C 5.702077,6.7054468 6.4095314,8.3063504 6.3483683,8.3625252 5.1918609,7.3357987 4.237593,7.5987146 3.1663664,8.2562828 3.1088391,8.192392 3.5301515,6.6427391 3.973949,5.1683209 4.3489257,3.9225446 6.3019987,3.1671711 6.3773001,3.1684706 Z"
       sodipodi:nodetypes="ssccss" />
    <ellipse
       style="fill:#f6ede4;stroke:#000000;stroke-width:0.00878061;stroke-linecap:round;stroke-linejoin:round;stroke-dasharray:none;stroke-opacity:1"
       id="path2"
       cx="6.530077"
       cy="3.2012887"
       rx="0.5510962"
       ry="0.58954477" />
    <path
       id="path115"
       style="fill:#f6ede4;stroke:#000000;stroke-width:0.000147532;stroke-linecap:round;stroke-linejoin:round;stroke-dasharray:none;stroke-opacity:1"
       d="M 6.2977128,8.9249528 C 5.8996119,8.3810877 5.1134107,7.569134 3.2015146,8.6641311 L 3.093892,8.224072 C 4.1886392,7.5102638 5.288647,7.2488716 6.4047373,8.3705779 Z"
       sodipodi:nodetypes="ccccc" />
  </g>
</svg>
