<?xml version="1.0" encoding="UTF-8" standalone="no"?>
<!-- Created with Inkscape (http://www.inkscape.org/) -->

<svg
   width="150"
   height="150"
   viewBox="0 0 150 150"
   version="1.1"
   id="svg1"
   inkscape:version="1.4.2 (f4327f4, 2025-05-13)"
   sodipodi:docname="Snowflake.svg"
   xml:space="preserve"
   xmlns:inkscape="http://www.inkscape.org/namespaces/inkscape"
   xmlns:sodipodi="http://sodipodi.sourceforge.net/DTD/sodipodi-0.dtd"
   xmlns="http://www.w3.org/2000/svg"
   xmlns:svg="http://www.w3.org/2000/svg"><sodipodi:namedview
     id="namedview1"
     pagecolor="#204226"
     bordercolor="#000000"
     borderopacity="0.25"
     inkscape:showpageshadow="2"
     inkscape:pageopacity="0.0"
     inkscape:pagecheckerboard="0"
     inkscape:deskcolor="#d1d1d1"
     inkscape:document-units="px"
     inkscape:zoom="4.5166667"
     inkscape:cx="61.439114"
     inkscape:cy="90.442804"
     inkscape:window-width="1920"
     inkscape:window-height="1094"
     inkscape:window-x="-11"
     inkscape:window-y="-11"
     inkscape:window-maximized="1"
     inkscape:current-layer="svg1" /><defs
     id="defs1" /><rect
     style="fill:#f0ece1;stroke-width:0.9;stroke-linejoin:round"
     id="rect1"
     width="131.07011"
     height="131.07011"
     x="9.4649429"
     y="9.4649429"
     ry="0.99151504" /><path
     id="rect2"
     style="fill:#000000;stroke:none;stroke-width:4.34238;stroke-linecap:round"
     d="m 75.326136,14.670333 c -1.473795,0 -2.662109,2.099548 -2.662109,4.707031 v 9.324219 L 61.712856,17.750411 c -1.267592,-1.267592 -2.769211,-1.96366 -3.91797,-1.939453 -0.522163,0.011 -0.97121,0.172382 -1.296875,0.498047 -1.042131,1.042131 -0.388698,3.371068 1.455078,5.214844 l 14.710938,14.710937 v 8.429687 L 61.712856,33.711349 c -1.267592,-1.267592 -2.769211,-1.961707 -3.91797,-1.9375 -0.522163,0.011 -0.97121,0.172382 -1.296875,0.498047 -1.042131,1.042131 -0.388698,3.369114 1.455078,5.21289 L 72.664027,52.195723 V 68.281661 L 58.238246,59.953536 52.85348,39.857833 c -0.674869,-2.518645 -2.365485,-4.246681 -3.789062,-3.865234 -0.444868,0.119202 -0.809468,0.426342 -1.080078,0.873047 -0.595342,0.98275 -0.743268,2.629765 -0.279297,4.361328 l 4.009765,14.960937 -7.300781,-4.214844 -5.384765,-20.095702 c -0.674869,-2.518646 -2.363532,-4.248636 -3.78711,-3.867189 -0.444868,0.119202 -0.809468,0.428295 -1.080078,0.875 -0.595342,0.98275 -0.743268,2.629766 -0.279297,4.361329 l 4.007813,14.960937 -6.478516,-3.740234 c -2.258147,-1.303742 -4.669352,-1.325172 -5.40625,-0.04883 -0.736898,1.276344 0.487947,3.354461 2.746094,4.658203 l 6.474609,3.738281 -14.955078,4.007813 c -1.731562,0.463971 -3.083302,1.414918 -3.636718,2.421875 -0.251547,0.457696 -0.337953,0.928176 -0.21875,1.373047 0.381447,1.423581 2.717692,2.032288 5.236328,1.357422 l 20.109375,-5.386717 7.287109,4.207031 -14.955079,4.007812 c -1.731562,0.463971 -3.083302,1.414918 -3.636718,2.421875 -0.251547,0.457696 -0.336,0.928176 -0.216797,1.373047 0.381447,1.423581 2.715739,2.034241 5.234376,1.359375 l 20.109374,-5.388671 13.923828,8.039062 -13.929688,8.041016 -20.095702,-5.384766 c -2.518646,-0.674869 -4.860742,-0.07592 -5.242188,1.347657 -0.119202,0.444868 -0.03476,0.915339 0.216797,1.373047 0.553415,1.006956 1.905155,1.957903 3.636718,2.421874 l 14.960938,4.007813 -7.298828,4.214843 -20.097656,-5.384765 c -2.518645,-0.674869 -4.860741,-0.07592 -5.242187,1.347656 -0.119202,0.444868 -0.0328,0.915339 0.21875,1.373047 0.553415,1.006956 1.905155,1.957904 3.636718,2.421875 l 14.960937,4.009765 -6.478515,3.740228 c -2.258147,1.30374 -3.482991,3.37991 -2.746094,4.656247 0.736898,1.27635 3.148103,1.25492 5.40625,-0.0488 l 6.476563,-3.738277 -4.007813,14.957037 c -0.463971,1.73157 -0.316045,3.37858 0.279297,4.36133 0.270601,0.4467 0.635208,0.75385 1.080078,0.87305 1.423583,0.38145 3.120055,-1.33489 3.794922,-3.85352 l 5.386719,-20.111327 7.291015,-4.208984 -4.009765,14.957021 c -0.463971,1.73156 -0.316045,3.38053 0.279297,4.36328 0.270601,0.44669 0.635208,0.75385 1.080078,0.87305 1.423582,0.38145 3.120054,-1.33488 3.794921,-3.85352 L 58.246058,85.252364 72.664027,76.930099 V 93.586348 L 57.953089,108.29728 c -1.843776,1.84378 -2.497209,4.17272 -1.455078,5.21485 0.325665,0.32567 0.774712,0.48705 1.296875,0.49805 1.148759,0.0242 2.650378,-0.67186 3.91797,-1.93945 l 10.951171,-10.95119 v 8.42774 l -14.710938,14.7129 c -1.843776,1.84378 -2.497209,4.17076 -1.455078,5.21289 0.325665,0.32567 0.774712,0.48705 1.296875,0.49805 1.148759,0.0242 2.650378,-0.67187 3.91797,-1.93946 l 10.951171,-10.95117 v 7.48047 c 0,2.60748 1.188314,4.70508 2.662109,4.70508 1.473796,0 2.660157,-2.0976 2.660157,-4.70508 v -7.47656 l 10.947265,10.94726 c 1.26759,1.2676 2.76921,1.96366 3.91797,1.93946 0.52215,-0.011 0.97121,-0.17238 1.29687,-0.49805 1.04214,-1.04214 0.40237,-3.36912 -1.4414,-5.21289 L 77.986293,109.53947 v -8.41602 l 10.947265,10.94728 c 1.26759,1.2676 2.76921,1.96365 3.91797,1.93945 0.52215,-0.011 0.97121,-0.17238 1.29687,-0.49805 1.04214,-1.04214 0.40237,-3.37108 -1.4414,-5.21485 L 77.986293,93.576583 V 77.502365 l 13.427735,7.751952 5.386722,20.109363 c 0.67486,2.51864 2.37134,4.23497 3.79492,3.85352 0.44486,-0.1192 0.80948,-0.42635 1.08008,-0.87305 0.59534,-0.98275 0.74326,-2.63172 0.27929,-4.36328 l -4.00586,-14.953115 7.28711,4.207031 5.38867,20.109374 c 0.67487,2.51864 2.37135,4.23497 3.79493,3.85352 0.44487,-0.1192 0.80752,-0.42636 1.07812,-0.87305 0.59535,-0.98275 0.74328,-2.62977 0.2793,-4.36133 l -4.00586,-14.955077 8.07227,4.660147 c 2.25815,1.30374 4.66936,1.32517 5.40625,0.0488 0.7369,-1.27634 -0.48794,-3.354457 -2.74609,-4.658197 l -8.07423,-4.662108 14.959,-4.009765 c 1.73157,-0.463971 3.08525,-1.414919 3.63867,-2.421875 0.25155,-0.457708 0.33599,-0.928179 0.21679,-1.373047 -0.38145,-1.423577 -2.72353,-2.022525 -5.24218,-1.347656 l -20.09572,5.384765 -7.30078,-4.214843 14.96094,-4.007813 c 1.73158,-0.463971 3.08331,-1.414918 3.63673,-2.421874 0.25155,-0.457708 0.336,-0.928179 0.2168,-1.373047 -0.38145,-1.423578 -2.72354,-2.022526 -5.2422,-1.347657 l -20.095702,5.384766 -13.92969,-8.042969 13.92187,-8.037109 20.111332,5.386718 c 2.51865,0.674866 4.85294,0.06616 5.23439,-1.357422 0.1192,-0.444871 0.0347,-0.915351 -0.2168,-1.373047 -0.55341,-1.006957 -1.90516,-1.957904 -3.63673,-2.421875 l -14.95703,-4.007782 7.28711,-4.208984 20.11134,5.388672 c 2.51864,0.674866 4.85487,0.06421 5.23632,-1.359375 0.1192,-0.444871 0.0348,-0.913398 -0.21679,-1.371094 -0.55341,-1.006957 -1.90711,-1.957904 -3.63867,-2.421875 l -14.95509,-4.009766 8.07227,-4.660156 c 2.25815,-1.303742 3.48299,-3.379906 2.7461,-4.65625 -0.7369,-1.276344 -3.14811,-1.254914 -5.40625,0.04883 l -8.07618,4.662109 4.00781,-14.960937 c 0.46399,-1.731563 0.31605,-3.378579 -0.2793,-4.361329 -0.27061,-0.446705 -0.63325,-0.755798 -1.07812,-0.875 -1.42357,-0.381447 -3.1142,1.348543 -3.78907,3.867189 l -5.38476,20.095702 -7.30078,4.214844 4.00976,-14.960937 c 0.46398,-1.731563 0.31605,-3.378578 -0.27929,-4.361328 -0.27061,-0.446705 -0.63522,-0.753845 -1.08008,-0.873047 -1.42358,-0.381447 -3.11419,1.346589 -3.78906,3.865234 L 91.421838,59.953536 77.986293,67.711348 V 52.205489 L 92.706998,37.484786 c 1.84377,-1.84377 2.48354,-4.170756 1.4414,-5.21289 -0.32566,-0.325668 -0.77472,-0.487049 -1.29687,-0.498047 -1.14876,-0.02421 -2.65038,0.669909 -3.91797,1.9375 L 77.986293,44.660567 V 36.244552 L 92.706998,21.523849 c 1.84377,-1.84377 2.48354,-4.17271 1.4414,-5.214844 -0.32566,-0.325668 -0.77472,-0.487049 -1.29687,-0.498047 -1.14876,-0.02421 -2.65038,0.671862 -3.91797,1.939453 L 77.986293,28.697676 v -9.320312 c 0,-2.607483 -1.186361,-4.707031 -2.660157,-4.707031 z" /></svg>
