<?xml version="1.0" encoding="UTF-8" standalone="no"?>
<!-- Created with Inkscape (http://www.inkscape.org/) -->

<svg
   width="34.000004"
   height="26.499987"
   viewBox="0 0 34.000005 26.499988"
   version="1.1"
   id="svg1"
   xml:space="preserve"
   xmlns="http://www.w3.org/2000/svg"
   xmlns:svg="http://www.w3.org/2000/svg"><defs
     id="defs1" /><g
     id="g1"
     style="display:none"
     transform="translate(-0.229656,-1.0116176)"><g
       id="g50"
       transform="matrix(2.9042622,0,0,2.7968356,-66.643455,-40.663785)"
       style="display:inline;opacity:1"><path
         id="path48"
         style="display:inline;opacity:1;fill:none;stroke:#dfba62;stroke-width:0.3;stroke-linejoin:round;stroke-dasharray:none"
         d="m 30.239879,15.239524 c -0.719457,-0.0028 -1.207659,1.896258 -1.266713,2.084084 -0.0042,0.01315 -0.618161,-2.55551 -1.606367,-1.787209 -0.807262,0.627622 0.402923,1.504377 0.835938,1.783203 l 0.783203,0.0039 0.771484,0.0039 c 0.463098,-0.240348 1.93323,-1.105648 0.908203,-1.921875 -0.14924,-0.116714 -0.292285,-0.165506 -0.425781,-0.166016 z" /><rect
         style="display:inline;fill:#771616;fill-opacity:1;stroke:none;stroke-width:0.682486;stroke-linejoin:round;stroke-dasharray:none;stroke-opacity:1"
         id="rect48"
         width="6.5239849"
         height="7.1420717"
         x="25.691723"
         y="17.365572"
         ry="0.89923918"
         rx="0.34336764" /><path
         style="display:inline;fill:none;fill-opacity:1;stroke:#dfba62;stroke-width:0.290052;stroke-linejoin:round;stroke-dasharray:none;stroke-opacity:1"
         d="m 28.964471,17.239426 -0.01015,7.324881"
         id="path49" /><path
         style="display:inline;fill:none;fill-opacity:1;stroke:#dfba62;stroke-width:0.27264;stroke-linejoin:round;stroke-dasharray:none;stroke-opacity:1"
         d="m 32.200703,19.921987 -6.526895,-0.01006"
         id="path50" /></g><g
       id="g56"
       transform="matrix(3.1108426,0,0,2.7605295,-76.366541,-45.271557)"
       style="display:inline;opacity:1"><path
         id="path54"
         style="display:inline;opacity:1;fill:none;stroke:#dfba62;stroke-width:0.432715;stroke-linejoin:round;stroke-dasharray:none"
         d="m 24.034921,14.448772 c -1.037733,-0.004 -1.741908,2.735132 -1.827086,3.006049 -0.006,0.01896 -0.891625,-3.686025 -2.316997,-2.577841 -1.164381,0.905271 0.58117,2.169888 1.205743,2.572063 l 1.129679,0.0056 1.112776,0.0056 c 0.667964,-0.346674 2.788458,-1.594769 1.309977,-2.772081 -0.215261,-0.168347 -0.421587,-0.238723 -0.61414,-0.239458 z"
         transform="matrix(0.69329698,0,0,0.69329698,13.576541,8.1769653)" /><rect
         style="display:inline;fill:#771616;fill-opacity:1;stroke:none;stroke-width:0.651797;stroke-linejoin:round;stroke-dasharray:none;stroke-opacity:1"
         id="rect54"
         width="9.6171093"
         height="4.419055"
         x="25.700315"
         y="20.11035"
         ry="0.55639142"
         rx="0.50616366" /><path
         style="display:inline;fill:none;fill-opacity:1;stroke:#dfba62;stroke-width:0.228154;stroke-linejoin:round;stroke-dasharray:none;stroke-opacity:1"
         d="m 28.964471,20.032299 -0.01015,4.532165"
         id="path55" /><path
         style="display:inline;fill:none;fill-opacity:1;stroke:#dfba62;stroke-width:0.331021;stroke-linejoin:round;stroke-dasharray:none;stroke-opacity:1"
         d="m 35.295307,22.303413 -9.621399,-0.01006"
         id="path56" /></g><g
       id="g53"
       transform="matrix(4.2129771,0,0,4.0640719,-104.53963,-72.321099)"
       style="display:inline;opacity:1"><path
         id="path51"
         style="display:inline;opacity:1;fill:none;stroke:#dfba62;stroke-width:0.3;stroke-linejoin:round;stroke-dasharray:none"
         d="m 30.208902,18.194255 c -0.719457,-0.0028 -1.20766,1.896259 -1.266714,2.084085 -0.0042,0.01315 -0.61816,-2.55551 -1.606367,-1.787209 -0.807261,0.627621 0.402924,1.504376 0.835938,1.783203 l 0.783203,0.0039 0.771485,0.0039 c 0.463097,-0.240348 1.933229,-1.105648 0.908203,-1.921875 -0.14924,-0.116715 -0.292285,-0.165506 -0.425782,-0.166016 z" /><rect
         style="display:inline;fill:#771616;fill-opacity:1;stroke:none;stroke-width:0.596256;stroke-linejoin:round;stroke-dasharray:none;stroke-opacity:1"
         id="rect51"
         width="8.0480156"
         height="4.4190197"
         x="24.890518"
         y="20.110367"
         ry="0.55638701"
         rx="0.42357975" /><path
         style="display:inline;fill:none;fill-opacity:1;stroke:#dfba62;stroke-width:0.253405;stroke-linejoin:round;stroke-dasharray:none;stroke-opacity:1"
         d="m 28.927796,20.032317 -0.01252,4.532129"
         id="path52" /><path
         style="display:inline;fill:none;fill-opacity:1;stroke:#dfba62;stroke-width:0.302813;stroke-linejoin:round;stroke-dasharray:none;stroke-opacity:1"
         d="M 32.920025,22.303413 24.86842,22.293353"
         id="path53" /></g><g
       id="g47"
       transform="matrix(4.0506812,0,0,4.0640978,-100.49557,-72.333421)"
       style="display:inline;opacity:1"><path
         id="path45"
         style="display:inline;opacity:1;fill:none;stroke:#dfba62;stroke-width:0.432715;stroke-linejoin:round;stroke-dasharray:none"
         d="m 24.034921,14.448772 c -1.037733,-0.004 -1.741908,2.735132 -1.827086,3.006049 -0.006,0.01896 -0.891625,-3.686025 -2.316997,-2.577841 -1.164381,0.905271 0.58117,2.169888 1.205743,2.572063 l 1.129679,0.0056 1.112776,0.0056 c 0.667964,-0.346674 2.788458,-1.594769 1.309977,-2.772081 -0.215261,-0.168347 -0.421587,-0.238723 -0.61414,-0.239458 z"
         transform="matrix(0.69329698,0,0,0.69329698,13.576541,8.1769653)" /><rect
         style="display:inline;fill:#771616;fill-opacity:1;stroke:none;stroke-width:0.536842;stroke-linejoin:round;stroke-dasharray:none;stroke-opacity:1"
         id="rect45"
         width="6.5239849"
         height="4.419055"
         x="25.691723"
         y="20.11035"
         ry="0.55639142"
         rx="0.34336764" /><path
         style="display:inline;fill:none;fill-opacity:1;stroke:#dfba62;stroke-width:0.228154;stroke-linejoin:round;stroke-dasharray:none;stroke-opacity:1"
         d="m 28.964471,20.032299 -0.01015,4.532165"
         id="path46" /><path
         style="display:inline;fill:none;fill-opacity:1;stroke:#dfba62;stroke-width:0.27264;stroke-linejoin:round;stroke-dasharray:none;stroke-opacity:1"
         d="m 32.200703,22.303413 -6.526895,-0.01006"
         id="path47" /></g></g><g
     id="g13"
     style="display:none"
     transform="translate(-0.22965473,-1.0116176)"><g
       id="g3"
       transform="matrix(2.9042622,0,0,2.7968356,-66.643455,-40.663785)"
       style="display:inline;opacity:1"><path
         id="path1"
         style="display:inline;opacity:1;fill:none;stroke:#61202e;stroke-width:0.3;stroke-linejoin:round;stroke-dasharray:none"
         d="m 30.239879,15.239524 c -0.719457,-0.0028 -1.207659,1.896258 -1.266713,2.084084 -0.0042,0.01315 -0.618161,-2.55551 -1.606367,-1.787209 -0.807262,0.627622 0.402923,1.504377 0.835938,1.783203 l 0.783203,0.0039 0.771484,0.0039 c 0.463098,-0.240348 1.93323,-1.105648 0.908203,-1.921875 -0.14924,-0.116714 -0.292285,-0.165506 -0.425781,-0.166016 z" /><rect
         style="display:inline;fill:#dfba62;fill-opacity:1;stroke:none;stroke-width:0.682486;stroke-linejoin:round;stroke-dasharray:none;stroke-opacity:1"
         id="rect1"
         width="6.5239849"
         height="7.1420717"
         x="25.691723"
         y="17.365572"
         ry="0.89923918"
         rx="0.34336764" /><path
         style="display:inline;fill:none;fill-opacity:1;stroke:#61202e;stroke-width:0.290052;stroke-linejoin:round;stroke-dasharray:none;stroke-opacity:1"
         d="m 28.964471,17.239426 -0.01015,7.324881"
         id="path2" /><path
         style="display:inline;fill:none;fill-opacity:1;stroke:#61202e;stroke-width:0.27264;stroke-linejoin:round;stroke-dasharray:none;stroke-opacity:1"
         d="m 32.200703,19.921987 -6.526895,-0.01006"
         id="path3" /></g><g
       id="g6"
       transform="matrix(3.1108426,0,0,2.7605295,-76.366541,-45.271557)"
       style="display:inline;opacity:1"><path
         id="path4"
         style="display:inline;opacity:1;fill:none;stroke:#61202e;stroke-width:0.432715;stroke-linejoin:round;stroke-dasharray:none"
         d="m 24.034921,14.448772 c -1.037733,-0.004 -1.741908,2.735132 -1.827086,3.006049 -0.006,0.01896 -0.891625,-3.686025 -2.316997,-2.577841 -1.164381,0.905271 0.58117,2.169888 1.205743,2.572063 l 1.129679,0.0056 1.112776,0.0056 c 0.667964,-0.346674 2.788458,-1.594769 1.309977,-2.772081 -0.215261,-0.168347 -0.421587,-0.238723 -0.61414,-0.239458 z"
         transform="matrix(0.69329698,0,0,0.69329698,13.576541,8.1769653)" /><rect
         style="display:inline;fill:#dfba62;fill-opacity:1;stroke:none;stroke-width:0.651797;stroke-linejoin:round;stroke-dasharray:none;stroke-opacity:1"
         id="rect4"
         width="9.6171093"
         height="4.419055"
         x="25.700315"
         y="20.11035"
         ry="0.55639142"
         rx="0.50616366" /><path
         style="display:inline;fill:none;fill-opacity:1;stroke:#61202e;stroke-width:0.228154;stroke-linejoin:round;stroke-dasharray:none;stroke-opacity:1"
         d="m 28.964471,20.032299 -0.01015,4.532165"
         id="path5" /><path
         style="display:inline;fill:none;fill-opacity:1;stroke:#61202e;stroke-width:0.331021;stroke-linejoin:round;stroke-dasharray:none;stroke-opacity:1"
         d="m 35.295307,22.303413 -9.621399,-0.01006"
         id="path6" /></g><g
       id="g9"
       transform="matrix(4.2129771,0,0,4.0640741,-104.53963,-72.321138)"
       style="display:inline;opacity:1"><path
         id="path7"
         style="display:inline;opacity:1;fill:none;stroke:#61202e;stroke-width:0.3;stroke-linejoin:round;stroke-dasharray:none"
         d="m 30.208902,18.194255 c -0.719457,-0.0028 -1.20766,1.896259 -1.266714,2.084085 -0.0042,0.01315 -0.61816,-2.55551 -1.606367,-1.787209 -0.807261,0.627621 0.402924,1.504376 0.835938,1.783203 l 0.783203,0.0039 0.771485,0.0039 c 0.463097,-0.240348 1.933229,-1.105648 0.908203,-1.921875 -0.14924,-0.116715 -0.292285,-0.165506 -0.425782,-0.166016 z" /><rect
         style="display:inline;fill:#dfba62;fill-opacity:1;stroke:none;stroke-width:0.596256;stroke-linejoin:round;stroke-dasharray:none;stroke-opacity:1"
         id="rect7"
         width="8.0480156"
         height="4.4190197"
         x="24.890518"
         y="20.110367"
         ry="0.55638701"
         rx="0.42357975" /><path
         style="display:inline;fill:none;fill-opacity:1;stroke:#61202e;stroke-width:0.253405;stroke-linejoin:round;stroke-dasharray:none;stroke-opacity:1"
         d="m 28.927796,20.032317 -0.01252,4.532129"
         id="path8" /><path
         style="display:inline;fill:none;fill-opacity:1;stroke:#61202e;stroke-width:0.302813;stroke-linejoin:round;stroke-dasharray:none;stroke-opacity:1"
         d="M 32.920025,22.303413 24.86842,22.293353"
         id="path9" /></g><g
       id="g12"
       transform="matrix(4.0506812,0,0,4.0640978,-100.49557,-72.333421)"
       style="display:inline;opacity:1"><path
         id="path10"
         style="display:inline;opacity:1;fill:none;stroke:#61202e;stroke-width:0.432715;stroke-linejoin:round;stroke-dasharray:none"
         d="m 24.034921,14.448772 c -1.037733,-0.004 -1.741908,2.735132 -1.827086,3.006049 -0.006,0.01896 -0.891625,-3.686025 -2.316997,-2.577841 -1.164381,0.905271 0.58117,2.169888 1.205743,2.572063 l 1.129679,0.0056 1.112776,0.0056 c 0.667964,-0.346674 2.788458,-1.594769 1.309977,-2.772081 -0.215261,-0.168347 -0.421587,-0.238723 -0.61414,-0.239458 z"
         transform="matrix(0.69329698,0,0,0.69329698,13.576541,8.1769653)" /><rect
         style="display:inline;fill:#dfba62;fill-opacity:1;stroke:none;stroke-width:0.536842;stroke-linejoin:round;stroke-dasharray:none;stroke-opacity:1"
         id="rect10"
         width="6.5239849"
         height="4.419055"
         x="25.691723"
         y="20.11035"
         ry="0.55639142"
         rx="0.34336764" /><path
         style="display:inline;fill:none;fill-opacity:1;stroke:#61202e;stroke-width:0.228154;stroke-linejoin:round;stroke-dasharray:none;stroke-opacity:1"
         d="m 28.964471,20.032299 -0.01015,4.532165"
         id="path11" /><path
         style="display:inline;fill:none;fill-opacity:1;stroke:#61202e;stroke-width:0.27264;stroke-linejoin:round;stroke-dasharray:none;stroke-opacity:1"
         d="m 32.200703,22.303413 -6.526895,-0.01006"
         id="path12" /></g></g><g
     id="g25"
     style="display:none"
     transform="matrix(1.0016369,0,0,1.0016369,-0.23004367,-1.0136955)"><g
       id="g15"
       transform="matrix(2.8995159,0,0,2.792265,-66.521606,-40.594818)"
       style="display:inline;opacity:1"><path
         id="path13"
         style="display:inline;opacity:1;fill:none;stroke:#dfba62;stroke-width:0.3;stroke-linejoin:round;stroke-dasharray:none"
         d="m 30.239879,15.239524 c -0.719457,-0.0028 -1.207659,1.896258 -1.266713,2.084084 -0.0042,0.01315 -0.618161,-2.55551 -1.606367,-1.787209 -0.807262,0.627622 0.402923,1.504377 0.835938,1.783203 l 0.783203,0.0039 0.771484,0.0039 c 0.463098,-0.240348 1.93323,-1.105648 0.908203,-1.921875 -0.14924,-0.116714 -0.292285,-0.165506 -0.425781,-0.166016 z" /><rect
         style="display:inline;fill:#4c7a58;fill-opacity:1;stroke:none;stroke-width:0.682486;stroke-linejoin:round;stroke-dasharray:none;stroke-opacity:1"
         id="rect13"
         width="6.5239849"
         height="7.1420717"
         x="25.691723"
         y="17.365572"
         ry="0.89923918"
         rx="0.34336764" /><path
         style="display:inline;fill:none;fill-opacity:1;stroke:#dfba62;stroke-width:0.290052;stroke-linejoin:round;stroke-dasharray:none;stroke-opacity:1"
         d="m 28.964471,17.239426 -0.01015,7.324881"
         id="path14" /><path
         style="display:inline;fill:none;fill-opacity:1;stroke:#dfba62;stroke-width:0.27264;stroke-linejoin:round;stroke-dasharray:none;stroke-opacity:1"
         d="m 32.200703,19.921987 -6.526895,-0.01006"
         id="path15" /></g><g
       id="g18"
       transform="matrix(3.1057586,0,0,2.7560182,-76.236015,-45.190453)"
       style="display:inline;opacity:1"><path
         id="path16"
         style="display:inline;opacity:1;fill:none;stroke:#dfba62;stroke-width:0.432715;stroke-linejoin:round;stroke-dasharray:none"
         d="m 24.034921,14.448772 c -1.037733,-0.004 -1.741908,2.735132 -1.827086,3.006049 -0.006,0.01896 -0.891625,-3.686025 -2.316997,-2.577841 -1.164381,0.905271 0.58117,2.169888 1.205743,2.572063 l 1.129679,0.0056 1.112776,0.0056 c 0.667964,-0.346674 2.788458,-1.594769 1.309977,-2.772081 -0.215261,-0.168347 -0.421587,-0.238723 -0.61414,-0.239458 z"
         transform="matrix(0.69329698,0,0,0.69329698,13.576541,8.1769653)" /><rect
         style="display:inline;fill:#4c7a58;fill-opacity:1;stroke:none;stroke-width:0.651797;stroke-linejoin:round;stroke-dasharray:none;stroke-opacity:1"
         id="rect16"
         width="9.6171093"
         height="4.419055"
         x="25.700315"
         y="20.11035"
         ry="0.55639142"
         rx="0.50616366" /><path
         style="display:inline;fill:none;fill-opacity:1;stroke:#dfba62;stroke-width:0.228154;stroke-linejoin:round;stroke-dasharray:none;stroke-opacity:1"
         d="m 28.964471,20.032299 -0.01015,4.532165"
         id="path17" /><path
         style="display:inline;fill:none;fill-opacity:1;stroke:#dfba62;stroke-width:0.331021;stroke-linejoin:round;stroke-dasharray:none;stroke-opacity:1"
         d="m 35.295307,22.303413 -9.621399,-0.01006"
         id="path18" /></g><g
       id="g21"
       transform="matrix(4.2060914,0,0,4.0574325,-104.36838,-72.201295)"
       style="display:inline;opacity:1"><path
         id="path19"
         style="display:inline;opacity:1;fill:none;stroke:#dfba62;stroke-width:0.3;stroke-linejoin:round;stroke-dasharray:none"
         d="m 30.208902,18.194255 c -0.719457,-0.0028 -1.20766,1.896259 -1.266714,2.084085 -0.0042,0.01315 -0.61816,-2.55551 -1.606367,-1.787209 -0.807261,0.627621 0.402924,1.504376 0.835938,1.783203 l 0.783203,0.0039 0.771485,0.0039 c 0.463097,-0.240348 1.933229,-1.105648 0.908203,-1.921875 -0.14924,-0.116715 -0.292285,-0.165506 -0.425782,-0.166016 z" /><rect
         style="display:inline;fill:#4c7a58;fill-opacity:1;stroke:none;stroke-width:0.596256;stroke-linejoin:round;stroke-dasharray:none;stroke-opacity:1"
         id="rect19"
         width="8.0480156"
         height="4.4190197"
         x="24.890518"
         y="20.110367"
         ry="0.55638701"
         rx="0.42357975" /><path
         style="display:inline;fill:none;fill-opacity:1;stroke:#dfba62;stroke-width:0.253405;stroke-linejoin:round;stroke-dasharray:none;stroke-opacity:1"
         d="m 28.927796,20.032317 -0.01252,4.532129"
         id="path20" /><path
         style="display:inline;fill:none;fill-opacity:1;stroke:#dfba62;stroke-width:0.302813;stroke-linejoin:round;stroke-dasharray:none;stroke-opacity:1"
         d="M 32.920025,22.303413 24.86842,22.293353"
         id="path21" /></g><g
       id="g24"
       transform="matrix(4.0440614,0,0,4.0574554,-100.32561,-72.213564)"
       style="display:inline;opacity:1"><path
         id="path22"
         style="display:inline;opacity:1;fill:none;stroke:#dfba62;stroke-width:0.432715;stroke-linejoin:round;stroke-dasharray:none"
         d="m 24.034921,14.448772 c -1.037733,-0.004 -1.741908,2.735132 -1.827086,3.006049 -0.006,0.01896 -0.891625,-3.686025 -2.316997,-2.577841 -1.164381,0.905271 0.58117,2.169888 1.205743,2.572063 l 1.129679,0.0056 1.112776,0.0056 c 0.667964,-0.346674 2.788458,-1.594769 1.309977,-2.772081 -0.215261,-0.168347 -0.421587,-0.238723 -0.61414,-0.239458 z"
         transform="matrix(0.69329698,0,0,0.69329698,13.576541,8.1769653)" /><rect
         style="display:inline;fill:#4c7a58;fill-opacity:1;stroke:none;stroke-width:0.536842;stroke-linejoin:round;stroke-dasharray:none;stroke-opacity:1"
         id="rect22"
         width="6.5239849"
         height="4.419055"
         x="25.691723"
         y="20.11035"
         ry="0.55639142"
         rx="0.34336764" /><path
         style="display:inline;fill:none;fill-opacity:1;stroke:#dfba62;stroke-width:0.228154;stroke-linejoin:round;stroke-dasharray:none;stroke-opacity:1"
         d="m 28.964471,20.032299 -0.01015,4.532165"
         id="path23" /><path
         style="display:inline;fill:none;fill-opacity:1;stroke:#dfba62;stroke-width:0.27264;stroke-linejoin:round;stroke-dasharray:none;stroke-opacity:1"
         d="m 32.200703,22.303413 -6.526895,-0.01006"
         id="path24" /></g></g><g
     id="g37"
     style="display:inline"
     transform="matrix(1.0016369,0,0,1.0016393,-0.23005013,-1.0136619)"><g
       id="g27"
       transform="matrix(2.8995157,0,0,2.7922504,-66.5216,-40.594596)"
       style="display:none;opacity:1"><path
         id="path25"
         style="display:inline;opacity:1;fill:none;stroke:#dfba62;stroke-width:0.3;stroke-linejoin:round;stroke-dasharray:none"
         d="m 30.239879,15.239524 c -0.719457,-0.0028 -1.207659,1.896258 -1.266713,2.084084 -0.0042,0.01315 -0.618161,-2.55551 -1.606367,-1.787209 -0.807262,0.627622 0.402923,1.504377 0.835938,1.783203 l 0.783203,0.0039 0.771484,0.0039 c 0.463098,-0.240348 1.93323,-1.105648 0.908203,-1.921875 -0.14924,-0.116714 -0.292285,-0.165506 -0.425781,-0.166016 z" /><rect
         style="display:inline;fill:#4866b1;fill-opacity:1;stroke:none;stroke-width:0.682486;stroke-linejoin:round;stroke-dasharray:none;stroke-opacity:1"
         id="rect25"
         width="6.5239849"
         height="7.1420717"
         x="25.691723"
         y="17.365572"
         ry="0.89923918"
         rx="0.34336764" /><path
         style="display:inline;fill:none;fill-opacity:1;stroke:#dfba62;stroke-width:0.290052;stroke-linejoin:round;stroke-dasharray:none;stroke-opacity:1"
         d="m 28.964471,17.239426 -0.01015,7.324881"
         id="path26" /><path
         style="display:inline;fill:none;fill-opacity:1;stroke:#dfba62;stroke-width:0.27264;stroke-linejoin:round;stroke-dasharray:none;stroke-opacity:1"
         d="m 32.200703,19.921987 -6.526895,-0.01006"
         id="path27" /></g><g
       id="g30"
       transform="matrix(3.1057577,0,0,2.7559807,-76.235991,-45.190116)"
       style="display:none;opacity:1"><path
         id="path28"
         style="display:inline;opacity:1;fill:none;stroke:#dfba62;stroke-width:0.432715;stroke-linejoin:round;stroke-dasharray:none"
         d="m 24.034921,14.448772 c -1.037733,-0.004 -1.741908,2.735132 -1.827086,3.006049 -0.006,0.01896 -0.891625,-3.686025 -2.316997,-2.577841 -1.164381,0.905271 0.58117,2.169888 1.205743,2.572063 l 1.129679,0.0056 1.112776,0.0056 c 0.667964,-0.346674 2.788458,-1.594769 1.309977,-2.772081 -0.215261,-0.168347 -0.421587,-0.238723 -0.61414,-0.239458 z"
         transform="matrix(0.69329698,0,0,0.69329698,13.576541,8.1769653)" /><rect
         style="display:inline;fill:#4866b1;fill-opacity:1;stroke:none;stroke-width:0.651797;stroke-linejoin:round;stroke-dasharray:none;stroke-opacity:1"
         id="rect28"
         width="9.6171093"
         height="4.419055"
         x="25.700315"
         y="20.11035"
         ry="0.55639142"
         rx="0.50616366" /><path
         style="display:inline;fill:none;fill-opacity:1;stroke:#dfba62;stroke-width:0.228154;stroke-linejoin:round;stroke-dasharray:none;stroke-opacity:1"
         d="m 28.964471,20.032299 -0.01015,4.532165"
         id="path29" /><path
         style="display:inline;fill:none;fill-opacity:1;stroke:#dfba62;stroke-width:0.331021;stroke-linejoin:round;stroke-dasharray:none;stroke-opacity:1"
         d="m 35.295307,22.303413 -9.621399,-0.01006"
         id="path30" /></g><g
       id="g33"
       transform="matrix(4.2060923,0,0,4.0574194,-104.3684,-72.20106)"
       style="display:inline;opacity:1"><path
         id="path31"
         style="display:inline;opacity:1;fill:none;stroke:#dfba62;stroke-width:0.3;stroke-linejoin:round;stroke-dasharray:none"
         d="m 30.208902,18.194255 c -0.719457,-0.0028 -1.20766,1.896259 -1.266714,2.084085 -0.0042,0.01315 -0.61816,-2.55551 -1.606367,-1.787209 -0.807261,0.627621 0.402924,1.504376 0.835938,1.783203 l 0.783203,0.0039 0.771485,0.0039 c 0.463097,-0.240348 1.933229,-1.105648 0.908203,-1.921875 -0.14924,-0.116715 -0.292285,-0.165506 -0.425782,-0.166016 z" /><rect
         style="display:inline;fill:#4866b1;fill-opacity:1;stroke:none;stroke-width:0.596256;stroke-linejoin:round;stroke-dasharray:none;stroke-opacity:1"
         id="rect31"
         width="8.0480156"
         height="4.4190197"
         x="24.890518"
         y="20.110367"
         ry="0.55638701"
         rx="0.42357975" /><path
         style="display:inline;fill:none;fill-opacity:1;stroke:#dfba62;stroke-width:0.253405;stroke-linejoin:round;stroke-dasharray:none;stroke-opacity:1"
         d="m 28.927796,20.032317 -0.01252,4.532129"
         id="path32" /><path
         style="display:inline;fill:none;fill-opacity:1;stroke:#dfba62;stroke-width:0.302813;stroke-linejoin:round;stroke-dasharray:none;stroke-opacity:1"
         d="M 32.920025,22.303413 24.86842,22.293353"
         id="path33" /></g><g
       id="g36"
       transform="matrix(4.0440614,0,0,4.0574554,-100.32561,-72.213564)"
       style="display:none;opacity:1"><path
         id="path34"
         style="display:inline;opacity:1;fill:none;stroke:#dfba62;stroke-width:0.432715;stroke-linejoin:round;stroke-dasharray:none"
         d="m 24.034921,14.448772 c -1.037733,-0.004 -1.741908,2.735132 -1.827086,3.006049 -0.006,0.01896 -0.891625,-3.686025 -2.316997,-2.577841 -1.164381,0.905271 0.58117,2.169888 1.205743,2.572063 l 1.129679,0.0056 1.112776,0.0056 c 0.667964,-0.346674 2.788458,-1.594769 1.309977,-2.772081 -0.215261,-0.168347 -0.421587,-0.238723 -0.61414,-0.239458 z"
         transform="matrix(0.69329698,0,0,0.69329698,13.576541,8.1769653)" /><rect
         style="display:inline;fill:#4866b1;fill-opacity:1;stroke:none;stroke-width:0.536842;stroke-linejoin:round;stroke-dasharray:none;stroke-opacity:1"
         id="rect34"
         width="6.5239849"
         height="4.419055"
         x="25.691723"
         y="20.11035"
         ry="0.55639142"
         rx="0.34336764" /><path
         style="display:inline;fill:none;fill-opacity:1;stroke:#dfba62;stroke-width:0.228154;stroke-linejoin:round;stroke-dasharray:none;stroke-opacity:1"
         d="m 28.964471,20.032299 -0.01015,4.532165"
         id="path35" /><path
         style="display:inline;fill:none;fill-opacity:1;stroke:#dfba62;stroke-width:0.27264;stroke-linejoin:round;stroke-dasharray:none;stroke-opacity:1"
         d="m 32.200703,22.303413 -6.526895,-0.01006"
         id="path36" /></g></g></svg>
